M48
; DRILL file KiCad 10.0.5 date 2026-08-21T21:46:48
; FORMAT={-:-/ absolute / metric / decimal}
; #@! TF.CreationDate,2026-08-21T21:46:48+10:00
; #@! TF.GenerationSoftware,Kicad,Pcbnew,10.0.5
; #@! TF.FileFunction,Plated,1,2,PTH
FMAT,2
METRIC
; #@! TA.AperFunction,Plated,PTH,ViaDrill
T1C0.300
; #@! TA.AperFunction,Plated,PTH,ComponentDrill
T2C1.000
; #@! TA.AperFunction,Plated,PTH,ComponentDrill
T3C1.200
; #@! TA.AperFunction,Plated,PTH,ComponentDrill
T4C2.600
%
G90
G05
T1
X57.658Y-80.899
X76.454Y-84.836
X90.805Y-85.344
X109.855Y-85.852
X128.905Y-86.487
X152.527Y-86.868
X167.005Y-87.249
X186.055Y-87.757
X205.105Y-88.265
X224.155Y-88.646
X243.205Y-89.281
X262.255Y-89.916
X301.752Y-52.831
X318.008Y-47.117
X351.536Y-96.012
X351.536Y-100.076
X353.441Y-95.25
X353.441Y-98.171
X376.301Y-114.046
X384.048Y-72.39
T2
X309.031Y-48.619
X309.031Y-63.119
X311.531Y-63.119
X314.031Y-48.619
X314.031Y-63.119
X325.882Y-42.418
X325.882Y-44.958
X325.882Y-47.498
X325.882Y-50.038
X325.882Y-52.578
X325.882Y-55.118
X325.882Y-57.658
X325.882Y-60.198
X325.882Y-62.738
X325.882Y-65.278
X325.882Y-67.818
X325.882Y-70.358
X325.882Y-72.898
X325.882Y-75.438
X325.882Y-77.978
X325.882Y-80.518
X325.882Y-83.058
X325.882Y-85.598
X325.882Y-88.138
X325.882Y-90.678
X334.772Y-100.61
X337.312Y-100.61
X339.852Y-100.61
X342.392Y-100.61
X343.662Y-42.418
X343.662Y-44.958
X343.662Y-47.498
X343.662Y-50.038
X343.662Y-52.578
X343.662Y-55.118
X343.662Y-57.658
X343.662Y-60.198
X343.662Y-62.738
X343.662Y-65.278
X343.662Y-67.818
X343.662Y-70.358
X343.662Y-72.898
X343.662Y-75.438
X343.662Y-77.978
X343.662Y-80.518
X343.662Y-83.058
X343.662Y-85.598
X343.662Y-88.138
X343.662Y-90.678
T3
X52.705Y-80.853
X52.705Y-157.053
X56.835Y-78.103
X56.835Y-154.303
X57.467Y-61.803
X57.467Y-99.903
X59.849Y-118.953
X61.597Y-59.053
X61.597Y-97.153
X63.979Y-116.203
X64.611Y-138.003
X68.741Y-135.253
X71.755Y-80.853
X71.755Y-157.053
X75.885Y-78.103
X75.885Y-154.303
X81.28Y-61.803
X81.28Y-99.903
X85.41Y-59.053
X85.41Y-97.153
X86.042Y-118.953
X90.172Y-116.203
X90.805Y-80.853
X90.805Y-157.053
X94.935Y-78.103
X94.935Y-154.303
X95.567Y-138.003
X99.697Y-135.253
X100.33Y-61.803
X100.33Y-99.903
X104.46Y-59.053
X104.46Y-97.153
X105.093Y-118.953
X109.222Y-116.203
X109.855Y-80.853
X112.236Y-157.053
X113.985Y-78.103
X114.617Y-138.003
X116.366Y-154.303
X118.747Y-135.253
X119.38Y-61.803
X119.38Y-99.903
X123.51Y-59.053
X123.51Y-97.153
X124.142Y-118.953
X128.273Y-116.203
X128.905Y-80.853
X133.035Y-78.103
X133.667Y-138.003
X137.797Y-135.253
X138.43Y-61.803
X138.43Y-99.903
X142.56Y-59.053
X142.56Y-97.153
X143.192Y-118.953
X147.322Y-116.203
X147.955Y-80.853
X152.085Y-78.103
X152.718Y-138.003
X156.847Y-135.253
X157.48Y-61.803
X157.48Y-99.903
X161.61Y-59.053
X161.61Y-97.153
X162.243Y-118.953
X166.373Y-116.203
X167.005Y-80.853
X171.135Y-78.103
X171.767Y-138.003
X175.897Y-135.253
X176.53Y-61.803
X176.53Y-99.903
X180.66Y-59.053
X180.66Y-97.153
X181.292Y-118.953
X183.674Y-157.053
X185.422Y-116.203
X186.055Y-80.853
X187.804Y-154.303
X190.185Y-78.103
X190.817Y-138.003
X194.947Y-135.253
X195.58Y-61.803
X195.58Y-99.903
X199.71Y-59.053
X199.71Y-97.153
X200.343Y-118.953
X204.472Y-116.203
X205.105Y-80.853
X209.235Y-78.103
X209.867Y-138.003
X213.998Y-135.253
X214.63Y-61.803
X214.63Y-99.903
X218.76Y-59.053
X218.76Y-97.153
X219.392Y-118.953
X223.522Y-116.203
X224.155Y-80.853
X228.285Y-78.103
X228.917Y-138.003
X233.047Y-135.253
X233.68Y-61.803
X233.68Y-99.903
X237.81Y-59.053
X237.81Y-97.153
X238.442Y-118.953
X242.572Y-116.203
X243.205Y-80.853
X247.335Y-78.103
X247.968Y-138.003
X252.097Y-135.253
X252.73Y-61.803
X252.73Y-99.903
X252.73Y-157.053
X256.86Y-59.053
X256.86Y-97.153
X256.86Y-154.303
X257.493Y-118.953
X261.623Y-116.203
X262.255Y-80.853
X266.385Y-78.103
X267.017Y-138.003
X271.147Y-135.253
X271.78Y-61.803
X271.78Y-99.903
X271.78Y-157.053
X275.91Y-59.053
X275.91Y-97.153
X275.91Y-154.303
X276.542Y-118.953
X280.673Y-116.203
X281.305Y-80.853
X285.435Y-78.103
X290.83Y-61.803
X290.83Y-99.903
X290.83Y-157.053
X294.96Y-59.053
X294.96Y-97.153
X294.96Y-154.303
X297.974Y-138.003
X302.104Y-135.253
X302.736Y-118.953
X305.118Y-80.853
X306.866Y-116.203
X309.248Y-78.103
X309.88Y-99.903
X309.88Y-157.053
X314.01Y-97.153
X314.01Y-154.303
X338.455Y-157.053
X342.585Y-154.303
X357.505Y-71.328
X357.505Y-90.378
X357.505Y-109.428
X357.505Y-138.003
X357.505Y-157.053
X361.635Y-68.578
X361.635Y-87.628
X361.635Y-106.678
X361.635Y-135.253
X361.635Y-154.303
X376.555Y-71.328
X376.555Y-90.378
X376.555Y-109.428
X376.555Y-157.053
X380.685Y-68.578
X380.685Y-87.628
X380.685Y-106.678
X380.685Y-154.303
T4
X305.931Y-55.619
X317.131Y-55.619
M30
