M48
; DRILL file KiCad 10.0.5 date 2026-08-21T21:46:48
; FORMAT={-:-/ absolute / metric / decimal}
; #@! TF.CreationDate,2026-08-21T21:46:48+10:00
; #@! TF.GenerationSoftware,Kicad,Pcbnew,10.0.5
; #@! TF.FileFunction,NonPlated,1,2,NPTH
FMAT,2
METRIC
; #@! TA.AperFunction,NonPlated,NPTH,ComponentDrill
T1C2.300
; #@! TA.AperFunction,NonPlated,NPTH,ComponentDrill
T2C6.250
%
G90
G05
T1
X52.705Y-78.503
X52.705Y-154.703
X57.467Y-59.453
X57.467Y-97.553
X59.849Y-116.603
X64.611Y-135.653
X71.755Y-78.503
X71.755Y-154.703
X81.28Y-59.453
X81.28Y-97.553
X86.042Y-116.603
X90.805Y-78.503
X90.805Y-154.703
X95.567Y-135.653
X100.33Y-59.453
X100.33Y-97.553
X105.093Y-116.603
X109.855Y-78.503
X112.236Y-154.703
X114.617Y-135.653
X119.38Y-59.453
X119.38Y-97.553
X124.142Y-116.603
X128.905Y-78.503
X133.667Y-135.653
X138.43Y-59.453
X138.43Y-97.553
X143.192Y-116.603
X147.955Y-78.503
X152.718Y-135.653
X157.48Y-59.453
X157.48Y-97.553
X162.243Y-116.603
X167.005Y-78.503
X171.767Y-135.653
X176.53Y-59.453
X176.53Y-97.553
X181.292Y-116.603
X183.674Y-154.703
X186.055Y-78.503
X190.817Y-135.653
X195.58Y-59.453
X195.58Y-97.553
X200.343Y-116.603
X205.105Y-78.503
X209.867Y-135.653
X214.63Y-59.453
X214.63Y-97.553
X219.392Y-116.603
X224.155Y-78.503
X228.917Y-135.653
X233.68Y-59.453
X233.68Y-97.553
X238.442Y-116.603
X243.205Y-78.503
X247.968Y-135.653
X252.73Y-59.453
X252.73Y-97.553
X252.73Y-154.703
X257.493Y-116.603
X262.255Y-78.503
X267.017Y-135.653
X271.78Y-59.453
X271.78Y-97.553
X271.78Y-154.703
X276.542Y-116.603
X281.305Y-78.503
X290.83Y-59.453
X290.83Y-97.553
X290.83Y-154.703
X297.974Y-135.653
X302.736Y-116.603
X305.118Y-78.503
X309.88Y-97.553
X309.88Y-154.703
X338.455Y-154.703
X357.505Y-68.978
X357.505Y-88.028
X357.505Y-107.078
X357.505Y-135.653
X357.505Y-154.703
X376.555Y-68.978
X376.555Y-88.028
X376.555Y-107.078
X376.555Y-154.703
T2
X52.705Y-74.803
X52.705Y-151.003
X57.467Y-55.753
X57.467Y-93.853
X59.849Y-112.903
X64.611Y-131.953
X71.755Y-74.803
X71.755Y-151.003
X81.28Y-55.753
X81.28Y-93.853
X86.042Y-112.903
X90.805Y-74.803
X90.805Y-151.003
X95.567Y-131.953
X100.33Y-55.753
X100.33Y-93.853
X105.093Y-112.903
X109.855Y-74.803
X112.236Y-151.003
X114.617Y-131.953
X119.38Y-55.753
X119.38Y-93.853
X124.142Y-112.903
X128.905Y-74.803
X133.667Y-131.953
X138.43Y-55.753
X138.43Y-93.853
X143.192Y-112.903
X147.955Y-74.803
X152.718Y-131.953
X157.48Y-55.753
X157.48Y-93.853
X162.243Y-112.903
X167.005Y-74.803
X171.767Y-131.953
X176.53Y-55.753
X176.53Y-93.853
X181.292Y-112.903
X183.674Y-151.003
X186.055Y-74.803
X190.817Y-131.953
X195.58Y-55.753
X195.58Y-93.853
X200.343Y-112.903
X205.105Y-74.803
X209.867Y-131.953
X214.63Y-55.753
X214.63Y-93.853
X219.392Y-112.903
X224.155Y-74.803
X228.917Y-131.953
X233.68Y-55.753
X233.68Y-93.853
X238.442Y-112.903
X243.205Y-74.803
X247.968Y-131.953
X252.73Y-55.753
X252.73Y-93.853
X252.73Y-151.003
X257.493Y-112.903
X262.255Y-74.803
X267.017Y-131.953
X271.78Y-55.753
X271.78Y-93.853
X271.78Y-151.003
X276.542Y-112.903
X281.305Y-74.803
X290.83Y-55.753
X290.83Y-93.853
X290.83Y-151.003
X297.974Y-131.953
X302.736Y-112.903
X305.118Y-74.803
X309.88Y-93.853
X309.88Y-151.003
X338.455Y-151.003
X357.505Y-65.278
X357.505Y-84.328
X357.505Y-103.378
X357.505Y-131.953
X357.505Y-151.003
X376.555Y-65.278
X376.555Y-84.328
X376.555Y-103.378
X376.555Y-151.003
M30
