%TF.GenerationSoftware,KiCad,Pcbnew,10.0.5*%
%TF.CreationDate,2026-08-21T21:46:46+10:00*%
%TF.ProjectId,keeb,6b656562-2e6b-4696-9361-645f70636258,rev?*%
%TF.SameCoordinates,Original*%
%TF.FileFunction,Legend,Bot*%
%TF.FilePolarity,Positive*%
%FSLAX46Y46*%
G04 Gerber Fmt 4.6, Leading zero omitted, Abs format (unit mm)*
G04 Created by KiCad (PCBNEW 10.0.5) date 2026-08-21 21:46:46*
%MOMM*%
%LPD*%
G01*
G04 APERTURE LIST*
%ADD10C,0.150000*%
%ADD11C,0.120000*%
G04 APERTURE END LIST*
D10*
X213322766Y-46473680D02*
X213370385Y-46521300D01*
X213370385Y-46521300D02*
X213513242Y-46568919D01*
X213513242Y-46568919D02*
X213608480Y-46568919D01*
X213608480Y-46568919D02*
X213751337Y-46521300D01*
X213751337Y-46521300D02*
X213846575Y-46426061D01*
X213846575Y-46426061D02*
X213894194Y-46330823D01*
X213894194Y-46330823D02*
X213941813Y-46140347D01*
X213941813Y-46140347D02*
X213941813Y-45997490D01*
X213941813Y-45997490D02*
X213894194Y-45807014D01*
X213894194Y-45807014D02*
X213846575Y-45711776D01*
X213846575Y-45711776D02*
X213751337Y-45616538D01*
X213751337Y-45616538D02*
X213608480Y-45568919D01*
X213608480Y-45568919D02*
X213513242Y-45568919D01*
X213513242Y-45568919D02*
X213370385Y-45616538D01*
X213370385Y-45616538D02*
X213322766Y-45664157D01*
X212465623Y-45568919D02*
X212656099Y-45568919D01*
X212656099Y-45568919D02*
X212751337Y-45616538D01*
X212751337Y-45616538D02*
X212798956Y-45664157D01*
X212798956Y-45664157D02*
X212894194Y-45807014D01*
X212894194Y-45807014D02*
X212941813Y-45997490D01*
X212941813Y-45997490D02*
X212941813Y-46378442D01*
X212941813Y-46378442D02*
X212894194Y-46473680D01*
X212894194Y-46473680D02*
X212846575Y-46521300D01*
X212846575Y-46521300D02*
X212751337Y-46568919D01*
X212751337Y-46568919D02*
X212560861Y-46568919D01*
X212560861Y-46568919D02*
X212465623Y-46521300D01*
X212465623Y-46521300D02*
X212418004Y-46473680D01*
X212418004Y-46473680D02*
X212370385Y-46378442D01*
X212370385Y-46378442D02*
X212370385Y-46140347D01*
X212370385Y-46140347D02*
X212418004Y-46045109D01*
X212418004Y-46045109D02*
X212465623Y-45997490D01*
X212465623Y-45997490D02*
X212560861Y-45949871D01*
X212560861Y-45949871D02*
X212751337Y-45949871D01*
X212751337Y-45949871D02*
X212846575Y-45997490D01*
X212846575Y-45997490D02*
X212894194Y-46045109D01*
X212894194Y-46045109D02*
X212941813Y-46140347D01*
X175420766Y-46588680D02*
X175468385Y-46636300D01*
X175468385Y-46636300D02*
X175611242Y-46683919D01*
X175611242Y-46683919D02*
X175706480Y-46683919D01*
X175706480Y-46683919D02*
X175849337Y-46636300D01*
X175849337Y-46636300D02*
X175944575Y-46541061D01*
X175944575Y-46541061D02*
X175992194Y-46445823D01*
X175992194Y-46445823D02*
X176039813Y-46255347D01*
X176039813Y-46255347D02*
X176039813Y-46112490D01*
X176039813Y-46112490D02*
X175992194Y-45922014D01*
X175992194Y-45922014D02*
X175944575Y-45826776D01*
X175944575Y-45826776D02*
X175849337Y-45731538D01*
X175849337Y-45731538D02*
X175706480Y-45683919D01*
X175706480Y-45683919D02*
X175611242Y-45683919D01*
X175611242Y-45683919D02*
X175468385Y-45731538D01*
X175468385Y-45731538D02*
X175420766Y-45779157D01*
X174849337Y-46112490D02*
X174944575Y-46064871D01*
X174944575Y-46064871D02*
X174992194Y-46017252D01*
X174992194Y-46017252D02*
X175039813Y-45922014D01*
X175039813Y-45922014D02*
X175039813Y-45874395D01*
X175039813Y-45874395D02*
X174992194Y-45779157D01*
X174992194Y-45779157D02*
X174944575Y-45731538D01*
X174944575Y-45731538D02*
X174849337Y-45683919D01*
X174849337Y-45683919D02*
X174658861Y-45683919D01*
X174658861Y-45683919D02*
X174563623Y-45731538D01*
X174563623Y-45731538D02*
X174516004Y-45779157D01*
X174516004Y-45779157D02*
X174468385Y-45874395D01*
X174468385Y-45874395D02*
X174468385Y-45922014D01*
X174468385Y-45922014D02*
X174516004Y-46017252D01*
X174516004Y-46017252D02*
X174563623Y-46064871D01*
X174563623Y-46064871D02*
X174658861Y-46112490D01*
X174658861Y-46112490D02*
X174849337Y-46112490D01*
X174849337Y-46112490D02*
X174944575Y-46160109D01*
X174944575Y-46160109D02*
X174992194Y-46207728D01*
X174992194Y-46207728D02*
X175039813Y-46302966D01*
X175039813Y-46302966D02*
X175039813Y-46493442D01*
X175039813Y-46493442D02*
X174992194Y-46588680D01*
X174992194Y-46588680D02*
X174944575Y-46636300D01*
X174944575Y-46636300D02*
X174849337Y-46683919D01*
X174849337Y-46683919D02*
X174658861Y-46683919D01*
X174658861Y-46683919D02*
X174563623Y-46636300D01*
X174563623Y-46636300D02*
X174516004Y-46588680D01*
X174516004Y-46588680D02*
X174468385Y-46493442D01*
X174468385Y-46493442D02*
X174468385Y-46302966D01*
X174468385Y-46302966D02*
X174516004Y-46207728D01*
X174516004Y-46207728D02*
X174563623Y-46160109D01*
X174563623Y-46160109D02*
X174658861Y-46112490D01*
X139199857Y-43380819D02*
X139676047Y-43380819D01*
X139676047Y-43380819D02*
X139676047Y-42380819D01*
X138342714Y-43380819D02*
X138914142Y-43380819D01*
X138628428Y-43380819D02*
X138628428Y-42380819D01*
X138628428Y-42380819D02*
X138723666Y-42523676D01*
X138723666Y-42523676D02*
X138818904Y-42618914D01*
X138818904Y-42618914D02*
X138914142Y-42666533D01*
X137723666Y-42380819D02*
X137628428Y-42380819D01*
X137628428Y-42380819D02*
X137533190Y-42428438D01*
X137533190Y-42428438D02*
X137485571Y-42476057D01*
X137485571Y-42476057D02*
X137437952Y-42571295D01*
X137437952Y-42571295D02*
X137390333Y-42761771D01*
X137390333Y-42761771D02*
X137390333Y-42999866D01*
X137390333Y-42999866D02*
X137437952Y-43190342D01*
X137437952Y-43190342D02*
X137485571Y-43285580D01*
X137485571Y-43285580D02*
X137533190Y-43333200D01*
X137533190Y-43333200D02*
X137628428Y-43380819D01*
X137628428Y-43380819D02*
X137723666Y-43380819D01*
X137723666Y-43380819D02*
X137818904Y-43333200D01*
X137818904Y-43333200D02*
X137866523Y-43285580D01*
X137866523Y-43285580D02*
X137914142Y-43190342D01*
X137914142Y-43190342D02*
X137961761Y-42999866D01*
X137961761Y-42999866D02*
X137961761Y-42761771D01*
X137961761Y-42761771D02*
X137914142Y-42571295D01*
X137914142Y-42571295D02*
X137866523Y-42476057D01*
X137866523Y-42476057D02*
X137818904Y-42428438D01*
X137818904Y-42428438D02*
X137723666Y-42380819D01*
X290940666Y-43114819D02*
X291416856Y-43114819D01*
X291416856Y-43114819D02*
X291416856Y-42114819D01*
X290654951Y-42210057D02*
X290607332Y-42162438D01*
X290607332Y-42162438D02*
X290512094Y-42114819D01*
X290512094Y-42114819D02*
X290273999Y-42114819D01*
X290273999Y-42114819D02*
X290178761Y-42162438D01*
X290178761Y-42162438D02*
X290131142Y-42210057D01*
X290131142Y-42210057D02*
X290083523Y-42305295D01*
X290083523Y-42305295D02*
X290083523Y-42400533D01*
X290083523Y-42400533D02*
X290131142Y-42543390D01*
X290131142Y-42543390D02*
X290702570Y-43114819D01*
X290702570Y-43114819D02*
X290083523Y-43114819D01*
X99448857Y-46600580D02*
X99496476Y-46648200D01*
X99496476Y-46648200D02*
X99639333Y-46695819D01*
X99639333Y-46695819D02*
X99734571Y-46695819D01*
X99734571Y-46695819D02*
X99877428Y-46648200D01*
X99877428Y-46648200D02*
X99972666Y-46552961D01*
X99972666Y-46552961D02*
X100020285Y-46457723D01*
X100020285Y-46457723D02*
X100067904Y-46267247D01*
X100067904Y-46267247D02*
X100067904Y-46124390D01*
X100067904Y-46124390D02*
X100020285Y-45933914D01*
X100020285Y-45933914D02*
X99972666Y-45838676D01*
X99972666Y-45838676D02*
X99877428Y-45743438D01*
X99877428Y-45743438D02*
X99734571Y-45695819D01*
X99734571Y-45695819D02*
X99639333Y-45695819D01*
X99639333Y-45695819D02*
X99496476Y-45743438D01*
X99496476Y-45743438D02*
X99448857Y-45791057D01*
X98496476Y-46695819D02*
X99067904Y-46695819D01*
X98782190Y-46695819D02*
X98782190Y-45695819D01*
X98782190Y-45695819D02*
X98877428Y-45838676D01*
X98877428Y-45838676D02*
X98972666Y-45933914D01*
X98972666Y-45933914D02*
X99067904Y-45981533D01*
X98115523Y-45791057D02*
X98067904Y-45743438D01*
X98067904Y-45743438D02*
X97972666Y-45695819D01*
X97972666Y-45695819D02*
X97734571Y-45695819D01*
X97734571Y-45695819D02*
X97639333Y-45743438D01*
X97639333Y-45743438D02*
X97591714Y-45791057D01*
X97591714Y-45791057D02*
X97544095Y-45886295D01*
X97544095Y-45886295D02*
X97544095Y-45981533D01*
X97544095Y-45981533D02*
X97591714Y-46124390D01*
X97591714Y-46124390D02*
X98163142Y-46695819D01*
X98163142Y-46695819D02*
X97544095Y-46695819D01*
X194328766Y-46485680D02*
X194376385Y-46533300D01*
X194376385Y-46533300D02*
X194519242Y-46580919D01*
X194519242Y-46580919D02*
X194614480Y-46580919D01*
X194614480Y-46580919D02*
X194757337Y-46533300D01*
X194757337Y-46533300D02*
X194852575Y-46438061D01*
X194852575Y-46438061D02*
X194900194Y-46342823D01*
X194900194Y-46342823D02*
X194947813Y-46152347D01*
X194947813Y-46152347D02*
X194947813Y-46009490D01*
X194947813Y-46009490D02*
X194900194Y-45819014D01*
X194900194Y-45819014D02*
X194852575Y-45723776D01*
X194852575Y-45723776D02*
X194757337Y-45628538D01*
X194757337Y-45628538D02*
X194614480Y-45580919D01*
X194614480Y-45580919D02*
X194519242Y-45580919D01*
X194519242Y-45580919D02*
X194376385Y-45628538D01*
X194376385Y-45628538D02*
X194328766Y-45676157D01*
X193995432Y-45580919D02*
X193328766Y-45580919D01*
X193328766Y-45580919D02*
X193757337Y-46580919D01*
X80525857Y-46612580D02*
X80573476Y-46660200D01*
X80573476Y-46660200D02*
X80716333Y-46707819D01*
X80716333Y-46707819D02*
X80811571Y-46707819D01*
X80811571Y-46707819D02*
X80954428Y-46660200D01*
X80954428Y-46660200D02*
X81049666Y-46564961D01*
X81049666Y-46564961D02*
X81097285Y-46469723D01*
X81097285Y-46469723D02*
X81144904Y-46279247D01*
X81144904Y-46279247D02*
X81144904Y-46136390D01*
X81144904Y-46136390D02*
X81097285Y-45945914D01*
X81097285Y-45945914D02*
X81049666Y-45850676D01*
X81049666Y-45850676D02*
X80954428Y-45755438D01*
X80954428Y-45755438D02*
X80811571Y-45707819D01*
X80811571Y-45707819D02*
X80716333Y-45707819D01*
X80716333Y-45707819D02*
X80573476Y-45755438D01*
X80573476Y-45755438D02*
X80525857Y-45803057D01*
X79573476Y-46707819D02*
X80144904Y-46707819D01*
X79859190Y-46707819D02*
X79859190Y-45707819D01*
X79859190Y-45707819D02*
X79954428Y-45850676D01*
X79954428Y-45850676D02*
X80049666Y-45945914D01*
X80049666Y-45945914D02*
X80144904Y-45993533D01*
X79240142Y-45707819D02*
X78621095Y-45707819D01*
X78621095Y-45707819D02*
X78954428Y-46088771D01*
X78954428Y-46088771D02*
X78811571Y-46088771D01*
X78811571Y-46088771D02*
X78716333Y-46136390D01*
X78716333Y-46136390D02*
X78668714Y-46184009D01*
X78668714Y-46184009D02*
X78621095Y-46279247D01*
X78621095Y-46279247D02*
X78621095Y-46517342D01*
X78621095Y-46517342D02*
X78668714Y-46612580D01*
X78668714Y-46612580D02*
X78716333Y-46660200D01*
X78716333Y-46660200D02*
X78811571Y-46707819D01*
X78811571Y-46707819D02*
X79097285Y-46707819D01*
X79097285Y-46707819D02*
X79192523Y-46660200D01*
X79192523Y-46660200D02*
X79240142Y-46612580D01*
X82303857Y-43405819D02*
X82780047Y-43405819D01*
X82780047Y-43405819D02*
X82780047Y-42405819D01*
X81446714Y-43405819D02*
X82018142Y-43405819D01*
X81732428Y-43405819D02*
X81732428Y-42405819D01*
X81732428Y-42405819D02*
X81827666Y-42548676D01*
X81827666Y-42548676D02*
X81922904Y-42643914D01*
X81922904Y-42643914D02*
X82018142Y-42691533D01*
X81113380Y-42405819D02*
X80494333Y-42405819D01*
X80494333Y-42405819D02*
X80827666Y-42786771D01*
X80827666Y-42786771D02*
X80684809Y-42786771D01*
X80684809Y-42786771D02*
X80589571Y-42834390D01*
X80589571Y-42834390D02*
X80541952Y-42882009D01*
X80541952Y-42882009D02*
X80494333Y-42977247D01*
X80494333Y-42977247D02*
X80494333Y-43215342D01*
X80494333Y-43215342D02*
X80541952Y-43310580D01*
X80541952Y-43310580D02*
X80589571Y-43358200D01*
X80589571Y-43358200D02*
X80684809Y-43405819D01*
X80684809Y-43405819D02*
X80970523Y-43405819D01*
X80970523Y-43405819D02*
X81065761Y-43358200D01*
X81065761Y-43358200D02*
X81113380Y-43310580D01*
X234044666Y-43241819D02*
X234520856Y-43241819D01*
X234520856Y-43241819D02*
X234520856Y-42241819D01*
X233235142Y-42241819D02*
X233711332Y-42241819D01*
X233711332Y-42241819D02*
X233758951Y-42718009D01*
X233758951Y-42718009D02*
X233711332Y-42670390D01*
X233711332Y-42670390D02*
X233616094Y-42622771D01*
X233616094Y-42622771D02*
X233377999Y-42622771D01*
X233377999Y-42622771D02*
X233282761Y-42670390D01*
X233282761Y-42670390D02*
X233235142Y-42718009D01*
X233235142Y-42718009D02*
X233187523Y-42813247D01*
X233187523Y-42813247D02*
X233187523Y-43051342D01*
X233187523Y-43051342D02*
X233235142Y-43146580D01*
X233235142Y-43146580D02*
X233282761Y-43194200D01*
X233282761Y-43194200D02*
X233377999Y-43241819D01*
X233377999Y-43241819D02*
X233616094Y-43241819D01*
X233616094Y-43241819D02*
X233711332Y-43194200D01*
X233711332Y-43194200D02*
X233758951Y-43146580D01*
X309919666Y-43126819D02*
X310395856Y-43126819D01*
X310395856Y-43126819D02*
X310395856Y-42126819D01*
X309062523Y-43126819D02*
X309633951Y-43126819D01*
X309348237Y-43126819D02*
X309348237Y-42126819D01*
X309348237Y-42126819D02*
X309443475Y-42269676D01*
X309443475Y-42269676D02*
X309538713Y-42364914D01*
X309538713Y-42364914D02*
X309633951Y-42412533D01*
X196106766Y-43278919D02*
X196582956Y-43278919D01*
X196582956Y-43278919D02*
X196582956Y-42278919D01*
X195868670Y-42278919D02*
X195202004Y-42278919D01*
X195202004Y-42278919D02*
X195630575Y-43278919D01*
X232266666Y-46448580D02*
X232314285Y-46496200D01*
X232314285Y-46496200D02*
X232457142Y-46543819D01*
X232457142Y-46543819D02*
X232552380Y-46543819D01*
X232552380Y-46543819D02*
X232695237Y-46496200D01*
X232695237Y-46496200D02*
X232790475Y-46400961D01*
X232790475Y-46400961D02*
X232838094Y-46305723D01*
X232838094Y-46305723D02*
X232885713Y-46115247D01*
X232885713Y-46115247D02*
X232885713Y-45972390D01*
X232885713Y-45972390D02*
X232838094Y-45781914D01*
X232838094Y-45781914D02*
X232790475Y-45686676D01*
X232790475Y-45686676D02*
X232695237Y-45591438D01*
X232695237Y-45591438D02*
X232552380Y-45543819D01*
X232552380Y-45543819D02*
X232457142Y-45543819D01*
X232457142Y-45543819D02*
X232314285Y-45591438D01*
X232314285Y-45591438D02*
X232266666Y-45639057D01*
X231361904Y-45543819D02*
X231838094Y-45543819D01*
X231838094Y-45543819D02*
X231885713Y-46020009D01*
X231885713Y-46020009D02*
X231838094Y-45972390D01*
X231838094Y-45972390D02*
X231742856Y-45924771D01*
X231742856Y-45924771D02*
X231504761Y-45924771D01*
X231504761Y-45924771D02*
X231409523Y-45972390D01*
X231409523Y-45972390D02*
X231361904Y-46020009D01*
X231361904Y-46020009D02*
X231314285Y-46115247D01*
X231314285Y-46115247D02*
X231314285Y-46353342D01*
X231314285Y-46353342D02*
X231361904Y-46448580D01*
X231361904Y-46448580D02*
X231409523Y-46496200D01*
X231409523Y-46496200D02*
X231504761Y-46543819D01*
X231504761Y-46543819D02*
X231742856Y-46543819D01*
X231742856Y-46543819D02*
X231838094Y-46496200D01*
X231838094Y-46496200D02*
X231885713Y-46448580D01*
X61602857Y-46714580D02*
X61650476Y-46762200D01*
X61650476Y-46762200D02*
X61793333Y-46809819D01*
X61793333Y-46809819D02*
X61888571Y-46809819D01*
X61888571Y-46809819D02*
X62031428Y-46762200D01*
X62031428Y-46762200D02*
X62126666Y-46666961D01*
X62126666Y-46666961D02*
X62174285Y-46571723D01*
X62174285Y-46571723D02*
X62221904Y-46381247D01*
X62221904Y-46381247D02*
X62221904Y-46238390D01*
X62221904Y-46238390D02*
X62174285Y-46047914D01*
X62174285Y-46047914D02*
X62126666Y-45952676D01*
X62126666Y-45952676D02*
X62031428Y-45857438D01*
X62031428Y-45857438D02*
X61888571Y-45809819D01*
X61888571Y-45809819D02*
X61793333Y-45809819D01*
X61793333Y-45809819D02*
X61650476Y-45857438D01*
X61650476Y-45857438D02*
X61602857Y-45905057D01*
X60650476Y-46809819D02*
X61221904Y-46809819D01*
X60936190Y-46809819D02*
X60936190Y-45809819D01*
X60936190Y-45809819D02*
X61031428Y-45952676D01*
X61031428Y-45952676D02*
X61126666Y-46047914D01*
X61126666Y-46047914D02*
X61221904Y-46095533D01*
X59793333Y-46143152D02*
X59793333Y-46809819D01*
X60031428Y-45762200D02*
X60269523Y-46476485D01*
X60269523Y-46476485D02*
X59650476Y-46476485D01*
X63380857Y-43507819D02*
X63857047Y-43507819D01*
X63857047Y-43507819D02*
X63857047Y-42507819D01*
X62523714Y-43507819D02*
X63095142Y-43507819D01*
X62809428Y-43507819D02*
X62809428Y-42507819D01*
X62809428Y-42507819D02*
X62904666Y-42650676D01*
X62904666Y-42650676D02*
X62999904Y-42745914D01*
X62999904Y-42745914D02*
X63095142Y-42793533D01*
X61666571Y-42841152D02*
X61666571Y-43507819D01*
X61904666Y-42460200D02*
X62142761Y-43174485D01*
X62142761Y-43174485D02*
X61523714Y-43174485D01*
X289162666Y-46321580D02*
X289210285Y-46369200D01*
X289210285Y-46369200D02*
X289353142Y-46416819D01*
X289353142Y-46416819D02*
X289448380Y-46416819D01*
X289448380Y-46416819D02*
X289591237Y-46369200D01*
X289591237Y-46369200D02*
X289686475Y-46273961D01*
X289686475Y-46273961D02*
X289734094Y-46178723D01*
X289734094Y-46178723D02*
X289781713Y-45988247D01*
X289781713Y-45988247D02*
X289781713Y-45845390D01*
X289781713Y-45845390D02*
X289734094Y-45654914D01*
X289734094Y-45654914D02*
X289686475Y-45559676D01*
X289686475Y-45559676D02*
X289591237Y-45464438D01*
X289591237Y-45464438D02*
X289448380Y-45416819D01*
X289448380Y-45416819D02*
X289353142Y-45416819D01*
X289353142Y-45416819D02*
X289210285Y-45464438D01*
X289210285Y-45464438D02*
X289162666Y-45512057D01*
X288781713Y-45512057D02*
X288734094Y-45464438D01*
X288734094Y-45464438D02*
X288638856Y-45416819D01*
X288638856Y-45416819D02*
X288400761Y-45416819D01*
X288400761Y-45416819D02*
X288305523Y-45464438D01*
X288305523Y-45464438D02*
X288257904Y-45512057D01*
X288257904Y-45512057D02*
X288210285Y-45607295D01*
X288210285Y-45607295D02*
X288210285Y-45702533D01*
X288210285Y-45702533D02*
X288257904Y-45845390D01*
X288257904Y-45845390D02*
X288829332Y-46416819D01*
X288829332Y-46416819D02*
X288210285Y-46416819D01*
X119027757Y-46575480D02*
X119075376Y-46623100D01*
X119075376Y-46623100D02*
X119218233Y-46670719D01*
X119218233Y-46670719D02*
X119313471Y-46670719D01*
X119313471Y-46670719D02*
X119456328Y-46623100D01*
X119456328Y-46623100D02*
X119551566Y-46527861D01*
X119551566Y-46527861D02*
X119599185Y-46432623D01*
X119599185Y-46432623D02*
X119646804Y-46242147D01*
X119646804Y-46242147D02*
X119646804Y-46099290D01*
X119646804Y-46099290D02*
X119599185Y-45908814D01*
X119599185Y-45908814D02*
X119551566Y-45813576D01*
X119551566Y-45813576D02*
X119456328Y-45718338D01*
X119456328Y-45718338D02*
X119313471Y-45670719D01*
X119313471Y-45670719D02*
X119218233Y-45670719D01*
X119218233Y-45670719D02*
X119075376Y-45718338D01*
X119075376Y-45718338D02*
X119027757Y-45765957D01*
X118075376Y-46670719D02*
X118646804Y-46670719D01*
X118361090Y-46670719D02*
X118361090Y-45670719D01*
X118361090Y-45670719D02*
X118456328Y-45813576D01*
X118456328Y-45813576D02*
X118551566Y-45908814D01*
X118551566Y-45908814D02*
X118646804Y-45956433D01*
X117122995Y-46670719D02*
X117694423Y-46670719D01*
X117408709Y-46670719D02*
X117408709Y-45670719D01*
X117408709Y-45670719D02*
X117503947Y-45813576D01*
X117503947Y-45813576D02*
X117599185Y-45908814D01*
X117599185Y-45908814D02*
X117694423Y-45956433D01*
X137421857Y-46587580D02*
X137469476Y-46635200D01*
X137469476Y-46635200D02*
X137612333Y-46682819D01*
X137612333Y-46682819D02*
X137707571Y-46682819D01*
X137707571Y-46682819D02*
X137850428Y-46635200D01*
X137850428Y-46635200D02*
X137945666Y-46539961D01*
X137945666Y-46539961D02*
X137993285Y-46444723D01*
X137993285Y-46444723D02*
X138040904Y-46254247D01*
X138040904Y-46254247D02*
X138040904Y-46111390D01*
X138040904Y-46111390D02*
X137993285Y-45920914D01*
X137993285Y-45920914D02*
X137945666Y-45825676D01*
X137945666Y-45825676D02*
X137850428Y-45730438D01*
X137850428Y-45730438D02*
X137707571Y-45682819D01*
X137707571Y-45682819D02*
X137612333Y-45682819D01*
X137612333Y-45682819D02*
X137469476Y-45730438D01*
X137469476Y-45730438D02*
X137421857Y-45778057D01*
X136469476Y-46682819D02*
X137040904Y-46682819D01*
X136755190Y-46682819D02*
X136755190Y-45682819D01*
X136755190Y-45682819D02*
X136850428Y-45825676D01*
X136850428Y-45825676D02*
X136945666Y-45920914D01*
X136945666Y-45920914D02*
X137040904Y-45968533D01*
X135850428Y-45682819D02*
X135755190Y-45682819D01*
X135755190Y-45682819D02*
X135659952Y-45730438D01*
X135659952Y-45730438D02*
X135612333Y-45778057D01*
X135612333Y-45778057D02*
X135564714Y-45873295D01*
X135564714Y-45873295D02*
X135517095Y-46063771D01*
X135517095Y-46063771D02*
X135517095Y-46301866D01*
X135517095Y-46301866D02*
X135564714Y-46492342D01*
X135564714Y-46492342D02*
X135612333Y-46587580D01*
X135612333Y-46587580D02*
X135659952Y-46635200D01*
X135659952Y-46635200D02*
X135755190Y-46682819D01*
X135755190Y-46682819D02*
X135850428Y-46682819D01*
X135850428Y-46682819D02*
X135945666Y-46635200D01*
X135945666Y-46635200D02*
X135993285Y-46587580D01*
X135993285Y-46587580D02*
X136040904Y-46492342D01*
X136040904Y-46492342D02*
X136088523Y-46301866D01*
X136088523Y-46301866D02*
X136088523Y-46063771D01*
X136088523Y-46063771D02*
X136040904Y-45873295D01*
X136040904Y-45873295D02*
X135993285Y-45778057D01*
X135993285Y-45778057D02*
X135945666Y-45730438D01*
X135945666Y-45730438D02*
X135850428Y-45682819D01*
X156426766Y-46600680D02*
X156474385Y-46648300D01*
X156474385Y-46648300D02*
X156617242Y-46695919D01*
X156617242Y-46695919D02*
X156712480Y-46695919D01*
X156712480Y-46695919D02*
X156855337Y-46648300D01*
X156855337Y-46648300D02*
X156950575Y-46553061D01*
X156950575Y-46553061D02*
X156998194Y-46457823D01*
X156998194Y-46457823D02*
X157045813Y-46267347D01*
X157045813Y-46267347D02*
X157045813Y-46124490D01*
X157045813Y-46124490D02*
X156998194Y-45934014D01*
X156998194Y-45934014D02*
X156950575Y-45838776D01*
X156950575Y-45838776D02*
X156855337Y-45743538D01*
X156855337Y-45743538D02*
X156712480Y-45695919D01*
X156712480Y-45695919D02*
X156617242Y-45695919D01*
X156617242Y-45695919D02*
X156474385Y-45743538D01*
X156474385Y-45743538D02*
X156426766Y-45791157D01*
X155950575Y-46695919D02*
X155760099Y-46695919D01*
X155760099Y-46695919D02*
X155664861Y-46648300D01*
X155664861Y-46648300D02*
X155617242Y-46600680D01*
X155617242Y-46600680D02*
X155522004Y-46457823D01*
X155522004Y-46457823D02*
X155474385Y-46267347D01*
X155474385Y-46267347D02*
X155474385Y-45886395D01*
X155474385Y-45886395D02*
X155522004Y-45791157D01*
X155522004Y-45791157D02*
X155569623Y-45743538D01*
X155569623Y-45743538D02*
X155664861Y-45695919D01*
X155664861Y-45695919D02*
X155855337Y-45695919D01*
X155855337Y-45695919D02*
X155950575Y-45743538D01*
X155950575Y-45743538D02*
X155998194Y-45791157D01*
X155998194Y-45791157D02*
X156045813Y-45886395D01*
X156045813Y-45886395D02*
X156045813Y-46124490D01*
X156045813Y-46124490D02*
X155998194Y-46219728D01*
X155998194Y-46219728D02*
X155950575Y-46267347D01*
X155950575Y-46267347D02*
X155855337Y-46314966D01*
X155855337Y-46314966D02*
X155664861Y-46314966D01*
X155664861Y-46314966D02*
X155569623Y-46267347D01*
X155569623Y-46267347D02*
X155522004Y-46219728D01*
X155522004Y-46219728D02*
X155474385Y-46124490D01*
X177198766Y-43381919D02*
X177674956Y-43381919D01*
X177674956Y-43381919D02*
X177674956Y-42381919D01*
X176722575Y-42810490D02*
X176817813Y-42762871D01*
X176817813Y-42762871D02*
X176865432Y-42715252D01*
X176865432Y-42715252D02*
X176913051Y-42620014D01*
X176913051Y-42620014D02*
X176913051Y-42572395D01*
X176913051Y-42572395D02*
X176865432Y-42477157D01*
X176865432Y-42477157D02*
X176817813Y-42429538D01*
X176817813Y-42429538D02*
X176722575Y-42381919D01*
X176722575Y-42381919D02*
X176532099Y-42381919D01*
X176532099Y-42381919D02*
X176436861Y-42429538D01*
X176436861Y-42429538D02*
X176389242Y-42477157D01*
X176389242Y-42477157D02*
X176341623Y-42572395D01*
X176341623Y-42572395D02*
X176341623Y-42620014D01*
X176341623Y-42620014D02*
X176389242Y-42715252D01*
X176389242Y-42715252D02*
X176436861Y-42762871D01*
X176436861Y-42762871D02*
X176532099Y-42810490D01*
X176532099Y-42810490D02*
X176722575Y-42810490D01*
X176722575Y-42810490D02*
X176817813Y-42858109D01*
X176817813Y-42858109D02*
X176865432Y-42905728D01*
X176865432Y-42905728D02*
X176913051Y-43000966D01*
X176913051Y-43000966D02*
X176913051Y-43191442D01*
X176913051Y-43191442D02*
X176865432Y-43286680D01*
X176865432Y-43286680D02*
X176817813Y-43334300D01*
X176817813Y-43334300D02*
X176722575Y-43381919D01*
X176722575Y-43381919D02*
X176532099Y-43381919D01*
X176532099Y-43381919D02*
X176436861Y-43334300D01*
X176436861Y-43334300D02*
X176389242Y-43286680D01*
X176389242Y-43286680D02*
X176341623Y-43191442D01*
X176341623Y-43191442D02*
X176341623Y-43000966D01*
X176341623Y-43000966D02*
X176389242Y-42905728D01*
X176389242Y-42905728D02*
X176436861Y-42858109D01*
X176436861Y-42858109D02*
X176532099Y-42810490D01*
X215100766Y-43266919D02*
X215576956Y-43266919D01*
X215576956Y-43266919D02*
X215576956Y-42266919D01*
X214338861Y-42266919D02*
X214529337Y-42266919D01*
X214529337Y-42266919D02*
X214624575Y-42314538D01*
X214624575Y-42314538D02*
X214672194Y-42362157D01*
X214672194Y-42362157D02*
X214767432Y-42505014D01*
X214767432Y-42505014D02*
X214815051Y-42695490D01*
X214815051Y-42695490D02*
X214815051Y-43076442D01*
X214815051Y-43076442D02*
X214767432Y-43171680D01*
X214767432Y-43171680D02*
X214719813Y-43219300D01*
X214719813Y-43219300D02*
X214624575Y-43266919D01*
X214624575Y-43266919D02*
X214434099Y-43266919D01*
X214434099Y-43266919D02*
X214338861Y-43219300D01*
X214338861Y-43219300D02*
X214291242Y-43171680D01*
X214291242Y-43171680D02*
X214243623Y-43076442D01*
X214243623Y-43076442D02*
X214243623Y-42838347D01*
X214243623Y-42838347D02*
X214291242Y-42743109D01*
X214291242Y-42743109D02*
X214338861Y-42695490D01*
X214338861Y-42695490D02*
X214434099Y-42647871D01*
X214434099Y-42647871D02*
X214624575Y-42647871D01*
X214624575Y-42647871D02*
X214719813Y-42695490D01*
X214719813Y-42695490D02*
X214767432Y-42743109D01*
X214767432Y-42743109D02*
X214815051Y-42838347D01*
X253038666Y-43229819D02*
X253514856Y-43229819D01*
X253514856Y-43229819D02*
X253514856Y-42229819D01*
X252276761Y-42563152D02*
X252276761Y-43229819D01*
X252514856Y-42182200D02*
X252752951Y-42896485D01*
X252752951Y-42896485D02*
X252133904Y-42896485D01*
X270168666Y-46333580D02*
X270216285Y-46381200D01*
X270216285Y-46381200D02*
X270359142Y-46428819D01*
X270359142Y-46428819D02*
X270454380Y-46428819D01*
X270454380Y-46428819D02*
X270597237Y-46381200D01*
X270597237Y-46381200D02*
X270692475Y-46285961D01*
X270692475Y-46285961D02*
X270740094Y-46190723D01*
X270740094Y-46190723D02*
X270787713Y-46000247D01*
X270787713Y-46000247D02*
X270787713Y-45857390D01*
X270787713Y-45857390D02*
X270740094Y-45666914D01*
X270740094Y-45666914D02*
X270692475Y-45571676D01*
X270692475Y-45571676D02*
X270597237Y-45476438D01*
X270597237Y-45476438D02*
X270454380Y-45428819D01*
X270454380Y-45428819D02*
X270359142Y-45428819D01*
X270359142Y-45428819D02*
X270216285Y-45476438D01*
X270216285Y-45476438D02*
X270168666Y-45524057D01*
X269835332Y-45428819D02*
X269216285Y-45428819D01*
X269216285Y-45428819D02*
X269549618Y-45809771D01*
X269549618Y-45809771D02*
X269406761Y-45809771D01*
X269406761Y-45809771D02*
X269311523Y-45857390D01*
X269311523Y-45857390D02*
X269263904Y-45905009D01*
X269263904Y-45905009D02*
X269216285Y-46000247D01*
X269216285Y-46000247D02*
X269216285Y-46238342D01*
X269216285Y-46238342D02*
X269263904Y-46333580D01*
X269263904Y-46333580D02*
X269311523Y-46381200D01*
X269311523Y-46381200D02*
X269406761Y-46428819D01*
X269406761Y-46428819D02*
X269692475Y-46428819D01*
X269692475Y-46428819D02*
X269787713Y-46381200D01*
X269787713Y-46381200D02*
X269835332Y-46333580D01*
X158204766Y-43393919D02*
X158680956Y-43393919D01*
X158680956Y-43393919D02*
X158680956Y-42393919D01*
X157823813Y-43393919D02*
X157633337Y-43393919D01*
X157633337Y-43393919D02*
X157538099Y-43346300D01*
X157538099Y-43346300D02*
X157490480Y-43298680D01*
X157490480Y-43298680D02*
X157395242Y-43155823D01*
X157395242Y-43155823D02*
X157347623Y-42965347D01*
X157347623Y-42965347D02*
X157347623Y-42584395D01*
X157347623Y-42584395D02*
X157395242Y-42489157D01*
X157395242Y-42489157D02*
X157442861Y-42441538D01*
X157442861Y-42441538D02*
X157538099Y-42393919D01*
X157538099Y-42393919D02*
X157728575Y-42393919D01*
X157728575Y-42393919D02*
X157823813Y-42441538D01*
X157823813Y-42441538D02*
X157871432Y-42489157D01*
X157871432Y-42489157D02*
X157919051Y-42584395D01*
X157919051Y-42584395D02*
X157919051Y-42822490D01*
X157919051Y-42822490D02*
X157871432Y-42917728D01*
X157871432Y-42917728D02*
X157823813Y-42965347D01*
X157823813Y-42965347D02*
X157728575Y-43012966D01*
X157728575Y-43012966D02*
X157538099Y-43012966D01*
X157538099Y-43012966D02*
X157442861Y-42965347D01*
X157442861Y-42965347D02*
X157395242Y-42917728D01*
X157395242Y-42917728D02*
X157347623Y-42822490D01*
X120149857Y-43368719D02*
X120626047Y-43368719D01*
X120626047Y-43368719D02*
X120626047Y-42368719D01*
X119292714Y-43368719D02*
X119864142Y-43368719D01*
X119578428Y-43368719D02*
X119578428Y-42368719D01*
X119578428Y-42368719D02*
X119673666Y-42511576D01*
X119673666Y-42511576D02*
X119768904Y-42606814D01*
X119768904Y-42606814D02*
X119864142Y-42654433D01*
X118340333Y-43368719D02*
X118911761Y-43368719D01*
X118626047Y-43368719D02*
X118626047Y-42368719D01*
X118626047Y-42368719D02*
X118721285Y-42511576D01*
X118721285Y-42511576D02*
X118816523Y-42606814D01*
X118816523Y-42606814D02*
X118911761Y-42654433D01*
X308141666Y-46333580D02*
X308189285Y-46381200D01*
X308189285Y-46381200D02*
X308332142Y-46428819D01*
X308332142Y-46428819D02*
X308427380Y-46428819D01*
X308427380Y-46428819D02*
X308570237Y-46381200D01*
X308570237Y-46381200D02*
X308665475Y-46285961D01*
X308665475Y-46285961D02*
X308713094Y-46190723D01*
X308713094Y-46190723D02*
X308760713Y-46000247D01*
X308760713Y-46000247D02*
X308760713Y-45857390D01*
X308760713Y-45857390D02*
X308713094Y-45666914D01*
X308713094Y-45666914D02*
X308665475Y-45571676D01*
X308665475Y-45571676D02*
X308570237Y-45476438D01*
X308570237Y-45476438D02*
X308427380Y-45428819D01*
X308427380Y-45428819D02*
X308332142Y-45428819D01*
X308332142Y-45428819D02*
X308189285Y-45476438D01*
X308189285Y-45476438D02*
X308141666Y-45524057D01*
X307189285Y-46428819D02*
X307760713Y-46428819D01*
X307474999Y-46428819D02*
X307474999Y-45428819D01*
X307474999Y-45428819D02*
X307570237Y-45571676D01*
X307570237Y-45571676D02*
X307665475Y-45666914D01*
X307665475Y-45666914D02*
X307760713Y-45714533D01*
X101226857Y-43393819D02*
X101703047Y-43393819D01*
X101703047Y-43393819D02*
X101703047Y-42393819D01*
X100369714Y-43393819D02*
X100941142Y-43393819D01*
X100655428Y-43393819D02*
X100655428Y-42393819D01*
X100655428Y-42393819D02*
X100750666Y-42536676D01*
X100750666Y-42536676D02*
X100845904Y-42631914D01*
X100845904Y-42631914D02*
X100941142Y-42679533D01*
X99988761Y-42489057D02*
X99941142Y-42441438D01*
X99941142Y-42441438D02*
X99845904Y-42393819D01*
X99845904Y-42393819D02*
X99607809Y-42393819D01*
X99607809Y-42393819D02*
X99512571Y-42441438D01*
X99512571Y-42441438D02*
X99464952Y-42489057D01*
X99464952Y-42489057D02*
X99417333Y-42584295D01*
X99417333Y-42584295D02*
X99417333Y-42679533D01*
X99417333Y-42679533D02*
X99464952Y-42822390D01*
X99464952Y-42822390D02*
X100036380Y-43393819D01*
X100036380Y-43393819D02*
X99417333Y-43393819D01*
X44457857Y-43507819D02*
X44934047Y-43507819D01*
X44934047Y-43507819D02*
X44934047Y-42507819D01*
X43600714Y-43507819D02*
X44172142Y-43507819D01*
X43886428Y-43507819D02*
X43886428Y-42507819D01*
X43886428Y-42507819D02*
X43981666Y-42650676D01*
X43981666Y-42650676D02*
X44076904Y-42745914D01*
X44076904Y-42745914D02*
X44172142Y-42793533D01*
X42695952Y-42507819D02*
X43172142Y-42507819D01*
X43172142Y-42507819D02*
X43219761Y-42984009D01*
X43219761Y-42984009D02*
X43172142Y-42936390D01*
X43172142Y-42936390D02*
X43076904Y-42888771D01*
X43076904Y-42888771D02*
X42838809Y-42888771D01*
X42838809Y-42888771D02*
X42743571Y-42936390D01*
X42743571Y-42936390D02*
X42695952Y-42984009D01*
X42695952Y-42984009D02*
X42648333Y-43079247D01*
X42648333Y-43079247D02*
X42648333Y-43317342D01*
X42648333Y-43317342D02*
X42695952Y-43412580D01*
X42695952Y-43412580D02*
X42743571Y-43460200D01*
X42743571Y-43460200D02*
X42838809Y-43507819D01*
X42838809Y-43507819D02*
X43076904Y-43507819D01*
X43076904Y-43507819D02*
X43172142Y-43460200D01*
X43172142Y-43460200D02*
X43219761Y-43412580D01*
X271946666Y-43126819D02*
X272422856Y-43126819D01*
X272422856Y-43126819D02*
X272422856Y-42126819D01*
X271708570Y-42126819D02*
X271089523Y-42126819D01*
X271089523Y-42126819D02*
X271422856Y-42507771D01*
X271422856Y-42507771D02*
X271279999Y-42507771D01*
X271279999Y-42507771D02*
X271184761Y-42555390D01*
X271184761Y-42555390D02*
X271137142Y-42603009D01*
X271137142Y-42603009D02*
X271089523Y-42698247D01*
X271089523Y-42698247D02*
X271089523Y-42936342D01*
X271089523Y-42936342D02*
X271137142Y-43031580D01*
X271137142Y-43031580D02*
X271184761Y-43079200D01*
X271184761Y-43079200D02*
X271279999Y-43126819D01*
X271279999Y-43126819D02*
X271565713Y-43126819D01*
X271565713Y-43126819D02*
X271660951Y-43079200D01*
X271660951Y-43079200D02*
X271708570Y-43031580D01*
X44457857Y-48098580D02*
X44505476Y-48146200D01*
X44505476Y-48146200D02*
X44648333Y-48193819D01*
X44648333Y-48193819D02*
X44743571Y-48193819D01*
X44743571Y-48193819D02*
X44886428Y-48146200D01*
X44886428Y-48146200D02*
X44981666Y-48050961D01*
X44981666Y-48050961D02*
X45029285Y-47955723D01*
X45029285Y-47955723D02*
X45076904Y-47765247D01*
X45076904Y-47765247D02*
X45076904Y-47622390D01*
X45076904Y-47622390D02*
X45029285Y-47431914D01*
X45029285Y-47431914D02*
X44981666Y-47336676D01*
X44981666Y-47336676D02*
X44886428Y-47241438D01*
X44886428Y-47241438D02*
X44743571Y-47193819D01*
X44743571Y-47193819D02*
X44648333Y-47193819D01*
X44648333Y-47193819D02*
X44505476Y-47241438D01*
X44505476Y-47241438D02*
X44457857Y-47289057D01*
X43505476Y-48193819D02*
X44076904Y-48193819D01*
X43791190Y-48193819D02*
X43791190Y-47193819D01*
X43791190Y-47193819D02*
X43886428Y-47336676D01*
X43886428Y-47336676D02*
X43981666Y-47431914D01*
X43981666Y-47431914D02*
X44076904Y-47479533D01*
X42600714Y-47193819D02*
X43076904Y-47193819D01*
X43076904Y-47193819D02*
X43124523Y-47670009D01*
X43124523Y-47670009D02*
X43076904Y-47622390D01*
X43076904Y-47622390D02*
X42981666Y-47574771D01*
X42981666Y-47574771D02*
X42743571Y-47574771D01*
X42743571Y-47574771D02*
X42648333Y-47622390D01*
X42648333Y-47622390D02*
X42600714Y-47670009D01*
X42600714Y-47670009D02*
X42553095Y-47765247D01*
X42553095Y-47765247D02*
X42553095Y-48003342D01*
X42553095Y-48003342D02*
X42600714Y-48098580D01*
X42600714Y-48098580D02*
X42648333Y-48146200D01*
X42648333Y-48146200D02*
X42743571Y-48193819D01*
X42743571Y-48193819D02*
X42981666Y-48193819D01*
X42981666Y-48193819D02*
X43076904Y-48146200D01*
X43076904Y-48146200D02*
X43124523Y-48098580D01*
X251260666Y-46436580D02*
X251308285Y-46484200D01*
X251308285Y-46484200D02*
X251451142Y-46531819D01*
X251451142Y-46531819D02*
X251546380Y-46531819D01*
X251546380Y-46531819D02*
X251689237Y-46484200D01*
X251689237Y-46484200D02*
X251784475Y-46388961D01*
X251784475Y-46388961D02*
X251832094Y-46293723D01*
X251832094Y-46293723D02*
X251879713Y-46103247D01*
X251879713Y-46103247D02*
X251879713Y-45960390D01*
X251879713Y-45960390D02*
X251832094Y-45769914D01*
X251832094Y-45769914D02*
X251784475Y-45674676D01*
X251784475Y-45674676D02*
X251689237Y-45579438D01*
X251689237Y-45579438D02*
X251546380Y-45531819D01*
X251546380Y-45531819D02*
X251451142Y-45531819D01*
X251451142Y-45531819D02*
X251308285Y-45579438D01*
X251308285Y-45579438D02*
X251260666Y-45627057D01*
X250403523Y-45865152D02*
X250403523Y-46531819D01*
X250641618Y-45484200D02*
X250879713Y-46198485D01*
X250879713Y-46198485D02*
X250260666Y-46198485D01*
%TO.C,C6*%
D11*
X214424100Y-44957520D02*
X214424100Y-45238680D01*
X215444100Y-44957520D02*
X215444100Y-45238680D01*
%TO.C,C8*%
X176522100Y-45072520D02*
X176522100Y-45353680D01*
X177542100Y-45072520D02*
X177542100Y-45353680D01*
%TO.C,L10*%
X140134900Y-42435900D02*
X140134900Y-46185900D01*
X140134900Y-46185900D02*
X146709900Y-46185900D01*
X147434900Y-42435900D02*
X140134900Y-42435900D01*
X147434900Y-45460900D02*
X146709900Y-46185900D01*
X147434900Y-45460900D02*
X147434900Y-42435900D01*
X146509900Y-45760900D02*
X146359900Y-45960900D01*
X146659900Y-45960900D01*
X146509900Y-45760900D01*
G36*
X146659900Y-45960900D02*
G01*
X146359900Y-45960900D01*
X146509900Y-45760900D01*
X146659900Y-45960900D01*
G37*
%TO.C,L2*%
X291752000Y-42194000D02*
X291752000Y-45944000D01*
X291752000Y-45944000D02*
X298327000Y-45944000D01*
X299052000Y-42194000D02*
X291752000Y-42194000D01*
X299052000Y-45219000D02*
X298327000Y-45944000D01*
X299052000Y-45219000D02*
X299052000Y-42194000D01*
X298127000Y-45519000D02*
X297977000Y-45719000D01*
X298277000Y-45719000D01*
X298127000Y-45519000D01*
G36*
X298277000Y-45719000D02*
G01*
X297977000Y-45719000D01*
X298127000Y-45519000D01*
X298277000Y-45719000D01*
G37*
%TO.C,C12*%
X100709000Y-45084420D02*
X100709000Y-45365580D01*
X101729000Y-45084420D02*
X101729000Y-45365580D01*
%TO.C,C7*%
X195430100Y-44969520D02*
X195430100Y-45250680D01*
X196450100Y-44969520D02*
X196450100Y-45250680D01*
%TO.C,C13*%
X81715000Y-45096420D02*
X81715000Y-45377580D01*
X82735000Y-45096420D02*
X82735000Y-45377580D01*
%TO.C,L13*%
X83203000Y-42485000D02*
X83203000Y-46235000D01*
X83203000Y-46235000D02*
X89778000Y-46235000D01*
X90503000Y-42485000D02*
X83203000Y-42485000D01*
X90503000Y-45510000D02*
X89778000Y-46235000D01*
X90503000Y-45510000D02*
X90503000Y-42485000D01*
X89578000Y-45810000D02*
X89428000Y-46010000D01*
X89728000Y-46010000D01*
X89578000Y-45810000D01*
G36*
X89728000Y-46010000D02*
G01*
X89428000Y-46010000D01*
X89578000Y-45810000D01*
X89728000Y-46010000D01*
G37*
%TO.C,L5*%
X234856000Y-42321000D02*
X234856000Y-46071000D01*
X234856000Y-46071000D02*
X241431000Y-46071000D01*
X242156000Y-42321000D02*
X234856000Y-42321000D01*
X242156000Y-45346000D02*
X241431000Y-46071000D01*
X242156000Y-45346000D02*
X242156000Y-42321000D01*
X241231000Y-45646000D02*
X241081000Y-45846000D01*
X241381000Y-45846000D01*
X241231000Y-45646000D01*
G36*
X241381000Y-45846000D02*
G01*
X241081000Y-45846000D01*
X241231000Y-45646000D01*
X241381000Y-45846000D01*
G37*
%TO.C,L1*%
X310731000Y-42206000D02*
X310731000Y-45956000D01*
X310731000Y-45956000D02*
X317306000Y-45956000D01*
X318031000Y-42206000D02*
X310731000Y-42206000D01*
X318031000Y-45231000D02*
X317306000Y-45956000D01*
X318031000Y-45231000D02*
X318031000Y-42206000D01*
X317106000Y-45531000D02*
X316956000Y-45731000D01*
X317256000Y-45731000D01*
X317106000Y-45531000D01*
G36*
X317256000Y-45731000D02*
G01*
X316956000Y-45731000D01*
X317106000Y-45531000D01*
X317256000Y-45731000D01*
G37*
%TO.C,L7*%
X196918100Y-42358100D02*
X196918100Y-46108100D01*
X196918100Y-46108100D02*
X203493100Y-46108100D01*
X204218100Y-42358100D02*
X196918100Y-42358100D01*
X204218100Y-45383100D02*
X203493100Y-46108100D01*
X204218100Y-45383100D02*
X204218100Y-42358100D01*
X203293100Y-45683100D02*
X203143100Y-45883100D01*
X203443100Y-45883100D01*
X203293100Y-45683100D01*
G36*
X203443100Y-45883100D02*
G01*
X203143100Y-45883100D01*
X203293100Y-45683100D01*
X203443100Y-45883100D01*
G37*
%TO.C,C5*%
X233368000Y-44932420D02*
X233368000Y-45213580D01*
X234388000Y-44932420D02*
X234388000Y-45213580D01*
%TO.C,C14*%
X62807000Y-45199420D02*
X62807000Y-45480580D01*
X63827000Y-45199420D02*
X63827000Y-45480580D01*
%TO.C,L14*%
X64295000Y-42588000D02*
X64295000Y-46338000D01*
X64295000Y-46338000D02*
X70870000Y-46338000D01*
X71595000Y-42588000D02*
X64295000Y-42588000D01*
X71595000Y-45613000D02*
X70870000Y-46338000D01*
X71595000Y-45613000D02*
X71595000Y-42588000D01*
X70670000Y-45913000D02*
X70520000Y-46113000D01*
X70820000Y-46113000D01*
X70670000Y-45913000D01*
G36*
X70820000Y-46113000D02*
G01*
X70520000Y-46113000D01*
X70670000Y-45913000D01*
X70820000Y-46113000D01*
G37*
%TO.C,C2*%
X290264000Y-44805420D02*
X290264000Y-45086580D01*
X291284000Y-44805420D02*
X291284000Y-45086580D01*
%TO.C,C11*%
X119652900Y-45059320D02*
X119652900Y-45340480D01*
X120672900Y-45059320D02*
X120672900Y-45340480D01*
%TO.C,C10*%
X138646900Y-45047320D02*
X138646900Y-45328480D01*
X139666900Y-45047320D02*
X139666900Y-45328480D01*
%TO.C,C9*%
X157528100Y-45084520D02*
X157528100Y-45365680D01*
X158548100Y-45084520D02*
X158548100Y-45365680D01*
%TO.C,L8*%
X178010100Y-42461100D02*
X178010100Y-46211100D01*
X178010100Y-46211100D02*
X184585100Y-46211100D01*
X185310100Y-42461100D02*
X178010100Y-42461100D01*
X185310100Y-45486100D02*
X184585100Y-46211100D01*
X185310100Y-45486100D02*
X185310100Y-42461100D01*
X184385100Y-45786100D02*
X184235100Y-45986100D01*
X184535100Y-45986100D01*
X184385100Y-45786100D01*
G36*
X184535100Y-45986100D02*
G01*
X184235100Y-45986100D01*
X184385100Y-45786100D01*
X184535100Y-45986100D01*
G37*
%TO.C,L6*%
X215912100Y-42346100D02*
X215912100Y-46096100D01*
X215912100Y-46096100D02*
X222487100Y-46096100D01*
X223212100Y-42346100D02*
X215912100Y-42346100D01*
X223212100Y-45371100D02*
X222487100Y-46096100D01*
X223212100Y-45371100D02*
X223212100Y-42346100D01*
X222287100Y-45671100D02*
X222137100Y-45871100D01*
X222437100Y-45871100D01*
X222287100Y-45671100D01*
G36*
X222437100Y-45871100D02*
G01*
X222137100Y-45871100D01*
X222287100Y-45671100D01*
X222437100Y-45871100D01*
G37*
%TO.C,L4*%
X253850000Y-42309000D02*
X253850000Y-46059000D01*
X253850000Y-46059000D02*
X260425000Y-46059000D01*
X261150000Y-42309000D02*
X253850000Y-42309000D01*
X261150000Y-45334000D02*
X260425000Y-46059000D01*
X261150000Y-45334000D02*
X261150000Y-42309000D01*
X260225000Y-45634000D02*
X260075000Y-45834000D01*
X260375000Y-45834000D01*
X260225000Y-45634000D01*
G36*
X260375000Y-45834000D02*
G01*
X260075000Y-45834000D01*
X260225000Y-45634000D01*
X260375000Y-45834000D01*
G37*
%TO.C,C3*%
X271270000Y-44817420D02*
X271270000Y-45098580D01*
X272290000Y-44817420D02*
X272290000Y-45098580D01*
%TO.C,L9*%
X159016100Y-42473100D02*
X159016100Y-46223100D01*
X159016100Y-46223100D02*
X165591100Y-46223100D01*
X166316100Y-42473100D02*
X159016100Y-42473100D01*
X166316100Y-45498100D02*
X165591100Y-46223100D01*
X166316100Y-45498100D02*
X166316100Y-42473100D01*
X165391100Y-45798100D02*
X165241100Y-45998100D01*
X165541100Y-45998100D01*
X165391100Y-45798100D01*
G36*
X165541100Y-45998100D02*
G01*
X165241100Y-45998100D01*
X165391100Y-45798100D01*
X165541100Y-45998100D01*
G37*
%TO.C,L11*%
X121140900Y-42447900D02*
X121140900Y-46197900D01*
X121140900Y-46197900D02*
X127715900Y-46197900D01*
X128440900Y-42447900D02*
X121140900Y-42447900D01*
X128440900Y-45472900D02*
X127715900Y-46197900D01*
X128440900Y-45472900D02*
X128440900Y-42447900D01*
X127515900Y-45772900D02*
X127365900Y-45972900D01*
X127665900Y-45972900D01*
X127515900Y-45772900D01*
G36*
X127665900Y-45972900D02*
G01*
X127365900Y-45972900D01*
X127515900Y-45772900D01*
X127665900Y-45972900D01*
G37*
%TO.C,C1*%
X309243000Y-44817420D02*
X309243000Y-45098580D01*
X310263000Y-44817420D02*
X310263000Y-45098580D01*
%TO.C,L12*%
X102197000Y-42473000D02*
X102197000Y-46223000D01*
X102197000Y-46223000D02*
X108772000Y-46223000D01*
X109497000Y-42473000D02*
X102197000Y-42473000D01*
X109497000Y-45498000D02*
X108772000Y-46223000D01*
X109497000Y-45498000D02*
X109497000Y-42473000D01*
X108572000Y-45798000D02*
X108422000Y-45998000D01*
X108722000Y-45998000D01*
X108572000Y-45798000D01*
G36*
X108722000Y-45998000D02*
G01*
X108422000Y-45998000D01*
X108572000Y-45798000D01*
X108722000Y-45998000D01*
G37*
%TO.C,L15*%
X45301000Y-42600000D02*
X45301000Y-46350000D01*
X45301000Y-46350000D02*
X51876000Y-46350000D01*
X52601000Y-42600000D02*
X45301000Y-42600000D01*
X52601000Y-45625000D02*
X51876000Y-46350000D01*
X52601000Y-45625000D02*
X52601000Y-42600000D01*
X51676000Y-45925000D02*
X51526000Y-46125000D01*
X51826000Y-46125000D01*
X51676000Y-45925000D01*
G36*
X51826000Y-46125000D02*
G01*
X51526000Y-46125000D01*
X51676000Y-45925000D01*
X51826000Y-46125000D01*
G37*
%TO.C,L3*%
X272758000Y-42206000D02*
X272758000Y-45956000D01*
X272758000Y-45956000D02*
X279333000Y-45956000D01*
X280058000Y-42206000D02*
X272758000Y-42206000D01*
X280058000Y-45231000D02*
X279333000Y-45956000D01*
X280058000Y-45231000D02*
X280058000Y-42206000D01*
X279133000Y-45531000D02*
X278983000Y-45731000D01*
X279283000Y-45731000D01*
X279133000Y-45531000D01*
G36*
X279283000Y-45731000D02*
G01*
X278983000Y-45731000D01*
X279133000Y-45531000D01*
X279283000Y-45731000D01*
G37*
%TO.C,C15*%
X43813000Y-45211420D02*
X43813000Y-45492580D01*
X44833000Y-45211420D02*
X44833000Y-45492580D01*
%TO.C,C4*%
X252362000Y-44920420D02*
X252362000Y-45201580D01*
X253382000Y-44920420D02*
X253382000Y-45201580D01*
%TD*%
M02*
