%TF.GenerationSoftware,KiCad,Pcbnew,10.0.5*%
%TF.CreationDate,2026-08-21T21:46:46+10:00*%
%TF.ProjectId,keeb,6b656562-2e6b-4696-9361-645f70636258,rev?*%
%TF.SameCoordinates,Original*%
%TF.FileFunction,Other,User*%
%FSLAX46Y46*%
G04 Gerber Fmt 4.6, Leading zero omitted, Abs format (unit mm)*
G04 Created by KiCad (PCBNEW 10.0.5) date 2026-08-21 21:46:46*
%MOMM*%
%LPD*%
G01*
G04 APERTURE LIST*
%ADD10C,0.050000*%
G04 APERTURE END LIST*
%TO.C,SW21*%
D10*
X158755000Y-66553000D02*
X175255000Y-66553000D01*
X175255000Y-83053000D01*
X158755000Y-83053000D01*
X158755000Y-66553000D01*
%TO.C,SW17*%
X82555000Y-66553000D02*
X99055000Y-66553000D01*
X99055000Y-83053000D01*
X82555000Y-83053000D01*
X82555000Y-66553000D01*
%TO.C,D66*%
X218306000Y-136461000D02*
X220606000Y-136461000D01*
X218306000Y-141161000D02*
X218306000Y-136461000D01*
X218306000Y-141161000D02*
X220606000Y-141161000D01*
X220606000Y-136461000D02*
X220606000Y-141161000D01*
%TO.C,SW83*%
X349255000Y-142753000D02*
X365755000Y-142753000D01*
X365755000Y-159253000D01*
X349255000Y-159253000D01*
X349255000Y-142753000D01*
%TO.C,SW65*%
X182567500Y-123703000D02*
X199067500Y-123703000D01*
X199067500Y-140203000D01*
X182567500Y-140203000D01*
X182567500Y-123703000D01*
%TO.C,SW37*%
X187330000Y-85603000D02*
X203830000Y-85603000D01*
X203830000Y-102103000D01*
X187330000Y-102103000D01*
X187330000Y-85603000D01*
%TO.C,SW47*%
X96842500Y-104653000D02*
X113342500Y-104653000D01*
X113342500Y-121153000D01*
X96842500Y-121153000D01*
X96842500Y-104653000D01*
%TO.C,SW36*%
X168280000Y-85603000D02*
X184780000Y-85603000D01*
X184780000Y-102103000D01*
X168280000Y-102103000D01*
X168280000Y-85603000D01*
%TO.C,SW70*%
X289723750Y-123703000D02*
X306223750Y-123703000D01*
X306223750Y-140203000D01*
X289723750Y-140203000D01*
X289723750Y-123703000D01*
%TO.C,D34*%
X146805000Y-98234000D02*
X149105000Y-98234000D01*
X146805000Y-102934000D02*
X146805000Y-98234000D01*
X146805000Y-102934000D02*
X149105000Y-102934000D01*
X149105000Y-98234000D02*
X149105000Y-102934000D01*
%TO.C,SW63*%
X144467500Y-123703000D02*
X160967500Y-123703000D01*
X160967500Y-140203000D01*
X144467500Y-140203000D01*
X144467500Y-123703000D01*
%TO.C,SW54*%
X230192500Y-104653000D02*
X246692500Y-104653000D01*
X246692500Y-121153000D01*
X230192500Y-121153000D01*
X230192500Y-104653000D01*
%TO.C,SW12*%
X263530000Y-47503000D02*
X280030000Y-47503000D01*
X280030000Y-64003000D01*
X263530000Y-64003000D01*
X263530000Y-47503000D01*
%TO.C,D45*%
X75304000Y-117285000D02*
X77604000Y-117285000D01*
X75304000Y-121985000D02*
X75304000Y-117285000D01*
X75304000Y-121985000D02*
X77604000Y-121985000D01*
X77604000Y-117285000D02*
X77604000Y-121985000D01*
%TO.C,SW84*%
X368305000Y-142753000D02*
X384805000Y-142753000D01*
X384805000Y-159253000D01*
X368305000Y-159253000D01*
X368305000Y-142753000D01*
%TO.C,D25*%
X251580000Y-78548000D02*
X253880000Y-78548000D01*
X251580000Y-83248000D02*
X251580000Y-78548000D01*
X251580000Y-83248000D02*
X253880000Y-83248000D01*
X253880000Y-78548000D02*
X253880000Y-83248000D01*
%TO.C,D57*%
X311143000Y-117284000D02*
X313443000Y-117284000D01*
X311143000Y-121984000D02*
X311143000Y-117284000D01*
X311143000Y-121984000D02*
X313443000Y-121984000D01*
X313443000Y-117284000D02*
X313443000Y-121984000D01*
%TO.C,SW78*%
X244480000Y-142753000D02*
X260980000Y-142753000D01*
X260980000Y-159253000D01*
X244480000Y-159253000D01*
X244480000Y-142753000D01*
%TO.C,D77*%
X241928000Y-154749000D02*
X244228000Y-154749000D01*
X241928000Y-159449000D02*
X241928000Y-154749000D01*
X241928000Y-159449000D02*
X244228000Y-159449000D01*
X244228000Y-154749000D02*
X244228000Y-159449000D01*
%TO.C,D46*%
X94354000Y-117284000D02*
X96654000Y-117284000D01*
X94354000Y-121984000D02*
X94354000Y-117284000D01*
X94354000Y-121984000D02*
X96654000Y-121984000D01*
X96654000Y-117284000D02*
X96654000Y-121984000D01*
%TO.C,D73*%
X61080000Y-154749000D02*
X63380000Y-154749000D01*
X61080000Y-159449000D02*
X61080000Y-154749000D01*
X61080000Y-159449000D02*
X63380000Y-159449000D01*
X63380000Y-154749000D02*
X63380000Y-159449000D01*
%TO.C,SW81*%
X301630000Y-142753000D02*
X318130000Y-142753000D01*
X318130000Y-159253000D01*
X301630000Y-159253000D01*
X301630000Y-142753000D01*
%TO.C,D52*%
X208654000Y-117284000D02*
X210954000Y-117284000D01*
X208654000Y-121984000D02*
X208654000Y-117284000D01*
X208654000Y-121984000D02*
X210954000Y-121984000D01*
X210954000Y-117284000D02*
X210954000Y-121984000D01*
%TO.C,D74*%
X80130000Y-154749000D02*
X82430000Y-154749000D01*
X80130000Y-159449000D02*
X80130000Y-154749000D01*
X80130000Y-159449000D02*
X82430000Y-159449000D01*
X82430000Y-154749000D02*
X82430000Y-159449000D01*
%TO.C,D56*%
X285108000Y-117284000D02*
X287408000Y-117284000D01*
X285108000Y-121984000D02*
X285108000Y-117284000D01*
X285108000Y-121984000D02*
X287408000Y-121984000D01*
X287408000Y-117284000D02*
X287408000Y-121984000D01*
%TO.C,SW75*%
X82555000Y-142753000D02*
X99055000Y-142753000D01*
X99055000Y-159253000D01*
X82555000Y-159253000D01*
X82555000Y-142753000D01*
%TO.C,SW34*%
X130180000Y-85603000D02*
X146680000Y-85603000D01*
X146680000Y-102103000D01*
X130180000Y-102103000D01*
X130180000Y-85603000D01*
%TO.C,D65*%
X199129000Y-136461000D02*
X201429000Y-136461000D01*
X199129000Y-141161000D02*
X199129000Y-136461000D01*
X199129000Y-141161000D02*
X201429000Y-141161000D01*
X201429000Y-136461000D02*
X201429000Y-141161000D01*
%TO.C,D35*%
X165855000Y-98234000D02*
X168155000Y-98234000D01*
X165855000Y-102934000D02*
X165855000Y-98234000D01*
X165855000Y-102934000D02*
X168155000Y-102934000D01*
X168155000Y-98234000D02*
X168155000Y-102934000D01*
%TO.C,D22*%
X194430000Y-78548000D02*
X196730000Y-78548000D01*
X194430000Y-83248000D02*
X194430000Y-78548000D01*
X194430000Y-83248000D02*
X196730000Y-83248000D01*
X196730000Y-78548000D02*
X196730000Y-83248000D01*
%TO.C,SW66*%
X201617500Y-123703000D02*
X218117500Y-123703000D01*
X218117500Y-140203000D01*
X201617500Y-140203000D01*
X201617500Y-123703000D01*
%TO.C,D47*%
X113404000Y-117284000D02*
X115704000Y-117284000D01*
X113404000Y-121984000D02*
X113404000Y-117284000D01*
X113404000Y-121984000D02*
X115704000Y-121984000D01*
X115704000Y-117284000D02*
X115704000Y-121984000D01*
%TO.C,D39*%
X242055000Y-98234000D02*
X244355000Y-98234000D01*
X242055000Y-102934000D02*
X242055000Y-98234000D01*
X242055000Y-102934000D02*
X244355000Y-102934000D01*
X244355000Y-98234000D02*
X244355000Y-102934000D01*
%TO.C,SW4*%
X111130000Y-47503000D02*
X127630000Y-47503000D01*
X127630000Y-64003000D01*
X111130000Y-64003000D01*
X111130000Y-47503000D01*
%TO.C,SW6*%
X149230000Y-47503000D02*
X165730000Y-47503000D01*
X165730000Y-64003000D01*
X149230000Y-64003000D01*
X149230000Y-47503000D01*
%TO.C,D48*%
X132581000Y-117284000D02*
X134881000Y-117284000D01*
X132581000Y-121984000D02*
X132581000Y-117284000D01*
X132581000Y-121984000D02*
X134881000Y-121984000D01*
X134881000Y-117284000D02*
X134881000Y-121984000D01*
%TO.C,SW61*%
X106367500Y-123703000D02*
X122867500Y-123703000D01*
X122867500Y-140203000D01*
X106367500Y-140203000D01*
X106367500Y-123703000D01*
%TO.C,D43*%
X318382000Y-98234000D02*
X320682000Y-98234000D01*
X318382000Y-102934000D02*
X318382000Y-98234000D01*
X318382000Y-102934000D02*
X320682000Y-102934000D01*
X320682000Y-98234000D02*
X320682000Y-102934000D01*
%TO.C,SW38*%
X206380000Y-85603000D02*
X222880000Y-85603000D01*
X222880000Y-102103000D01*
X206380000Y-102103000D01*
X206380000Y-85603000D01*
%TO.C,SW77*%
X175423750Y-142753000D02*
X191923750Y-142753000D01*
X191923750Y-159253000D01*
X175423750Y-159253000D01*
X175423750Y-142753000D01*
%TO.C,SW29*%
X368305000Y-57028000D02*
X384805000Y-57028000D01*
X384805000Y-73528000D01*
X368305000Y-73528000D01*
X368305000Y-57028000D01*
%TO.C,D20*%
X156330000Y-78548000D02*
X158630000Y-78548000D01*
X156330000Y-83248000D02*
X156330000Y-78548000D01*
X156330000Y-83248000D02*
X158630000Y-83248000D01*
X158630000Y-78548000D02*
X158630000Y-83248000D01*
%TO.C,D62*%
X142106000Y-136461000D02*
X144406000Y-136461000D01*
X142106000Y-141161000D02*
X142106000Y-136461000D01*
X142106000Y-141161000D02*
X144406000Y-141161000D01*
X144406000Y-136461000D02*
X144406000Y-141161000D01*
%TO.C,SW69*%
X258767500Y-123703000D02*
X275267500Y-123703000D01*
X275267500Y-140203000D01*
X258767500Y-140203000D01*
X258767500Y-123703000D01*
%TO.C,D5*%
X146805000Y-60388000D02*
X149105000Y-60388000D01*
X146805000Y-65088000D02*
X146805000Y-60388000D01*
X146805000Y-65088000D02*
X149105000Y-65088000D01*
X149105000Y-60388000D02*
X149105000Y-65088000D01*
%TO.C,D76*%
X120770000Y-154749000D02*
X123070000Y-154749000D01*
X120770000Y-159449000D02*
X120770000Y-154749000D01*
X120770000Y-159449000D02*
X123070000Y-159449000D01*
X123070000Y-154749000D02*
X123070000Y-159449000D01*
%TO.C,D60*%
X103948000Y-136461000D02*
X106248000Y-136461000D01*
X103948000Y-141161000D02*
X103948000Y-136461000D01*
X103948000Y-141161000D02*
X106248000Y-141161000D01*
X106248000Y-136461000D02*
X106248000Y-141161000D01*
%TO.C,SW16*%
X63505000Y-66553000D02*
X80005000Y-66553000D01*
X80005000Y-83053000D01*
X63505000Y-83053000D01*
X63505000Y-66553000D01*
%TO.C,D41*%
X280155000Y-98230000D02*
X282455000Y-98230000D01*
X280155000Y-102930000D02*
X280155000Y-98230000D01*
X280155000Y-102930000D02*
X282455000Y-102930000D01*
X282455000Y-98230000D02*
X282455000Y-102930000D01*
%TO.C,D44*%
X353631000Y-92576000D02*
X353631000Y-94876000D01*
X353631000Y-92576000D02*
X358331000Y-92576000D01*
X358331000Y-92576000D02*
X358331000Y-94876000D01*
X358331000Y-94876000D02*
X353631000Y-94876000D01*
%TO.C,D19*%
X137280000Y-78548000D02*
X139580000Y-78548000D01*
X137280000Y-83248000D02*
X137280000Y-78548000D01*
X137280000Y-83248000D02*
X139580000Y-83248000D01*
X139580000Y-78548000D02*
X139580000Y-83248000D01*
%TO.C,SW5*%
X130180000Y-47503000D02*
X146680000Y-47503000D01*
X146680000Y-64003000D01*
X130180000Y-64003000D01*
X130180000Y-47503000D01*
%TO.C,SW2*%
X73030000Y-47503000D02*
X89530000Y-47503000D01*
X89530000Y-64003000D01*
X73030000Y-64003000D01*
X73030000Y-47503000D01*
%TO.C,D36*%
X184905000Y-98234000D02*
X187205000Y-98234000D01*
X184905000Y-102934000D02*
X184905000Y-98234000D01*
X184905000Y-102934000D02*
X187205000Y-102934000D01*
X187205000Y-98234000D02*
X187205000Y-102934000D01*
%TO.C,D30*%
X69970000Y-98234000D02*
X72270000Y-98234000D01*
X69970000Y-102934000D02*
X69970000Y-98234000D01*
X69970000Y-102934000D02*
X72270000Y-102934000D01*
X72270000Y-98234000D02*
X72270000Y-102934000D01*
%TO.C,U1*%
X332332000Y-98860000D02*
X344832000Y-98860000D01*
X344832000Y-137360000D01*
X332332000Y-137360000D01*
X332332000Y-98860000D01*
%TO.C,SW55*%
X249242500Y-104653000D02*
X265742500Y-104653000D01*
X265742500Y-121153000D01*
X249242500Y-121153000D01*
X249242500Y-104653000D01*
%TO.C,SW1*%
X49217500Y-47503000D02*
X65717500Y-47503000D01*
X65717500Y-64003000D01*
X49217500Y-64003000D01*
X49217500Y-47503000D01*
%TO.C,D21*%
X175380000Y-78548000D02*
X177680000Y-78548000D01*
X175380000Y-83248000D02*
X175380000Y-78548000D01*
X175380000Y-83248000D02*
X177680000Y-83248000D01*
X177680000Y-78548000D02*
X177680000Y-83248000D01*
%TO.C,SW23*%
X196855000Y-66553000D02*
X213355000Y-66553000D01*
X213355000Y-83053000D01*
X196855000Y-83053000D01*
X196855000Y-66553000D01*
%TO.C,SW14*%
X349255000Y-57028000D02*
X365755000Y-57028000D01*
X365755000Y-73528000D01*
X349255000Y-73528000D01*
X349255000Y-57028000D01*
%TO.C,SW56*%
X268292500Y-104653000D02*
X284792500Y-104653000D01*
X284792500Y-121153000D01*
X268292500Y-121153000D01*
X268292500Y-104653000D01*
%TO.C,D78*%
X261105000Y-154749000D02*
X263405000Y-154749000D01*
X261105000Y-159449000D02*
X261105000Y-154749000D01*
X261105000Y-159449000D02*
X263405000Y-159449000D01*
X263405000Y-154749000D02*
X263405000Y-159449000D01*
%TO.C,D82*%
X346830000Y-145352000D02*
X346830000Y-140652000D01*
X349130000Y-140652000D02*
X346830000Y-140652000D01*
X349130000Y-140652000D02*
X349130000Y-145352000D01*
X349130000Y-145352000D02*
X346830000Y-145352000D01*
%TO.C,SW22*%
X177805000Y-66553000D02*
X194305000Y-66553000D01*
X194305000Y-83053000D01*
X177805000Y-83053000D01*
X177805000Y-66553000D01*
%TO.C,D4*%
X127755000Y-60388000D02*
X130055000Y-60388000D01*
X127755000Y-65088000D02*
X127755000Y-60388000D01*
X127755000Y-65088000D02*
X130055000Y-65088000D01*
X130055000Y-60388000D02*
X130055000Y-65088000D01*
%TO.C,SW43*%
X301630000Y-85603000D02*
X318130000Y-85603000D01*
X318130000Y-102103000D01*
X301630000Y-102103000D01*
X301630000Y-85603000D01*
%TO.C,D55*%
X265804000Y-117284000D02*
X268104000Y-117284000D01*
X265804000Y-121984000D02*
X265804000Y-117284000D01*
X265804000Y-121984000D02*
X268104000Y-121984000D01*
X268104000Y-117284000D02*
X268104000Y-121984000D01*
%TO.C,D70*%
X308349000Y-136461000D02*
X310649000Y-136461000D01*
X308349000Y-141161000D02*
X308349000Y-136461000D01*
X308349000Y-141161000D02*
X310649000Y-141161000D01*
X310649000Y-136461000D02*
X310649000Y-141161000D01*
%TO.C,SW44*%
X349255000Y-76078000D02*
X365755000Y-76078000D01*
X365755000Y-92578000D01*
X349255000Y-92578000D01*
X349255000Y-76078000D01*
%TO.C,D75*%
X99434000Y-154749000D02*
X101734000Y-154749000D01*
X99434000Y-159449000D02*
X99434000Y-154749000D01*
X99434000Y-159449000D02*
X101734000Y-159449000D01*
X101734000Y-154749000D02*
X101734000Y-159449000D01*
%TO.C,SW58*%
X368305000Y-76078000D02*
X384805000Y-76078000D01*
X384805000Y-92578000D01*
X368305000Y-92578000D01*
X368305000Y-76078000D01*
%TO.C,SW24*%
X215905000Y-66553000D02*
X232405000Y-66553000D01*
X232405000Y-83053000D01*
X215905000Y-83053000D01*
X215905000Y-66553000D01*
%TO.C,SW59*%
X56361250Y-123703000D02*
X72861250Y-123703000D01*
X72861250Y-140203000D01*
X56361250Y-140203000D01*
X56361250Y-123703000D01*
%TO.C,D17*%
X99180000Y-78548000D02*
X101480000Y-78548000D01*
X99180000Y-83248000D02*
X99180000Y-78548000D01*
X99180000Y-83248000D02*
X101480000Y-83248000D01*
X101480000Y-78548000D02*
X101480000Y-83248000D01*
%TO.C,SW19*%
X120655000Y-66553000D02*
X137155000Y-66553000D01*
X137155000Y-83053000D01*
X120655000Y-83053000D01*
X120655000Y-66553000D01*
%TO.C,SW85*%
X368305000Y-95128000D02*
X384805000Y-95128000D01*
X384805000Y-111628000D01*
X368305000Y-111628000D01*
X368305000Y-95128000D01*
%TO.C,D26*%
X270630000Y-78548000D02*
X272930000Y-78548000D01*
X270630000Y-83248000D02*
X270630000Y-78548000D01*
X270630000Y-83248000D02*
X272930000Y-83248000D01*
X272930000Y-78548000D02*
X272930000Y-83248000D01*
%TO.C,SW20*%
X139705000Y-66553000D02*
X156205000Y-66553000D01*
X156205000Y-83053000D01*
X139705000Y-83053000D01*
X139705000Y-66553000D01*
%TO.C,D16*%
X80130000Y-78548000D02*
X82430000Y-78548000D01*
X80130000Y-83248000D02*
X80130000Y-78548000D01*
X80130000Y-83248000D02*
X82430000Y-83248000D01*
X82430000Y-78548000D02*
X82430000Y-83248000D01*
%TO.C,D28*%
X315207000Y-78549000D02*
X317507000Y-78549000D01*
X315207000Y-83249000D02*
X315207000Y-78549000D01*
X315207000Y-83249000D02*
X317507000Y-83249000D01*
X317507000Y-78549000D02*
X317507000Y-83249000D01*
%TO.C,SW53*%
X211142500Y-104653000D02*
X227642500Y-104653000D01*
X227642500Y-121153000D01*
X211142500Y-121153000D01*
X211142500Y-104653000D01*
%TO.C,D84*%
X376745000Y-140201000D02*
X376745000Y-142501000D01*
X376745000Y-140201000D02*
X381445000Y-140201000D01*
X381445000Y-140201000D02*
X381445000Y-142501000D01*
X381445000Y-142501000D02*
X376745000Y-142501000D01*
%TO.C,SW74*%
X63505000Y-142753000D02*
X80005000Y-142753000D01*
X80005000Y-159253000D01*
X63505000Y-159253000D01*
X63505000Y-142753000D01*
%TO.C,SW52*%
X192092500Y-104653000D02*
X208592500Y-104653000D01*
X208592500Y-121153000D01*
X192092500Y-121153000D01*
X192092500Y-104653000D01*
%TO.C,SW30*%
X49217500Y-85603000D02*
X65717500Y-85603000D01*
X65717500Y-102103000D01*
X49217500Y-102103000D01*
X49217500Y-85603000D01*
%TO.C,SW13*%
X282580000Y-47503000D02*
X299080000Y-47503000D01*
X299080000Y-64003000D01*
X282580000Y-64003000D01*
X282580000Y-47503000D01*
%TO.C,SW51*%
X173042500Y-104653000D02*
X189542500Y-104653000D01*
X189542500Y-121153000D01*
X173042500Y-121153000D01*
X173042500Y-104653000D01*
%TO.C,D23*%
X213480000Y-78548000D02*
X215780000Y-78548000D01*
X213480000Y-83248000D02*
X213480000Y-78548000D01*
X213480000Y-83248000D02*
X215780000Y-83248000D01*
X215780000Y-78548000D02*
X215780000Y-83248000D01*
%TO.C,D80*%
X299205000Y-154749000D02*
X301505000Y-154749000D01*
X299205000Y-159449000D02*
X299205000Y-154749000D01*
X299205000Y-159449000D02*
X301505000Y-159449000D01*
X301505000Y-154749000D02*
X301505000Y-159449000D01*
%TO.C,SW25*%
X234955000Y-66553000D02*
X251455000Y-66553000D01*
X251455000Y-83053000D01*
X234955000Y-83053000D01*
X234955000Y-66553000D01*
%TO.C,SW32*%
X92080000Y-85603000D02*
X108580000Y-85603000D01*
X108580000Y-102103000D01*
X92080000Y-102103000D01*
X92080000Y-85603000D01*
%TO.C,SW11*%
X244480000Y-47503000D02*
X260980000Y-47503000D01*
X260980000Y-64003000D01*
X244480000Y-64003000D01*
X244480000Y-47503000D01*
%TO.C,D51*%
X189731000Y-117284000D02*
X192031000Y-117284000D01*
X189731000Y-121984000D02*
X189731000Y-117284000D01*
X189731000Y-121984000D02*
X192031000Y-121984000D01*
X192031000Y-117284000D02*
X192031000Y-121984000D01*
%TO.C,D68*%
X256279000Y-136461000D02*
X258579000Y-136461000D01*
X256279000Y-141161000D02*
X256279000Y-136461000D01*
X256279000Y-141161000D02*
X258579000Y-141161000D01*
X258579000Y-136461000D02*
X258579000Y-141161000D01*
%TO.C,SW8*%
X187330000Y-47503000D02*
X203830000Y-47503000D01*
X203830000Y-64003000D01*
X187330000Y-64003000D01*
X187330000Y-47503000D01*
%TO.C,SW67*%
X220667500Y-123703000D02*
X237167500Y-123703000D01*
X237167500Y-140203000D01*
X220667500Y-140203000D01*
X220667500Y-123703000D01*
%TO.C,D64*%
X180079000Y-136460000D02*
X182379000Y-136460000D01*
X180079000Y-141160000D02*
X180079000Y-136460000D01*
X180079000Y-141160000D02*
X182379000Y-141160000D01*
X182379000Y-136460000D02*
X182379000Y-141160000D01*
%TO.C,SW15*%
X44455000Y-66553000D02*
X60955000Y-66553000D01*
X60955000Y-83053000D01*
X44455000Y-83053000D01*
X44455000Y-66553000D01*
%TO.C,SW26*%
X254005000Y-66553000D02*
X270505000Y-66553000D01*
X270505000Y-83053000D01*
X254005000Y-83053000D01*
X254005000Y-66553000D01*
%TO.C,D14*%
X360870000Y-73653000D02*
X365570000Y-73653000D01*
X360870000Y-75953000D02*
X360870000Y-73653000D01*
X365570000Y-75953000D02*
X360870000Y-75953000D01*
X365570000Y-75953000D02*
X365570000Y-73653000D01*
%TO.C,D49*%
X151631000Y-117284000D02*
X153931000Y-117284000D01*
X151631000Y-121984000D02*
X151631000Y-117284000D01*
X151631000Y-121984000D02*
X153931000Y-121984000D01*
X153931000Y-117284000D02*
X153931000Y-121984000D01*
%TO.C,D31*%
X89655000Y-98234000D02*
X91955000Y-98234000D01*
X89655000Y-102934000D02*
X89655000Y-98234000D01*
X89655000Y-102934000D02*
X91955000Y-102934000D01*
X91955000Y-98234000D02*
X91955000Y-102934000D01*
%TO.C,SW39*%
X225430000Y-85603000D02*
X241930000Y-85603000D01*
X241930000Y-102103000D01*
X225430000Y-102103000D01*
X225430000Y-85603000D01*
%TO.C,SW68*%
X239717500Y-123703000D02*
X256217500Y-123703000D01*
X256217500Y-140203000D01*
X239717500Y-140203000D01*
X239717500Y-123703000D01*
%TO.C,D12*%
X280155000Y-60515000D02*
X282455000Y-60515000D01*
X280155000Y-65215000D02*
X280155000Y-60515000D01*
X280155000Y-65215000D02*
X282455000Y-65215000D01*
X282455000Y-60515000D02*
X282455000Y-65215000D01*
%TO.C,SW31*%
X73030000Y-85603000D02*
X89530000Y-85603000D01*
X89530000Y-102103000D01*
X73030000Y-102103000D01*
X73030000Y-85603000D01*
%TO.C,D6*%
X165855000Y-60388000D02*
X168155000Y-60388000D01*
X165855000Y-65088000D02*
X165855000Y-60388000D01*
X165855000Y-65088000D02*
X168155000Y-65088000D01*
X168155000Y-60388000D02*
X168155000Y-65088000D01*
%TO.C,D9*%
X223005000Y-60388000D02*
X225305000Y-60388000D01*
X223005000Y-65088000D02*
X223005000Y-60388000D01*
X223005000Y-65088000D02*
X225305000Y-65088000D01*
X225305000Y-60388000D02*
X225305000Y-65088000D01*
%TO.C,D71*%
X349313000Y-121151000D02*
X349313000Y-123451000D01*
X349313000Y-121151000D02*
X354013000Y-121151000D01*
X354013000Y-121151000D02*
X354013000Y-123451000D01*
X354013000Y-123451000D02*
X349313000Y-123451000D01*
%TO.C,D24*%
X232530000Y-78548000D02*
X234830000Y-78548000D01*
X232530000Y-83248000D02*
X232530000Y-78548000D01*
X232530000Y-83248000D02*
X234830000Y-83248000D01*
X234830000Y-78548000D02*
X234830000Y-83248000D01*
%TO.C,D42*%
X299205000Y-98234000D02*
X301505000Y-98234000D01*
X299205000Y-102934000D02*
X299205000Y-98234000D01*
X299205000Y-102934000D02*
X301505000Y-102934000D01*
X301505000Y-98234000D02*
X301505000Y-102934000D01*
%TO.C,SW28*%
X296867500Y-66553000D02*
X313367500Y-66553000D01*
X313367500Y-83053000D01*
X296867500Y-83053000D01*
X296867500Y-66553000D01*
%TO.C,D40*%
X261105000Y-98230000D02*
X263405000Y-98230000D01*
X261105000Y-102930000D02*
X261105000Y-98230000D01*
X261105000Y-102930000D02*
X263405000Y-102930000D01*
X263405000Y-98230000D02*
X263405000Y-102930000D01*
%TO.C,SW76*%
X103986250Y-142753000D02*
X120486250Y-142753000D01*
X120486250Y-159253000D01*
X103986250Y-159253000D01*
X103986250Y-142753000D01*
%TO.C,SW33*%
X111130000Y-85603000D02*
X127630000Y-85603000D01*
X127630000Y-102103000D01*
X111130000Y-102103000D01*
X111130000Y-85603000D01*
%TO.C,D72*%
X353377000Y-111880000D02*
X353377000Y-114180000D01*
X353377000Y-111880000D02*
X358077000Y-111880000D01*
X358077000Y-111880000D02*
X358077000Y-114180000D01*
X358077000Y-114180000D02*
X353377000Y-114180000D01*
%TO.C,SW62*%
X125417500Y-123703000D02*
X141917500Y-123703000D01*
X141917500Y-140203000D01*
X125417500Y-140203000D01*
X125417500Y-123703000D01*
%TO.C,SW48*%
X115892500Y-104653000D02*
X132392500Y-104653000D01*
X132392500Y-121153000D01*
X115892500Y-121153000D01*
X115892500Y-104653000D01*
%TO.C,SW64*%
X163517500Y-123703000D02*
X180017500Y-123703000D01*
X180017500Y-140203000D01*
X163517500Y-140203000D01*
X163517500Y-123703000D01*
%TO.C,SW40*%
X244480000Y-85603000D02*
X260980000Y-85603000D01*
X260980000Y-102103000D01*
X244480000Y-102103000D01*
X244480000Y-85603000D01*
%TO.C,RED1*%
X299332000Y-47561000D02*
X301632000Y-47561000D01*
X299332000Y-52261000D02*
X299332000Y-47561000D01*
X299332000Y-52261000D02*
X301632000Y-52261000D01*
X301632000Y-47561000D02*
X301632000Y-52261000D01*
%TO.C,D32*%
X108705000Y-98234000D02*
X111005000Y-98234000D01*
X108705000Y-102934000D02*
X108705000Y-98234000D01*
X108705000Y-102934000D02*
X111005000Y-102934000D01*
X111005000Y-98234000D02*
X111005000Y-102934000D01*
%TO.C,SW18*%
X101605000Y-66553000D02*
X118105000Y-66553000D01*
X118105000Y-83053000D01*
X101605000Y-83053000D01*
X101605000Y-66553000D01*
%TO.C,D13*%
X299332000Y-60515000D02*
X301632000Y-60515000D01*
X299332000Y-65215000D02*
X299332000Y-60515000D01*
X299332000Y-65215000D02*
X301632000Y-65215000D01*
X301632000Y-60515000D02*
X301632000Y-65215000D01*
%TO.C,SW42*%
X282580000Y-85603000D02*
X299080000Y-85603000D01*
X299080000Y-102103000D01*
X282580000Y-102103000D01*
X282580000Y-85603000D01*
%TO.C,D54*%
X246881000Y-117284000D02*
X249181000Y-117284000D01*
X246881000Y-121984000D02*
X246881000Y-117284000D01*
X246881000Y-121984000D02*
X249181000Y-121984000D01*
X249181000Y-117284000D02*
X249181000Y-121984000D01*
%TO.C,SW7*%
X168280000Y-47503000D02*
X184780000Y-47503000D01*
X184780000Y-64003000D01*
X168280000Y-64003000D01*
X168280000Y-47503000D01*
%TO.C,SW9*%
X206380000Y-47503000D02*
X222880000Y-47503000D01*
X222880000Y-64003000D01*
X206380000Y-64003000D01*
X206380000Y-47503000D01*
%TO.C,D69*%
X275456000Y-136461000D02*
X277756000Y-136461000D01*
X275456000Y-141161000D02*
X275456000Y-136461000D01*
X275456000Y-141161000D02*
X277756000Y-141161000D01*
X277756000Y-136461000D02*
X277756000Y-141161000D01*
%TO.C,SW41*%
X263530000Y-85603000D02*
X280030000Y-85603000D01*
X280030000Y-102103000D01*
X263530000Y-102103000D01*
X263530000Y-85603000D01*
%TO.C,SW79*%
X263530000Y-142753000D02*
X280030000Y-142753000D01*
X280030000Y-159253000D01*
X263530000Y-159253000D01*
X263530000Y-142753000D01*
%TO.C,D10*%
X242036000Y-60515000D02*
X244336000Y-60515000D01*
X242036000Y-65215000D02*
X242036000Y-60515000D01*
X242036000Y-65215000D02*
X244336000Y-65215000D01*
X244336000Y-60515000D02*
X244336000Y-65215000D01*
%TO.C,SW71*%
X349255000Y-123703000D02*
X365755000Y-123703000D01*
X365755000Y-140203000D01*
X349255000Y-140203000D01*
X349255000Y-123703000D01*
%TO.C,D63*%
X161156000Y-136461000D02*
X163456000Y-136461000D01*
X161156000Y-141161000D02*
X161156000Y-136461000D01*
X161156000Y-141161000D02*
X163456000Y-141161000D01*
X163456000Y-136461000D02*
X163456000Y-141161000D01*
%TO.C,D61*%
X123056000Y-136461000D02*
X125356000Y-136461000D01*
X123056000Y-141161000D02*
X123056000Y-136461000D01*
X123056000Y-141161000D02*
X125356000Y-141161000D01*
X125356000Y-136461000D02*
X125356000Y-141161000D01*
%TO.C,SW46*%
X77792500Y-104653000D02*
X94292500Y-104653000D01*
X94292500Y-121153000D01*
X77792500Y-121153000D01*
X77792500Y-104653000D01*
%TO.C,D37*%
X203955000Y-98234000D02*
X206255000Y-98234000D01*
X203955000Y-102934000D02*
X203955000Y-98234000D01*
X203955000Y-102934000D02*
X206255000Y-102934000D01*
X206255000Y-98234000D02*
X206255000Y-102934000D01*
%TO.C,D83*%
X365880000Y-145352000D02*
X365880000Y-140652000D01*
X368180000Y-140652000D02*
X365880000Y-140652000D01*
X368180000Y-140652000D02*
X368180000Y-145352000D01*
X368180000Y-145352000D02*
X365880000Y-145352000D01*
%TO.C,D38*%
X223005000Y-98234000D02*
X225305000Y-98234000D01*
X223005000Y-102934000D02*
X223005000Y-98234000D01*
X223005000Y-102934000D02*
X225305000Y-102934000D01*
X225305000Y-98234000D02*
X225305000Y-102934000D01*
%TO.C,A1*%
X330272000Y-39248000D02*
X339272000Y-39248000D01*
X339272000Y-40798000D01*
X346312000Y-40798000D01*
X346312000Y-93098000D01*
X323232000Y-93098000D01*
X323232000Y-40798000D01*
X330272000Y-40798000D01*
X330272000Y-39248000D01*
%TO.C,SW73*%
X44455000Y-142753000D02*
X60955000Y-142753000D01*
X60955000Y-159253000D01*
X44455000Y-159253000D01*
X44455000Y-142753000D01*
%TO.C,D53*%
X227704000Y-117284000D02*
X230004000Y-117284000D01*
X227704000Y-121984000D02*
X227704000Y-117284000D01*
X227704000Y-121984000D02*
X230004000Y-121984000D01*
X230004000Y-117284000D02*
X230004000Y-121984000D01*
%TO.C,SW57*%
X294486250Y-104653000D02*
X310986250Y-104653000D01*
X310986250Y-121153000D01*
X294486250Y-121153000D01*
X294486250Y-104653000D01*
%TO.C,SW35*%
X149230000Y-85603000D02*
X165730000Y-85603000D01*
X165730000Y-102103000D01*
X149230000Y-102103000D01*
X149230000Y-85603000D01*
%TO.C,SW27*%
X273055000Y-66553000D02*
X289555000Y-66553000D01*
X289555000Y-83053000D01*
X273055000Y-83053000D01*
X273055000Y-66553000D01*
%TO.C,SW80*%
X282580000Y-142753000D02*
X299080000Y-142753000D01*
X299080000Y-159253000D01*
X282580000Y-159253000D01*
X282580000Y-142753000D01*
%TO.C,D8*%
X203955000Y-60388000D02*
X206255000Y-60388000D01*
X203955000Y-65088000D02*
X203955000Y-60388000D01*
X203955000Y-65088000D02*
X206255000Y-65088000D01*
X206255000Y-60388000D02*
X206255000Y-65088000D01*
%TO.C,D27*%
X289680000Y-78549000D02*
X291980000Y-78549000D01*
X289680000Y-83249000D02*
X289680000Y-78549000D01*
X289680000Y-83249000D02*
X291980000Y-83249000D01*
X291980000Y-78549000D02*
X291980000Y-83249000D01*
%TO.C,D7*%
X184905000Y-60388000D02*
X187205000Y-60388000D01*
X184905000Y-65088000D02*
X184905000Y-60388000D01*
X184905000Y-65088000D02*
X187205000Y-65088000D01*
X187205000Y-60388000D02*
X187205000Y-65088000D01*
%TO.C,D59*%
X84829000Y-136461000D02*
X87129000Y-136461000D01*
X84829000Y-141161000D02*
X84829000Y-136461000D01*
X84829000Y-141161000D02*
X87129000Y-141161000D01*
X87129000Y-136461000D02*
X87129000Y-141161000D01*
%TO.C,D1*%
X70351000Y-60388000D02*
X72651000Y-60388000D01*
X70351000Y-65088000D02*
X70351000Y-60388000D01*
X70351000Y-65088000D02*
X72651000Y-65088000D01*
X72651000Y-60388000D02*
X72651000Y-65088000D01*
%TO.C,D33*%
X127755000Y-98234000D02*
X130055000Y-98234000D01*
X127755000Y-102934000D02*
X127755000Y-98234000D01*
X127755000Y-102934000D02*
X130055000Y-102934000D01*
X130055000Y-98234000D02*
X130055000Y-102934000D01*
%TO.C,SW72*%
X349255000Y-95128000D02*
X365755000Y-95128000D01*
X365755000Y-111628000D01*
X349255000Y-111628000D01*
X349255000Y-95128000D01*
%TO.C,SW45*%
X51598750Y-104653000D02*
X68098750Y-104653000D01*
X68098750Y-121153000D01*
X51598750Y-121153000D01*
X51598750Y-104653000D01*
%TO.C,SW82*%
X330205000Y-142753000D02*
X346705000Y-142753000D01*
X346705000Y-159253000D01*
X330205000Y-159253000D01*
X330205000Y-142753000D01*
%TO.C,D2*%
X89655000Y-60388000D02*
X91955000Y-60388000D01*
X89655000Y-65088000D02*
X89655000Y-60388000D01*
X89655000Y-65088000D02*
X91955000Y-65088000D01*
X91955000Y-60388000D02*
X91955000Y-65088000D01*
%TO.C,D18*%
X118230000Y-78549000D02*
X120530000Y-78549000D01*
X118230000Y-83249000D02*
X118230000Y-78549000D01*
X118230000Y-83249000D02*
X120530000Y-83249000D01*
X120530000Y-78549000D02*
X120530000Y-83249000D01*
%TO.C,D67*%
X237229000Y-136461000D02*
X239529000Y-136461000D01*
X237229000Y-141161000D02*
X237229000Y-136461000D01*
X237229000Y-141161000D02*
X239529000Y-141161000D01*
X239529000Y-136461000D02*
X239529000Y-141161000D01*
%TO.C,RE1*%
X303831000Y-64619000D02*
X303831000Y-47119000D01*
X303831000Y-64619000D02*
X319231000Y-64619000D01*
X319231000Y-47119000D02*
X303831000Y-47119000D01*
X319231000Y-47119000D02*
X319231000Y-64619000D01*
%TO.C,SW50*%
X153992500Y-104653000D02*
X170492500Y-104653000D01*
X170492500Y-121153000D01*
X153992500Y-121153000D01*
X153992500Y-104653000D01*
%TO.C,D11*%
X261105000Y-60515000D02*
X263405000Y-60515000D01*
X261105000Y-65215000D02*
X261105000Y-60515000D01*
X261105000Y-65215000D02*
X263405000Y-65215000D01*
X263405000Y-60515000D02*
X263405000Y-65215000D01*
%TO.C,SW60*%
X87317500Y-123703000D02*
X103817500Y-123703000D01*
X103817500Y-140203000D01*
X87317500Y-140203000D01*
X87317500Y-123703000D01*
%TO.C,D3*%
X108705000Y-60388000D02*
X111005000Y-60388000D01*
X108705000Y-65088000D02*
X108705000Y-60388000D01*
X108705000Y-65088000D02*
X111005000Y-65088000D01*
X111005000Y-60388000D02*
X111005000Y-65088000D01*
%TO.C,D50*%
X170554000Y-117284000D02*
X172854000Y-117284000D01*
X170554000Y-121984000D02*
X170554000Y-117284000D01*
X170554000Y-121984000D02*
X172854000Y-121984000D01*
X172854000Y-117284000D02*
X172854000Y-121984000D01*
%TO.C,D29*%
X380048000Y-73526000D02*
X384748000Y-73526000D01*
X380048000Y-75826000D02*
X380048000Y-73526000D01*
X384748000Y-75826000D02*
X380048000Y-75826000D01*
X384748000Y-75826000D02*
X384748000Y-73526000D01*
%TO.C,D81*%
X318382000Y-154749000D02*
X320682000Y-154749000D01*
X318382000Y-159449000D02*
X318382000Y-154749000D01*
X318382000Y-159449000D02*
X320682000Y-159449000D01*
X320682000Y-154749000D02*
X320682000Y-159449000D01*
%TO.C,SW3*%
X92080000Y-47503000D02*
X108580000Y-47503000D01*
X108580000Y-64003000D01*
X92080000Y-64003000D01*
X92080000Y-47503000D01*
%TO.C,SW49*%
X134942500Y-104653000D02*
X151442500Y-104653000D01*
X151442500Y-121153000D01*
X134942500Y-121153000D01*
X134942500Y-104653000D01*
%TO.C,D79*%
X280155000Y-154749000D02*
X282455000Y-154749000D01*
X280155000Y-159449000D02*
X280155000Y-154749000D01*
X280155000Y-159449000D02*
X282455000Y-159449000D01*
X282455000Y-154749000D02*
X282455000Y-159449000D01*
%TO.C,D15*%
X61080000Y-78548000D02*
X63380000Y-78548000D01*
X61080000Y-83248000D02*
X61080000Y-78548000D01*
X61080000Y-83248000D02*
X63380000Y-83248000D01*
X63380000Y-78548000D02*
X63380000Y-83248000D01*
%TO.C,D58*%
X372809000Y-92703000D02*
X372809000Y-95003000D01*
X372809000Y-92703000D02*
X377509000Y-92703000D01*
X377509000Y-92703000D02*
X377509000Y-95003000D01*
X377509000Y-95003000D02*
X372809000Y-95003000D01*
%TO.C,SW10*%
X225430000Y-47503000D02*
X241930000Y-47503000D01*
X241930000Y-64003000D01*
X225430000Y-64003000D01*
X225430000Y-47503000D01*
%TO.C,D85*%
X376618000Y-111880000D02*
X376618000Y-114180000D01*
X376618000Y-111880000D02*
X381318000Y-111880000D01*
X381318000Y-111880000D02*
X381318000Y-114180000D01*
X381318000Y-114180000D02*
X376618000Y-114180000D01*
%TD*%
M02*
