%TF.GenerationSoftware,KiCad,Pcbnew,10.0.5*%
%TF.CreationDate,2026-08-21T21:46:46+10:00*%
%TF.ProjectId,keeb,6b656562-2e6b-4696-9361-645f70636258,rev?*%
%TF.SameCoordinates,Original*%
%TF.FileFunction,Paste,Top*%
%TF.FilePolarity,Positive*%
%FSLAX46Y46*%
G04 Gerber Fmt 4.6, Leading zero omitted, Abs format (unit mm)*
G04 Created by KiCad (PCBNEW 10.0.5) date 2026-08-21 21:46:46*
%MOMM*%
%LPD*%
G01*
G04 APERTURE LIST*
G04 Aperture macros list*
%AMRoundRect*
0 Rectangle with rounded corners*
0 $1 Rounding radius*
0 $2 $3 $4 $5 $6 $7 $8 $9 X,Y pos of 4 corners*
0 Add a 4 corners polygon primitive as box body*
4,1,4,$2,$3,$4,$5,$6,$7,$8,$9,$2,$3,0*
0 Add four circle primitives for the rounded corners*
1,1,$1+$1,$2,$3*
1,1,$1+$1,$4,$5*
1,1,$1+$1,$6,$7*
1,1,$1+$1,$8,$9*
0 Add four rect primitives between the rounded corners*
20,1,$1+$1,$2,$3,$4,$5,0*
20,1,$1+$1,$4,$5,$6,$7,0*
20,1,$1+$1,$6,$7,$8,$9,0*
20,1,$1+$1,$8,$9,$2,$3,0*%
G04 Aperture macros list end*
%ADD10RoundRect,0.225000X0.375000X-0.225000X0.375000X0.225000X-0.375000X0.225000X-0.375000X-0.225000X0*%
%ADD11RoundRect,0.225000X-0.225000X-0.375000X0.225000X-0.375000X0.225000X0.375000X-0.225000X0.375000X0*%
%ADD12RoundRect,0.225000X-0.375000X0.225000X-0.375000X-0.225000X0.375000X-0.225000X0.375000X0.225000X0*%
%ADD13RoundRect,0.225000X0.225000X0.375000X-0.225000X0.375000X-0.225000X-0.375000X0.225000X-0.375000X0*%
G04 APERTURE END LIST*
D10*
%TO.C,D66*%
X219456000Y-140461000D03*
X219456000Y-137161000D03*
%TD*%
%TO.C,D34*%
X147955000Y-102234000D03*
X147955000Y-98934000D03*
%TD*%
%TO.C,D45*%
X76454000Y-121285000D03*
X76454000Y-117985000D03*
%TD*%
%TO.C,D25*%
X252730000Y-82548000D03*
X252730000Y-79248000D03*
%TD*%
%TO.C,D57*%
X312293000Y-121284000D03*
X312293000Y-117984000D03*
%TD*%
%TO.C,D77*%
X243078000Y-158749000D03*
X243078000Y-155449000D03*
%TD*%
%TO.C,D46*%
X95504000Y-121284000D03*
X95504000Y-117984000D03*
%TD*%
%TO.C,D73*%
X62230000Y-158749000D03*
X62230000Y-155449000D03*
%TD*%
%TO.C,D52*%
X209804000Y-121284000D03*
X209804000Y-117984000D03*
%TD*%
%TO.C,D74*%
X81280000Y-158749000D03*
X81280000Y-155449000D03*
%TD*%
%TO.C,D56*%
X286258000Y-121284000D03*
X286258000Y-117984000D03*
%TD*%
%TO.C,D65*%
X200279000Y-140461000D03*
X200279000Y-137161000D03*
%TD*%
%TO.C,D35*%
X167005000Y-102234000D03*
X167005000Y-98934000D03*
%TD*%
%TO.C,D22*%
X195580000Y-82548000D03*
X195580000Y-79248000D03*
%TD*%
%TO.C,D47*%
X114554000Y-121284000D03*
X114554000Y-117984000D03*
%TD*%
%TO.C,D39*%
X243205000Y-102234000D03*
X243205000Y-98934000D03*
%TD*%
%TO.C,D48*%
X133731000Y-121284000D03*
X133731000Y-117984000D03*
%TD*%
%TO.C,D43*%
X319532000Y-102234000D03*
X319532000Y-98934000D03*
%TD*%
%TO.C,D20*%
X157480000Y-82548000D03*
X157480000Y-79248000D03*
%TD*%
%TO.C,D62*%
X143256000Y-140461000D03*
X143256000Y-137161000D03*
%TD*%
%TO.C,D5*%
X147955000Y-64388000D03*
X147955000Y-61088000D03*
%TD*%
%TO.C,D76*%
X121920000Y-158749000D03*
X121920000Y-155449000D03*
%TD*%
%TO.C,D60*%
X105098000Y-140461000D03*
X105098000Y-137161000D03*
%TD*%
%TO.C,D41*%
X281305000Y-102230000D03*
X281305000Y-98930000D03*
%TD*%
D11*
%TO.C,D44*%
X354331000Y-93726000D03*
X357631000Y-93726000D03*
%TD*%
D10*
%TO.C,D19*%
X138430000Y-82548000D03*
X138430000Y-79248000D03*
%TD*%
%TO.C,D36*%
X186055000Y-102234000D03*
X186055000Y-98934000D03*
%TD*%
%TO.C,D30*%
X71120000Y-102234000D03*
X71120000Y-98934000D03*
%TD*%
%TO.C,D21*%
X176530000Y-82548000D03*
X176530000Y-79248000D03*
%TD*%
%TO.C,D78*%
X262255000Y-158749000D03*
X262255000Y-155449000D03*
%TD*%
D12*
%TO.C,D82*%
X347980000Y-141352000D03*
X347980000Y-144652000D03*
%TD*%
D10*
%TO.C,D4*%
X128905000Y-64388000D03*
X128905000Y-61088000D03*
%TD*%
%TO.C,D55*%
X266954000Y-121284000D03*
X266954000Y-117984000D03*
%TD*%
%TO.C,D70*%
X309499000Y-140461000D03*
X309499000Y-137161000D03*
%TD*%
%TO.C,D75*%
X100584000Y-158749000D03*
X100584000Y-155449000D03*
%TD*%
%TO.C,D17*%
X100330000Y-82548000D03*
X100330000Y-79248000D03*
%TD*%
%TO.C,D26*%
X271780000Y-82548000D03*
X271780000Y-79248000D03*
%TD*%
%TO.C,D16*%
X81280000Y-82548000D03*
X81280000Y-79248000D03*
%TD*%
%TO.C,D28*%
X316357000Y-82549000D03*
X316357000Y-79249000D03*
%TD*%
D11*
%TO.C,D84*%
X377445000Y-141351000D03*
X380745000Y-141351000D03*
%TD*%
D10*
%TO.C,D23*%
X214630000Y-82548000D03*
X214630000Y-79248000D03*
%TD*%
%TO.C,D80*%
X300355000Y-158749000D03*
X300355000Y-155449000D03*
%TD*%
%TO.C,D51*%
X190881000Y-121284000D03*
X190881000Y-117984000D03*
%TD*%
%TO.C,D68*%
X257429000Y-140461000D03*
X257429000Y-137161000D03*
%TD*%
%TO.C,D64*%
X181229000Y-140460000D03*
X181229000Y-137160000D03*
%TD*%
D13*
%TO.C,D14*%
X364870000Y-74803000D03*
X361570000Y-74803000D03*
%TD*%
D10*
%TO.C,D49*%
X152781000Y-121284000D03*
X152781000Y-117984000D03*
%TD*%
%TO.C,D31*%
X90805000Y-102234000D03*
X90805000Y-98934000D03*
%TD*%
%TO.C,D12*%
X281305000Y-64515000D03*
X281305000Y-61215000D03*
%TD*%
%TO.C,D6*%
X167005000Y-64388000D03*
X167005000Y-61088000D03*
%TD*%
%TO.C,D9*%
X224155000Y-64388000D03*
X224155000Y-61088000D03*
%TD*%
D11*
%TO.C,D71*%
X350013000Y-122301000D03*
X353313000Y-122301000D03*
%TD*%
D10*
%TO.C,D24*%
X233680000Y-82548000D03*
X233680000Y-79248000D03*
%TD*%
%TO.C,D42*%
X300355000Y-102234000D03*
X300355000Y-98934000D03*
%TD*%
%TO.C,D40*%
X262255000Y-102230000D03*
X262255000Y-98930000D03*
%TD*%
D11*
%TO.C,D72*%
X354077000Y-113030000D03*
X357377000Y-113030000D03*
%TD*%
D10*
%TO.C,RED1*%
X300482000Y-51561000D03*
X300482000Y-48261000D03*
%TD*%
%TO.C,D32*%
X109855000Y-102234000D03*
X109855000Y-98934000D03*
%TD*%
%TO.C,D13*%
X300482000Y-64515000D03*
X300482000Y-61215000D03*
%TD*%
%TO.C,D54*%
X248031000Y-121284000D03*
X248031000Y-117984000D03*
%TD*%
%TO.C,D69*%
X276606000Y-140461000D03*
X276606000Y-137161000D03*
%TD*%
%TO.C,D10*%
X243186000Y-64515000D03*
X243186000Y-61215000D03*
%TD*%
%TO.C,D63*%
X162306000Y-140461000D03*
X162306000Y-137161000D03*
%TD*%
%TO.C,D61*%
X124206000Y-140461000D03*
X124206000Y-137161000D03*
%TD*%
%TO.C,D37*%
X205105000Y-102234000D03*
X205105000Y-98934000D03*
%TD*%
D12*
%TO.C,D83*%
X367030000Y-141352000D03*
X367030000Y-144652000D03*
%TD*%
D10*
%TO.C,D38*%
X224155000Y-102234000D03*
X224155000Y-98934000D03*
%TD*%
%TO.C,D53*%
X228854000Y-121284000D03*
X228854000Y-117984000D03*
%TD*%
%TO.C,D8*%
X205105000Y-64388000D03*
X205105000Y-61088000D03*
%TD*%
%TO.C,D27*%
X290830000Y-82549000D03*
X290830000Y-79249000D03*
%TD*%
%TO.C,D7*%
X186055000Y-64388000D03*
X186055000Y-61088000D03*
%TD*%
%TO.C,D59*%
X85979000Y-140461000D03*
X85979000Y-137161000D03*
%TD*%
%TO.C,D1*%
X71501000Y-64388000D03*
X71501000Y-61088000D03*
%TD*%
%TO.C,D33*%
X128905000Y-102234000D03*
X128905000Y-98934000D03*
%TD*%
%TO.C,D2*%
X90805000Y-64388000D03*
X90805000Y-61088000D03*
%TD*%
%TO.C,D18*%
X119380000Y-82549000D03*
X119380000Y-79249000D03*
%TD*%
%TO.C,D67*%
X238379000Y-140461000D03*
X238379000Y-137161000D03*
%TD*%
%TO.C,D11*%
X262255000Y-64515000D03*
X262255000Y-61215000D03*
%TD*%
%TO.C,D3*%
X109855000Y-64388000D03*
X109855000Y-61088000D03*
%TD*%
%TO.C,D50*%
X171704000Y-121284000D03*
X171704000Y-117984000D03*
%TD*%
D13*
%TO.C,D29*%
X384048000Y-74676000D03*
X380748000Y-74676000D03*
%TD*%
D10*
%TO.C,D81*%
X319532000Y-158749000D03*
X319532000Y-155449000D03*
%TD*%
%TO.C,D79*%
X281305000Y-158749000D03*
X281305000Y-155449000D03*
%TD*%
%TO.C,D15*%
X62230000Y-82548000D03*
X62230000Y-79248000D03*
%TD*%
D11*
%TO.C,D58*%
X373509000Y-93853000D03*
X376809000Y-93853000D03*
%TD*%
%TO.C,D85*%
X377318000Y-113030000D03*
X380618000Y-113030000D03*
%TD*%
M02*
