<?xml version="1.0" encoding="UTF-8"?>
<svg id="Layer_1" xmlns="http://www.w3.org/2000/svg" xmlns:shaper="http://www.shapertools.com/namespaces/shaper" version="1.1" viewBox="0 0 980.8 343">
  <!-- Generator: Adobe Illustrator 30.7.0, SVG Export Plug-In . SVG Version: 2.1.4 Build 114)  -->
  <defs>
    <style>
      .st0 {
        fill: none;
        stroke-miterlimit: 10;
      }

      .st0, .st1 {
        stroke: #000;
      }

      .st1 {
        fill: #fff;
        stroke-linecap: round;
        stroke-linejoin: round;
        stroke-width: .8px;
      }
    </style>
  </defs>
  <path class="st0" d="M980.8,0h-134.9v23h-28.3V0H0v15.9h736.2v53.9h53.9v273.3h24.1v-57.5h53.9v-53.9h56.7v53.9h56.1s0-78.5,0-78.5h-2.8s-110,0-110,0V42.5h112.8V0Z" shaper:cutDepth="0.05cm"/>
  <path class="st1" d="M824,167.5h36.3v108.3h-36.3v-108.3Z" shaper:cutDepth="0.05cm"/>
  <path class="st1" d="M780.3,26c1.9,0,3.4,1.5,3.4,3.4v28.6c0,1.9-1.5,3.4-3.4,3.4h-28.6c-1.9,0-3.4-1.5-3.4-3.4h0v-28.6c0-1.9,1.5-3.4,3.4-3.4h28.6Z" shaper:cutDepth="0.05cm"/>
  <path class="st1" d="M842.2,110.8v14.2h-24.9v-14.2h24.9Z" shaper:cutDepth="0.05cm"/>
  <path class="st1" d="M815,25.9h9.9v14.2h-9.9v-14.2Z" shaper:cutDepth="0.05cm"/>
</svg>