%TF.GenerationSoftware,KiCad,Pcbnew,10.0.5*%
%TF.CreationDate,2026-08-25T21:36:04+10:00*%
%TF.ProjectId,single_panel,73696e67-6c65-45f7-9061-6e656c2e6b69,rev?*%
%TF.SameCoordinates,Original*%
%TF.FileFunction,Soldermask,Top*%
%TF.FilePolarity,Negative*%
%FSLAX46Y46*%
G04 Gerber Fmt 4.6, Leading zero omitted, Abs format (unit mm)*
G04 Created by KiCad (PCBNEW 10.0.5) date 2026-08-25 21:36:04*
%MOMM*%
%LPD*%
G01*
G04 APERTURE LIST*
G04 Aperture macros list*
%AMRoundRect*
0 Rectangle with rounded corners*
0 $1 Rounding radius*
0 $2 $3 $4 $5 $6 $7 $8 $9 X,Y pos of 4 corners*
0 Add a 4 corners polygon primitive as box body*
4,1,4,$2,$3,$4,$5,$6,$7,$8,$9,$2,$3,0*
0 Add four circle primitives for the rounded corners*
1,1,$1+$1,$2,$3*
1,1,$1+$1,$4,$5*
1,1,$1+$1,$6,$7*
1,1,$1+$1,$8,$9*
0 Add four rect primitives between the rounded corners*
20,1,$1+$1,$2,$3,$4,$5,0*
20,1,$1+$1,$4,$5,$6,$7,0*
20,1,$1+$1,$6,$7,$8,$9,0*
20,1,$1+$1,$8,$9,$2,$3,0*%
%AMFreePoly0*
4,1,37,0.603843,0.796157,0.639018,0.796157,0.711114,0.766294,0.766294,0.711114,0.796157,0.639018,0.796157,0.603843,0.800000,0.600000,0.800000,-0.600000,0.796157,-0.603843,0.796157,-0.639018,0.766294,-0.711114,0.711114,-0.766294,0.639018,-0.796157,0.603843,-0.796157,0.600000,-0.800000,0.000000,-0.800000,0.000000,-0.796148,-0.078414,-0.796148,-0.232228,-0.765552,-0.377117,-0.705537,
-0.507515,-0.618408,-0.618408,-0.507515,-0.705537,-0.377117,-0.765552,-0.232228,-0.796148,-0.078414,-0.796148,0.078414,-0.765552,0.232228,-0.705537,0.377117,-0.618408,0.507515,-0.507515,0.618408,-0.377117,0.705537,-0.232228,0.765552,-0.078414,0.796148,0.000000,0.796148,0.000000,0.800000,0.600000,0.800000,0.603843,0.796157,0.603843,0.796157,$1*%
%AMFreePoly1*
4,1,37,0.000000,0.796148,0.078414,0.796148,0.232228,0.765552,0.377117,0.705537,0.507515,0.618408,0.618408,0.507515,0.705537,0.377117,0.765552,0.232228,0.796148,0.078414,0.796148,-0.078414,0.765552,-0.232228,0.705537,-0.377117,0.618408,-0.507515,0.507515,-0.618408,0.377117,-0.705537,0.232228,-0.765552,0.078414,-0.796148,0.000000,-0.796148,0.000000,-0.800000,-0.600000,-0.800000,
-0.603843,-0.796157,-0.639018,-0.796157,-0.711114,-0.766294,-0.766294,-0.711114,-0.796157,-0.639018,-0.796157,-0.603843,-0.800000,-0.600000,-0.800000,0.600000,-0.796157,0.603843,-0.796157,0.639018,-0.766294,0.711114,-0.711114,0.766294,-0.639018,0.796157,-0.603843,0.796157,-0.600000,0.800000,0.000000,0.800000,0.000000,0.796148,0.000000,0.796148,$1*%
G04 Aperture macros list end*
%ADD10C,0.500000*%
%ADD11RoundRect,0.225000X0.375000X-0.225000X0.375000X0.225000X-0.375000X0.225000X-0.375000X-0.225000X0*%
%ADD12C,6.250000*%
%ADD13C,2.300000*%
%ADD14RoundRect,0.225000X-0.375000X0.225000X-0.375000X-0.225000X0.375000X-0.225000X0.375000X0.225000X0*%
%ADD15RoundRect,0.225000X-0.225000X-0.375000X0.225000X-0.375000X0.225000X0.375000X-0.225000X0.375000X0*%
%ADD16RoundRect,0.200000X-0.600000X-0.600000X0.600000X-0.600000X0.600000X0.600000X-0.600000X0.600000X0*%
%ADD17C,1.600000*%
%ADD18FreePoly0,0.000000*%
%ADD19FreePoly1,0.000000*%
%ADD20RoundRect,0.225000X0.225000X0.375000X-0.225000X0.375000X-0.225000X-0.375000X0.225000X-0.375000X0*%
%ADD21RoundRect,0.170000X-0.680000X-0.680000X0.680000X-0.680000X0.680000X0.680000X-0.680000X0.680000X0*%
%ADD22C,1.700000*%
%ADD23R,2.000000X2.000000*%
%ADD24C,2.000000*%
%ADD25C,3.200000*%
G04 APERTURE END LIST*
D10*
%TO.C,REF\u002A\u002A*%
X367945239Y-144326500D03*
X368795239Y-144326500D03*
X369645239Y-144326500D03*
X370495239Y-144326500D03*
X371345239Y-144326500D03*
X372195239Y-144326500D03*
X373045239Y-144326500D03*
X373895239Y-144326500D03*
X374745239Y-144326500D03*
X375595239Y-144326500D03*
X376445239Y-144326500D03*
%TD*%
%TO.C,REF\u002A\u002A*%
X367950216Y-140516500D03*
X368800216Y-140516500D03*
X369650216Y-140516500D03*
X370500216Y-140516500D03*
X371350216Y-140516500D03*
X372200216Y-140516500D03*
X373050216Y-140516500D03*
X373900216Y-140516500D03*
X374750216Y-140516500D03*
X375600216Y-140516500D03*
X376450216Y-140516500D03*
%TD*%
%TO.C,REF\u002A\u002A*%
X44224750Y-144326500D03*
X45074750Y-144326500D03*
X45924750Y-144326500D03*
X46774750Y-144326500D03*
X47624750Y-144326500D03*
X48474750Y-144326500D03*
X49324750Y-144326500D03*
X50174750Y-144326500D03*
X51024750Y-144326500D03*
X51874750Y-144326500D03*
X52724750Y-144326500D03*
%TD*%
%TO.C,REF\u002A\u002A*%
X44229727Y-140516500D03*
X45079727Y-140516500D03*
X45929727Y-140516500D03*
X46779727Y-140516500D03*
X47629727Y-140516500D03*
X48479727Y-140516500D03*
X49329727Y-140516500D03*
X50179727Y-140516500D03*
X51029727Y-140516500D03*
X51879727Y-140516500D03*
X52729727Y-140516500D03*
%TD*%
D11*
%TO.C,D35*%
X163494523Y-205857500D03*
X163494523Y-202557500D03*
%TD*%
D12*
%TO.C,SW38*%
X211119523Y-197476500D03*
D13*
X211119523Y-201176500D03*
%TD*%
D14*
%TO.C,D83*%
X363519523Y-244975500D03*
X363519523Y-248275500D03*
%TD*%
D12*
%TO.C,SW57*%
X299225773Y-216526500D03*
D13*
X299225773Y-220226500D03*
%TD*%
D12*
%TO.C,SW43*%
X306369523Y-197476500D03*
D13*
X306369523Y-201176500D03*
%TD*%
D11*
%TO.C,D69*%
X273095523Y-244084500D03*
X273095523Y-240784500D03*
%TD*%
D15*
%TO.C,D71*%
X346502523Y-225924500D03*
X349802523Y-225924500D03*
%TD*%
D12*
%TO.C,SW1*%
X53957023Y-159376500D03*
D13*
X53957023Y-163076500D03*
%TD*%
D12*
%TO.C,SW34*%
X134919523Y-197476500D03*
D13*
X134919523Y-201176500D03*
%TD*%
D11*
%TO.C,D28*%
X312846523Y-186172500D03*
X312846523Y-182872500D03*
%TD*%
D12*
%TO.C,SW11*%
X249219523Y-159376500D03*
D13*
X249219523Y-163076500D03*
%TD*%
D11*
%TO.C,D19*%
X134919523Y-186171500D03*
X134919523Y-182871500D03*
%TD*%
D12*
%TO.C,SW81*%
X306369523Y-254626500D03*
D13*
X306369523Y-258326500D03*
%TD*%
D11*
%TO.C,D54*%
X244520523Y-224907500D03*
X244520523Y-221607500D03*
%TD*%
D12*
%TO.C,SW77*%
X180163273Y-254626500D03*
D13*
X180163273Y-258326500D03*
%TD*%
D11*
%TO.C,D79*%
X277794523Y-262372500D03*
X277794523Y-259072500D03*
%TD*%
%TO.C,D51*%
X187370523Y-224907500D03*
X187370523Y-221607500D03*
%TD*%
%TO.C,D59*%
X82468523Y-244084500D03*
X82468523Y-240784500D03*
%TD*%
%TO.C,D53*%
X225343523Y-224907500D03*
X225343523Y-221607500D03*
%TD*%
D12*
%TO.C,SW18*%
X106344523Y-178426500D03*
D13*
X106344523Y-182126500D03*
%TD*%
D12*
%TO.C,SW62*%
X130157023Y-235576500D03*
D13*
X130157023Y-239276500D03*
%TD*%
D11*
%TO.C,D77*%
X239567523Y-262372500D03*
X239567523Y-259072500D03*
%TD*%
%TO.C,D20*%
X153969523Y-186171500D03*
X153969523Y-182871500D03*
%TD*%
D12*
%TO.C,SW25*%
X239694523Y-178426500D03*
D13*
X239694523Y-182126500D03*
%TD*%
D12*
%TO.C,SW10*%
X230169523Y-159376500D03*
D13*
X230169523Y-163076500D03*
%TD*%
D11*
%TO.C,D60*%
X101587523Y-244084500D03*
X101587523Y-240784500D03*
%TD*%
%TO.C,D40*%
X258744523Y-205853500D03*
X258744523Y-202553500D03*
%TD*%
D12*
%TO.C,SW69*%
X263507023Y-235576500D03*
D13*
X263507023Y-239276500D03*
%TD*%
D16*
%TO.C,A1*%
X322371523Y-146041500D03*
D17*
X322371523Y-148581500D03*
D18*
X322371523Y-151121500D03*
D17*
X322371523Y-153661500D03*
X322371523Y-156201500D03*
X322371523Y-158741500D03*
X322371523Y-161281500D03*
D18*
X322371523Y-163821500D03*
D17*
X322371523Y-166361500D03*
X322371523Y-168901500D03*
X322371523Y-171441500D03*
X322371523Y-173981500D03*
D18*
X322371523Y-176521500D03*
D17*
X322371523Y-179061500D03*
X322371523Y-181601500D03*
X322371523Y-184141500D03*
X322371523Y-186681500D03*
D18*
X322371523Y-189221500D03*
D17*
X322371523Y-191761500D03*
X322371523Y-194301500D03*
X340151523Y-194301500D03*
X340151523Y-191761500D03*
D19*
X340151523Y-189221500D03*
D17*
X340151523Y-186681500D03*
X340151523Y-184141500D03*
X340151523Y-181601500D03*
X340151523Y-179061500D03*
D19*
X340151523Y-176521500D03*
D17*
X340151523Y-173981500D03*
X340151523Y-171441500D03*
X340151523Y-168901500D03*
X340151523Y-166361500D03*
D19*
X340151523Y-163821500D03*
D17*
X340151523Y-161281500D03*
X340151523Y-158741500D03*
X340151523Y-156201500D03*
X340151523Y-153661500D03*
D19*
X340151523Y-151121500D03*
D17*
X340151523Y-148581500D03*
X340151523Y-146041500D03*
%TD*%
D12*
%TO.C,SW76*%
X108725773Y-254626500D03*
D13*
X108725773Y-258326500D03*
%TD*%
D11*
%TO.C,D37*%
X201594523Y-205857500D03*
X201594523Y-202557500D03*
%TD*%
D12*
%TO.C,SW49*%
X139682023Y-216526500D03*
D13*
X139682023Y-220226500D03*
%TD*%
D11*
%TO.C,D62*%
X139745523Y-244084500D03*
X139745523Y-240784500D03*
%TD*%
%TO.C,D4*%
X125394523Y-168011500D03*
X125394523Y-164711500D03*
%TD*%
D12*
%TO.C,SW63*%
X149207023Y-235576500D03*
D13*
X149207023Y-239276500D03*
%TD*%
D12*
%TO.C,SW3*%
X96819523Y-159376500D03*
D13*
X96819523Y-163076500D03*
%TD*%
D12*
%TO.C,SW26*%
X258744523Y-178426500D03*
D13*
X258744523Y-182126500D03*
%TD*%
D12*
%TO.C,SW16*%
X68244523Y-178426500D03*
D13*
X68244523Y-182126500D03*
%TD*%
D12*
%TO.C,SW27*%
X277794523Y-178426500D03*
D13*
X277794523Y-182126500D03*
%TD*%
D11*
%TO.C,D7*%
X182544523Y-168011500D03*
X182544523Y-164711500D03*
%TD*%
D12*
%TO.C,SW66*%
X206357023Y-235576500D03*
D13*
X206357023Y-239276500D03*
%TD*%
D12*
%TO.C,SW50*%
X158732023Y-216526500D03*
D13*
X158732023Y-220226500D03*
%TD*%
D12*
%TO.C,SW64*%
X168257023Y-235576500D03*
D13*
X168257023Y-239276500D03*
%TD*%
D11*
%TO.C,D36*%
X182544523Y-205857500D03*
X182544523Y-202557500D03*
%TD*%
%TO.C,D15*%
X58719523Y-186171500D03*
X58719523Y-182871500D03*
%TD*%
%TO.C,D6*%
X163494523Y-168011500D03*
X163494523Y-164711500D03*
%TD*%
D12*
%TO.C,SW17*%
X87294523Y-178426500D03*
D13*
X87294523Y-182126500D03*
%TD*%
D11*
%TO.C,D75*%
X97073523Y-262372500D03*
X97073523Y-259072500D03*
%TD*%
D12*
%TO.C,SW74*%
X68244523Y-254626500D03*
D13*
X68244523Y-258326500D03*
%TD*%
D12*
%TO.C,SW72*%
X353994523Y-207001500D03*
D13*
X353994523Y-210701500D03*
%TD*%
D12*
%TO.C,SW48*%
X120632023Y-216526500D03*
D13*
X120632023Y-220226500D03*
%TD*%
D11*
%TO.C,D24*%
X230169523Y-186171500D03*
X230169523Y-182871500D03*
%TD*%
%TO.C,D56*%
X282747523Y-224907500D03*
X282747523Y-221607500D03*
%TD*%
D12*
%TO.C,SW2*%
X77769523Y-159376500D03*
D13*
X77769523Y-163076500D03*
%TD*%
D12*
%TO.C,SW9*%
X211119523Y-159376500D03*
D13*
X211119523Y-163076500D03*
%TD*%
D11*
%TO.C,D12*%
X277794523Y-168138500D03*
X277794523Y-164838500D03*
%TD*%
D12*
%TO.C,SW37*%
X192069523Y-197476500D03*
D13*
X192069523Y-201176500D03*
%TD*%
D11*
%TO.C,D46*%
X91993523Y-224907500D03*
X91993523Y-221607500D03*
%TD*%
%TO.C,D39*%
X239694523Y-205857500D03*
X239694523Y-202557500D03*
%TD*%
D20*
%TO.C,D14*%
X361359523Y-178426500D03*
X358059523Y-178426500D03*
%TD*%
D15*
%TO.C,D44*%
X350820523Y-197349500D03*
X354120523Y-197349500D03*
%TD*%
D12*
%TO.C,SW42*%
X287319523Y-197476500D03*
D13*
X287319523Y-201176500D03*
%TD*%
D11*
%TO.C,D23*%
X211119523Y-186171500D03*
X211119523Y-182871500D03*
%TD*%
D12*
%TO.C,SW84*%
X373044523Y-254626500D03*
D13*
X373044523Y-258326500D03*
%TD*%
D12*
%TO.C,SW35*%
X153969523Y-197476500D03*
D13*
X153969523Y-201176500D03*
%TD*%
D11*
%TO.C,D11*%
X258744523Y-168138500D03*
X258744523Y-164838500D03*
%TD*%
%TO.C,D1*%
X67990523Y-168011500D03*
X67990523Y-164711500D03*
%TD*%
D21*
%TO.C,U1*%
X331261523Y-204233500D03*
D22*
X333801523Y-204233500D03*
X336341523Y-204233500D03*
X338881523Y-204233500D03*
%TD*%
D12*
%TO.C,SW85*%
X373044523Y-207001500D03*
D13*
X373044523Y-210701500D03*
%TD*%
D11*
%TO.C,D27*%
X287319523Y-186172500D03*
X287319523Y-182872500D03*
%TD*%
D12*
%TO.C,SW67*%
X225407023Y-235576500D03*
D13*
X225407023Y-239276500D03*
%TD*%
D11*
%TO.C,D8*%
X201594523Y-168011500D03*
X201594523Y-164711500D03*
%TD*%
%TO.C,D47*%
X111043523Y-224907500D03*
X111043523Y-221607500D03*
%TD*%
D12*
%TO.C,SW41*%
X268269523Y-197476500D03*
D13*
X268269523Y-201176500D03*
%TD*%
D12*
%TO.C,SW36*%
X173019523Y-197476500D03*
D13*
X173019523Y-201176500D03*
%TD*%
D11*
%TO.C,D48*%
X130220523Y-224907500D03*
X130220523Y-221607500D03*
%TD*%
D15*
%TO.C,D84*%
X373934523Y-244974500D03*
X377234523Y-244974500D03*
%TD*%
D12*
%TO.C,SW61*%
X111107023Y-235576500D03*
D13*
X111107023Y-239276500D03*
%TD*%
D14*
%TO.C,D82*%
X344469523Y-244975500D03*
X344469523Y-248275500D03*
%TD*%
D11*
%TO.C,D49*%
X149270523Y-224907500D03*
X149270523Y-221607500D03*
%TD*%
%TO.C,D26*%
X268269523Y-186171500D03*
X268269523Y-182871500D03*
%TD*%
%TO.C,D68*%
X253918523Y-244084500D03*
X253918523Y-240784500D03*
%TD*%
D12*
%TO.C,SW56*%
X273032023Y-216526500D03*
D13*
X273032023Y-220226500D03*
%TD*%
D11*
%TO.C,D16*%
X77769523Y-186171500D03*
X77769523Y-182871500D03*
%TD*%
D12*
%TO.C,SW8*%
X192069523Y-159376500D03*
D13*
X192069523Y-163076500D03*
%TD*%
D15*
%TO.C,D58*%
X369998523Y-197476500D03*
X373298523Y-197476500D03*
%TD*%
D12*
%TO.C,SW52*%
X196832023Y-216526500D03*
D13*
X196832023Y-220226500D03*
%TD*%
D15*
%TO.C,D72*%
X350566523Y-216653500D03*
X353866523Y-216653500D03*
%TD*%
D20*
%TO.C,D29*%
X380537523Y-178299500D03*
X377237523Y-178299500D03*
%TD*%
D12*
%TO.C,SW44*%
X353994523Y-187951500D03*
D13*
X353994523Y-191651500D03*
%TD*%
D11*
%TO.C,D5*%
X144444523Y-168011500D03*
X144444523Y-164711500D03*
%TD*%
%TO.C,D31*%
X87294523Y-205857500D03*
X87294523Y-202557500D03*
%TD*%
D12*
%TO.C,SW24*%
X220644523Y-178426500D03*
D13*
X220644523Y-182126500D03*
%TD*%
D12*
%TO.C,SW71*%
X353994523Y-235576500D03*
D13*
X353994523Y-239276500D03*
%TD*%
D12*
%TO.C,SW23*%
X201594523Y-178426500D03*
D13*
X201594523Y-182126500D03*
%TD*%
D11*
%TO.C,D17*%
X96819523Y-186171500D03*
X96819523Y-182871500D03*
%TD*%
D12*
%TO.C,SW19*%
X125394523Y-178426500D03*
D13*
X125394523Y-182126500D03*
%TD*%
D12*
%TO.C,SW46*%
X82532023Y-216526500D03*
D13*
X82532023Y-220226500D03*
%TD*%
D12*
%TO.C,SW79*%
X268269523Y-254626500D03*
D13*
X268269523Y-258326500D03*
%TD*%
D12*
%TO.C,SW65*%
X187307023Y-235576500D03*
D13*
X187307023Y-239276500D03*
%TD*%
D12*
%TO.C,SW68*%
X244457023Y-235576500D03*
D13*
X244457023Y-239276500D03*
%TD*%
D11*
%TO.C,D73*%
X58719523Y-262372500D03*
X58719523Y-259072500D03*
%TD*%
D12*
%TO.C,SW21*%
X163494523Y-178426500D03*
D13*
X163494523Y-182126500D03*
%TD*%
D12*
%TO.C,SW30*%
X53957023Y-197476500D03*
D13*
X53957023Y-201176500D03*
%TD*%
D11*
%TO.C,D18*%
X115869523Y-186172500D03*
X115869523Y-182872500D03*
%TD*%
%TO.C,D61*%
X120695523Y-244084500D03*
X120695523Y-240784500D03*
%TD*%
D12*
%TO.C,SW78*%
X249219523Y-254626500D03*
D13*
X249219523Y-258326500D03*
%TD*%
D11*
%TO.C,D43*%
X316021523Y-205857500D03*
X316021523Y-202557500D03*
%TD*%
%TO.C,D9*%
X220644523Y-168011500D03*
X220644523Y-164711500D03*
%TD*%
%TO.C,D64*%
X177718523Y-244083500D03*
X177718523Y-240783500D03*
%TD*%
D12*
%TO.C,SW82*%
X334944523Y-254626500D03*
D13*
X334944523Y-258326500D03*
%TD*%
D12*
%TO.C,SW32*%
X96819523Y-197476500D03*
D13*
X96819523Y-201176500D03*
%TD*%
D11*
%TO.C,D65*%
X196768523Y-244084500D03*
X196768523Y-240784500D03*
%TD*%
D12*
%TO.C,SW47*%
X101582023Y-216526500D03*
D13*
X101582023Y-220226500D03*
%TD*%
D11*
%TO.C,D80*%
X296844523Y-262372500D03*
X296844523Y-259072500D03*
%TD*%
D12*
%TO.C,SW40*%
X249219523Y-197476500D03*
D13*
X249219523Y-201176500D03*
%TD*%
D12*
%TO.C,SW53*%
X215882023Y-216526500D03*
D13*
X215882023Y-220226500D03*
%TD*%
D12*
%TO.C,SW73*%
X49194523Y-254626500D03*
D13*
X49194523Y-258326500D03*
%TD*%
D12*
%TO.C,SW54*%
X234932023Y-216526500D03*
D13*
X234932023Y-220226500D03*
%TD*%
D11*
%TO.C,D41*%
X277794523Y-205853500D03*
X277794523Y-202553500D03*
%TD*%
D12*
%TO.C,SW29*%
X373044523Y-168901500D03*
D13*
X373044523Y-172601500D03*
%TD*%
D12*
%TO.C,SW13*%
X287319523Y-159376500D03*
D13*
X287319523Y-163076500D03*
%TD*%
D11*
%TO.C,D42*%
X296844523Y-205857500D03*
X296844523Y-202557500D03*
%TD*%
D23*
%TO.C,RE1*%
X305520523Y-166742500D03*
D24*
X310520523Y-166742500D03*
X308020523Y-166742500D03*
D25*
X302420523Y-159242500D03*
X313620523Y-159242500D03*
D24*
X310520523Y-152242500D03*
X305520523Y-152242500D03*
%TD*%
D11*
%TO.C,D22*%
X192069523Y-186171500D03*
X192069523Y-182871500D03*
%TD*%
D12*
%TO.C,SW31*%
X77769523Y-197476500D03*
D13*
X77769523Y-201176500D03*
%TD*%
D12*
%TO.C,SW33*%
X115869523Y-197476500D03*
D13*
X115869523Y-201176500D03*
%TD*%
D12*
%TO.C,SW39*%
X230169523Y-197476500D03*
D13*
X230169523Y-201176500D03*
%TD*%
D12*
%TO.C,SW4*%
X115869523Y-159376500D03*
D13*
X115869523Y-163076500D03*
%TD*%
D11*
%TO.C,D81*%
X316021523Y-262372500D03*
X316021523Y-259072500D03*
%TD*%
D12*
%TO.C,SW70*%
X294463273Y-235576500D03*
D13*
X294463273Y-239276500D03*
%TD*%
D12*
%TO.C,SW80*%
X287319523Y-254626500D03*
D13*
X287319523Y-258326500D03*
%TD*%
D11*
%TO.C,D30*%
X67609523Y-205857500D03*
X67609523Y-202557500D03*
%TD*%
D12*
%TO.C,SW14*%
X353994523Y-168901500D03*
D13*
X353994523Y-172601500D03*
%TD*%
D12*
%TO.C,SW60*%
X92057023Y-235576500D03*
D13*
X92057023Y-239276500D03*
%TD*%
D11*
%TO.C,D76*%
X118409523Y-262372500D03*
X118409523Y-259072500D03*
%TD*%
%TO.C,D55*%
X263443523Y-224907500D03*
X263443523Y-221607500D03*
%TD*%
D12*
%TO.C,SW12*%
X268269523Y-159376500D03*
D13*
X268269523Y-163076500D03*
%TD*%
D11*
%TO.C,D38*%
X220644523Y-205857500D03*
X220644523Y-202557500D03*
%TD*%
D12*
%TO.C,SW75*%
X87294523Y-254626500D03*
D13*
X87294523Y-258326500D03*
%TD*%
D11*
%TO.C,D78*%
X258744523Y-262372500D03*
X258744523Y-259072500D03*
%TD*%
%TO.C,D52*%
X206293523Y-224907500D03*
X206293523Y-221607500D03*
%TD*%
%TO.C,D33*%
X125394523Y-205857500D03*
X125394523Y-202557500D03*
%TD*%
D12*
%TO.C,SW51*%
X177782023Y-216526500D03*
D13*
X177782023Y-220226500D03*
%TD*%
D11*
%TO.C,D50*%
X168193523Y-224907500D03*
X168193523Y-221607500D03*
%TD*%
D12*
%TO.C,SW22*%
X182544523Y-178426500D03*
D13*
X182544523Y-182126500D03*
%TD*%
D12*
%TO.C,SW6*%
X153969523Y-159376500D03*
D13*
X153969523Y-163076500D03*
%TD*%
D11*
%TO.C,RED1*%
X296971523Y-155184500D03*
X296971523Y-151884500D03*
%TD*%
D12*
%TO.C,SW28*%
X301607023Y-178426500D03*
D13*
X301607023Y-182126500D03*
%TD*%
D12*
%TO.C,SW45*%
X56338273Y-216526500D03*
D13*
X56338273Y-220226500D03*
%TD*%
D12*
%TO.C,SW7*%
X173019523Y-159376500D03*
D13*
X173019523Y-163076500D03*
%TD*%
D11*
%TO.C,D25*%
X249219523Y-186171500D03*
X249219523Y-182871500D03*
%TD*%
%TO.C,D57*%
X308782523Y-224907500D03*
X308782523Y-221607500D03*
%TD*%
%TO.C,D67*%
X234868523Y-244084500D03*
X234868523Y-240784500D03*
%TD*%
D15*
%TO.C,D85*%
X373807523Y-216653500D03*
X377107523Y-216653500D03*
%TD*%
D12*
%TO.C,SW59*%
X61100773Y-235576500D03*
D13*
X61100773Y-239276500D03*
%TD*%
D11*
%TO.C,D21*%
X173019523Y-186171500D03*
X173019523Y-182871500D03*
%TD*%
%TO.C,D63*%
X158795523Y-244084500D03*
X158795523Y-240784500D03*
%TD*%
%TO.C,D66*%
X215945523Y-244084500D03*
X215945523Y-240784500D03*
%TD*%
D12*
%TO.C,SW15*%
X49194523Y-178426500D03*
D13*
X49194523Y-182126500D03*
%TD*%
D11*
%TO.C,D45*%
X72943523Y-224908500D03*
X72943523Y-221608500D03*
%TD*%
D12*
%TO.C,SW5*%
X134919523Y-159376500D03*
D13*
X134919523Y-163076500D03*
%TD*%
D11*
%TO.C,D34*%
X144444523Y-205857500D03*
X144444523Y-202557500D03*
%TD*%
%TO.C,D13*%
X296971523Y-168138500D03*
X296971523Y-164838500D03*
%TD*%
%TO.C,D74*%
X77769523Y-262372500D03*
X77769523Y-259072500D03*
%TD*%
D12*
%TO.C,SW58*%
X373044523Y-187951500D03*
D13*
X373044523Y-191651500D03*
%TD*%
D11*
%TO.C,D32*%
X106344523Y-205857500D03*
X106344523Y-202557500D03*
%TD*%
%TO.C,D70*%
X305988523Y-244084500D03*
X305988523Y-240784500D03*
%TD*%
D12*
%TO.C,SW20*%
X144444523Y-178426500D03*
D13*
X144444523Y-182126500D03*
%TD*%
D12*
%TO.C,SW55*%
X253982023Y-216526500D03*
D13*
X253982023Y-220226500D03*
%TD*%
D11*
%TO.C,D10*%
X239675523Y-168138500D03*
X239675523Y-164838500D03*
%TD*%
D12*
%TO.C,SW83*%
X353994523Y-254626500D03*
D13*
X353994523Y-258326500D03*
%TD*%
D11*
%TO.C,D2*%
X87294523Y-168011500D03*
X87294523Y-164711500D03*
%TD*%
%TO.C,D3*%
X106344523Y-168011500D03*
X106344523Y-164711500D03*
%TD*%
M02*
