%TF.GenerationSoftware,KiCad,Pcbnew,10.0.5*%
%TF.CreationDate,2026-08-25T21:36:04+10:00*%
%TF.ProjectId,single_panel,73696e67-6c65-45f7-9061-6e656c2e6b69,rev?*%
%TF.SameCoordinates,Original*%
%TF.FileFunction,Legend,Bot*%
%TF.FilePolarity,Positive*%
%FSLAX46Y46*%
G04 Gerber Fmt 4.6, Leading zero omitted, Abs format (unit mm)*
G04 Created by KiCad (PCBNEW 10.0.5) date 2026-08-25 21:36:04*
%MOMM*%
%LPD*%
G01*
G04 APERTURE LIST*
%ADD10C,0.150000*%
%ADD11C,0.120000*%
G04 APERTURE END LIST*
D10*
X154694289Y-147017419D02*
X155170479Y-147017419D01*
X155170479Y-147017419D02*
X155170479Y-146017419D01*
X154313336Y-147017419D02*
X154122860Y-147017419D01*
X154122860Y-147017419D02*
X154027622Y-146969800D01*
X154027622Y-146969800D02*
X153980003Y-146922180D01*
X153980003Y-146922180D02*
X153884765Y-146779323D01*
X153884765Y-146779323D02*
X153837146Y-146588847D01*
X153837146Y-146588847D02*
X153837146Y-146207895D01*
X153837146Y-146207895D02*
X153884765Y-146112657D01*
X153884765Y-146112657D02*
X153932384Y-146065038D01*
X153932384Y-146065038D02*
X154027622Y-146017419D01*
X154027622Y-146017419D02*
X154218098Y-146017419D01*
X154218098Y-146017419D02*
X154313336Y-146065038D01*
X154313336Y-146065038D02*
X154360955Y-146112657D01*
X154360955Y-146112657D02*
X154408574Y-146207895D01*
X154408574Y-146207895D02*
X154408574Y-146445990D01*
X154408574Y-146445990D02*
X154360955Y-146541228D01*
X154360955Y-146541228D02*
X154313336Y-146588847D01*
X154313336Y-146588847D02*
X154218098Y-146636466D01*
X154218098Y-146636466D02*
X154027622Y-146636466D01*
X154027622Y-146636466D02*
X153932384Y-146588847D01*
X153932384Y-146588847D02*
X153884765Y-146541228D01*
X153884765Y-146541228D02*
X153837146Y-146445990D01*
X77015380Y-150236080D02*
X77062999Y-150283700D01*
X77062999Y-150283700D02*
X77205856Y-150331319D01*
X77205856Y-150331319D02*
X77301094Y-150331319D01*
X77301094Y-150331319D02*
X77443951Y-150283700D01*
X77443951Y-150283700D02*
X77539189Y-150188461D01*
X77539189Y-150188461D02*
X77586808Y-150093223D01*
X77586808Y-150093223D02*
X77634427Y-149902747D01*
X77634427Y-149902747D02*
X77634427Y-149759890D01*
X77634427Y-149759890D02*
X77586808Y-149569414D01*
X77586808Y-149569414D02*
X77539189Y-149474176D01*
X77539189Y-149474176D02*
X77443951Y-149378938D01*
X77443951Y-149378938D02*
X77301094Y-149331319D01*
X77301094Y-149331319D02*
X77205856Y-149331319D01*
X77205856Y-149331319D02*
X77062999Y-149378938D01*
X77062999Y-149378938D02*
X77015380Y-149426557D01*
X76062999Y-150331319D02*
X76634427Y-150331319D01*
X76348713Y-150331319D02*
X76348713Y-149331319D01*
X76348713Y-149331319D02*
X76443951Y-149474176D01*
X76443951Y-149474176D02*
X76539189Y-149569414D01*
X76539189Y-149569414D02*
X76634427Y-149617033D01*
X75729665Y-149331319D02*
X75110618Y-149331319D01*
X75110618Y-149331319D02*
X75443951Y-149712271D01*
X75443951Y-149712271D02*
X75301094Y-149712271D01*
X75301094Y-149712271D02*
X75205856Y-149759890D01*
X75205856Y-149759890D02*
X75158237Y-149807509D01*
X75158237Y-149807509D02*
X75110618Y-149902747D01*
X75110618Y-149902747D02*
X75110618Y-150140842D01*
X75110618Y-150140842D02*
X75158237Y-150236080D01*
X75158237Y-150236080D02*
X75205856Y-150283700D01*
X75205856Y-150283700D02*
X75301094Y-150331319D01*
X75301094Y-150331319D02*
X75586808Y-150331319D01*
X75586808Y-150331319D02*
X75682046Y-150283700D01*
X75682046Y-150283700D02*
X75729665Y-150236080D01*
X59870380Y-147131319D02*
X60346570Y-147131319D01*
X60346570Y-147131319D02*
X60346570Y-146131319D01*
X59013237Y-147131319D02*
X59584665Y-147131319D01*
X59298951Y-147131319D02*
X59298951Y-146131319D01*
X59298951Y-146131319D02*
X59394189Y-146274176D01*
X59394189Y-146274176D02*
X59489427Y-146369414D01*
X59489427Y-146369414D02*
X59584665Y-146417033D01*
X58156094Y-146464652D02*
X58156094Y-147131319D01*
X58394189Y-146083700D02*
X58632284Y-146797985D01*
X58632284Y-146797985D02*
X58013237Y-146797985D01*
X40947380Y-151722080D02*
X40994999Y-151769700D01*
X40994999Y-151769700D02*
X41137856Y-151817319D01*
X41137856Y-151817319D02*
X41233094Y-151817319D01*
X41233094Y-151817319D02*
X41375951Y-151769700D01*
X41375951Y-151769700D02*
X41471189Y-151674461D01*
X41471189Y-151674461D02*
X41518808Y-151579223D01*
X41518808Y-151579223D02*
X41566427Y-151388747D01*
X41566427Y-151388747D02*
X41566427Y-151245890D01*
X41566427Y-151245890D02*
X41518808Y-151055414D01*
X41518808Y-151055414D02*
X41471189Y-150960176D01*
X41471189Y-150960176D02*
X41375951Y-150864938D01*
X41375951Y-150864938D02*
X41233094Y-150817319D01*
X41233094Y-150817319D02*
X41137856Y-150817319D01*
X41137856Y-150817319D02*
X40994999Y-150864938D01*
X40994999Y-150864938D02*
X40947380Y-150912557D01*
X39994999Y-151817319D02*
X40566427Y-151817319D01*
X40280713Y-151817319D02*
X40280713Y-150817319D01*
X40280713Y-150817319D02*
X40375951Y-150960176D01*
X40375951Y-150960176D02*
X40471189Y-151055414D01*
X40471189Y-151055414D02*
X40566427Y-151103033D01*
X39090237Y-150817319D02*
X39566427Y-150817319D01*
X39566427Y-150817319D02*
X39614046Y-151293509D01*
X39614046Y-151293509D02*
X39566427Y-151245890D01*
X39566427Y-151245890D02*
X39471189Y-151198271D01*
X39471189Y-151198271D02*
X39233094Y-151198271D01*
X39233094Y-151198271D02*
X39137856Y-151245890D01*
X39137856Y-151245890D02*
X39090237Y-151293509D01*
X39090237Y-151293509D02*
X39042618Y-151388747D01*
X39042618Y-151388747D02*
X39042618Y-151626842D01*
X39042618Y-151626842D02*
X39090237Y-151722080D01*
X39090237Y-151722080D02*
X39137856Y-151769700D01*
X39137856Y-151769700D02*
X39233094Y-151817319D01*
X39233094Y-151817319D02*
X39471189Y-151817319D01*
X39471189Y-151817319D02*
X39566427Y-151769700D01*
X39566427Y-151769700D02*
X39614046Y-151722080D01*
X228756189Y-150072080D02*
X228803808Y-150119700D01*
X228803808Y-150119700D02*
X228946665Y-150167319D01*
X228946665Y-150167319D02*
X229041903Y-150167319D01*
X229041903Y-150167319D02*
X229184760Y-150119700D01*
X229184760Y-150119700D02*
X229279998Y-150024461D01*
X229279998Y-150024461D02*
X229327617Y-149929223D01*
X229327617Y-149929223D02*
X229375236Y-149738747D01*
X229375236Y-149738747D02*
X229375236Y-149595890D01*
X229375236Y-149595890D02*
X229327617Y-149405414D01*
X229327617Y-149405414D02*
X229279998Y-149310176D01*
X229279998Y-149310176D02*
X229184760Y-149214938D01*
X229184760Y-149214938D02*
X229041903Y-149167319D01*
X229041903Y-149167319D02*
X228946665Y-149167319D01*
X228946665Y-149167319D02*
X228803808Y-149214938D01*
X228803808Y-149214938D02*
X228756189Y-149262557D01*
X227851427Y-149167319D02*
X228327617Y-149167319D01*
X228327617Y-149167319D02*
X228375236Y-149643509D01*
X228375236Y-149643509D02*
X228327617Y-149595890D01*
X228327617Y-149595890D02*
X228232379Y-149548271D01*
X228232379Y-149548271D02*
X227994284Y-149548271D01*
X227994284Y-149548271D02*
X227899046Y-149595890D01*
X227899046Y-149595890D02*
X227851427Y-149643509D01*
X227851427Y-149643509D02*
X227803808Y-149738747D01*
X227803808Y-149738747D02*
X227803808Y-149976842D01*
X227803808Y-149976842D02*
X227851427Y-150072080D01*
X227851427Y-150072080D02*
X227899046Y-150119700D01*
X227899046Y-150119700D02*
X227994284Y-150167319D01*
X227994284Y-150167319D02*
X228232379Y-150167319D01*
X228232379Y-150167319D02*
X228327617Y-150119700D01*
X228327617Y-150119700D02*
X228375236Y-150072080D01*
X304631189Y-149957080D02*
X304678808Y-150004700D01*
X304678808Y-150004700D02*
X304821665Y-150052319D01*
X304821665Y-150052319D02*
X304916903Y-150052319D01*
X304916903Y-150052319D02*
X305059760Y-150004700D01*
X305059760Y-150004700D02*
X305154998Y-149909461D01*
X305154998Y-149909461D02*
X305202617Y-149814223D01*
X305202617Y-149814223D02*
X305250236Y-149623747D01*
X305250236Y-149623747D02*
X305250236Y-149480890D01*
X305250236Y-149480890D02*
X305202617Y-149290414D01*
X305202617Y-149290414D02*
X305154998Y-149195176D01*
X305154998Y-149195176D02*
X305059760Y-149099938D01*
X305059760Y-149099938D02*
X304916903Y-149052319D01*
X304916903Y-149052319D02*
X304821665Y-149052319D01*
X304821665Y-149052319D02*
X304678808Y-149099938D01*
X304678808Y-149099938D02*
X304631189Y-149147557D01*
X303678808Y-150052319D02*
X304250236Y-150052319D01*
X303964522Y-150052319D02*
X303964522Y-149052319D01*
X303964522Y-149052319D02*
X304059760Y-149195176D01*
X304059760Y-149195176D02*
X304154998Y-149290414D01*
X304154998Y-149290414D02*
X304250236Y-149338033D01*
X285652189Y-149945080D02*
X285699808Y-149992700D01*
X285699808Y-149992700D02*
X285842665Y-150040319D01*
X285842665Y-150040319D02*
X285937903Y-150040319D01*
X285937903Y-150040319D02*
X286080760Y-149992700D01*
X286080760Y-149992700D02*
X286175998Y-149897461D01*
X286175998Y-149897461D02*
X286223617Y-149802223D01*
X286223617Y-149802223D02*
X286271236Y-149611747D01*
X286271236Y-149611747D02*
X286271236Y-149468890D01*
X286271236Y-149468890D02*
X286223617Y-149278414D01*
X286223617Y-149278414D02*
X286175998Y-149183176D01*
X286175998Y-149183176D02*
X286080760Y-149087938D01*
X286080760Y-149087938D02*
X285937903Y-149040319D01*
X285937903Y-149040319D02*
X285842665Y-149040319D01*
X285842665Y-149040319D02*
X285699808Y-149087938D01*
X285699808Y-149087938D02*
X285652189Y-149135557D01*
X285271236Y-149135557D02*
X285223617Y-149087938D01*
X285223617Y-149087938D02*
X285128379Y-149040319D01*
X285128379Y-149040319D02*
X284890284Y-149040319D01*
X284890284Y-149040319D02*
X284795046Y-149087938D01*
X284795046Y-149087938D02*
X284747427Y-149135557D01*
X284747427Y-149135557D02*
X284699808Y-149230795D01*
X284699808Y-149230795D02*
X284699808Y-149326033D01*
X284699808Y-149326033D02*
X284747427Y-149468890D01*
X284747427Y-149468890D02*
X285318855Y-150040319D01*
X285318855Y-150040319D02*
X284699808Y-150040319D01*
X230534189Y-146865319D02*
X231010379Y-146865319D01*
X231010379Y-146865319D02*
X231010379Y-145865319D01*
X229724665Y-145865319D02*
X230200855Y-145865319D01*
X230200855Y-145865319D02*
X230248474Y-146341509D01*
X230248474Y-146341509D02*
X230200855Y-146293890D01*
X230200855Y-146293890D02*
X230105617Y-146246271D01*
X230105617Y-146246271D02*
X229867522Y-146246271D01*
X229867522Y-146246271D02*
X229772284Y-146293890D01*
X229772284Y-146293890D02*
X229724665Y-146341509D01*
X229724665Y-146341509D02*
X229677046Y-146436747D01*
X229677046Y-146436747D02*
X229677046Y-146674842D01*
X229677046Y-146674842D02*
X229724665Y-146770080D01*
X229724665Y-146770080D02*
X229772284Y-146817700D01*
X229772284Y-146817700D02*
X229867522Y-146865319D01*
X229867522Y-146865319D02*
X230105617Y-146865319D01*
X230105617Y-146865319D02*
X230200855Y-146817700D01*
X230200855Y-146817700D02*
X230248474Y-146770080D01*
X190818289Y-150109180D02*
X190865908Y-150156800D01*
X190865908Y-150156800D02*
X191008765Y-150204419D01*
X191008765Y-150204419D02*
X191104003Y-150204419D01*
X191104003Y-150204419D02*
X191246860Y-150156800D01*
X191246860Y-150156800D02*
X191342098Y-150061561D01*
X191342098Y-150061561D02*
X191389717Y-149966323D01*
X191389717Y-149966323D02*
X191437336Y-149775847D01*
X191437336Y-149775847D02*
X191437336Y-149632990D01*
X191437336Y-149632990D02*
X191389717Y-149442514D01*
X191389717Y-149442514D02*
X191342098Y-149347276D01*
X191342098Y-149347276D02*
X191246860Y-149252038D01*
X191246860Y-149252038D02*
X191104003Y-149204419D01*
X191104003Y-149204419D02*
X191008765Y-149204419D01*
X191008765Y-149204419D02*
X190865908Y-149252038D01*
X190865908Y-149252038D02*
X190818289Y-149299657D01*
X190484955Y-149204419D02*
X189818289Y-149204419D01*
X189818289Y-149204419D02*
X190246860Y-150204419D01*
X115517280Y-150198980D02*
X115564899Y-150246600D01*
X115564899Y-150246600D02*
X115707756Y-150294219D01*
X115707756Y-150294219D02*
X115802994Y-150294219D01*
X115802994Y-150294219D02*
X115945851Y-150246600D01*
X115945851Y-150246600D02*
X116041089Y-150151361D01*
X116041089Y-150151361D02*
X116088708Y-150056123D01*
X116088708Y-150056123D02*
X116136327Y-149865647D01*
X116136327Y-149865647D02*
X116136327Y-149722790D01*
X116136327Y-149722790D02*
X116088708Y-149532314D01*
X116088708Y-149532314D02*
X116041089Y-149437076D01*
X116041089Y-149437076D02*
X115945851Y-149341838D01*
X115945851Y-149341838D02*
X115802994Y-149294219D01*
X115802994Y-149294219D02*
X115707756Y-149294219D01*
X115707756Y-149294219D02*
X115564899Y-149341838D01*
X115564899Y-149341838D02*
X115517280Y-149389457D01*
X114564899Y-150294219D02*
X115136327Y-150294219D01*
X114850613Y-150294219D02*
X114850613Y-149294219D01*
X114850613Y-149294219D02*
X114945851Y-149437076D01*
X114945851Y-149437076D02*
X115041089Y-149532314D01*
X115041089Y-149532314D02*
X115136327Y-149579933D01*
X113612518Y-150294219D02*
X114183946Y-150294219D01*
X113898232Y-150294219D02*
X113898232Y-149294219D01*
X113898232Y-149294219D02*
X113993470Y-149437076D01*
X113993470Y-149437076D02*
X114088708Y-149532314D01*
X114088708Y-149532314D02*
X114183946Y-149579933D01*
X135689380Y-147004319D02*
X136165570Y-147004319D01*
X136165570Y-147004319D02*
X136165570Y-146004319D01*
X134832237Y-147004319D02*
X135403665Y-147004319D01*
X135117951Y-147004319D02*
X135117951Y-146004319D01*
X135117951Y-146004319D02*
X135213189Y-146147176D01*
X135213189Y-146147176D02*
X135308427Y-146242414D01*
X135308427Y-146242414D02*
X135403665Y-146290033D01*
X134213189Y-146004319D02*
X134117951Y-146004319D01*
X134117951Y-146004319D02*
X134022713Y-146051938D01*
X134022713Y-146051938D02*
X133975094Y-146099557D01*
X133975094Y-146099557D02*
X133927475Y-146194795D01*
X133927475Y-146194795D02*
X133879856Y-146385271D01*
X133879856Y-146385271D02*
X133879856Y-146623366D01*
X133879856Y-146623366D02*
X133927475Y-146813842D01*
X133927475Y-146813842D02*
X133975094Y-146909080D01*
X133975094Y-146909080D02*
X134022713Y-146956700D01*
X134022713Y-146956700D02*
X134117951Y-147004319D01*
X134117951Y-147004319D02*
X134213189Y-147004319D01*
X134213189Y-147004319D02*
X134308427Y-146956700D01*
X134308427Y-146956700D02*
X134356046Y-146909080D01*
X134356046Y-146909080D02*
X134403665Y-146813842D01*
X134403665Y-146813842D02*
X134451284Y-146623366D01*
X134451284Y-146623366D02*
X134451284Y-146385271D01*
X134451284Y-146385271D02*
X134403665Y-146194795D01*
X134403665Y-146194795D02*
X134356046Y-146099557D01*
X134356046Y-146099557D02*
X134308427Y-146051938D01*
X134308427Y-146051938D02*
X134213189Y-146004319D01*
X40947380Y-147131319D02*
X41423570Y-147131319D01*
X41423570Y-147131319D02*
X41423570Y-146131319D01*
X40090237Y-147131319D02*
X40661665Y-147131319D01*
X40375951Y-147131319D02*
X40375951Y-146131319D01*
X40375951Y-146131319D02*
X40471189Y-146274176D01*
X40471189Y-146274176D02*
X40566427Y-146369414D01*
X40566427Y-146369414D02*
X40661665Y-146417033D01*
X39185475Y-146131319D02*
X39661665Y-146131319D01*
X39661665Y-146131319D02*
X39709284Y-146607509D01*
X39709284Y-146607509D02*
X39661665Y-146559890D01*
X39661665Y-146559890D02*
X39566427Y-146512271D01*
X39566427Y-146512271D02*
X39328332Y-146512271D01*
X39328332Y-146512271D02*
X39233094Y-146559890D01*
X39233094Y-146559890D02*
X39185475Y-146607509D01*
X39185475Y-146607509D02*
X39137856Y-146702747D01*
X39137856Y-146702747D02*
X39137856Y-146940842D01*
X39137856Y-146940842D02*
X39185475Y-147036080D01*
X39185475Y-147036080D02*
X39233094Y-147083700D01*
X39233094Y-147083700D02*
X39328332Y-147131319D01*
X39328332Y-147131319D02*
X39566427Y-147131319D01*
X39566427Y-147131319D02*
X39661665Y-147083700D01*
X39661665Y-147083700D02*
X39709284Y-147036080D01*
X266658189Y-149957080D02*
X266705808Y-150004700D01*
X266705808Y-150004700D02*
X266848665Y-150052319D01*
X266848665Y-150052319D02*
X266943903Y-150052319D01*
X266943903Y-150052319D02*
X267086760Y-150004700D01*
X267086760Y-150004700D02*
X267181998Y-149909461D01*
X267181998Y-149909461D02*
X267229617Y-149814223D01*
X267229617Y-149814223D02*
X267277236Y-149623747D01*
X267277236Y-149623747D02*
X267277236Y-149480890D01*
X267277236Y-149480890D02*
X267229617Y-149290414D01*
X267229617Y-149290414D02*
X267181998Y-149195176D01*
X267181998Y-149195176D02*
X267086760Y-149099938D01*
X267086760Y-149099938D02*
X266943903Y-149052319D01*
X266943903Y-149052319D02*
X266848665Y-149052319D01*
X266848665Y-149052319D02*
X266705808Y-149099938D01*
X266705808Y-149099938D02*
X266658189Y-149147557D01*
X266324855Y-149052319D02*
X265705808Y-149052319D01*
X265705808Y-149052319D02*
X266039141Y-149433271D01*
X266039141Y-149433271D02*
X265896284Y-149433271D01*
X265896284Y-149433271D02*
X265801046Y-149480890D01*
X265801046Y-149480890D02*
X265753427Y-149528509D01*
X265753427Y-149528509D02*
X265705808Y-149623747D01*
X265705808Y-149623747D02*
X265705808Y-149861842D01*
X265705808Y-149861842D02*
X265753427Y-149957080D01*
X265753427Y-149957080D02*
X265801046Y-150004700D01*
X265801046Y-150004700D02*
X265896284Y-150052319D01*
X265896284Y-150052319D02*
X266181998Y-150052319D01*
X266181998Y-150052319D02*
X266277236Y-150004700D01*
X266277236Y-150004700D02*
X266324855Y-149957080D01*
X97716380Y-147017319D02*
X98192570Y-147017319D01*
X98192570Y-147017319D02*
X98192570Y-146017319D01*
X96859237Y-147017319D02*
X97430665Y-147017319D01*
X97144951Y-147017319D02*
X97144951Y-146017319D01*
X97144951Y-146017319D02*
X97240189Y-146160176D01*
X97240189Y-146160176D02*
X97335427Y-146255414D01*
X97335427Y-146255414D02*
X97430665Y-146303033D01*
X96478284Y-146112557D02*
X96430665Y-146064938D01*
X96430665Y-146064938D02*
X96335427Y-146017319D01*
X96335427Y-146017319D02*
X96097332Y-146017319D01*
X96097332Y-146017319D02*
X96002094Y-146064938D01*
X96002094Y-146064938D02*
X95954475Y-146112557D01*
X95954475Y-146112557D02*
X95906856Y-146207795D01*
X95906856Y-146207795D02*
X95906856Y-146303033D01*
X95906856Y-146303033D02*
X95954475Y-146445890D01*
X95954475Y-146445890D02*
X96525903Y-147017319D01*
X96525903Y-147017319D02*
X95906856Y-147017319D01*
X306409189Y-146750319D02*
X306885379Y-146750319D01*
X306885379Y-146750319D02*
X306885379Y-145750319D01*
X305552046Y-146750319D02*
X306123474Y-146750319D01*
X305837760Y-146750319D02*
X305837760Y-145750319D01*
X305837760Y-145750319D02*
X305932998Y-145893176D01*
X305932998Y-145893176D02*
X306028236Y-145988414D01*
X306028236Y-145988414D02*
X306123474Y-146036033D01*
X192596289Y-146902419D02*
X193072479Y-146902419D01*
X193072479Y-146902419D02*
X193072479Y-145902419D01*
X192358193Y-145902419D02*
X191691527Y-145902419D01*
X191691527Y-145902419D02*
X192120098Y-146902419D01*
X58092380Y-150338080D02*
X58139999Y-150385700D01*
X58139999Y-150385700D02*
X58282856Y-150433319D01*
X58282856Y-150433319D02*
X58378094Y-150433319D01*
X58378094Y-150433319D02*
X58520951Y-150385700D01*
X58520951Y-150385700D02*
X58616189Y-150290461D01*
X58616189Y-150290461D02*
X58663808Y-150195223D01*
X58663808Y-150195223D02*
X58711427Y-150004747D01*
X58711427Y-150004747D02*
X58711427Y-149861890D01*
X58711427Y-149861890D02*
X58663808Y-149671414D01*
X58663808Y-149671414D02*
X58616189Y-149576176D01*
X58616189Y-149576176D02*
X58520951Y-149480938D01*
X58520951Y-149480938D02*
X58378094Y-149433319D01*
X58378094Y-149433319D02*
X58282856Y-149433319D01*
X58282856Y-149433319D02*
X58139999Y-149480938D01*
X58139999Y-149480938D02*
X58092380Y-149528557D01*
X57139999Y-150433319D02*
X57711427Y-150433319D01*
X57425713Y-150433319D02*
X57425713Y-149433319D01*
X57425713Y-149433319D02*
X57520951Y-149576176D01*
X57520951Y-149576176D02*
X57616189Y-149671414D01*
X57616189Y-149671414D02*
X57711427Y-149719033D01*
X56282856Y-149766652D02*
X56282856Y-150433319D01*
X56520951Y-149385700D02*
X56759046Y-150099985D01*
X56759046Y-150099985D02*
X56139999Y-150099985D01*
X152916289Y-150224180D02*
X152963908Y-150271800D01*
X152963908Y-150271800D02*
X153106765Y-150319419D01*
X153106765Y-150319419D02*
X153202003Y-150319419D01*
X153202003Y-150319419D02*
X153344860Y-150271800D01*
X153344860Y-150271800D02*
X153440098Y-150176561D01*
X153440098Y-150176561D02*
X153487717Y-150081323D01*
X153487717Y-150081323D02*
X153535336Y-149890847D01*
X153535336Y-149890847D02*
X153535336Y-149747990D01*
X153535336Y-149747990D02*
X153487717Y-149557514D01*
X153487717Y-149557514D02*
X153440098Y-149462276D01*
X153440098Y-149462276D02*
X153344860Y-149367038D01*
X153344860Y-149367038D02*
X153202003Y-149319419D01*
X153202003Y-149319419D02*
X153106765Y-149319419D01*
X153106765Y-149319419D02*
X152963908Y-149367038D01*
X152963908Y-149367038D02*
X152916289Y-149414657D01*
X152440098Y-150319419D02*
X152249622Y-150319419D01*
X152249622Y-150319419D02*
X152154384Y-150271800D01*
X152154384Y-150271800D02*
X152106765Y-150224180D01*
X152106765Y-150224180D02*
X152011527Y-150081323D01*
X152011527Y-150081323D02*
X151963908Y-149890847D01*
X151963908Y-149890847D02*
X151963908Y-149509895D01*
X151963908Y-149509895D02*
X152011527Y-149414657D01*
X152011527Y-149414657D02*
X152059146Y-149367038D01*
X152059146Y-149367038D02*
X152154384Y-149319419D01*
X152154384Y-149319419D02*
X152344860Y-149319419D01*
X152344860Y-149319419D02*
X152440098Y-149367038D01*
X152440098Y-149367038D02*
X152487717Y-149414657D01*
X152487717Y-149414657D02*
X152535336Y-149509895D01*
X152535336Y-149509895D02*
X152535336Y-149747990D01*
X152535336Y-149747990D02*
X152487717Y-149843228D01*
X152487717Y-149843228D02*
X152440098Y-149890847D01*
X152440098Y-149890847D02*
X152344860Y-149938466D01*
X152344860Y-149938466D02*
X152154384Y-149938466D01*
X152154384Y-149938466D02*
X152059146Y-149890847D01*
X152059146Y-149890847D02*
X152011527Y-149843228D01*
X152011527Y-149843228D02*
X151963908Y-149747990D01*
X78793380Y-147029319D02*
X79269570Y-147029319D01*
X79269570Y-147029319D02*
X79269570Y-146029319D01*
X77936237Y-147029319D02*
X78507665Y-147029319D01*
X78221951Y-147029319D02*
X78221951Y-146029319D01*
X78221951Y-146029319D02*
X78317189Y-146172176D01*
X78317189Y-146172176D02*
X78412427Y-146267414D01*
X78412427Y-146267414D02*
X78507665Y-146315033D01*
X77602903Y-146029319D02*
X76983856Y-146029319D01*
X76983856Y-146029319D02*
X77317189Y-146410271D01*
X77317189Y-146410271D02*
X77174332Y-146410271D01*
X77174332Y-146410271D02*
X77079094Y-146457890D01*
X77079094Y-146457890D02*
X77031475Y-146505509D01*
X77031475Y-146505509D02*
X76983856Y-146600747D01*
X76983856Y-146600747D02*
X76983856Y-146838842D01*
X76983856Y-146838842D02*
X77031475Y-146934080D01*
X77031475Y-146934080D02*
X77079094Y-146981700D01*
X77079094Y-146981700D02*
X77174332Y-147029319D01*
X77174332Y-147029319D02*
X77460046Y-147029319D01*
X77460046Y-147029319D02*
X77555284Y-146981700D01*
X77555284Y-146981700D02*
X77602903Y-146934080D01*
X249528189Y-146853319D02*
X250004379Y-146853319D01*
X250004379Y-146853319D02*
X250004379Y-145853319D01*
X248766284Y-146186652D02*
X248766284Y-146853319D01*
X249004379Y-145805700D02*
X249242474Y-146519985D01*
X249242474Y-146519985D02*
X248623427Y-146519985D01*
X211590289Y-146890419D02*
X212066479Y-146890419D01*
X212066479Y-146890419D02*
X212066479Y-145890419D01*
X210828384Y-145890419D02*
X211018860Y-145890419D01*
X211018860Y-145890419D02*
X211114098Y-145938038D01*
X211114098Y-145938038D02*
X211161717Y-145985657D01*
X211161717Y-145985657D02*
X211256955Y-146128514D01*
X211256955Y-146128514D02*
X211304574Y-146318990D01*
X211304574Y-146318990D02*
X211304574Y-146699942D01*
X211304574Y-146699942D02*
X211256955Y-146795180D01*
X211256955Y-146795180D02*
X211209336Y-146842800D01*
X211209336Y-146842800D02*
X211114098Y-146890419D01*
X211114098Y-146890419D02*
X210923622Y-146890419D01*
X210923622Y-146890419D02*
X210828384Y-146842800D01*
X210828384Y-146842800D02*
X210780765Y-146795180D01*
X210780765Y-146795180D02*
X210733146Y-146699942D01*
X210733146Y-146699942D02*
X210733146Y-146461847D01*
X210733146Y-146461847D02*
X210780765Y-146366609D01*
X210780765Y-146366609D02*
X210828384Y-146318990D01*
X210828384Y-146318990D02*
X210923622Y-146271371D01*
X210923622Y-146271371D02*
X211114098Y-146271371D01*
X211114098Y-146271371D02*
X211209336Y-146318990D01*
X211209336Y-146318990D02*
X211256955Y-146366609D01*
X211256955Y-146366609D02*
X211304574Y-146461847D01*
X95938380Y-150224080D02*
X95985999Y-150271700D01*
X95985999Y-150271700D02*
X96128856Y-150319319D01*
X96128856Y-150319319D02*
X96224094Y-150319319D01*
X96224094Y-150319319D02*
X96366951Y-150271700D01*
X96366951Y-150271700D02*
X96462189Y-150176461D01*
X96462189Y-150176461D02*
X96509808Y-150081223D01*
X96509808Y-150081223D02*
X96557427Y-149890747D01*
X96557427Y-149890747D02*
X96557427Y-149747890D01*
X96557427Y-149747890D02*
X96509808Y-149557414D01*
X96509808Y-149557414D02*
X96462189Y-149462176D01*
X96462189Y-149462176D02*
X96366951Y-149366938D01*
X96366951Y-149366938D02*
X96224094Y-149319319D01*
X96224094Y-149319319D02*
X96128856Y-149319319D01*
X96128856Y-149319319D02*
X95985999Y-149366938D01*
X95985999Y-149366938D02*
X95938380Y-149414557D01*
X94985999Y-150319319D02*
X95557427Y-150319319D01*
X95271713Y-150319319D02*
X95271713Y-149319319D01*
X95271713Y-149319319D02*
X95366951Y-149462176D01*
X95366951Y-149462176D02*
X95462189Y-149557414D01*
X95462189Y-149557414D02*
X95557427Y-149605033D01*
X94605046Y-149414557D02*
X94557427Y-149366938D01*
X94557427Y-149366938D02*
X94462189Y-149319319D01*
X94462189Y-149319319D02*
X94224094Y-149319319D01*
X94224094Y-149319319D02*
X94128856Y-149366938D01*
X94128856Y-149366938D02*
X94081237Y-149414557D01*
X94081237Y-149414557D02*
X94033618Y-149509795D01*
X94033618Y-149509795D02*
X94033618Y-149605033D01*
X94033618Y-149605033D02*
X94081237Y-149747890D01*
X94081237Y-149747890D02*
X94652665Y-150319319D01*
X94652665Y-150319319D02*
X94033618Y-150319319D01*
X209812289Y-150097180D02*
X209859908Y-150144800D01*
X209859908Y-150144800D02*
X210002765Y-150192419D01*
X210002765Y-150192419D02*
X210098003Y-150192419D01*
X210098003Y-150192419D02*
X210240860Y-150144800D01*
X210240860Y-150144800D02*
X210336098Y-150049561D01*
X210336098Y-150049561D02*
X210383717Y-149954323D01*
X210383717Y-149954323D02*
X210431336Y-149763847D01*
X210431336Y-149763847D02*
X210431336Y-149620990D01*
X210431336Y-149620990D02*
X210383717Y-149430514D01*
X210383717Y-149430514D02*
X210336098Y-149335276D01*
X210336098Y-149335276D02*
X210240860Y-149240038D01*
X210240860Y-149240038D02*
X210098003Y-149192419D01*
X210098003Y-149192419D02*
X210002765Y-149192419D01*
X210002765Y-149192419D02*
X209859908Y-149240038D01*
X209859908Y-149240038D02*
X209812289Y-149287657D01*
X208955146Y-149192419D02*
X209145622Y-149192419D01*
X209145622Y-149192419D02*
X209240860Y-149240038D01*
X209240860Y-149240038D02*
X209288479Y-149287657D01*
X209288479Y-149287657D02*
X209383717Y-149430514D01*
X209383717Y-149430514D02*
X209431336Y-149620990D01*
X209431336Y-149620990D02*
X209431336Y-150001942D01*
X209431336Y-150001942D02*
X209383717Y-150097180D01*
X209383717Y-150097180D02*
X209336098Y-150144800D01*
X209336098Y-150144800D02*
X209240860Y-150192419D01*
X209240860Y-150192419D02*
X209050384Y-150192419D01*
X209050384Y-150192419D02*
X208955146Y-150144800D01*
X208955146Y-150144800D02*
X208907527Y-150097180D01*
X208907527Y-150097180D02*
X208859908Y-150001942D01*
X208859908Y-150001942D02*
X208859908Y-149763847D01*
X208859908Y-149763847D02*
X208907527Y-149668609D01*
X208907527Y-149668609D02*
X208955146Y-149620990D01*
X208955146Y-149620990D02*
X209050384Y-149573371D01*
X209050384Y-149573371D02*
X209240860Y-149573371D01*
X209240860Y-149573371D02*
X209336098Y-149620990D01*
X209336098Y-149620990D02*
X209383717Y-149668609D01*
X209383717Y-149668609D02*
X209431336Y-149763847D01*
X173688289Y-147005419D02*
X174164479Y-147005419D01*
X174164479Y-147005419D02*
X174164479Y-146005419D01*
X173212098Y-146433990D02*
X173307336Y-146386371D01*
X173307336Y-146386371D02*
X173354955Y-146338752D01*
X173354955Y-146338752D02*
X173402574Y-146243514D01*
X173402574Y-146243514D02*
X173402574Y-146195895D01*
X173402574Y-146195895D02*
X173354955Y-146100657D01*
X173354955Y-146100657D02*
X173307336Y-146053038D01*
X173307336Y-146053038D02*
X173212098Y-146005419D01*
X173212098Y-146005419D02*
X173021622Y-146005419D01*
X173021622Y-146005419D02*
X172926384Y-146053038D01*
X172926384Y-146053038D02*
X172878765Y-146100657D01*
X172878765Y-146100657D02*
X172831146Y-146195895D01*
X172831146Y-146195895D02*
X172831146Y-146243514D01*
X172831146Y-146243514D02*
X172878765Y-146338752D01*
X172878765Y-146338752D02*
X172926384Y-146386371D01*
X172926384Y-146386371D02*
X173021622Y-146433990D01*
X173021622Y-146433990D02*
X173212098Y-146433990D01*
X173212098Y-146433990D02*
X173307336Y-146481609D01*
X173307336Y-146481609D02*
X173354955Y-146529228D01*
X173354955Y-146529228D02*
X173402574Y-146624466D01*
X173402574Y-146624466D02*
X173402574Y-146814942D01*
X173402574Y-146814942D02*
X173354955Y-146910180D01*
X173354955Y-146910180D02*
X173307336Y-146957800D01*
X173307336Y-146957800D02*
X173212098Y-147005419D01*
X173212098Y-147005419D02*
X173021622Y-147005419D01*
X173021622Y-147005419D02*
X172926384Y-146957800D01*
X172926384Y-146957800D02*
X172878765Y-146910180D01*
X172878765Y-146910180D02*
X172831146Y-146814942D01*
X172831146Y-146814942D02*
X172831146Y-146624466D01*
X172831146Y-146624466D02*
X172878765Y-146529228D01*
X172878765Y-146529228D02*
X172926384Y-146481609D01*
X172926384Y-146481609D02*
X173021622Y-146433990D01*
X133911380Y-150211080D02*
X133958999Y-150258700D01*
X133958999Y-150258700D02*
X134101856Y-150306319D01*
X134101856Y-150306319D02*
X134197094Y-150306319D01*
X134197094Y-150306319D02*
X134339951Y-150258700D01*
X134339951Y-150258700D02*
X134435189Y-150163461D01*
X134435189Y-150163461D02*
X134482808Y-150068223D01*
X134482808Y-150068223D02*
X134530427Y-149877747D01*
X134530427Y-149877747D02*
X134530427Y-149734890D01*
X134530427Y-149734890D02*
X134482808Y-149544414D01*
X134482808Y-149544414D02*
X134435189Y-149449176D01*
X134435189Y-149449176D02*
X134339951Y-149353938D01*
X134339951Y-149353938D02*
X134197094Y-149306319D01*
X134197094Y-149306319D02*
X134101856Y-149306319D01*
X134101856Y-149306319D02*
X133958999Y-149353938D01*
X133958999Y-149353938D02*
X133911380Y-149401557D01*
X132958999Y-150306319D02*
X133530427Y-150306319D01*
X133244713Y-150306319D02*
X133244713Y-149306319D01*
X133244713Y-149306319D02*
X133339951Y-149449176D01*
X133339951Y-149449176D02*
X133435189Y-149544414D01*
X133435189Y-149544414D02*
X133530427Y-149592033D01*
X132339951Y-149306319D02*
X132244713Y-149306319D01*
X132244713Y-149306319D02*
X132149475Y-149353938D01*
X132149475Y-149353938D02*
X132101856Y-149401557D01*
X132101856Y-149401557D02*
X132054237Y-149496795D01*
X132054237Y-149496795D02*
X132006618Y-149687271D01*
X132006618Y-149687271D02*
X132006618Y-149925366D01*
X132006618Y-149925366D02*
X132054237Y-150115842D01*
X132054237Y-150115842D02*
X132101856Y-150211080D01*
X132101856Y-150211080D02*
X132149475Y-150258700D01*
X132149475Y-150258700D02*
X132244713Y-150306319D01*
X132244713Y-150306319D02*
X132339951Y-150306319D01*
X132339951Y-150306319D02*
X132435189Y-150258700D01*
X132435189Y-150258700D02*
X132482808Y-150211080D01*
X132482808Y-150211080D02*
X132530427Y-150115842D01*
X132530427Y-150115842D02*
X132578046Y-149925366D01*
X132578046Y-149925366D02*
X132578046Y-149687271D01*
X132578046Y-149687271D02*
X132530427Y-149496795D01*
X132530427Y-149496795D02*
X132482808Y-149401557D01*
X132482808Y-149401557D02*
X132435189Y-149353938D01*
X132435189Y-149353938D02*
X132339951Y-149306319D01*
X268436189Y-146750319D02*
X268912379Y-146750319D01*
X268912379Y-146750319D02*
X268912379Y-145750319D01*
X268198093Y-145750319D02*
X267579046Y-145750319D01*
X267579046Y-145750319D02*
X267912379Y-146131271D01*
X267912379Y-146131271D02*
X267769522Y-146131271D01*
X267769522Y-146131271D02*
X267674284Y-146178890D01*
X267674284Y-146178890D02*
X267626665Y-146226509D01*
X267626665Y-146226509D02*
X267579046Y-146321747D01*
X267579046Y-146321747D02*
X267579046Y-146559842D01*
X267579046Y-146559842D02*
X267626665Y-146655080D01*
X267626665Y-146655080D02*
X267674284Y-146702700D01*
X267674284Y-146702700D02*
X267769522Y-146750319D01*
X267769522Y-146750319D02*
X268055236Y-146750319D01*
X268055236Y-146750319D02*
X268150474Y-146702700D01*
X268150474Y-146702700D02*
X268198093Y-146655080D01*
X247750189Y-150060080D02*
X247797808Y-150107700D01*
X247797808Y-150107700D02*
X247940665Y-150155319D01*
X247940665Y-150155319D02*
X248035903Y-150155319D01*
X248035903Y-150155319D02*
X248178760Y-150107700D01*
X248178760Y-150107700D02*
X248273998Y-150012461D01*
X248273998Y-150012461D02*
X248321617Y-149917223D01*
X248321617Y-149917223D02*
X248369236Y-149726747D01*
X248369236Y-149726747D02*
X248369236Y-149583890D01*
X248369236Y-149583890D02*
X248321617Y-149393414D01*
X248321617Y-149393414D02*
X248273998Y-149298176D01*
X248273998Y-149298176D02*
X248178760Y-149202938D01*
X248178760Y-149202938D02*
X248035903Y-149155319D01*
X248035903Y-149155319D02*
X247940665Y-149155319D01*
X247940665Y-149155319D02*
X247797808Y-149202938D01*
X247797808Y-149202938D02*
X247750189Y-149250557D01*
X246893046Y-149488652D02*
X246893046Y-150155319D01*
X247131141Y-149107700D02*
X247369236Y-149821985D01*
X247369236Y-149821985D02*
X246750189Y-149821985D01*
X116639380Y-146992219D02*
X117115570Y-146992219D01*
X117115570Y-146992219D02*
X117115570Y-145992219D01*
X115782237Y-146992219D02*
X116353665Y-146992219D01*
X116067951Y-146992219D02*
X116067951Y-145992219D01*
X116067951Y-145992219D02*
X116163189Y-146135076D01*
X116163189Y-146135076D02*
X116258427Y-146230314D01*
X116258427Y-146230314D02*
X116353665Y-146277933D01*
X114829856Y-146992219D02*
X115401284Y-146992219D01*
X115115570Y-146992219D02*
X115115570Y-145992219D01*
X115115570Y-145992219D02*
X115210808Y-146135076D01*
X115210808Y-146135076D02*
X115306046Y-146230314D01*
X115306046Y-146230314D02*
X115401284Y-146277933D01*
X287430189Y-146738319D02*
X287906379Y-146738319D01*
X287906379Y-146738319D02*
X287906379Y-145738319D01*
X287144474Y-145833557D02*
X287096855Y-145785938D01*
X287096855Y-145785938D02*
X287001617Y-145738319D01*
X287001617Y-145738319D02*
X286763522Y-145738319D01*
X286763522Y-145738319D02*
X286668284Y-145785938D01*
X286668284Y-145785938D02*
X286620665Y-145833557D01*
X286620665Y-145833557D02*
X286573046Y-145928795D01*
X286573046Y-145928795D02*
X286573046Y-146024033D01*
X286573046Y-146024033D02*
X286620665Y-146166890D01*
X286620665Y-146166890D02*
X287192093Y-146738319D01*
X287192093Y-146738319D02*
X286573046Y-146738319D01*
X171910289Y-150212180D02*
X171957908Y-150259800D01*
X171957908Y-150259800D02*
X172100765Y-150307419D01*
X172100765Y-150307419D02*
X172196003Y-150307419D01*
X172196003Y-150307419D02*
X172338860Y-150259800D01*
X172338860Y-150259800D02*
X172434098Y-150164561D01*
X172434098Y-150164561D02*
X172481717Y-150069323D01*
X172481717Y-150069323D02*
X172529336Y-149878847D01*
X172529336Y-149878847D02*
X172529336Y-149735990D01*
X172529336Y-149735990D02*
X172481717Y-149545514D01*
X172481717Y-149545514D02*
X172434098Y-149450276D01*
X172434098Y-149450276D02*
X172338860Y-149355038D01*
X172338860Y-149355038D02*
X172196003Y-149307419D01*
X172196003Y-149307419D02*
X172100765Y-149307419D01*
X172100765Y-149307419D02*
X171957908Y-149355038D01*
X171957908Y-149355038D02*
X171910289Y-149402657D01*
X171338860Y-149735990D02*
X171434098Y-149688371D01*
X171434098Y-149688371D02*
X171481717Y-149640752D01*
X171481717Y-149640752D02*
X171529336Y-149545514D01*
X171529336Y-149545514D02*
X171529336Y-149497895D01*
X171529336Y-149497895D02*
X171481717Y-149402657D01*
X171481717Y-149402657D02*
X171434098Y-149355038D01*
X171434098Y-149355038D02*
X171338860Y-149307419D01*
X171338860Y-149307419D02*
X171148384Y-149307419D01*
X171148384Y-149307419D02*
X171053146Y-149355038D01*
X171053146Y-149355038D02*
X171005527Y-149402657D01*
X171005527Y-149402657D02*
X170957908Y-149497895D01*
X170957908Y-149497895D02*
X170957908Y-149545514D01*
X170957908Y-149545514D02*
X171005527Y-149640752D01*
X171005527Y-149640752D02*
X171053146Y-149688371D01*
X171053146Y-149688371D02*
X171148384Y-149735990D01*
X171148384Y-149735990D02*
X171338860Y-149735990D01*
X171338860Y-149735990D02*
X171434098Y-149783609D01*
X171434098Y-149783609D02*
X171481717Y-149831228D01*
X171481717Y-149831228D02*
X171529336Y-149926466D01*
X171529336Y-149926466D02*
X171529336Y-150116942D01*
X171529336Y-150116942D02*
X171481717Y-150212180D01*
X171481717Y-150212180D02*
X171434098Y-150259800D01*
X171434098Y-150259800D02*
X171338860Y-150307419D01*
X171338860Y-150307419D02*
X171148384Y-150307419D01*
X171148384Y-150307419D02*
X171053146Y-150259800D01*
X171053146Y-150259800D02*
X171005527Y-150212180D01*
X171005527Y-150212180D02*
X170957908Y-150116942D01*
X170957908Y-150116942D02*
X170957908Y-149926466D01*
X170957908Y-149926466D02*
X171005527Y-149831228D01*
X171005527Y-149831228D02*
X171053146Y-149783609D01*
X171053146Y-149783609D02*
X171148384Y-149735990D01*
%TO.C,L9*%
D11*
X155505623Y-146096600D02*
X155505623Y-149846600D01*
X155505623Y-149846600D02*
X162080623Y-149846600D01*
X162805623Y-146096600D02*
X155505623Y-146096600D01*
X162805623Y-149121600D02*
X162080623Y-149846600D01*
X162805623Y-149121600D02*
X162805623Y-146096600D01*
X161880623Y-149421600D02*
X161730623Y-149621600D01*
X162030623Y-149621600D01*
X161880623Y-149421600D01*
G36*
X162030623Y-149621600D02*
G01*
X161730623Y-149621600D01*
X161880623Y-149421600D01*
X162030623Y-149621600D01*
G37*
%TO.C,C13*%
X78204523Y-148719920D02*
X78204523Y-149001080D01*
X79224523Y-148719920D02*
X79224523Y-149001080D01*
%TO.C,L14*%
X60784523Y-146211500D02*
X60784523Y-149961500D01*
X60784523Y-149961500D02*
X67359523Y-149961500D01*
X68084523Y-146211500D02*
X60784523Y-146211500D01*
X68084523Y-149236500D02*
X67359523Y-149961500D01*
X68084523Y-149236500D02*
X68084523Y-146211500D01*
X67159523Y-149536500D02*
X67009523Y-149736500D01*
X67309523Y-149736500D01*
X67159523Y-149536500D01*
G36*
X67309523Y-149736500D02*
G01*
X67009523Y-149736500D01*
X67159523Y-149536500D01*
X67309523Y-149736500D01*
G37*
%TO.C,C15*%
X40302523Y-148834920D02*
X40302523Y-149116080D01*
X41322523Y-148834920D02*
X41322523Y-149116080D01*
%TO.C,C5*%
X229857523Y-148555920D02*
X229857523Y-148837080D01*
X230877523Y-148555920D02*
X230877523Y-148837080D01*
%TO.C,C1*%
X305732523Y-148440920D02*
X305732523Y-148722080D01*
X306752523Y-148440920D02*
X306752523Y-148722080D01*
%TO.C,C2*%
X286753523Y-148428920D02*
X286753523Y-148710080D01*
X287773523Y-148428920D02*
X287773523Y-148710080D01*
%TO.C,L5*%
X231345523Y-145944500D02*
X231345523Y-149694500D01*
X231345523Y-149694500D02*
X237920523Y-149694500D01*
X238645523Y-145944500D02*
X231345523Y-145944500D01*
X238645523Y-148969500D02*
X237920523Y-149694500D01*
X238645523Y-148969500D02*
X238645523Y-145944500D01*
X237720523Y-149269500D02*
X237570523Y-149469500D01*
X237870523Y-149469500D01*
X237720523Y-149269500D01*
G36*
X237870523Y-149469500D02*
G01*
X237570523Y-149469500D01*
X237720523Y-149269500D01*
X237870523Y-149469500D01*
G37*
%TO.C,C7*%
X191919623Y-148593020D02*
X191919623Y-148874180D01*
X192939623Y-148593020D02*
X192939623Y-148874180D01*
%TO.C,C11*%
X116142423Y-148682820D02*
X116142423Y-148963980D01*
X117162423Y-148682820D02*
X117162423Y-148963980D01*
%TO.C,L10*%
X136624423Y-146059400D02*
X136624423Y-149809400D01*
X136624423Y-149809400D02*
X143199423Y-149809400D01*
X143924423Y-146059400D02*
X136624423Y-146059400D01*
X143924423Y-149084400D02*
X143199423Y-149809400D01*
X143924423Y-149084400D02*
X143924423Y-146059400D01*
X142999423Y-149384400D02*
X142849423Y-149584400D01*
X143149423Y-149584400D01*
X142999423Y-149384400D01*
G36*
X143149423Y-149584400D02*
G01*
X142849423Y-149584400D01*
X142999423Y-149384400D01*
X143149423Y-149584400D01*
G37*
%TO.C,L15*%
X41790523Y-146223500D02*
X41790523Y-149973500D01*
X41790523Y-149973500D02*
X48365523Y-149973500D01*
X49090523Y-146223500D02*
X41790523Y-146223500D01*
X49090523Y-149248500D02*
X48365523Y-149973500D01*
X49090523Y-149248500D02*
X49090523Y-146223500D01*
X48165523Y-149548500D02*
X48015523Y-149748500D01*
X48315523Y-149748500D01*
X48165523Y-149548500D01*
G36*
X48315523Y-149748500D02*
G01*
X48015523Y-149748500D01*
X48165523Y-149548500D01*
X48315523Y-149748500D01*
G37*
%TO.C,C3*%
X267759523Y-148440920D02*
X267759523Y-148722080D01*
X268779523Y-148440920D02*
X268779523Y-148722080D01*
%TO.C,L12*%
X98686523Y-146096500D02*
X98686523Y-149846500D01*
X98686523Y-149846500D02*
X105261523Y-149846500D01*
X105986523Y-146096500D02*
X98686523Y-146096500D01*
X105986523Y-149121500D02*
X105261523Y-149846500D01*
X105986523Y-149121500D02*
X105986523Y-146096500D01*
X105061523Y-149421500D02*
X104911523Y-149621500D01*
X105211523Y-149621500D01*
X105061523Y-149421500D01*
G36*
X105211523Y-149621500D02*
G01*
X104911523Y-149621500D01*
X105061523Y-149421500D01*
X105211523Y-149621500D01*
G37*
%TO.C,L1*%
X307220523Y-145829500D02*
X307220523Y-149579500D01*
X307220523Y-149579500D02*
X313795523Y-149579500D01*
X314520523Y-145829500D02*
X307220523Y-145829500D01*
X314520523Y-148854500D02*
X313795523Y-149579500D01*
X314520523Y-148854500D02*
X314520523Y-145829500D01*
X313595523Y-149154500D02*
X313445523Y-149354500D01*
X313745523Y-149354500D01*
X313595523Y-149154500D01*
G36*
X313745523Y-149354500D02*
G01*
X313445523Y-149354500D01*
X313595523Y-149154500D01*
X313745523Y-149354500D01*
G37*
%TO.C,L7*%
X193407623Y-145981600D02*
X193407623Y-149731600D01*
X193407623Y-149731600D02*
X199982623Y-149731600D01*
X200707623Y-145981600D02*
X193407623Y-145981600D01*
X200707623Y-149006600D02*
X199982623Y-149731600D01*
X200707623Y-149006600D02*
X200707623Y-145981600D01*
X199782623Y-149306600D02*
X199632623Y-149506600D01*
X199932623Y-149506600D01*
X199782623Y-149306600D01*
G36*
X199932623Y-149506600D02*
G01*
X199632623Y-149506600D01*
X199782623Y-149306600D01*
X199932623Y-149506600D01*
G37*
%TO.C,C14*%
X59296523Y-148822920D02*
X59296523Y-149104080D01*
X60316523Y-148822920D02*
X60316523Y-149104080D01*
%TO.C,C9*%
X154017623Y-148708020D02*
X154017623Y-148989180D01*
X155037623Y-148708020D02*
X155037623Y-148989180D01*
%TO.C,L13*%
X79692523Y-146108500D02*
X79692523Y-149858500D01*
X79692523Y-149858500D02*
X86267523Y-149858500D01*
X86992523Y-146108500D02*
X79692523Y-146108500D01*
X86992523Y-149133500D02*
X86267523Y-149858500D01*
X86992523Y-149133500D02*
X86992523Y-146108500D01*
X86067523Y-149433500D02*
X85917523Y-149633500D01*
X86217523Y-149633500D01*
X86067523Y-149433500D01*
G36*
X86217523Y-149633500D02*
G01*
X85917523Y-149633500D01*
X86067523Y-149433500D01*
X86217523Y-149633500D01*
G37*
%TO.C,L4*%
X250339523Y-145932500D02*
X250339523Y-149682500D01*
X250339523Y-149682500D02*
X256914523Y-149682500D01*
X257639523Y-145932500D02*
X250339523Y-145932500D01*
X257639523Y-148957500D02*
X256914523Y-149682500D01*
X257639523Y-148957500D02*
X257639523Y-145932500D01*
X256714523Y-149257500D02*
X256564523Y-149457500D01*
X256864523Y-149457500D01*
X256714523Y-149257500D01*
G36*
X256864523Y-149457500D02*
G01*
X256564523Y-149457500D01*
X256714523Y-149257500D01*
X256864523Y-149457500D01*
G37*
%TO.C,L6*%
X212401623Y-145969600D02*
X212401623Y-149719600D01*
X212401623Y-149719600D02*
X218976623Y-149719600D01*
X219701623Y-145969600D02*
X212401623Y-145969600D01*
X219701623Y-148994600D02*
X218976623Y-149719600D01*
X219701623Y-148994600D02*
X219701623Y-145969600D01*
X218776623Y-149294600D02*
X218626623Y-149494600D01*
X218926623Y-149494600D01*
X218776623Y-149294600D01*
G36*
X218926623Y-149494600D02*
G01*
X218626623Y-149494600D01*
X218776623Y-149294600D01*
X218926623Y-149494600D01*
G37*
%TO.C,C12*%
X97198523Y-148707920D02*
X97198523Y-148989080D01*
X98218523Y-148707920D02*
X98218523Y-148989080D01*
%TO.C,C6*%
X210913623Y-148581020D02*
X210913623Y-148862180D01*
X211933623Y-148581020D02*
X211933623Y-148862180D01*
%TO.C,L8*%
X174499623Y-146084600D02*
X174499623Y-149834600D01*
X174499623Y-149834600D02*
X181074623Y-149834600D01*
X181799623Y-146084600D02*
X174499623Y-146084600D01*
X181799623Y-149109600D02*
X181074623Y-149834600D01*
X181799623Y-149109600D02*
X181799623Y-146084600D01*
X180874623Y-149409600D02*
X180724623Y-149609600D01*
X181024623Y-149609600D01*
X180874623Y-149409600D01*
G36*
X181024623Y-149609600D02*
G01*
X180724623Y-149609600D01*
X180874623Y-149409600D01*
X181024623Y-149609600D01*
G37*
%TO.C,C10*%
X135136423Y-148670820D02*
X135136423Y-148951980D01*
X136156423Y-148670820D02*
X136156423Y-148951980D01*
%TO.C,L3*%
X269247523Y-145829500D02*
X269247523Y-149579500D01*
X269247523Y-149579500D02*
X275822523Y-149579500D01*
X276547523Y-145829500D02*
X269247523Y-145829500D01*
X276547523Y-148854500D02*
X275822523Y-149579500D01*
X276547523Y-148854500D02*
X276547523Y-145829500D01*
X275622523Y-149154500D02*
X275472523Y-149354500D01*
X275772523Y-149354500D01*
X275622523Y-149154500D01*
G36*
X275772523Y-149354500D02*
G01*
X275472523Y-149354500D01*
X275622523Y-149154500D01*
X275772523Y-149354500D01*
G37*
%TO.C,C4*%
X248851523Y-148543920D02*
X248851523Y-148825080D01*
X249871523Y-148543920D02*
X249871523Y-148825080D01*
%TO.C,L11*%
X117630423Y-146071400D02*
X117630423Y-149821400D01*
X117630423Y-149821400D02*
X124205423Y-149821400D01*
X124930423Y-146071400D02*
X117630423Y-146071400D01*
X124930423Y-149096400D02*
X124205423Y-149821400D01*
X124930423Y-149096400D02*
X124930423Y-146071400D01*
X124005423Y-149396400D02*
X123855423Y-149596400D01*
X124155423Y-149596400D01*
X124005423Y-149396400D01*
G36*
X124155423Y-149596400D02*
G01*
X123855423Y-149596400D01*
X124005423Y-149396400D01*
X124155423Y-149596400D01*
G37*
%TO.C,L2*%
X288241523Y-145817500D02*
X288241523Y-149567500D01*
X288241523Y-149567500D02*
X294816523Y-149567500D01*
X295541523Y-145817500D02*
X288241523Y-145817500D01*
X295541523Y-148842500D02*
X294816523Y-149567500D01*
X295541523Y-148842500D02*
X295541523Y-145817500D01*
X294616523Y-149142500D02*
X294466523Y-149342500D01*
X294766523Y-149342500D01*
X294616523Y-149142500D01*
G36*
X294766523Y-149342500D02*
G01*
X294466523Y-149342500D01*
X294616523Y-149142500D01*
X294766523Y-149342500D01*
G37*
%TO.C,C8*%
X173011623Y-148696020D02*
X173011623Y-148977180D01*
X174031623Y-148696020D02*
X174031623Y-148977180D01*
%TD*%
M02*
