%TF.GenerationSoftware,KiCad,Pcbnew,10.0.5*%
%TF.CreationDate,2026-08-25T21:36:04+10:00*%
%TF.ProjectId,single_panel,73696e67-6c65-45f7-9061-6e656c2e6b69,rev?*%
%TF.SameCoordinates,Original*%
%TF.FileFunction,Other,User*%
%FSLAX46Y46*%
G04 Gerber Fmt 4.6, Leading zero omitted, Abs format (unit mm)*
G04 Created by KiCad (PCBNEW 10.0.5) date 2026-08-25 21:36:04*
%MOMM*%
%LPD*%
G01*
G04 APERTURE LIST*
%ADD10C,0.050000*%
G04 APERTURE END LIST*
%TO.C,REF\u002A\u002A*%
D10*
X367520239Y-143976500D02*
X376870239Y-143976500D01*
X376870239Y-144676500D01*
X367520239Y-144676500D01*
X367520239Y-143976500D01*
X367525216Y-140166500D02*
X376875216Y-140166500D01*
X376875216Y-140866500D01*
X367525216Y-140866500D01*
X367525216Y-140166500D01*
X43799750Y-143976500D02*
X53149750Y-143976500D01*
X53149750Y-144676500D01*
X43799750Y-144676500D01*
X43799750Y-143976500D01*
X43804727Y-140166500D02*
X53154727Y-140166500D01*
X53154727Y-140866500D01*
X43804727Y-140866500D01*
X43804727Y-140166500D01*
%TO.C,D35*%
X162344523Y-201857500D02*
X164644523Y-201857500D01*
X162344523Y-206557500D02*
X162344523Y-201857500D01*
X162344523Y-206557500D02*
X164644523Y-206557500D01*
X164644523Y-201857500D02*
X164644523Y-206557500D01*
%TO.C,SW38*%
X202869523Y-189226500D02*
X219369523Y-189226500D01*
X219369523Y-205726500D01*
X202869523Y-205726500D01*
X202869523Y-189226500D01*
%TO.C,D83*%
X362369523Y-248975500D02*
X362369523Y-244275500D01*
X364669523Y-244275500D02*
X362369523Y-244275500D01*
X364669523Y-244275500D02*
X364669523Y-248975500D01*
X364669523Y-248975500D02*
X362369523Y-248975500D01*
%TO.C,SW57*%
X290975773Y-208276500D02*
X307475773Y-208276500D01*
X307475773Y-224776500D01*
X290975773Y-224776500D01*
X290975773Y-208276500D01*
%TO.C,SW43*%
X298119523Y-189226500D02*
X314619523Y-189226500D01*
X314619523Y-205726500D01*
X298119523Y-205726500D01*
X298119523Y-189226500D01*
%TO.C,D69*%
X271945523Y-240084500D02*
X274245523Y-240084500D01*
X271945523Y-244784500D02*
X271945523Y-240084500D01*
X271945523Y-244784500D02*
X274245523Y-244784500D01*
X274245523Y-240084500D02*
X274245523Y-244784500D01*
%TO.C,D71*%
X345802523Y-224774500D02*
X345802523Y-227074500D01*
X345802523Y-224774500D02*
X350502523Y-224774500D01*
X350502523Y-224774500D02*
X350502523Y-227074500D01*
X350502523Y-227074500D02*
X345802523Y-227074500D01*
%TO.C,SW1*%
X45707023Y-151126500D02*
X62207023Y-151126500D01*
X62207023Y-167626500D01*
X45707023Y-167626500D01*
X45707023Y-151126500D01*
%TO.C,SW34*%
X126669523Y-189226500D02*
X143169523Y-189226500D01*
X143169523Y-205726500D01*
X126669523Y-205726500D01*
X126669523Y-189226500D01*
%TO.C,D28*%
X311696523Y-182172500D02*
X313996523Y-182172500D01*
X311696523Y-186872500D02*
X311696523Y-182172500D01*
X311696523Y-186872500D02*
X313996523Y-186872500D01*
X313996523Y-182172500D02*
X313996523Y-186872500D01*
%TO.C,SW11*%
X240969523Y-151126500D02*
X257469523Y-151126500D01*
X257469523Y-167626500D01*
X240969523Y-167626500D01*
X240969523Y-151126500D01*
%TO.C,D19*%
X133769523Y-182171500D02*
X136069523Y-182171500D01*
X133769523Y-186871500D02*
X133769523Y-182171500D01*
X133769523Y-186871500D02*
X136069523Y-186871500D01*
X136069523Y-182171500D02*
X136069523Y-186871500D01*
%TO.C,SW81*%
X298119523Y-246376500D02*
X314619523Y-246376500D01*
X314619523Y-262876500D01*
X298119523Y-262876500D01*
X298119523Y-246376500D01*
%TO.C,D54*%
X243370523Y-220907500D02*
X245670523Y-220907500D01*
X243370523Y-225607500D02*
X243370523Y-220907500D01*
X243370523Y-225607500D02*
X245670523Y-225607500D01*
X245670523Y-220907500D02*
X245670523Y-225607500D01*
%TO.C,SW77*%
X171913273Y-246376500D02*
X188413273Y-246376500D01*
X188413273Y-262876500D01*
X171913273Y-262876500D01*
X171913273Y-246376500D01*
%TO.C,D79*%
X276644523Y-258372500D02*
X278944523Y-258372500D01*
X276644523Y-263072500D02*
X276644523Y-258372500D01*
X276644523Y-263072500D02*
X278944523Y-263072500D01*
X278944523Y-258372500D02*
X278944523Y-263072500D01*
%TO.C,D51*%
X186220523Y-220907500D02*
X188520523Y-220907500D01*
X186220523Y-225607500D02*
X186220523Y-220907500D01*
X186220523Y-225607500D02*
X188520523Y-225607500D01*
X188520523Y-220907500D02*
X188520523Y-225607500D01*
%TO.C,D59*%
X81318523Y-240084500D02*
X83618523Y-240084500D01*
X81318523Y-244784500D02*
X81318523Y-240084500D01*
X81318523Y-244784500D02*
X83618523Y-244784500D01*
X83618523Y-240084500D02*
X83618523Y-244784500D01*
%TO.C,D53*%
X224193523Y-220907500D02*
X226493523Y-220907500D01*
X224193523Y-225607500D02*
X224193523Y-220907500D01*
X224193523Y-225607500D02*
X226493523Y-225607500D01*
X226493523Y-220907500D02*
X226493523Y-225607500D01*
%TO.C,SW18*%
X98094523Y-170176500D02*
X114594523Y-170176500D01*
X114594523Y-186676500D01*
X98094523Y-186676500D01*
X98094523Y-170176500D01*
%TO.C,SW62*%
X121907023Y-227326500D02*
X138407023Y-227326500D01*
X138407023Y-243826500D01*
X121907023Y-243826500D01*
X121907023Y-227326500D01*
%TO.C,D77*%
X238417523Y-258372500D02*
X240717523Y-258372500D01*
X238417523Y-263072500D02*
X238417523Y-258372500D01*
X238417523Y-263072500D02*
X240717523Y-263072500D01*
X240717523Y-258372500D02*
X240717523Y-263072500D01*
%TO.C,D20*%
X152819523Y-182171500D02*
X155119523Y-182171500D01*
X152819523Y-186871500D02*
X152819523Y-182171500D01*
X152819523Y-186871500D02*
X155119523Y-186871500D01*
X155119523Y-182171500D02*
X155119523Y-186871500D01*
%TO.C,SW25*%
X231444523Y-170176500D02*
X247944523Y-170176500D01*
X247944523Y-186676500D01*
X231444523Y-186676500D01*
X231444523Y-170176500D01*
%TO.C,SW10*%
X221919523Y-151126500D02*
X238419523Y-151126500D01*
X238419523Y-167626500D01*
X221919523Y-167626500D01*
X221919523Y-151126500D01*
%TO.C,D60*%
X100437523Y-240084500D02*
X102737523Y-240084500D01*
X100437523Y-244784500D02*
X100437523Y-240084500D01*
X100437523Y-244784500D02*
X102737523Y-244784500D01*
X102737523Y-240084500D02*
X102737523Y-244784500D01*
%TO.C,D40*%
X257594523Y-201853500D02*
X259894523Y-201853500D01*
X257594523Y-206553500D02*
X257594523Y-201853500D01*
X257594523Y-206553500D02*
X259894523Y-206553500D01*
X259894523Y-201853500D02*
X259894523Y-206553500D01*
%TO.C,SW69*%
X255257023Y-227326500D02*
X271757023Y-227326500D01*
X271757023Y-243826500D01*
X255257023Y-243826500D01*
X255257023Y-227326500D01*
%TO.C,A1*%
X326761523Y-142871500D02*
X335761523Y-142871500D01*
X335761523Y-144421500D01*
X342801523Y-144421500D01*
X342801523Y-196721500D01*
X319721523Y-196721500D01*
X319721523Y-144421500D01*
X326761523Y-144421500D01*
X326761523Y-142871500D01*
%TO.C,SW76*%
X100475773Y-246376500D02*
X116975773Y-246376500D01*
X116975773Y-262876500D01*
X100475773Y-262876500D01*
X100475773Y-246376500D01*
%TO.C,D37*%
X200444523Y-201857500D02*
X202744523Y-201857500D01*
X200444523Y-206557500D02*
X200444523Y-201857500D01*
X200444523Y-206557500D02*
X202744523Y-206557500D01*
X202744523Y-201857500D02*
X202744523Y-206557500D01*
%TO.C,SW49*%
X131432023Y-208276500D02*
X147932023Y-208276500D01*
X147932023Y-224776500D01*
X131432023Y-224776500D01*
X131432023Y-208276500D01*
%TO.C,D62*%
X138595523Y-240084500D02*
X140895523Y-240084500D01*
X138595523Y-244784500D02*
X138595523Y-240084500D01*
X138595523Y-244784500D02*
X140895523Y-244784500D01*
X140895523Y-240084500D02*
X140895523Y-244784500D01*
%TO.C,D4*%
X124244523Y-164011500D02*
X126544523Y-164011500D01*
X124244523Y-168711500D02*
X124244523Y-164011500D01*
X124244523Y-168711500D02*
X126544523Y-168711500D01*
X126544523Y-164011500D02*
X126544523Y-168711500D01*
%TO.C,SW63*%
X140957023Y-227326500D02*
X157457023Y-227326500D01*
X157457023Y-243826500D01*
X140957023Y-243826500D01*
X140957023Y-227326500D01*
%TO.C,SW3*%
X88569523Y-151126500D02*
X105069523Y-151126500D01*
X105069523Y-167626500D01*
X88569523Y-167626500D01*
X88569523Y-151126500D01*
%TO.C,SW26*%
X250494523Y-170176500D02*
X266994523Y-170176500D01*
X266994523Y-186676500D01*
X250494523Y-186676500D01*
X250494523Y-170176500D01*
%TO.C,SW16*%
X59994523Y-170176500D02*
X76494523Y-170176500D01*
X76494523Y-186676500D01*
X59994523Y-186676500D01*
X59994523Y-170176500D01*
%TO.C,SW27*%
X269544523Y-170176500D02*
X286044523Y-170176500D01*
X286044523Y-186676500D01*
X269544523Y-186676500D01*
X269544523Y-170176500D01*
%TO.C,D7*%
X181394523Y-164011500D02*
X183694523Y-164011500D01*
X181394523Y-168711500D02*
X181394523Y-164011500D01*
X181394523Y-168711500D02*
X183694523Y-168711500D01*
X183694523Y-164011500D02*
X183694523Y-168711500D01*
%TO.C,SW66*%
X198107023Y-227326500D02*
X214607023Y-227326500D01*
X214607023Y-243826500D01*
X198107023Y-243826500D01*
X198107023Y-227326500D01*
%TO.C,SW50*%
X150482023Y-208276500D02*
X166982023Y-208276500D01*
X166982023Y-224776500D01*
X150482023Y-224776500D01*
X150482023Y-208276500D01*
%TO.C,SW64*%
X160007023Y-227326500D02*
X176507023Y-227326500D01*
X176507023Y-243826500D01*
X160007023Y-243826500D01*
X160007023Y-227326500D01*
%TO.C,D36*%
X181394523Y-201857500D02*
X183694523Y-201857500D01*
X181394523Y-206557500D02*
X181394523Y-201857500D01*
X181394523Y-206557500D02*
X183694523Y-206557500D01*
X183694523Y-201857500D02*
X183694523Y-206557500D01*
%TO.C,D15*%
X57569523Y-182171500D02*
X59869523Y-182171500D01*
X57569523Y-186871500D02*
X57569523Y-182171500D01*
X57569523Y-186871500D02*
X59869523Y-186871500D01*
X59869523Y-182171500D02*
X59869523Y-186871500D01*
%TO.C,D6*%
X162344523Y-164011500D02*
X164644523Y-164011500D01*
X162344523Y-168711500D02*
X162344523Y-164011500D01*
X162344523Y-168711500D02*
X164644523Y-168711500D01*
X164644523Y-164011500D02*
X164644523Y-168711500D01*
%TO.C,SW17*%
X79044523Y-170176500D02*
X95544523Y-170176500D01*
X95544523Y-186676500D01*
X79044523Y-186676500D01*
X79044523Y-170176500D01*
%TO.C,D75*%
X95923523Y-258372500D02*
X98223523Y-258372500D01*
X95923523Y-263072500D02*
X95923523Y-258372500D01*
X95923523Y-263072500D02*
X98223523Y-263072500D01*
X98223523Y-258372500D02*
X98223523Y-263072500D01*
%TO.C,SW74*%
X59994523Y-246376500D02*
X76494523Y-246376500D01*
X76494523Y-262876500D01*
X59994523Y-262876500D01*
X59994523Y-246376500D01*
%TO.C,SW72*%
X345744523Y-198751500D02*
X362244523Y-198751500D01*
X362244523Y-215251500D01*
X345744523Y-215251500D01*
X345744523Y-198751500D01*
%TO.C,SW48*%
X112382023Y-208276500D02*
X128882023Y-208276500D01*
X128882023Y-224776500D01*
X112382023Y-224776500D01*
X112382023Y-208276500D01*
%TO.C,D24*%
X229019523Y-182171500D02*
X231319523Y-182171500D01*
X229019523Y-186871500D02*
X229019523Y-182171500D01*
X229019523Y-186871500D02*
X231319523Y-186871500D01*
X231319523Y-182171500D02*
X231319523Y-186871500D01*
%TO.C,D56*%
X281597523Y-220907500D02*
X283897523Y-220907500D01*
X281597523Y-225607500D02*
X281597523Y-220907500D01*
X281597523Y-225607500D02*
X283897523Y-225607500D01*
X283897523Y-220907500D02*
X283897523Y-225607500D01*
%TO.C,SW2*%
X69519523Y-151126500D02*
X86019523Y-151126500D01*
X86019523Y-167626500D01*
X69519523Y-167626500D01*
X69519523Y-151126500D01*
%TO.C,SW9*%
X202869523Y-151126500D02*
X219369523Y-151126500D01*
X219369523Y-167626500D01*
X202869523Y-167626500D01*
X202869523Y-151126500D01*
%TO.C,D12*%
X276644523Y-164138500D02*
X278944523Y-164138500D01*
X276644523Y-168838500D02*
X276644523Y-164138500D01*
X276644523Y-168838500D02*
X278944523Y-168838500D01*
X278944523Y-164138500D02*
X278944523Y-168838500D01*
%TO.C,SW37*%
X183819523Y-189226500D02*
X200319523Y-189226500D01*
X200319523Y-205726500D01*
X183819523Y-205726500D01*
X183819523Y-189226500D01*
%TO.C,D46*%
X90843523Y-220907500D02*
X93143523Y-220907500D01*
X90843523Y-225607500D02*
X90843523Y-220907500D01*
X90843523Y-225607500D02*
X93143523Y-225607500D01*
X93143523Y-220907500D02*
X93143523Y-225607500D01*
%TO.C,D39*%
X238544523Y-201857500D02*
X240844523Y-201857500D01*
X238544523Y-206557500D02*
X238544523Y-201857500D01*
X238544523Y-206557500D02*
X240844523Y-206557500D01*
X240844523Y-201857500D02*
X240844523Y-206557500D01*
%TO.C,D14*%
X357359523Y-177276500D02*
X362059523Y-177276500D01*
X357359523Y-179576500D02*
X357359523Y-177276500D01*
X362059523Y-179576500D02*
X357359523Y-179576500D01*
X362059523Y-179576500D02*
X362059523Y-177276500D01*
%TO.C,D44*%
X350120523Y-196199500D02*
X350120523Y-198499500D01*
X350120523Y-196199500D02*
X354820523Y-196199500D01*
X354820523Y-196199500D02*
X354820523Y-198499500D01*
X354820523Y-198499500D02*
X350120523Y-198499500D01*
%TO.C,SW42*%
X279069523Y-189226500D02*
X295569523Y-189226500D01*
X295569523Y-205726500D01*
X279069523Y-205726500D01*
X279069523Y-189226500D01*
%TO.C,D23*%
X209969523Y-182171500D02*
X212269523Y-182171500D01*
X209969523Y-186871500D02*
X209969523Y-182171500D01*
X209969523Y-186871500D02*
X212269523Y-186871500D01*
X212269523Y-182171500D02*
X212269523Y-186871500D01*
%TO.C,SW84*%
X364794523Y-246376500D02*
X381294523Y-246376500D01*
X381294523Y-262876500D01*
X364794523Y-262876500D01*
X364794523Y-246376500D01*
%TO.C,SW35*%
X145719523Y-189226500D02*
X162219523Y-189226500D01*
X162219523Y-205726500D01*
X145719523Y-205726500D01*
X145719523Y-189226500D01*
%TO.C,D11*%
X257594523Y-164138500D02*
X259894523Y-164138500D01*
X257594523Y-168838500D02*
X257594523Y-164138500D01*
X257594523Y-168838500D02*
X259894523Y-168838500D01*
X259894523Y-164138500D02*
X259894523Y-168838500D01*
%TO.C,D1*%
X66840523Y-164011500D02*
X69140523Y-164011500D01*
X66840523Y-168711500D02*
X66840523Y-164011500D01*
X66840523Y-168711500D02*
X69140523Y-168711500D01*
X69140523Y-164011500D02*
X69140523Y-168711500D01*
%TO.C,U1*%
X328821523Y-202483500D02*
X341321523Y-202483500D01*
X341321523Y-240983500D01*
X328821523Y-240983500D01*
X328821523Y-202483500D01*
%TO.C,SW85*%
X364794523Y-198751500D02*
X381294523Y-198751500D01*
X381294523Y-215251500D01*
X364794523Y-215251500D01*
X364794523Y-198751500D01*
%TO.C,D27*%
X286169523Y-182172500D02*
X288469523Y-182172500D01*
X286169523Y-186872500D02*
X286169523Y-182172500D01*
X286169523Y-186872500D02*
X288469523Y-186872500D01*
X288469523Y-182172500D02*
X288469523Y-186872500D01*
%TO.C,SW67*%
X217157023Y-227326500D02*
X233657023Y-227326500D01*
X233657023Y-243826500D01*
X217157023Y-243826500D01*
X217157023Y-227326500D01*
%TO.C,D8*%
X200444523Y-164011500D02*
X202744523Y-164011500D01*
X200444523Y-168711500D02*
X200444523Y-164011500D01*
X200444523Y-168711500D02*
X202744523Y-168711500D01*
X202744523Y-164011500D02*
X202744523Y-168711500D01*
%TO.C,D47*%
X109893523Y-220907500D02*
X112193523Y-220907500D01*
X109893523Y-225607500D02*
X109893523Y-220907500D01*
X109893523Y-225607500D02*
X112193523Y-225607500D01*
X112193523Y-220907500D02*
X112193523Y-225607500D01*
%TO.C,SW41*%
X260019523Y-189226500D02*
X276519523Y-189226500D01*
X276519523Y-205726500D01*
X260019523Y-205726500D01*
X260019523Y-189226500D01*
%TO.C,SW36*%
X164769523Y-189226500D02*
X181269523Y-189226500D01*
X181269523Y-205726500D01*
X164769523Y-205726500D01*
X164769523Y-189226500D01*
%TO.C,D48*%
X129070523Y-220907500D02*
X131370523Y-220907500D01*
X129070523Y-225607500D02*
X129070523Y-220907500D01*
X129070523Y-225607500D02*
X131370523Y-225607500D01*
X131370523Y-220907500D02*
X131370523Y-225607500D01*
%TO.C,D84*%
X373234523Y-243824500D02*
X373234523Y-246124500D01*
X373234523Y-243824500D02*
X377934523Y-243824500D01*
X377934523Y-243824500D02*
X377934523Y-246124500D01*
X377934523Y-246124500D02*
X373234523Y-246124500D01*
%TO.C,SW61*%
X102857023Y-227326500D02*
X119357023Y-227326500D01*
X119357023Y-243826500D01*
X102857023Y-243826500D01*
X102857023Y-227326500D01*
%TO.C,D82*%
X343319523Y-248975500D02*
X343319523Y-244275500D01*
X345619523Y-244275500D02*
X343319523Y-244275500D01*
X345619523Y-244275500D02*
X345619523Y-248975500D01*
X345619523Y-248975500D02*
X343319523Y-248975500D01*
%TO.C,D49*%
X148120523Y-220907500D02*
X150420523Y-220907500D01*
X148120523Y-225607500D02*
X148120523Y-220907500D01*
X148120523Y-225607500D02*
X150420523Y-225607500D01*
X150420523Y-220907500D02*
X150420523Y-225607500D01*
%TO.C,D26*%
X267119523Y-182171500D02*
X269419523Y-182171500D01*
X267119523Y-186871500D02*
X267119523Y-182171500D01*
X267119523Y-186871500D02*
X269419523Y-186871500D01*
X269419523Y-182171500D02*
X269419523Y-186871500D01*
%TO.C,D68*%
X252768523Y-240084500D02*
X255068523Y-240084500D01*
X252768523Y-244784500D02*
X252768523Y-240084500D01*
X252768523Y-244784500D02*
X255068523Y-244784500D01*
X255068523Y-240084500D02*
X255068523Y-244784500D01*
%TO.C,SW56*%
X264782023Y-208276500D02*
X281282023Y-208276500D01*
X281282023Y-224776500D01*
X264782023Y-224776500D01*
X264782023Y-208276500D01*
%TO.C,D16*%
X76619523Y-182171500D02*
X78919523Y-182171500D01*
X76619523Y-186871500D02*
X76619523Y-182171500D01*
X76619523Y-186871500D02*
X78919523Y-186871500D01*
X78919523Y-182171500D02*
X78919523Y-186871500D01*
%TO.C,SW8*%
X183819523Y-151126500D02*
X200319523Y-151126500D01*
X200319523Y-167626500D01*
X183819523Y-167626500D01*
X183819523Y-151126500D01*
%TO.C,D58*%
X369298523Y-196326500D02*
X369298523Y-198626500D01*
X369298523Y-196326500D02*
X373998523Y-196326500D01*
X373998523Y-196326500D02*
X373998523Y-198626500D01*
X373998523Y-198626500D02*
X369298523Y-198626500D01*
%TO.C,SW52*%
X188582023Y-208276500D02*
X205082023Y-208276500D01*
X205082023Y-224776500D01*
X188582023Y-224776500D01*
X188582023Y-208276500D01*
%TO.C,D72*%
X349866523Y-215503500D02*
X349866523Y-217803500D01*
X349866523Y-215503500D02*
X354566523Y-215503500D01*
X354566523Y-215503500D02*
X354566523Y-217803500D01*
X354566523Y-217803500D02*
X349866523Y-217803500D01*
%TO.C,D29*%
X376537523Y-177149500D02*
X381237523Y-177149500D01*
X376537523Y-179449500D02*
X376537523Y-177149500D01*
X381237523Y-179449500D02*
X376537523Y-179449500D01*
X381237523Y-179449500D02*
X381237523Y-177149500D01*
%TO.C,SW44*%
X345744523Y-179701500D02*
X362244523Y-179701500D01*
X362244523Y-196201500D01*
X345744523Y-196201500D01*
X345744523Y-179701500D01*
%TO.C,D5*%
X143294523Y-164011500D02*
X145594523Y-164011500D01*
X143294523Y-168711500D02*
X143294523Y-164011500D01*
X143294523Y-168711500D02*
X145594523Y-168711500D01*
X145594523Y-164011500D02*
X145594523Y-168711500D01*
%TO.C,D31*%
X86144523Y-201857500D02*
X88444523Y-201857500D01*
X86144523Y-206557500D02*
X86144523Y-201857500D01*
X86144523Y-206557500D02*
X88444523Y-206557500D01*
X88444523Y-201857500D02*
X88444523Y-206557500D01*
%TO.C,SW24*%
X212394523Y-170176500D02*
X228894523Y-170176500D01*
X228894523Y-186676500D01*
X212394523Y-186676500D01*
X212394523Y-170176500D01*
%TO.C,SW71*%
X345744523Y-227326500D02*
X362244523Y-227326500D01*
X362244523Y-243826500D01*
X345744523Y-243826500D01*
X345744523Y-227326500D01*
%TO.C,SW23*%
X193344523Y-170176500D02*
X209844523Y-170176500D01*
X209844523Y-186676500D01*
X193344523Y-186676500D01*
X193344523Y-170176500D01*
%TO.C,D17*%
X95669523Y-182171500D02*
X97969523Y-182171500D01*
X95669523Y-186871500D02*
X95669523Y-182171500D01*
X95669523Y-186871500D02*
X97969523Y-186871500D01*
X97969523Y-182171500D02*
X97969523Y-186871500D01*
%TO.C,SW19*%
X117144523Y-170176500D02*
X133644523Y-170176500D01*
X133644523Y-186676500D01*
X117144523Y-186676500D01*
X117144523Y-170176500D01*
%TO.C,SW46*%
X74282023Y-208276500D02*
X90782023Y-208276500D01*
X90782023Y-224776500D01*
X74282023Y-224776500D01*
X74282023Y-208276500D01*
%TO.C,SW79*%
X260019523Y-246376500D02*
X276519523Y-246376500D01*
X276519523Y-262876500D01*
X260019523Y-262876500D01*
X260019523Y-246376500D01*
%TO.C,SW65*%
X179057023Y-227326500D02*
X195557023Y-227326500D01*
X195557023Y-243826500D01*
X179057023Y-243826500D01*
X179057023Y-227326500D01*
%TO.C,SW68*%
X236207023Y-227326500D02*
X252707023Y-227326500D01*
X252707023Y-243826500D01*
X236207023Y-243826500D01*
X236207023Y-227326500D01*
%TO.C,D73*%
X57569523Y-258372500D02*
X59869523Y-258372500D01*
X57569523Y-263072500D02*
X57569523Y-258372500D01*
X57569523Y-263072500D02*
X59869523Y-263072500D01*
X59869523Y-258372500D02*
X59869523Y-263072500D01*
%TO.C,SW21*%
X155244523Y-170176500D02*
X171744523Y-170176500D01*
X171744523Y-186676500D01*
X155244523Y-186676500D01*
X155244523Y-170176500D01*
%TO.C,SW30*%
X45707023Y-189226500D02*
X62207023Y-189226500D01*
X62207023Y-205726500D01*
X45707023Y-205726500D01*
X45707023Y-189226500D01*
%TO.C,D18*%
X114719523Y-182172500D02*
X117019523Y-182172500D01*
X114719523Y-186872500D02*
X114719523Y-182172500D01*
X114719523Y-186872500D02*
X117019523Y-186872500D01*
X117019523Y-182172500D02*
X117019523Y-186872500D01*
%TO.C,D61*%
X119545523Y-240084500D02*
X121845523Y-240084500D01*
X119545523Y-244784500D02*
X119545523Y-240084500D01*
X119545523Y-244784500D02*
X121845523Y-244784500D01*
X121845523Y-240084500D02*
X121845523Y-244784500D01*
%TO.C,SW78*%
X240969523Y-246376500D02*
X257469523Y-246376500D01*
X257469523Y-262876500D01*
X240969523Y-262876500D01*
X240969523Y-246376500D01*
%TO.C,D43*%
X314871523Y-201857500D02*
X317171523Y-201857500D01*
X314871523Y-206557500D02*
X314871523Y-201857500D01*
X314871523Y-206557500D02*
X317171523Y-206557500D01*
X317171523Y-201857500D02*
X317171523Y-206557500D01*
%TO.C,D9*%
X219494523Y-164011500D02*
X221794523Y-164011500D01*
X219494523Y-168711500D02*
X219494523Y-164011500D01*
X219494523Y-168711500D02*
X221794523Y-168711500D01*
X221794523Y-164011500D02*
X221794523Y-168711500D01*
%TO.C,D64*%
X176568523Y-240083500D02*
X178868523Y-240083500D01*
X176568523Y-244783500D02*
X176568523Y-240083500D01*
X176568523Y-244783500D02*
X178868523Y-244783500D01*
X178868523Y-240083500D02*
X178868523Y-244783500D01*
%TO.C,SW82*%
X326694523Y-246376500D02*
X343194523Y-246376500D01*
X343194523Y-262876500D01*
X326694523Y-262876500D01*
X326694523Y-246376500D01*
%TO.C,SW32*%
X88569523Y-189226500D02*
X105069523Y-189226500D01*
X105069523Y-205726500D01*
X88569523Y-205726500D01*
X88569523Y-189226500D01*
%TO.C,D65*%
X195618523Y-240084500D02*
X197918523Y-240084500D01*
X195618523Y-244784500D02*
X195618523Y-240084500D01*
X195618523Y-244784500D02*
X197918523Y-244784500D01*
X197918523Y-240084500D02*
X197918523Y-244784500D01*
%TO.C,SW47*%
X93332023Y-208276500D02*
X109832023Y-208276500D01*
X109832023Y-224776500D01*
X93332023Y-224776500D01*
X93332023Y-208276500D01*
%TO.C,D80*%
X295694523Y-258372500D02*
X297994523Y-258372500D01*
X295694523Y-263072500D02*
X295694523Y-258372500D01*
X295694523Y-263072500D02*
X297994523Y-263072500D01*
X297994523Y-258372500D02*
X297994523Y-263072500D01*
%TO.C,SW40*%
X240969523Y-189226500D02*
X257469523Y-189226500D01*
X257469523Y-205726500D01*
X240969523Y-205726500D01*
X240969523Y-189226500D01*
%TO.C,SW53*%
X207632023Y-208276500D02*
X224132023Y-208276500D01*
X224132023Y-224776500D01*
X207632023Y-224776500D01*
X207632023Y-208276500D01*
%TO.C,SW73*%
X40944523Y-246376500D02*
X57444523Y-246376500D01*
X57444523Y-262876500D01*
X40944523Y-262876500D01*
X40944523Y-246376500D01*
%TO.C,SW54*%
X226682023Y-208276500D02*
X243182023Y-208276500D01*
X243182023Y-224776500D01*
X226682023Y-224776500D01*
X226682023Y-208276500D01*
%TO.C,D41*%
X276644523Y-201853500D02*
X278944523Y-201853500D01*
X276644523Y-206553500D02*
X276644523Y-201853500D01*
X276644523Y-206553500D02*
X278944523Y-206553500D01*
X278944523Y-201853500D02*
X278944523Y-206553500D01*
%TO.C,SW29*%
X364794523Y-160651500D02*
X381294523Y-160651500D01*
X381294523Y-177151500D01*
X364794523Y-177151500D01*
X364794523Y-160651500D01*
%TO.C,SW13*%
X279069523Y-151126500D02*
X295569523Y-151126500D01*
X295569523Y-167626500D01*
X279069523Y-167626500D01*
X279069523Y-151126500D01*
%TO.C,D42*%
X295694523Y-201857500D02*
X297994523Y-201857500D01*
X295694523Y-206557500D02*
X295694523Y-201857500D01*
X295694523Y-206557500D02*
X297994523Y-206557500D01*
X297994523Y-201857500D02*
X297994523Y-206557500D01*
%TO.C,RE1*%
X300320523Y-168242500D02*
X300320523Y-150742500D01*
X300320523Y-168242500D02*
X315720523Y-168242500D01*
X315720523Y-150742500D02*
X300320523Y-150742500D01*
X315720523Y-150742500D02*
X315720523Y-168242500D01*
%TO.C,D22*%
X190919523Y-182171500D02*
X193219523Y-182171500D01*
X190919523Y-186871500D02*
X190919523Y-182171500D01*
X190919523Y-186871500D02*
X193219523Y-186871500D01*
X193219523Y-182171500D02*
X193219523Y-186871500D01*
%TO.C,SW31*%
X69519523Y-189226500D02*
X86019523Y-189226500D01*
X86019523Y-205726500D01*
X69519523Y-205726500D01*
X69519523Y-189226500D01*
%TO.C,SW33*%
X107619523Y-189226500D02*
X124119523Y-189226500D01*
X124119523Y-205726500D01*
X107619523Y-205726500D01*
X107619523Y-189226500D01*
%TO.C,SW39*%
X221919523Y-189226500D02*
X238419523Y-189226500D01*
X238419523Y-205726500D01*
X221919523Y-205726500D01*
X221919523Y-189226500D01*
%TO.C,SW4*%
X107619523Y-151126500D02*
X124119523Y-151126500D01*
X124119523Y-167626500D01*
X107619523Y-167626500D01*
X107619523Y-151126500D01*
%TO.C,D81*%
X314871523Y-258372500D02*
X317171523Y-258372500D01*
X314871523Y-263072500D02*
X314871523Y-258372500D01*
X314871523Y-263072500D02*
X317171523Y-263072500D01*
X317171523Y-258372500D02*
X317171523Y-263072500D01*
%TO.C,SW70*%
X286213273Y-227326500D02*
X302713273Y-227326500D01*
X302713273Y-243826500D01*
X286213273Y-243826500D01*
X286213273Y-227326500D01*
%TO.C,SW80*%
X279069523Y-246376500D02*
X295569523Y-246376500D01*
X295569523Y-262876500D01*
X279069523Y-262876500D01*
X279069523Y-246376500D01*
%TO.C,D30*%
X66459523Y-201857500D02*
X68759523Y-201857500D01*
X66459523Y-206557500D02*
X66459523Y-201857500D01*
X66459523Y-206557500D02*
X68759523Y-206557500D01*
X68759523Y-201857500D02*
X68759523Y-206557500D01*
%TO.C,SW14*%
X345744523Y-160651500D02*
X362244523Y-160651500D01*
X362244523Y-177151500D01*
X345744523Y-177151500D01*
X345744523Y-160651500D01*
%TO.C,SW60*%
X83807023Y-227326500D02*
X100307023Y-227326500D01*
X100307023Y-243826500D01*
X83807023Y-243826500D01*
X83807023Y-227326500D01*
%TO.C,D76*%
X117259523Y-258372500D02*
X119559523Y-258372500D01*
X117259523Y-263072500D02*
X117259523Y-258372500D01*
X117259523Y-263072500D02*
X119559523Y-263072500D01*
X119559523Y-258372500D02*
X119559523Y-263072500D01*
%TO.C,D55*%
X262293523Y-220907500D02*
X264593523Y-220907500D01*
X262293523Y-225607500D02*
X262293523Y-220907500D01*
X262293523Y-225607500D02*
X264593523Y-225607500D01*
X264593523Y-220907500D02*
X264593523Y-225607500D01*
%TO.C,SW12*%
X260019523Y-151126500D02*
X276519523Y-151126500D01*
X276519523Y-167626500D01*
X260019523Y-167626500D01*
X260019523Y-151126500D01*
%TO.C,D38*%
X219494523Y-201857500D02*
X221794523Y-201857500D01*
X219494523Y-206557500D02*
X219494523Y-201857500D01*
X219494523Y-206557500D02*
X221794523Y-206557500D01*
X221794523Y-201857500D02*
X221794523Y-206557500D01*
%TO.C,SW75*%
X79044523Y-246376500D02*
X95544523Y-246376500D01*
X95544523Y-262876500D01*
X79044523Y-262876500D01*
X79044523Y-246376500D01*
%TO.C,D78*%
X257594523Y-258372500D02*
X259894523Y-258372500D01*
X257594523Y-263072500D02*
X257594523Y-258372500D01*
X257594523Y-263072500D02*
X259894523Y-263072500D01*
X259894523Y-258372500D02*
X259894523Y-263072500D01*
%TO.C,D52*%
X205143523Y-220907500D02*
X207443523Y-220907500D01*
X205143523Y-225607500D02*
X205143523Y-220907500D01*
X205143523Y-225607500D02*
X207443523Y-225607500D01*
X207443523Y-220907500D02*
X207443523Y-225607500D01*
%TO.C,D33*%
X124244523Y-201857500D02*
X126544523Y-201857500D01*
X124244523Y-206557500D02*
X124244523Y-201857500D01*
X124244523Y-206557500D02*
X126544523Y-206557500D01*
X126544523Y-201857500D02*
X126544523Y-206557500D01*
%TO.C,SW51*%
X169532023Y-208276500D02*
X186032023Y-208276500D01*
X186032023Y-224776500D01*
X169532023Y-224776500D01*
X169532023Y-208276500D01*
%TO.C,D50*%
X167043523Y-220907500D02*
X169343523Y-220907500D01*
X167043523Y-225607500D02*
X167043523Y-220907500D01*
X167043523Y-225607500D02*
X169343523Y-225607500D01*
X169343523Y-220907500D02*
X169343523Y-225607500D01*
%TO.C,SW22*%
X174294523Y-170176500D02*
X190794523Y-170176500D01*
X190794523Y-186676500D01*
X174294523Y-186676500D01*
X174294523Y-170176500D01*
%TO.C,SW6*%
X145719523Y-151126500D02*
X162219523Y-151126500D01*
X162219523Y-167626500D01*
X145719523Y-167626500D01*
X145719523Y-151126500D01*
%TO.C,RED1*%
X295821523Y-151184500D02*
X298121523Y-151184500D01*
X295821523Y-155884500D02*
X295821523Y-151184500D01*
X295821523Y-155884500D02*
X298121523Y-155884500D01*
X298121523Y-151184500D02*
X298121523Y-155884500D01*
%TO.C,SW28*%
X293357023Y-170176500D02*
X309857023Y-170176500D01*
X309857023Y-186676500D01*
X293357023Y-186676500D01*
X293357023Y-170176500D01*
%TO.C,SW45*%
X48088273Y-208276500D02*
X64588273Y-208276500D01*
X64588273Y-224776500D01*
X48088273Y-224776500D01*
X48088273Y-208276500D01*
%TO.C,SW7*%
X164769523Y-151126500D02*
X181269523Y-151126500D01*
X181269523Y-167626500D01*
X164769523Y-167626500D01*
X164769523Y-151126500D01*
%TO.C,D25*%
X248069523Y-182171500D02*
X250369523Y-182171500D01*
X248069523Y-186871500D02*
X248069523Y-182171500D01*
X248069523Y-186871500D02*
X250369523Y-186871500D01*
X250369523Y-182171500D02*
X250369523Y-186871500D01*
%TO.C,D57*%
X307632523Y-220907500D02*
X309932523Y-220907500D01*
X307632523Y-225607500D02*
X307632523Y-220907500D01*
X307632523Y-225607500D02*
X309932523Y-225607500D01*
X309932523Y-220907500D02*
X309932523Y-225607500D01*
%TO.C,D67*%
X233718523Y-240084500D02*
X236018523Y-240084500D01*
X233718523Y-244784500D02*
X233718523Y-240084500D01*
X233718523Y-244784500D02*
X236018523Y-244784500D01*
X236018523Y-240084500D02*
X236018523Y-244784500D01*
%TO.C,D85*%
X373107523Y-215503500D02*
X373107523Y-217803500D01*
X373107523Y-215503500D02*
X377807523Y-215503500D01*
X377807523Y-215503500D02*
X377807523Y-217803500D01*
X377807523Y-217803500D02*
X373107523Y-217803500D01*
%TO.C,SW59*%
X52850773Y-227326500D02*
X69350773Y-227326500D01*
X69350773Y-243826500D01*
X52850773Y-243826500D01*
X52850773Y-227326500D01*
%TO.C,D21*%
X171869523Y-182171500D02*
X174169523Y-182171500D01*
X171869523Y-186871500D02*
X171869523Y-182171500D01*
X171869523Y-186871500D02*
X174169523Y-186871500D01*
X174169523Y-182171500D02*
X174169523Y-186871500D01*
%TO.C,D63*%
X157645523Y-240084500D02*
X159945523Y-240084500D01*
X157645523Y-244784500D02*
X157645523Y-240084500D01*
X157645523Y-244784500D02*
X159945523Y-244784500D01*
X159945523Y-240084500D02*
X159945523Y-244784500D01*
%TO.C,D66*%
X214795523Y-240084500D02*
X217095523Y-240084500D01*
X214795523Y-244784500D02*
X214795523Y-240084500D01*
X214795523Y-244784500D02*
X217095523Y-244784500D01*
X217095523Y-240084500D02*
X217095523Y-244784500D01*
%TO.C,SW15*%
X40944523Y-170176500D02*
X57444523Y-170176500D01*
X57444523Y-186676500D01*
X40944523Y-186676500D01*
X40944523Y-170176500D01*
%TO.C,D45*%
X71793523Y-220908500D02*
X74093523Y-220908500D01*
X71793523Y-225608500D02*
X71793523Y-220908500D01*
X71793523Y-225608500D02*
X74093523Y-225608500D01*
X74093523Y-220908500D02*
X74093523Y-225608500D01*
%TO.C,SW5*%
X126669523Y-151126500D02*
X143169523Y-151126500D01*
X143169523Y-167626500D01*
X126669523Y-167626500D01*
X126669523Y-151126500D01*
%TO.C,D34*%
X143294523Y-201857500D02*
X145594523Y-201857500D01*
X143294523Y-206557500D02*
X143294523Y-201857500D01*
X143294523Y-206557500D02*
X145594523Y-206557500D01*
X145594523Y-201857500D02*
X145594523Y-206557500D01*
%TO.C,D13*%
X295821523Y-164138500D02*
X298121523Y-164138500D01*
X295821523Y-168838500D02*
X295821523Y-164138500D01*
X295821523Y-168838500D02*
X298121523Y-168838500D01*
X298121523Y-164138500D02*
X298121523Y-168838500D01*
%TO.C,D74*%
X76619523Y-258372500D02*
X78919523Y-258372500D01*
X76619523Y-263072500D02*
X76619523Y-258372500D01*
X76619523Y-263072500D02*
X78919523Y-263072500D01*
X78919523Y-258372500D02*
X78919523Y-263072500D01*
%TO.C,SW58*%
X364794523Y-179701500D02*
X381294523Y-179701500D01*
X381294523Y-196201500D01*
X364794523Y-196201500D01*
X364794523Y-179701500D01*
%TO.C,D32*%
X105194523Y-201857500D02*
X107494523Y-201857500D01*
X105194523Y-206557500D02*
X105194523Y-201857500D01*
X105194523Y-206557500D02*
X107494523Y-206557500D01*
X107494523Y-201857500D02*
X107494523Y-206557500D01*
%TO.C,D70*%
X304838523Y-240084500D02*
X307138523Y-240084500D01*
X304838523Y-244784500D02*
X304838523Y-240084500D01*
X304838523Y-244784500D02*
X307138523Y-244784500D01*
X307138523Y-240084500D02*
X307138523Y-244784500D01*
%TO.C,SW20*%
X136194523Y-170176500D02*
X152694523Y-170176500D01*
X152694523Y-186676500D01*
X136194523Y-186676500D01*
X136194523Y-170176500D01*
%TO.C,SW55*%
X245732023Y-208276500D02*
X262232023Y-208276500D01*
X262232023Y-224776500D01*
X245732023Y-224776500D01*
X245732023Y-208276500D01*
%TO.C,D10*%
X238525523Y-164138500D02*
X240825523Y-164138500D01*
X238525523Y-168838500D02*
X238525523Y-164138500D01*
X238525523Y-168838500D02*
X240825523Y-168838500D01*
X240825523Y-164138500D02*
X240825523Y-168838500D01*
%TO.C,SW83*%
X345744523Y-246376500D02*
X362244523Y-246376500D01*
X362244523Y-262876500D01*
X345744523Y-262876500D01*
X345744523Y-246376500D01*
%TO.C,D2*%
X86144523Y-164011500D02*
X88444523Y-164011500D01*
X86144523Y-168711500D02*
X86144523Y-164011500D01*
X86144523Y-168711500D02*
X88444523Y-168711500D01*
X88444523Y-164011500D02*
X88444523Y-168711500D01*
%TO.C,D3*%
X105194523Y-164011500D02*
X107494523Y-164011500D01*
X105194523Y-168711500D02*
X105194523Y-164011500D01*
X105194523Y-168711500D02*
X107494523Y-168711500D01*
X107494523Y-164011500D02*
X107494523Y-168711500D01*
%TD*%
M02*
