%TF.GenerationSoftware,KiCad,Pcbnew,10.0.5*%
%TF.CreationDate,2026-08-25T21:36:04+10:00*%
%TF.ProjectId,single_panel,73696e67-6c65-45f7-9061-6e656c2e6b69,rev?*%
%TF.SameCoordinates,Original*%
%TF.FileFunction,Soldermask,Bot*%
%TF.FilePolarity,Negative*%
%FSLAX46Y46*%
G04 Gerber Fmt 4.6, Leading zero omitted, Abs format (unit mm)*
G04 Created by KiCad (PCBNEW 10.0.5) date 2026-08-25 21:36:04*
%MOMM*%
%LPD*%
G01*
G04 APERTURE LIST*
G04 Aperture macros list*
%AMRoundRect*
0 Rectangle with rounded corners*
0 $1 Rounding radius*
0 $2 $3 $4 $5 $6 $7 $8 $9 X,Y pos of 4 corners*
0 Add a 4 corners polygon primitive as box body*
4,1,4,$2,$3,$4,$5,$6,$7,$8,$9,$2,$3,0*
0 Add four circle primitives for the rounded corners*
1,1,$1+$1,$2,$3*
1,1,$1+$1,$4,$5*
1,1,$1+$1,$6,$7*
1,1,$1+$1,$8,$9*
0 Add four rect primitives between the rounded corners*
20,1,$1+$1,$2,$3,$4,$5,0*
20,1,$1+$1,$4,$5,$6,$7,0*
20,1,$1+$1,$6,$7,$8,$9,0*
20,1,$1+$1,$8,$9,$2,$3,0*%
%AMFreePoly0*
4,1,37,0.603843,0.796157,0.639018,0.796157,0.711114,0.766294,0.766294,0.711114,0.796157,0.639018,0.796157,0.603843,0.800000,0.600000,0.800000,-0.600000,0.796157,-0.603843,0.796157,-0.639018,0.766294,-0.711114,0.711114,-0.766294,0.639018,-0.796157,0.603843,-0.796157,0.600000,-0.800000,0.000000,-0.800000,0.000000,-0.796148,-0.078414,-0.796148,-0.232228,-0.765552,-0.377117,-0.705537,
-0.507515,-0.618408,-0.618408,-0.507515,-0.705537,-0.377117,-0.765552,-0.232228,-0.796148,-0.078414,-0.796148,0.078414,-0.765552,0.232228,-0.705537,0.377117,-0.618408,0.507515,-0.507515,0.618408,-0.377117,0.705537,-0.232228,0.765552,-0.078414,0.796148,0.000000,0.796148,0.000000,0.800000,0.600000,0.800000,0.603843,0.796157,0.603843,0.796157,$1*%
%AMFreePoly1*
4,1,37,0.000000,0.796148,0.078414,0.796148,0.232228,0.765552,0.377117,0.705537,0.507515,0.618408,0.618408,0.507515,0.705537,0.377117,0.765552,0.232228,0.796148,0.078414,0.796148,-0.078414,0.765552,-0.232228,0.705537,-0.377117,0.618408,-0.507515,0.507515,-0.618408,0.377117,-0.705537,0.232228,-0.765552,0.078414,-0.796148,0.000000,-0.796148,0.000000,-0.800000,-0.600000,-0.800000,
-0.603843,-0.796157,-0.639018,-0.796157,-0.711114,-0.766294,-0.766294,-0.711114,-0.796157,-0.639018,-0.796157,-0.603843,-0.800000,-0.600000,-0.800000,0.600000,-0.796157,0.603843,-0.796157,0.639018,-0.766294,0.711114,-0.711114,0.766294,-0.639018,0.796157,-0.603843,0.796157,-0.600000,0.800000,0.000000,0.800000,0.000000,0.796148,0.000000,0.796148,$1*%
G04 Aperture macros list end*
%ADD10C,0.500000*%
%ADD11C,6.250000*%
%ADD12C,2.300000*%
%ADD13C,2.000000*%
%ADD14RoundRect,0.200000X-0.600000X-0.600000X0.600000X-0.600000X0.600000X0.600000X-0.600000X0.600000X0*%
%ADD15C,1.600000*%
%ADD16FreePoly0,0.000000*%
%ADD17FreePoly1,0.000000*%
%ADD18RoundRect,0.170000X-0.680000X-0.680000X0.680000X-0.680000X0.680000X0.680000X-0.680000X0.680000X0*%
%ADD19C,1.700000*%
%ADD20R,2.000000X2.000000*%
%ADD21C,3.200000*%
%ADD22RoundRect,0.205000X0.470000X0.205000X-0.470000X0.205000X-0.470000X-0.205000X0.470000X-0.205000X0*%
%ADD23RoundRect,0.225000X-0.250000X0.225000X-0.250000X-0.225000X0.250000X-0.225000X0.250000X0.225000X0*%
G04 APERTURE END LIST*
D10*
%TO.C,REF\u002A\u002A*%
X367945239Y-144326500D03*
X368795239Y-144326500D03*
X369645239Y-144326500D03*
X370495239Y-144326500D03*
X371345239Y-144326500D03*
X372195239Y-144326500D03*
X373045239Y-144326500D03*
X373895239Y-144326500D03*
X374745239Y-144326500D03*
X375595239Y-144326500D03*
X376445239Y-144326500D03*
%TD*%
%TO.C,REF\u002A\u002A*%
X367950216Y-140516500D03*
X368800216Y-140516500D03*
X369650216Y-140516500D03*
X370500216Y-140516500D03*
X371350216Y-140516500D03*
X372200216Y-140516500D03*
X373050216Y-140516500D03*
X373900216Y-140516500D03*
X374750216Y-140516500D03*
X375600216Y-140516500D03*
X376450216Y-140516500D03*
%TD*%
%TO.C,REF\u002A\u002A*%
X44224750Y-144326500D03*
X45074750Y-144326500D03*
X45924750Y-144326500D03*
X46774750Y-144326500D03*
X47624750Y-144326500D03*
X48474750Y-144326500D03*
X49324750Y-144326500D03*
X50174750Y-144326500D03*
X51024750Y-144326500D03*
X51874750Y-144326500D03*
X52724750Y-144326500D03*
%TD*%
%TO.C,REF\u002A\u002A*%
X44229727Y-140516500D03*
X45079727Y-140516500D03*
X45929727Y-140516500D03*
X46779727Y-140516500D03*
X47629727Y-140516500D03*
X48479727Y-140516500D03*
X49329727Y-140516500D03*
X50179727Y-140516500D03*
X51029727Y-140516500D03*
X51879727Y-140516500D03*
X52729727Y-140516500D03*
%TD*%
D11*
%TO.C,SW38*%
X211119523Y-197476500D03*
D12*
X211119523Y-201176500D03*
D13*
X211119523Y-203526500D03*
X215249523Y-200776500D03*
%TD*%
D11*
%TO.C,SW57*%
X299225773Y-216526500D03*
D12*
X299225773Y-220226500D03*
D13*
X299225773Y-222576500D03*
X303355773Y-219826500D03*
%TD*%
D11*
%TO.C,SW43*%
X306369523Y-197476500D03*
D12*
X306369523Y-201176500D03*
D13*
X306369523Y-203526500D03*
X310499523Y-200776500D03*
%TD*%
D11*
%TO.C,SW1*%
X53957023Y-159376500D03*
D12*
X53957023Y-163076500D03*
D13*
X53957023Y-165426500D03*
X58087023Y-162676500D03*
%TD*%
D11*
%TO.C,SW34*%
X134919523Y-197476500D03*
D12*
X134919523Y-201176500D03*
D13*
X134919523Y-203526500D03*
X139049523Y-200776500D03*
%TD*%
D11*
%TO.C,SW11*%
X249219523Y-159376500D03*
D12*
X249219523Y-163076500D03*
D13*
X249219523Y-165426500D03*
X253349523Y-162676500D03*
%TD*%
D11*
%TO.C,SW81*%
X306369523Y-254626500D03*
D12*
X306369523Y-258326500D03*
D13*
X306369523Y-260676500D03*
X310499523Y-257926500D03*
%TD*%
D11*
%TO.C,SW77*%
X180163273Y-254626500D03*
D12*
X180163273Y-258326500D03*
D13*
X180163273Y-260676500D03*
X184293273Y-257926500D03*
%TD*%
D11*
%TO.C,SW18*%
X106344523Y-178426500D03*
D12*
X106344523Y-182126500D03*
D13*
X106344523Y-184476500D03*
X110474523Y-181726500D03*
%TD*%
D11*
%TO.C,SW62*%
X130157023Y-235576500D03*
D12*
X130157023Y-239276500D03*
D13*
X130157023Y-241626500D03*
X134287023Y-238876500D03*
%TD*%
D11*
%TO.C,SW25*%
X239694523Y-178426500D03*
D12*
X239694523Y-182126500D03*
D13*
X239694523Y-184476500D03*
X243824523Y-181726500D03*
%TD*%
D11*
%TO.C,SW10*%
X230169523Y-159376500D03*
D12*
X230169523Y-163076500D03*
D13*
X230169523Y-165426500D03*
X234299523Y-162676500D03*
%TD*%
D11*
%TO.C,SW69*%
X263507023Y-235576500D03*
D12*
X263507023Y-239276500D03*
D13*
X263507023Y-241626500D03*
X267637023Y-238876500D03*
%TD*%
D14*
%TO.C,A1*%
X322371523Y-146041500D03*
D15*
X322371523Y-148581500D03*
D16*
X322371523Y-151121500D03*
D15*
X322371523Y-153661500D03*
X322371523Y-156201500D03*
X322371523Y-158741500D03*
X322371523Y-161281500D03*
D16*
X322371523Y-163821500D03*
D15*
X322371523Y-166361500D03*
X322371523Y-168901500D03*
X322371523Y-171441500D03*
X322371523Y-173981500D03*
D16*
X322371523Y-176521500D03*
D15*
X322371523Y-179061500D03*
X322371523Y-181601500D03*
X322371523Y-184141500D03*
X322371523Y-186681500D03*
D16*
X322371523Y-189221500D03*
D15*
X322371523Y-191761500D03*
X322371523Y-194301500D03*
X340151523Y-194301500D03*
X340151523Y-191761500D03*
D17*
X340151523Y-189221500D03*
D15*
X340151523Y-186681500D03*
X340151523Y-184141500D03*
X340151523Y-181601500D03*
X340151523Y-179061500D03*
D17*
X340151523Y-176521500D03*
D15*
X340151523Y-173981500D03*
X340151523Y-171441500D03*
X340151523Y-168901500D03*
X340151523Y-166361500D03*
D17*
X340151523Y-163821500D03*
D15*
X340151523Y-161281500D03*
X340151523Y-158741500D03*
X340151523Y-156201500D03*
X340151523Y-153661500D03*
D17*
X340151523Y-151121500D03*
D15*
X340151523Y-148581500D03*
X340151523Y-146041500D03*
%TD*%
D11*
%TO.C,SW76*%
X108725773Y-254626500D03*
D12*
X108725773Y-258326500D03*
D13*
X108725773Y-260676500D03*
X112855773Y-257926500D03*
%TD*%
D11*
%TO.C,SW49*%
X139682023Y-216526500D03*
D12*
X139682023Y-220226500D03*
D13*
X139682023Y-222576500D03*
X143812023Y-219826500D03*
%TD*%
D11*
%TO.C,SW63*%
X149207023Y-235576500D03*
D12*
X149207023Y-239276500D03*
D13*
X149207023Y-241626500D03*
X153337023Y-238876500D03*
%TD*%
D11*
%TO.C,SW3*%
X96819523Y-159376500D03*
D12*
X96819523Y-163076500D03*
D13*
X96819523Y-165426500D03*
X100949523Y-162676500D03*
%TD*%
D11*
%TO.C,SW26*%
X258744523Y-178426500D03*
D12*
X258744523Y-182126500D03*
D13*
X258744523Y-184476500D03*
X262874523Y-181726500D03*
%TD*%
D11*
%TO.C,SW16*%
X68244523Y-178426500D03*
D12*
X68244523Y-182126500D03*
D13*
X68244523Y-184476500D03*
X72374523Y-181726500D03*
%TD*%
D11*
%TO.C,SW27*%
X277794523Y-178426500D03*
D12*
X277794523Y-182126500D03*
D13*
X277794523Y-184476500D03*
X281924523Y-181726500D03*
%TD*%
D11*
%TO.C,SW66*%
X206357023Y-235576500D03*
D12*
X206357023Y-239276500D03*
D13*
X206357023Y-241626500D03*
X210487023Y-238876500D03*
%TD*%
D11*
%TO.C,SW50*%
X158732023Y-216526500D03*
D12*
X158732023Y-220226500D03*
D13*
X158732023Y-222576500D03*
X162862023Y-219826500D03*
%TD*%
D11*
%TO.C,SW64*%
X168257023Y-235576500D03*
D12*
X168257023Y-239276500D03*
D13*
X168257023Y-241626500D03*
X172387023Y-238876500D03*
%TD*%
D11*
%TO.C,SW17*%
X87294523Y-178426500D03*
D12*
X87294523Y-182126500D03*
D13*
X87294523Y-184476500D03*
X91424523Y-181726500D03*
%TD*%
D11*
%TO.C,SW74*%
X68244523Y-254626500D03*
D12*
X68244523Y-258326500D03*
D13*
X68244523Y-260676500D03*
X72374523Y-257926500D03*
%TD*%
D11*
%TO.C,SW72*%
X353994523Y-207001500D03*
D12*
X353994523Y-210701500D03*
D13*
X353994523Y-213051500D03*
X358124523Y-210301500D03*
%TD*%
D11*
%TO.C,SW48*%
X120632023Y-216526500D03*
D12*
X120632023Y-220226500D03*
D13*
X120632023Y-222576500D03*
X124762023Y-219826500D03*
%TD*%
D11*
%TO.C,SW2*%
X77769523Y-159376500D03*
D12*
X77769523Y-163076500D03*
D13*
X77769523Y-165426500D03*
X81899523Y-162676500D03*
%TD*%
D11*
%TO.C,SW9*%
X211119523Y-159376500D03*
D12*
X211119523Y-163076500D03*
D13*
X211119523Y-165426500D03*
X215249523Y-162676500D03*
%TD*%
D11*
%TO.C,SW37*%
X192069523Y-197476500D03*
D12*
X192069523Y-201176500D03*
D13*
X192069523Y-203526500D03*
X196199523Y-200776500D03*
%TD*%
D11*
%TO.C,SW42*%
X287319523Y-197476500D03*
D12*
X287319523Y-201176500D03*
D13*
X287319523Y-203526500D03*
X291449523Y-200776500D03*
%TD*%
D11*
%TO.C,SW84*%
X373044523Y-254626500D03*
D12*
X373044523Y-258326500D03*
D13*
X373044523Y-260676500D03*
X377174523Y-257926500D03*
%TD*%
D11*
%TO.C,SW35*%
X153969523Y-197476500D03*
D12*
X153969523Y-201176500D03*
D13*
X153969523Y-203526500D03*
X158099523Y-200776500D03*
%TD*%
D18*
%TO.C,U1*%
X331261523Y-204233500D03*
D19*
X333801523Y-204233500D03*
X336341523Y-204233500D03*
X338881523Y-204233500D03*
%TD*%
D11*
%TO.C,SW85*%
X373044523Y-207001500D03*
D12*
X373044523Y-210701500D03*
D13*
X373044523Y-213051500D03*
X377174523Y-210301500D03*
%TD*%
D11*
%TO.C,SW67*%
X225407023Y-235576500D03*
D12*
X225407023Y-239276500D03*
D13*
X225407023Y-241626500D03*
X229537023Y-238876500D03*
%TD*%
D11*
%TO.C,SW41*%
X268269523Y-197476500D03*
D12*
X268269523Y-201176500D03*
D13*
X268269523Y-203526500D03*
X272399523Y-200776500D03*
%TD*%
D11*
%TO.C,SW36*%
X173019523Y-197476500D03*
D12*
X173019523Y-201176500D03*
D13*
X173019523Y-203526500D03*
X177149523Y-200776500D03*
%TD*%
D11*
%TO.C,SW61*%
X111107023Y-235576500D03*
D12*
X111107023Y-239276500D03*
D13*
X111107023Y-241626500D03*
X115237023Y-238876500D03*
%TD*%
D11*
%TO.C,SW56*%
X273032023Y-216526500D03*
D12*
X273032023Y-220226500D03*
D13*
X273032023Y-222576500D03*
X277162023Y-219826500D03*
%TD*%
D11*
%TO.C,SW8*%
X192069523Y-159376500D03*
D12*
X192069523Y-163076500D03*
D13*
X192069523Y-165426500D03*
X196199523Y-162676500D03*
%TD*%
D11*
%TO.C,SW52*%
X196832023Y-216526500D03*
D12*
X196832023Y-220226500D03*
D13*
X196832023Y-222576500D03*
X200962023Y-219826500D03*
%TD*%
D11*
%TO.C,SW44*%
X353994523Y-187951500D03*
D12*
X353994523Y-191651500D03*
D13*
X353994523Y-194001500D03*
X358124523Y-191251500D03*
%TD*%
D11*
%TO.C,SW24*%
X220644523Y-178426500D03*
D12*
X220644523Y-182126500D03*
D13*
X220644523Y-184476500D03*
X224774523Y-181726500D03*
%TD*%
D11*
%TO.C,SW71*%
X353994523Y-235576500D03*
D12*
X353994523Y-239276500D03*
D13*
X353994523Y-241626500D03*
X358124523Y-238876500D03*
%TD*%
D11*
%TO.C,SW23*%
X201594523Y-178426500D03*
D12*
X201594523Y-182126500D03*
D13*
X201594523Y-184476500D03*
X205724523Y-181726500D03*
%TD*%
D11*
%TO.C,SW19*%
X125394523Y-178426500D03*
D12*
X125394523Y-182126500D03*
D13*
X125394523Y-184476500D03*
X129524523Y-181726500D03*
%TD*%
D11*
%TO.C,SW46*%
X82532023Y-216526500D03*
D12*
X82532023Y-220226500D03*
D13*
X82532023Y-222576500D03*
X86662023Y-219826500D03*
%TD*%
D11*
%TO.C,SW79*%
X268269523Y-254626500D03*
D12*
X268269523Y-258326500D03*
D13*
X268269523Y-260676500D03*
X272399523Y-257926500D03*
%TD*%
D11*
%TO.C,SW65*%
X187307023Y-235576500D03*
D12*
X187307023Y-239276500D03*
D13*
X187307023Y-241626500D03*
X191437023Y-238876500D03*
%TD*%
D11*
%TO.C,SW68*%
X244457023Y-235576500D03*
D12*
X244457023Y-239276500D03*
D13*
X244457023Y-241626500D03*
X248587023Y-238876500D03*
%TD*%
D11*
%TO.C,SW21*%
X163494523Y-178426500D03*
D12*
X163494523Y-182126500D03*
D13*
X163494523Y-184476500D03*
X167624523Y-181726500D03*
%TD*%
D11*
%TO.C,SW30*%
X53957023Y-197476500D03*
D12*
X53957023Y-201176500D03*
D13*
X53957023Y-203526500D03*
X58087023Y-200776500D03*
%TD*%
D11*
%TO.C,SW78*%
X249219523Y-254626500D03*
D12*
X249219523Y-258326500D03*
D13*
X249219523Y-260676500D03*
X253349523Y-257926500D03*
%TD*%
D11*
%TO.C,SW82*%
X334944523Y-254626500D03*
D12*
X334944523Y-258326500D03*
D13*
X334944523Y-260676500D03*
X339074523Y-257926500D03*
%TD*%
D11*
%TO.C,SW32*%
X96819523Y-197476500D03*
D12*
X96819523Y-201176500D03*
D13*
X96819523Y-203526500D03*
X100949523Y-200776500D03*
%TD*%
D11*
%TO.C,SW47*%
X101582023Y-216526500D03*
D12*
X101582023Y-220226500D03*
D13*
X101582023Y-222576500D03*
X105712023Y-219826500D03*
%TD*%
D11*
%TO.C,SW40*%
X249219523Y-197476500D03*
D12*
X249219523Y-201176500D03*
D13*
X249219523Y-203526500D03*
X253349523Y-200776500D03*
%TD*%
D11*
%TO.C,SW53*%
X215882023Y-216526500D03*
D12*
X215882023Y-220226500D03*
D13*
X215882023Y-222576500D03*
X220012023Y-219826500D03*
%TD*%
D11*
%TO.C,SW73*%
X49194523Y-254626500D03*
D12*
X49194523Y-258326500D03*
D13*
X49194523Y-260676500D03*
X53324523Y-257926500D03*
%TD*%
D11*
%TO.C,SW54*%
X234932023Y-216526500D03*
D12*
X234932023Y-220226500D03*
D13*
X234932023Y-222576500D03*
X239062023Y-219826500D03*
%TD*%
D11*
%TO.C,SW29*%
X373044523Y-168901500D03*
D12*
X373044523Y-172601500D03*
D13*
X373044523Y-174951500D03*
X377174523Y-172201500D03*
%TD*%
D11*
%TO.C,SW13*%
X287319523Y-159376500D03*
D12*
X287319523Y-163076500D03*
D13*
X287319523Y-165426500D03*
X291449523Y-162676500D03*
%TD*%
D20*
%TO.C,RE1*%
X305520523Y-166742500D03*
D13*
X310520523Y-166742500D03*
X308020523Y-166742500D03*
D21*
X302420523Y-159242500D03*
X313620523Y-159242500D03*
D13*
X310520523Y-152242500D03*
X305520523Y-152242500D03*
%TD*%
D11*
%TO.C,SW31*%
X77769523Y-197476500D03*
D12*
X77769523Y-201176500D03*
D13*
X77769523Y-203526500D03*
X81899523Y-200776500D03*
%TD*%
D11*
%TO.C,SW33*%
X115869523Y-197476500D03*
D12*
X115869523Y-201176500D03*
D13*
X115869523Y-203526500D03*
X119999523Y-200776500D03*
%TD*%
D11*
%TO.C,SW39*%
X230169523Y-197476500D03*
D12*
X230169523Y-201176500D03*
D13*
X230169523Y-203526500D03*
X234299523Y-200776500D03*
%TD*%
D11*
%TO.C,SW4*%
X115869523Y-159376500D03*
D12*
X115869523Y-163076500D03*
D13*
X115869523Y-165426500D03*
X119999523Y-162676500D03*
%TD*%
D11*
%TO.C,SW70*%
X294463273Y-235576500D03*
D12*
X294463273Y-239276500D03*
D13*
X294463273Y-241626500D03*
X298593273Y-238876500D03*
%TD*%
D11*
%TO.C,SW80*%
X287319523Y-254626500D03*
D12*
X287319523Y-258326500D03*
D13*
X287319523Y-260676500D03*
X291449523Y-257926500D03*
%TD*%
D11*
%TO.C,SW14*%
X353994523Y-168901500D03*
D12*
X353994523Y-172601500D03*
D13*
X353994523Y-174951500D03*
X358124523Y-172201500D03*
%TD*%
D11*
%TO.C,SW60*%
X92057023Y-235576500D03*
D12*
X92057023Y-239276500D03*
D13*
X92057023Y-241626500D03*
X96187023Y-238876500D03*
%TD*%
D11*
%TO.C,SW12*%
X268269523Y-159376500D03*
D12*
X268269523Y-163076500D03*
D13*
X268269523Y-165426500D03*
X272399523Y-162676500D03*
%TD*%
D11*
%TO.C,SW75*%
X87294523Y-254626500D03*
D12*
X87294523Y-258326500D03*
D13*
X87294523Y-260676500D03*
X91424523Y-257926500D03*
%TD*%
D11*
%TO.C,SW51*%
X177782023Y-216526500D03*
D12*
X177782023Y-220226500D03*
D13*
X177782023Y-222576500D03*
X181912023Y-219826500D03*
%TD*%
D11*
%TO.C,SW22*%
X182544523Y-178426500D03*
D12*
X182544523Y-182126500D03*
D13*
X182544523Y-184476500D03*
X186674523Y-181726500D03*
%TD*%
D11*
%TO.C,SW6*%
X153969523Y-159376500D03*
D12*
X153969523Y-163076500D03*
D13*
X153969523Y-165426500D03*
X158099523Y-162676500D03*
%TD*%
D11*
%TO.C,SW28*%
X301607023Y-178426500D03*
D12*
X301607023Y-182126500D03*
D13*
X301607023Y-184476500D03*
X305737023Y-181726500D03*
%TD*%
D11*
%TO.C,SW45*%
X56338273Y-216526500D03*
D12*
X56338273Y-220226500D03*
D13*
X56338273Y-222576500D03*
X60468273Y-219826500D03*
%TD*%
D11*
%TO.C,SW7*%
X173019523Y-159376500D03*
D12*
X173019523Y-163076500D03*
D13*
X173019523Y-165426500D03*
X177149523Y-162676500D03*
%TD*%
D11*
%TO.C,SW59*%
X61100773Y-235576500D03*
D12*
X61100773Y-239276500D03*
D13*
X61100773Y-241626500D03*
X65230773Y-238876500D03*
%TD*%
D11*
%TO.C,SW15*%
X49194523Y-178426500D03*
D12*
X49194523Y-182126500D03*
D13*
X49194523Y-184476500D03*
X53324523Y-181726500D03*
%TD*%
D11*
%TO.C,SW5*%
X134919523Y-159376500D03*
D12*
X134919523Y-163076500D03*
D13*
X134919523Y-165426500D03*
X139049523Y-162676500D03*
%TD*%
D11*
%TO.C,SW58*%
X373044523Y-187951500D03*
D12*
X373044523Y-191651500D03*
D13*
X373044523Y-194001500D03*
X377174523Y-191251500D03*
%TD*%
D11*
%TO.C,SW20*%
X144444523Y-178426500D03*
D12*
X144444523Y-182126500D03*
D13*
X144444523Y-184476500D03*
X148574523Y-181726500D03*
%TD*%
D11*
%TO.C,SW55*%
X253982023Y-216526500D03*
D12*
X253982023Y-220226500D03*
D13*
X253982023Y-222576500D03*
X258112023Y-219826500D03*
%TD*%
D11*
%TO.C,SW83*%
X353994523Y-254626500D03*
D12*
X353994523Y-258326500D03*
D13*
X353994523Y-260676500D03*
X358124523Y-257926500D03*
%TD*%
D22*
%TO.C,L9*%
X161880623Y-148721600D03*
X161880623Y-147221600D03*
X156430623Y-147221600D03*
X156430623Y-148721600D03*
%TD*%
D23*
%TO.C,C13*%
X78714523Y-148085500D03*
X78714523Y-149635500D03*
%TD*%
D22*
%TO.C,L14*%
X67159523Y-148836500D03*
X67159523Y-147336500D03*
X61709523Y-147336500D03*
X61709523Y-148836500D03*
%TD*%
D23*
%TO.C,C15*%
X40812523Y-148200500D03*
X40812523Y-149750500D03*
%TD*%
%TO.C,C5*%
X230367523Y-147921500D03*
X230367523Y-149471500D03*
%TD*%
%TO.C,C1*%
X306242523Y-147806500D03*
X306242523Y-149356500D03*
%TD*%
%TO.C,C2*%
X287263523Y-147794500D03*
X287263523Y-149344500D03*
%TD*%
D22*
%TO.C,L5*%
X237720523Y-148569500D03*
X237720523Y-147069500D03*
X232270523Y-147069500D03*
X232270523Y-148569500D03*
%TD*%
D23*
%TO.C,C7*%
X192429623Y-147958600D03*
X192429623Y-149508600D03*
%TD*%
%TO.C,C11*%
X116652423Y-148048400D03*
X116652423Y-149598400D03*
%TD*%
D22*
%TO.C,L10*%
X142999423Y-148684400D03*
X142999423Y-147184400D03*
X137549423Y-147184400D03*
X137549423Y-148684400D03*
%TD*%
%TO.C,L15*%
X48165523Y-148848500D03*
X48165523Y-147348500D03*
X42715523Y-147348500D03*
X42715523Y-148848500D03*
%TD*%
D23*
%TO.C,C3*%
X268269523Y-147806500D03*
X268269523Y-149356500D03*
%TD*%
D22*
%TO.C,L12*%
X105061523Y-148721500D03*
X105061523Y-147221500D03*
X99611523Y-147221500D03*
X99611523Y-148721500D03*
%TD*%
%TO.C,L1*%
X313595523Y-148454500D03*
X313595523Y-146954500D03*
X308145523Y-146954500D03*
X308145523Y-148454500D03*
%TD*%
%TO.C,L7*%
X199782623Y-148606600D03*
X199782623Y-147106600D03*
X194332623Y-147106600D03*
X194332623Y-148606600D03*
%TD*%
D23*
%TO.C,C14*%
X59806523Y-148188500D03*
X59806523Y-149738500D03*
%TD*%
%TO.C,C9*%
X154527623Y-148073600D03*
X154527623Y-149623600D03*
%TD*%
D22*
%TO.C,L13*%
X86067523Y-148733500D03*
X86067523Y-147233500D03*
X80617523Y-147233500D03*
X80617523Y-148733500D03*
%TD*%
%TO.C,L4*%
X256714523Y-148557500D03*
X256714523Y-147057500D03*
X251264523Y-147057500D03*
X251264523Y-148557500D03*
%TD*%
%TO.C,L6*%
X218776623Y-148594600D03*
X218776623Y-147094600D03*
X213326623Y-147094600D03*
X213326623Y-148594600D03*
%TD*%
D23*
%TO.C,C12*%
X97708523Y-148073500D03*
X97708523Y-149623500D03*
%TD*%
%TO.C,C6*%
X211423623Y-147946600D03*
X211423623Y-149496600D03*
%TD*%
D22*
%TO.C,L8*%
X180874623Y-148709600D03*
X180874623Y-147209600D03*
X175424623Y-147209600D03*
X175424623Y-148709600D03*
%TD*%
D23*
%TO.C,C10*%
X135646423Y-148036400D03*
X135646423Y-149586400D03*
%TD*%
D22*
%TO.C,L3*%
X275622523Y-148454500D03*
X275622523Y-146954500D03*
X270172523Y-146954500D03*
X270172523Y-148454500D03*
%TD*%
D23*
%TO.C,C4*%
X249361523Y-147909500D03*
X249361523Y-149459500D03*
%TD*%
D22*
%TO.C,L11*%
X124005423Y-148696400D03*
X124005423Y-147196400D03*
X118555423Y-147196400D03*
X118555423Y-148696400D03*
%TD*%
%TO.C,L2*%
X294616523Y-148442500D03*
X294616523Y-146942500D03*
X289166523Y-146942500D03*
X289166523Y-148442500D03*
%TD*%
D23*
%TO.C,C8*%
X173521623Y-148061600D03*
X173521623Y-149611600D03*
%TD*%
M02*
