%TF.GenerationSoftware,KiCad,Pcbnew,10.0.5*%
%TF.CreationDate,2026-08-25T21:36:04+10:00*%
%TF.ProjectId,single_panel,73696e67-6c65-45f7-9061-6e656c2e6b69,rev?*%
%TF.SameCoordinates,Original*%
%TF.FileFunction,Paste,Top*%
%TF.FilePolarity,Positive*%
%FSLAX46Y46*%
G04 Gerber Fmt 4.6, Leading zero omitted, Abs format (unit mm)*
G04 Created by KiCad (PCBNEW 10.0.5) date 2026-08-25 21:36:04*
%MOMM*%
%LPD*%
G01*
G04 APERTURE LIST*
G04 Aperture macros list*
%AMRoundRect*
0 Rectangle with rounded corners*
0 $1 Rounding radius*
0 $2 $3 $4 $5 $6 $7 $8 $9 X,Y pos of 4 corners*
0 Add a 4 corners polygon primitive as box body*
4,1,4,$2,$3,$4,$5,$6,$7,$8,$9,$2,$3,0*
0 Add four circle primitives for the rounded corners*
1,1,$1+$1,$2,$3*
1,1,$1+$1,$4,$5*
1,1,$1+$1,$6,$7*
1,1,$1+$1,$8,$9*
0 Add four rect primitives between the rounded corners*
20,1,$1+$1,$2,$3,$4,$5,0*
20,1,$1+$1,$4,$5,$6,$7,0*
20,1,$1+$1,$6,$7,$8,$9,0*
20,1,$1+$1,$8,$9,$2,$3,0*%
G04 Aperture macros list end*
%ADD10RoundRect,0.225000X0.375000X-0.225000X0.375000X0.225000X-0.375000X0.225000X-0.375000X-0.225000X0*%
%ADD11RoundRect,0.225000X-0.375000X0.225000X-0.375000X-0.225000X0.375000X-0.225000X0.375000X0.225000X0*%
%ADD12RoundRect,0.225000X-0.225000X-0.375000X0.225000X-0.375000X0.225000X0.375000X-0.225000X0.375000X0*%
%ADD13RoundRect,0.225000X0.225000X0.375000X-0.225000X0.375000X-0.225000X-0.375000X0.225000X-0.375000X0*%
G04 APERTURE END LIST*
D10*
%TO.C,D35*%
X163494523Y-205857500D03*
X163494523Y-202557500D03*
%TD*%
D11*
%TO.C,D83*%
X363519523Y-244975500D03*
X363519523Y-248275500D03*
%TD*%
D10*
%TO.C,D69*%
X273095523Y-244084500D03*
X273095523Y-240784500D03*
%TD*%
D12*
%TO.C,D71*%
X346502523Y-225924500D03*
X349802523Y-225924500D03*
%TD*%
D10*
%TO.C,D28*%
X312846523Y-186172500D03*
X312846523Y-182872500D03*
%TD*%
%TO.C,D19*%
X134919523Y-186171500D03*
X134919523Y-182871500D03*
%TD*%
%TO.C,D54*%
X244520523Y-224907500D03*
X244520523Y-221607500D03*
%TD*%
%TO.C,D79*%
X277794523Y-262372500D03*
X277794523Y-259072500D03*
%TD*%
%TO.C,D51*%
X187370523Y-224907500D03*
X187370523Y-221607500D03*
%TD*%
%TO.C,D59*%
X82468523Y-244084500D03*
X82468523Y-240784500D03*
%TD*%
%TO.C,D53*%
X225343523Y-224907500D03*
X225343523Y-221607500D03*
%TD*%
%TO.C,D77*%
X239567523Y-262372500D03*
X239567523Y-259072500D03*
%TD*%
%TO.C,D20*%
X153969523Y-186171500D03*
X153969523Y-182871500D03*
%TD*%
%TO.C,D60*%
X101587523Y-244084500D03*
X101587523Y-240784500D03*
%TD*%
%TO.C,D40*%
X258744523Y-205853500D03*
X258744523Y-202553500D03*
%TD*%
%TO.C,D37*%
X201594523Y-205857500D03*
X201594523Y-202557500D03*
%TD*%
%TO.C,D62*%
X139745523Y-244084500D03*
X139745523Y-240784500D03*
%TD*%
%TO.C,D4*%
X125394523Y-168011500D03*
X125394523Y-164711500D03*
%TD*%
%TO.C,D7*%
X182544523Y-168011500D03*
X182544523Y-164711500D03*
%TD*%
%TO.C,D36*%
X182544523Y-205857500D03*
X182544523Y-202557500D03*
%TD*%
%TO.C,D15*%
X58719523Y-186171500D03*
X58719523Y-182871500D03*
%TD*%
%TO.C,D6*%
X163494523Y-168011500D03*
X163494523Y-164711500D03*
%TD*%
%TO.C,D75*%
X97073523Y-262372500D03*
X97073523Y-259072500D03*
%TD*%
%TO.C,D24*%
X230169523Y-186171500D03*
X230169523Y-182871500D03*
%TD*%
%TO.C,D56*%
X282747523Y-224907500D03*
X282747523Y-221607500D03*
%TD*%
%TO.C,D12*%
X277794523Y-168138500D03*
X277794523Y-164838500D03*
%TD*%
%TO.C,D46*%
X91993523Y-224907500D03*
X91993523Y-221607500D03*
%TD*%
%TO.C,D39*%
X239694523Y-205857500D03*
X239694523Y-202557500D03*
%TD*%
D13*
%TO.C,D14*%
X361359523Y-178426500D03*
X358059523Y-178426500D03*
%TD*%
D12*
%TO.C,D44*%
X350820523Y-197349500D03*
X354120523Y-197349500D03*
%TD*%
D10*
%TO.C,D23*%
X211119523Y-186171500D03*
X211119523Y-182871500D03*
%TD*%
%TO.C,D11*%
X258744523Y-168138500D03*
X258744523Y-164838500D03*
%TD*%
%TO.C,D1*%
X67990523Y-168011500D03*
X67990523Y-164711500D03*
%TD*%
%TO.C,D27*%
X287319523Y-186172500D03*
X287319523Y-182872500D03*
%TD*%
%TO.C,D8*%
X201594523Y-168011500D03*
X201594523Y-164711500D03*
%TD*%
%TO.C,D47*%
X111043523Y-224907500D03*
X111043523Y-221607500D03*
%TD*%
%TO.C,D48*%
X130220523Y-224907500D03*
X130220523Y-221607500D03*
%TD*%
D12*
%TO.C,D84*%
X373934523Y-244974500D03*
X377234523Y-244974500D03*
%TD*%
D11*
%TO.C,D82*%
X344469523Y-244975500D03*
X344469523Y-248275500D03*
%TD*%
D10*
%TO.C,D49*%
X149270523Y-224907500D03*
X149270523Y-221607500D03*
%TD*%
%TO.C,D26*%
X268269523Y-186171500D03*
X268269523Y-182871500D03*
%TD*%
%TO.C,D68*%
X253918523Y-244084500D03*
X253918523Y-240784500D03*
%TD*%
%TO.C,D16*%
X77769523Y-186171500D03*
X77769523Y-182871500D03*
%TD*%
D12*
%TO.C,D58*%
X369998523Y-197476500D03*
X373298523Y-197476500D03*
%TD*%
%TO.C,D72*%
X350566523Y-216653500D03*
X353866523Y-216653500D03*
%TD*%
D13*
%TO.C,D29*%
X380537523Y-178299500D03*
X377237523Y-178299500D03*
%TD*%
D10*
%TO.C,D5*%
X144444523Y-168011500D03*
X144444523Y-164711500D03*
%TD*%
%TO.C,D31*%
X87294523Y-205857500D03*
X87294523Y-202557500D03*
%TD*%
%TO.C,D17*%
X96819523Y-186171500D03*
X96819523Y-182871500D03*
%TD*%
%TO.C,D73*%
X58719523Y-262372500D03*
X58719523Y-259072500D03*
%TD*%
%TO.C,D18*%
X115869523Y-186172500D03*
X115869523Y-182872500D03*
%TD*%
%TO.C,D61*%
X120695523Y-244084500D03*
X120695523Y-240784500D03*
%TD*%
%TO.C,D43*%
X316021523Y-205857500D03*
X316021523Y-202557500D03*
%TD*%
%TO.C,D9*%
X220644523Y-168011500D03*
X220644523Y-164711500D03*
%TD*%
%TO.C,D64*%
X177718523Y-244083500D03*
X177718523Y-240783500D03*
%TD*%
%TO.C,D65*%
X196768523Y-244084500D03*
X196768523Y-240784500D03*
%TD*%
%TO.C,D80*%
X296844523Y-262372500D03*
X296844523Y-259072500D03*
%TD*%
%TO.C,D41*%
X277794523Y-205853500D03*
X277794523Y-202553500D03*
%TD*%
%TO.C,D42*%
X296844523Y-205857500D03*
X296844523Y-202557500D03*
%TD*%
%TO.C,D22*%
X192069523Y-186171500D03*
X192069523Y-182871500D03*
%TD*%
%TO.C,D81*%
X316021523Y-262372500D03*
X316021523Y-259072500D03*
%TD*%
%TO.C,D30*%
X67609523Y-205857500D03*
X67609523Y-202557500D03*
%TD*%
%TO.C,D76*%
X118409523Y-262372500D03*
X118409523Y-259072500D03*
%TD*%
%TO.C,D55*%
X263443523Y-224907500D03*
X263443523Y-221607500D03*
%TD*%
%TO.C,D38*%
X220644523Y-205857500D03*
X220644523Y-202557500D03*
%TD*%
%TO.C,D78*%
X258744523Y-262372500D03*
X258744523Y-259072500D03*
%TD*%
%TO.C,D52*%
X206293523Y-224907500D03*
X206293523Y-221607500D03*
%TD*%
%TO.C,D33*%
X125394523Y-205857500D03*
X125394523Y-202557500D03*
%TD*%
%TO.C,D50*%
X168193523Y-224907500D03*
X168193523Y-221607500D03*
%TD*%
%TO.C,RED1*%
X296971523Y-155184500D03*
X296971523Y-151884500D03*
%TD*%
%TO.C,D25*%
X249219523Y-186171500D03*
X249219523Y-182871500D03*
%TD*%
%TO.C,D57*%
X308782523Y-224907500D03*
X308782523Y-221607500D03*
%TD*%
%TO.C,D67*%
X234868523Y-244084500D03*
X234868523Y-240784500D03*
%TD*%
D12*
%TO.C,D85*%
X373807523Y-216653500D03*
X377107523Y-216653500D03*
%TD*%
D10*
%TO.C,D21*%
X173019523Y-186171500D03*
X173019523Y-182871500D03*
%TD*%
%TO.C,D63*%
X158795523Y-244084500D03*
X158795523Y-240784500D03*
%TD*%
%TO.C,D66*%
X215945523Y-244084500D03*
X215945523Y-240784500D03*
%TD*%
%TO.C,D45*%
X72943523Y-224908500D03*
X72943523Y-221608500D03*
%TD*%
%TO.C,D34*%
X144444523Y-205857500D03*
X144444523Y-202557500D03*
%TD*%
%TO.C,D13*%
X296971523Y-168138500D03*
X296971523Y-164838500D03*
%TD*%
%TO.C,D74*%
X77769523Y-262372500D03*
X77769523Y-259072500D03*
%TD*%
%TO.C,D32*%
X106344523Y-205857500D03*
X106344523Y-202557500D03*
%TD*%
%TO.C,D70*%
X305988523Y-244084500D03*
X305988523Y-240784500D03*
%TD*%
%TO.C,D10*%
X239675523Y-168138500D03*
X239675523Y-164838500D03*
%TD*%
%TO.C,D2*%
X87294523Y-168011500D03*
X87294523Y-164711500D03*
%TD*%
%TO.C,D3*%
X106344523Y-168011500D03*
X106344523Y-164711500D03*
%TD*%
M02*
