%TF.GenerationSoftware,KiCad,Pcbnew,10.0.5*%
%TF.CreationDate,2026-08-25T21:36:04+10:00*%
%TF.ProjectId,single_panel,73696e67-6c65-45f7-9061-6e656c2e6b69,rev?*%
%TF.SameCoordinates,Original*%
%TF.FileFunction,Paste,Bot*%
%TF.FilePolarity,Positive*%
%FSLAX46Y46*%
G04 Gerber Fmt 4.6, Leading zero omitted, Abs format (unit mm)*
G04 Created by KiCad (PCBNEW 10.0.5) date 2026-08-25 21:36:04*
%MOMM*%
%LPD*%
G01*
G04 APERTURE LIST*
G04 Aperture macros list*
%AMRoundRect*
0 Rectangle with rounded corners*
0 $1 Rounding radius*
0 $2 $3 $4 $5 $6 $7 $8 $9 X,Y pos of 4 corners*
0 Add a 4 corners polygon primitive as box body*
4,1,4,$2,$3,$4,$5,$6,$7,$8,$9,$2,$3,0*
0 Add four circle primitives for the rounded corners*
1,1,$1+$1,$2,$3*
1,1,$1+$1,$4,$5*
1,1,$1+$1,$6,$7*
1,1,$1+$1,$8,$9*
0 Add four rect primitives between the rounded corners*
20,1,$1+$1,$2,$3,$4,$5,0*
20,1,$1+$1,$4,$5,$6,$7,0*
20,1,$1+$1,$6,$7,$8,$9,0*
20,1,$1+$1,$8,$9,$2,$3,0*%
G04 Aperture macros list end*
%ADD10RoundRect,0.205000X0.470000X0.205000X-0.470000X0.205000X-0.470000X-0.205000X0.470000X-0.205000X0*%
%ADD11RoundRect,0.225000X-0.250000X0.225000X-0.250000X-0.225000X0.250000X-0.225000X0.250000X0.225000X0*%
G04 APERTURE END LIST*
D10*
%TO.C,L9*%
X161880623Y-148721600D03*
X161880623Y-147221600D03*
X156430623Y-147221600D03*
X156430623Y-148721600D03*
%TD*%
D11*
%TO.C,C13*%
X78714523Y-148085500D03*
X78714523Y-149635500D03*
%TD*%
D10*
%TO.C,L14*%
X67159523Y-148836500D03*
X67159523Y-147336500D03*
X61709523Y-147336500D03*
X61709523Y-148836500D03*
%TD*%
D11*
%TO.C,C15*%
X40812523Y-148200500D03*
X40812523Y-149750500D03*
%TD*%
%TO.C,C5*%
X230367523Y-147921500D03*
X230367523Y-149471500D03*
%TD*%
%TO.C,C1*%
X306242523Y-147806500D03*
X306242523Y-149356500D03*
%TD*%
%TO.C,C2*%
X287263523Y-147794500D03*
X287263523Y-149344500D03*
%TD*%
D10*
%TO.C,L5*%
X237720523Y-148569500D03*
X237720523Y-147069500D03*
X232270523Y-147069500D03*
X232270523Y-148569500D03*
%TD*%
D11*
%TO.C,C7*%
X192429623Y-147958600D03*
X192429623Y-149508600D03*
%TD*%
%TO.C,C11*%
X116652423Y-148048400D03*
X116652423Y-149598400D03*
%TD*%
D10*
%TO.C,L10*%
X142999423Y-148684400D03*
X142999423Y-147184400D03*
X137549423Y-147184400D03*
X137549423Y-148684400D03*
%TD*%
%TO.C,L15*%
X48165523Y-148848500D03*
X48165523Y-147348500D03*
X42715523Y-147348500D03*
X42715523Y-148848500D03*
%TD*%
D11*
%TO.C,C3*%
X268269523Y-147806500D03*
X268269523Y-149356500D03*
%TD*%
D10*
%TO.C,L12*%
X105061523Y-148721500D03*
X105061523Y-147221500D03*
X99611523Y-147221500D03*
X99611523Y-148721500D03*
%TD*%
%TO.C,L1*%
X313595523Y-148454500D03*
X313595523Y-146954500D03*
X308145523Y-146954500D03*
X308145523Y-148454500D03*
%TD*%
%TO.C,L7*%
X199782623Y-148606600D03*
X199782623Y-147106600D03*
X194332623Y-147106600D03*
X194332623Y-148606600D03*
%TD*%
D11*
%TO.C,C14*%
X59806523Y-148188500D03*
X59806523Y-149738500D03*
%TD*%
%TO.C,C9*%
X154527623Y-148073600D03*
X154527623Y-149623600D03*
%TD*%
D10*
%TO.C,L13*%
X86067523Y-148733500D03*
X86067523Y-147233500D03*
X80617523Y-147233500D03*
X80617523Y-148733500D03*
%TD*%
%TO.C,L4*%
X256714523Y-148557500D03*
X256714523Y-147057500D03*
X251264523Y-147057500D03*
X251264523Y-148557500D03*
%TD*%
%TO.C,L6*%
X218776623Y-148594600D03*
X218776623Y-147094600D03*
X213326623Y-147094600D03*
X213326623Y-148594600D03*
%TD*%
D11*
%TO.C,C12*%
X97708523Y-148073500D03*
X97708523Y-149623500D03*
%TD*%
%TO.C,C6*%
X211423623Y-147946600D03*
X211423623Y-149496600D03*
%TD*%
D10*
%TO.C,L8*%
X180874623Y-148709600D03*
X180874623Y-147209600D03*
X175424623Y-147209600D03*
X175424623Y-148709600D03*
%TD*%
D11*
%TO.C,C10*%
X135646423Y-148036400D03*
X135646423Y-149586400D03*
%TD*%
D10*
%TO.C,L3*%
X275622523Y-148454500D03*
X275622523Y-146954500D03*
X270172523Y-146954500D03*
X270172523Y-148454500D03*
%TD*%
D11*
%TO.C,C4*%
X249361523Y-147909500D03*
X249361523Y-149459500D03*
%TD*%
D10*
%TO.C,L11*%
X124005423Y-148696400D03*
X124005423Y-147196400D03*
X118555423Y-147196400D03*
X118555423Y-148696400D03*
%TD*%
%TO.C,L2*%
X294616523Y-148442500D03*
X294616523Y-146942500D03*
X289166523Y-146942500D03*
X289166523Y-148442500D03*
%TD*%
D11*
%TO.C,C8*%
X173521623Y-148061600D03*
X173521623Y-149611600D03*
%TD*%
M02*
