M48
; DRILL file KiCad 10.0.5 date 2026-08-25T21:36:06
; FORMAT={-:-/ absolute / metric / decimal}
; #@! TF.CreationDate,2026-08-25T21:36:06+10:00
; #@! TF.GenerationSoftware,Kicad,Pcbnew,10.0.5
; #@! TF.FileFunction,Plated,1,2,PTH
FMAT,2
METRIC
; #@! TA.AperFunction,Plated,PTH,ViaDrill
T1C0.300
; #@! TA.AperFunction,Plated,PTH,ComponentDrill
T2C1.000
; #@! TA.AperFunction,Plated,PTH,ComponentDrill
T3C1.200
; #@! TA.AperFunction,Plated,PTH,ComponentDrill
T4C2.600
%
G90
G05
T1
X54.148Y-184.522
X72.944Y-188.459
X87.295Y-188.968
X106.345Y-189.475
X125.395Y-190.111
X149.017Y-190.492
X163.495Y-190.873
X182.545Y-191.38
X201.595Y-191.888
X220.645Y-192.269
X239.695Y-192.904
X258.745Y-193.54
X298.242Y-156.454
X314.498Y-150.74
X348.026Y-199.635
X348.026Y-203.7
X349.931Y-198.873
X349.931Y-201.794
X372.791Y-217.669
X380.538Y-176.013
T2
X305.521Y-152.243
X305.521Y-166.742
X308.021Y-166.742
X310.521Y-152.243
X310.521Y-166.742
X322.372Y-146.041
X322.372Y-148.582
X322.372Y-151.121
X322.372Y-153.661
X322.372Y-156.201
X322.372Y-158.742
X322.372Y-161.281
X322.372Y-163.821
X322.372Y-166.362
X322.372Y-168.901
X322.372Y-171.441
X322.372Y-173.981
X322.372Y-176.522
X322.372Y-179.061
X322.372Y-181.601
X322.372Y-184.141
X322.372Y-186.681
X322.372Y-189.221
X322.372Y-191.761
X322.372Y-194.302
X331.262Y-204.233
X333.802Y-204.233
X336.342Y-204.233
X338.882Y-204.233
X340.152Y-146.041
X340.152Y-148.582
X340.152Y-151.121
X340.152Y-153.661
X340.152Y-156.201
X340.152Y-158.742
X340.152Y-161.281
X340.152Y-163.821
X340.152Y-166.362
X340.152Y-168.901
X340.152Y-171.441
X340.152Y-173.981
X340.152Y-176.522
X340.152Y-179.061
X340.152Y-181.601
X340.152Y-184.141
X340.152Y-186.681
X340.152Y-189.221
X340.152Y-191.761
X340.152Y-194.302
T3
X49.195Y-184.476
X49.195Y-260.676
X53.325Y-181.726
X53.325Y-257.926
X53.957Y-165.427
X53.957Y-203.526
X56.338Y-222.576
X58.087Y-162.677
X58.087Y-200.776
X60.468Y-219.826
X61.101Y-241.626
X65.231Y-238.876
X68.245Y-184.476
X68.245Y-260.676
X72.375Y-181.726
X72.375Y-257.926
X77.77Y-165.427
X77.77Y-203.526
X81.9Y-162.677
X81.9Y-200.776
X82.532Y-222.576
X86.662Y-219.826
X87.295Y-184.476
X87.295Y-260.676
X91.425Y-181.726
X91.425Y-257.926
X92.057Y-241.626
X96.187Y-238.876
X96.82Y-165.427
X96.82Y-203.526
X100.95Y-162.677
X100.95Y-200.776
X101.582Y-222.576
X105.712Y-219.826
X106.345Y-184.476
X108.726Y-260.676
X110.475Y-181.726
X111.107Y-241.626
X112.856Y-257.926
X115.237Y-238.876
X115.87Y-165.427
X115.87Y-203.526
X120.0Y-162.677
X120.0Y-200.776
X120.632Y-222.576
X124.762Y-219.826
X125.395Y-184.476
X129.525Y-181.726
X130.157Y-241.626
X134.287Y-238.876
X134.92Y-165.427
X134.92Y-203.526
X139.05Y-162.677
X139.05Y-200.776
X139.682Y-222.576
X143.812Y-219.826
X144.445Y-184.476
X148.575Y-181.726
X149.207Y-241.626
X153.337Y-238.876
X153.97Y-165.427
X153.97Y-203.526
X158.1Y-162.677
X158.1Y-200.776
X158.732Y-222.576
X162.862Y-219.826
X163.495Y-184.476
X167.625Y-181.726
X168.257Y-241.626
X172.387Y-238.876
X173.02Y-165.427
X173.02Y-203.526
X177.15Y-162.677
X177.15Y-200.776
X177.782Y-222.576
X180.163Y-260.676
X181.912Y-219.826
X182.545Y-184.476
X184.293Y-257.926
X186.675Y-181.726
X187.307Y-241.626
X191.437Y-238.876
X192.07Y-165.427
X192.07Y-203.526
X196.2Y-162.677
X196.2Y-200.776
X196.832Y-222.576
X200.962Y-219.826
X201.595Y-184.476
X205.725Y-181.726
X206.357Y-241.626
X210.487Y-238.876
X211.12Y-165.427
X211.12Y-203.526
X215.25Y-162.677
X215.25Y-200.776
X215.882Y-222.576
X220.012Y-219.826
X220.645Y-184.476
X224.775Y-181.726
X225.407Y-241.626
X229.537Y-238.876
X230.17Y-165.427
X230.17Y-203.526
X234.3Y-162.677
X234.3Y-200.776
X234.932Y-222.576
X239.062Y-219.826
X239.695Y-184.476
X243.825Y-181.726
X244.457Y-241.626
X248.587Y-238.876
X249.22Y-165.427
X249.22Y-203.526
X249.22Y-260.676
X253.35Y-162.677
X253.35Y-200.776
X253.35Y-257.926
X253.982Y-222.576
X258.112Y-219.826
X258.745Y-184.476
X262.875Y-181.726
X263.507Y-241.626
X267.637Y-238.876
X268.27Y-165.427
X268.27Y-203.526
X268.27Y-260.676
X272.4Y-162.677
X272.4Y-200.776
X272.4Y-257.926
X273.032Y-222.576
X277.162Y-219.826
X277.795Y-184.476
X281.925Y-181.726
X287.32Y-165.427
X287.32Y-203.526
X287.32Y-260.676
X291.45Y-162.677
X291.45Y-200.776
X291.45Y-257.926
X294.463Y-241.626
X298.593Y-238.876
X299.226Y-222.576
X301.607Y-184.476
X303.356Y-219.826
X305.737Y-181.726
X306.37Y-203.526
X306.37Y-260.676
X310.5Y-200.776
X310.5Y-257.926
X334.945Y-260.676
X339.075Y-257.926
X353.995Y-174.951
X353.995Y-194.001
X353.995Y-213.052
X353.995Y-241.626
X353.995Y-260.676
X358.125Y-172.201
X358.125Y-191.251
X358.125Y-210.302
X358.125Y-238.876
X358.125Y-257.926
X373.045Y-174.951
X373.045Y-194.001
X373.045Y-213.052
X373.045Y-260.676
X377.175Y-172.201
X377.175Y-191.251
X377.175Y-210.302
X377.175Y-257.926
T4
X302.421Y-159.243
X313.621Y-159.243
M30
