M48
; DRILL file KiCad 10.0.5 date 2026-08-25T21:36:06
; FORMAT={-:-/ absolute / metric / decimal}
; #@! TF.CreationDate,2026-08-25T21:36:06+10:00
; #@! TF.GenerationSoftware,Kicad,Pcbnew,10.0.5
; #@! TF.FileFunction,NonPlated,1,2,NPTH
FMAT,2
METRIC
; #@! TA.AperFunction,NonPlated,NPTH,ComponentDrill
T1C0.500
; #@! TA.AperFunction,NonPlated,NPTH,ComponentDrill
T2C2.300
; #@! TA.AperFunction,NonPlated,NPTH,ComponentDrill
T3C6.250
%
G90
G05
T1
X44.225Y-144.326
X44.23Y-140.517
X45.075Y-144.326
X45.08Y-140.517
X45.925Y-144.326
X45.93Y-140.517
X46.775Y-144.326
X46.78Y-140.517
X47.625Y-144.326
X47.63Y-140.517
X48.475Y-144.326
X48.48Y-140.517
X49.325Y-144.326
X49.33Y-140.517
X50.175Y-144.326
X50.18Y-140.517
X51.025Y-144.326
X51.03Y-140.517
X51.875Y-144.326
X51.88Y-140.517
X52.725Y-144.326
X52.73Y-140.517
X367.945Y-144.326
X367.95Y-140.517
X368.795Y-144.326
X368.8Y-140.517
X369.645Y-144.326
X369.65Y-140.517
X370.495Y-144.326
X370.5Y-140.517
X371.345Y-144.326
X371.35Y-140.517
X372.195Y-144.326
X372.2Y-140.517
X373.045Y-144.326
X373.05Y-140.517
X373.895Y-144.326
X373.9Y-140.517
X374.745Y-144.326
X374.75Y-140.517
X375.595Y-144.326
X375.6Y-140.517
X376.445Y-144.326
X376.45Y-140.517
T2
X49.195Y-182.126
X49.195Y-258.327
X53.957Y-163.076
X53.957Y-201.177
X56.338Y-220.226
X61.101Y-239.276
X68.245Y-182.126
X68.245Y-258.327
X77.77Y-163.076
X77.77Y-201.177
X82.532Y-220.226
X87.295Y-182.126
X87.295Y-258.327
X92.057Y-239.276
X96.82Y-163.076
X96.82Y-201.177
X101.582Y-220.226
X106.345Y-182.126
X108.726Y-258.327
X111.107Y-239.276
X115.87Y-163.076
X115.87Y-201.177
X120.632Y-220.226
X125.395Y-182.126
X130.157Y-239.276
X134.92Y-163.076
X134.92Y-201.177
X139.682Y-220.226
X144.445Y-182.126
X149.207Y-239.276
X153.97Y-163.076
X153.97Y-201.177
X158.732Y-220.226
X163.495Y-182.126
X168.257Y-239.276
X173.02Y-163.076
X173.02Y-201.177
X177.782Y-220.226
X180.163Y-258.327
X182.545Y-182.126
X187.307Y-239.276
X192.07Y-163.076
X192.07Y-201.177
X196.832Y-220.226
X201.595Y-182.126
X206.357Y-239.276
X211.12Y-163.076
X211.12Y-201.177
X215.882Y-220.226
X220.645Y-182.126
X225.407Y-239.276
X230.17Y-163.076
X230.17Y-201.177
X234.932Y-220.226
X239.695Y-182.126
X244.457Y-239.276
X249.22Y-163.076
X249.22Y-201.177
X249.22Y-258.327
X253.982Y-220.226
X258.745Y-182.126
X263.507Y-239.276
X268.27Y-163.076
X268.27Y-201.177
X268.27Y-258.327
X273.032Y-220.226
X277.795Y-182.126
X287.32Y-163.076
X287.32Y-201.177
X287.32Y-258.327
X294.463Y-239.276
X299.226Y-220.226
X301.607Y-182.126
X306.37Y-201.177
X306.37Y-258.327
X334.945Y-258.327
X353.995Y-172.601
X353.995Y-191.651
X353.995Y-210.701
X353.995Y-239.276
X353.995Y-258.327
X373.045Y-172.601
X373.045Y-191.651
X373.045Y-210.701
X373.045Y-258.327
T3
X49.195Y-178.427
X49.195Y-254.626
X53.957Y-159.376
X53.957Y-197.476
X56.338Y-216.526
X61.101Y-235.576
X68.245Y-178.427
X68.245Y-254.626
X77.77Y-159.376
X77.77Y-197.476
X82.532Y-216.526
X87.295Y-178.427
X87.295Y-254.626
X92.057Y-235.576
X96.82Y-159.376
X96.82Y-197.476
X101.582Y-216.526
X106.345Y-178.427
X108.726Y-254.626
X111.107Y-235.576
X115.87Y-159.376
X115.87Y-197.476
X120.632Y-216.526
X125.395Y-178.427
X130.157Y-235.576
X134.92Y-159.376
X134.92Y-197.476
X139.682Y-216.526
X144.445Y-178.427
X149.207Y-235.576
X153.97Y-159.376
X153.97Y-197.476
X158.732Y-216.526
X163.495Y-178.427
X168.257Y-235.576
X173.02Y-159.376
X173.02Y-197.476
X177.782Y-216.526
X180.163Y-254.626
X182.545Y-178.427
X187.307Y-235.576
X192.07Y-159.376
X192.07Y-197.476
X196.832Y-216.526
X201.595Y-178.427
X206.357Y-235.576
X211.12Y-159.376
X211.12Y-197.476
X215.882Y-216.526
X220.645Y-178.427
X225.407Y-235.576
X230.17Y-159.376
X230.17Y-197.476
X234.932Y-216.526
X239.695Y-178.427
X244.457Y-235.576
X249.22Y-159.376
X249.22Y-197.476
X249.22Y-254.626
X253.982Y-216.526
X258.745Y-178.427
X263.507Y-235.576
X268.27Y-159.376
X268.27Y-197.476
X268.27Y-254.626
X273.032Y-216.526
X277.795Y-178.427
X287.32Y-159.376
X287.32Y-197.476
X287.32Y-254.626
X294.463Y-235.576
X299.226Y-216.526
X301.607Y-178.427
X306.37Y-197.476
X306.37Y-254.626
X334.945Y-254.626
X353.995Y-168.901
X353.995Y-187.951
X353.995Y-207.001
X353.995Y-235.576
X353.995Y-254.626
X373.045Y-168.901
X373.045Y-187.951
X373.045Y-207.001
X373.045Y-254.626
M30
