%TF.GenerationSoftware,KiCad,Pcbnew,10.0.5*%
%TF.CreationDate,2026-08-25T12:27:28+10:00*%
%TF.ProjectId,plate,706c6174-652e-46b6-9963-61645f706362,rev?*%
%TF.SameCoordinates,Original*%
%TF.FileFunction,Legend,Top*%
%TF.FilePolarity,Positive*%
%FSLAX46Y46*%
G04 Gerber Fmt 4.6, Leading zero omitted, Abs format (unit mm)*
G04 Created by KiCad (PCBNEW 10.0.5) date 2026-08-25 12:27:28*
%MOMM*%
%LPD*%
G01*
G04 APERTURE LIST*
%ADD10C,0.200000*%
%ADD11C,0.100000*%
%ADD12C,0.500000*%
%ADD13C,0.300000*%
G04 APERTURE END LIST*
D10*
X312027896Y-129330855D02*
X312027896Y-131235855D01*
X321679896Y-101835355D02*
X321679896Y-103740355D01*
D11*
X340221896Y-38335355D02*
X340221896Y-46082355D01*
D10*
X342274188Y-48984097D02*
X342202759Y-48912669D01*
X342202759Y-48912669D02*
X342059902Y-48841240D01*
X342059902Y-48841240D02*
X341917045Y-48841240D01*
X341917045Y-48841240D02*
X341774188Y-48912669D01*
X341774188Y-48912669D02*
X341702759Y-48984097D01*
X341702759Y-48984097D02*
X341631331Y-49126955D01*
X341631331Y-49126955D02*
X341631331Y-49269812D01*
X341631331Y-49269812D02*
X341702759Y-49412669D01*
X341702759Y-49412669D02*
X341774188Y-49484097D01*
X341774188Y-49484097D02*
X341917045Y-49555526D01*
X341917045Y-49555526D02*
X342059902Y-49555526D01*
X342059902Y-49555526D02*
X342202759Y-49484097D01*
X342202759Y-49484097D02*
X342274188Y-49412669D01*
X342274188Y-48841240D02*
X342274188Y-49412669D01*
X342274188Y-49412669D02*
X342345616Y-49484097D01*
X342345616Y-49484097D02*
X342417045Y-49484097D01*
X342417045Y-49484097D02*
X342559902Y-49412669D01*
X342559902Y-49412669D02*
X342631331Y-49269812D01*
X342631331Y-49269812D02*
X342631331Y-48912669D01*
X342631331Y-48912669D02*
X342488474Y-48698383D01*
X342488474Y-48698383D02*
X342274188Y-48555526D01*
X342274188Y-48555526D02*
X341988474Y-48484097D01*
X341988474Y-48484097D02*
X341702759Y-48555526D01*
X341702759Y-48555526D02*
X341488474Y-48698383D01*
X341488474Y-48698383D02*
X341345616Y-48912669D01*
X341345616Y-48912669D02*
X341274188Y-49198383D01*
X341274188Y-49198383D02*
X341345616Y-49484097D01*
X341345616Y-49484097D02*
X341488474Y-49698383D01*
X341488474Y-49698383D02*
X341702759Y-49841240D01*
X341702759Y-49841240D02*
X341988474Y-49912669D01*
X341988474Y-49912669D02*
X342274188Y-49841240D01*
X342274188Y-49841240D02*
X342488474Y-49698383D01*
X343917045Y-48698383D02*
X343917045Y-50198383D01*
X343917045Y-49626955D02*
X343774187Y-49698383D01*
X343774187Y-49698383D02*
X343488473Y-49698383D01*
X343488473Y-49698383D02*
X343345616Y-49626955D01*
X343345616Y-49626955D02*
X343274187Y-49555526D01*
X343274187Y-49555526D02*
X343202759Y-49412669D01*
X343202759Y-49412669D02*
X343202759Y-48984097D01*
X343202759Y-48984097D02*
X343274187Y-48841240D01*
X343274187Y-48841240D02*
X343345616Y-48769812D01*
X343345616Y-48769812D02*
X343488473Y-48698383D01*
X343488473Y-48698383D02*
X343774187Y-48698383D01*
X343774187Y-48698383D02*
X343917045Y-48769812D01*
X345274188Y-48698383D02*
X345274188Y-49698383D01*
X344631330Y-48698383D02*
X344631330Y-49484097D01*
X344631330Y-49484097D02*
X344702759Y-49626955D01*
X344702759Y-49626955D02*
X344845616Y-49698383D01*
X344845616Y-49698383D02*
X345059902Y-49698383D01*
X345059902Y-49698383D02*
X345202759Y-49626955D01*
X345202759Y-49626955D02*
X345274188Y-49555526D01*
X345988473Y-49698383D02*
X345988473Y-48198383D01*
X345988473Y-48769812D02*
X346131331Y-48698383D01*
X346131331Y-48698383D02*
X346417045Y-48698383D01*
X346417045Y-48698383D02*
X346559902Y-48769812D01*
X346559902Y-48769812D02*
X346631331Y-48841240D01*
X346631331Y-48841240D02*
X346702759Y-48984097D01*
X346702759Y-48984097D02*
X346702759Y-49412669D01*
X346702759Y-49412669D02*
X346631331Y-49555526D01*
X346631331Y-49555526D02*
X346559902Y-49626955D01*
X346559902Y-49626955D02*
X346417045Y-49698383D01*
X346417045Y-49698383D02*
X346131331Y-49698383D01*
X346131331Y-49698383D02*
X345988473Y-49626955D01*
X347345616Y-49698383D02*
X347345616Y-48698383D01*
X347345616Y-48198383D02*
X347274188Y-48269812D01*
X347274188Y-48269812D02*
X347345616Y-48341240D01*
X347345616Y-48341240D02*
X347417045Y-48269812D01*
X347417045Y-48269812D02*
X347345616Y-48198383D01*
X347345616Y-48198383D02*
X347345616Y-48341240D01*
X347917045Y-49698383D02*
X348702760Y-48698383D01*
X347917045Y-48698383D02*
X348702760Y-49698383D01*
X349917046Y-49698383D02*
X349917046Y-48912669D01*
X349917046Y-48912669D02*
X349845617Y-48769812D01*
X349845617Y-48769812D02*
X349702760Y-48698383D01*
X349702760Y-48698383D02*
X349417046Y-48698383D01*
X349417046Y-48698383D02*
X349274188Y-48769812D01*
X349917046Y-49626955D02*
X349774188Y-49698383D01*
X349774188Y-49698383D02*
X349417046Y-49698383D01*
X349417046Y-49698383D02*
X349274188Y-49626955D01*
X349274188Y-49626955D02*
X349202760Y-49484097D01*
X349202760Y-49484097D02*
X349202760Y-49341240D01*
X349202760Y-49341240D02*
X349274188Y-49198383D01*
X349274188Y-49198383D02*
X349417046Y-49126955D01*
X349417046Y-49126955D02*
X349774188Y-49126955D01*
X349774188Y-49126955D02*
X349917046Y-49055526D01*
X350845617Y-49698383D02*
X350702760Y-49626955D01*
X350702760Y-49626955D02*
X350631331Y-49484097D01*
X350631331Y-49484097D02*
X350631331Y-48198383D01*
X351702760Y-48984097D02*
X351702760Y-49698383D01*
X351202760Y-48198383D02*
X351702760Y-48984097D01*
X351702760Y-48984097D02*
X352202760Y-48198383D01*
X352488474Y-48198383D02*
X353345617Y-48198383D01*
X352917045Y-49698383D02*
X352917045Y-48198383D01*
X356059902Y-48126955D02*
X354774188Y-50055526D01*
X358345617Y-48698383D02*
X358345617Y-50198383D01*
X358345617Y-49626955D02*
X358202759Y-49698383D01*
X358202759Y-49698383D02*
X357917045Y-49698383D01*
X357917045Y-49698383D02*
X357774188Y-49626955D01*
X357774188Y-49626955D02*
X357702759Y-49555526D01*
X357702759Y-49555526D02*
X357631331Y-49412669D01*
X357631331Y-49412669D02*
X357631331Y-48984097D01*
X357631331Y-48984097D02*
X357702759Y-48841240D01*
X357702759Y-48841240D02*
X357774188Y-48769812D01*
X357774188Y-48769812D02*
X357917045Y-48698383D01*
X357917045Y-48698383D02*
X358202759Y-48698383D01*
X358202759Y-48698383D02*
X358345617Y-48769812D01*
X359131331Y-48626955D02*
X359702760Y-48626955D01*
X359131331Y-47984097D02*
X359131331Y-49626955D01*
X359774188Y-49484097D02*
X358845617Y-49698383D01*
X359988474Y-49698383D02*
X360631331Y-49698383D01*
X359988474Y-47984097D02*
X359988474Y-49698383D01*
X360559902Y-48484097D02*
X359917045Y-48769812D01*
X360702760Y-49341240D02*
X360631331Y-49698383D01*
X361059903Y-49698383D02*
X362917046Y-49698383D01*
X361131331Y-48269812D02*
X362845617Y-48269812D01*
X361988474Y-48269812D02*
X361988474Y-49698383D01*
X363631332Y-48341240D02*
X363631332Y-49698383D01*
X364131332Y-48412669D02*
X365131332Y-48412669D01*
X364417046Y-49198383D02*
X365131332Y-49198383D01*
X364417046Y-48769812D02*
X365131332Y-48769812D01*
X364417046Y-48341240D02*
X364417046Y-49698383D01*
X363774189Y-48055526D02*
X363559903Y-48484097D01*
X363559903Y-48484097D02*
X363274189Y-48769812D01*
X364274189Y-48055526D02*
X364059903Y-48555526D01*
X364059903Y-48555526D02*
X363845617Y-48769812D01*
X365488475Y-49698383D02*
X367345618Y-49698383D01*
X365559903Y-48198383D02*
X365488475Y-48484097D01*
X365631332Y-48984097D02*
X367131332Y-48984097D01*
X365702760Y-49269812D02*
X367131332Y-49269812D01*
X365702760Y-48484097D02*
X367131332Y-48484097D01*
X366417046Y-47984097D02*
X366417046Y-48198383D01*
X366417046Y-49055526D02*
X366417046Y-49698383D01*
X365559903Y-48198383D02*
X367274189Y-48198383D01*
X367274189Y-48198383D02*
X367345618Y-48484097D01*
X366202760Y-48484097D02*
X366131332Y-48769812D01*
X366131332Y-48769812D02*
X365917046Y-48984097D01*
X366774189Y-48698383D02*
X366988475Y-48841240D01*
X366988475Y-48841240D02*
X367202760Y-49055526D01*
G36*
X341269165Y-42238087D02*
G01*
X341420382Y-42238087D01*
X341420382Y-42440320D01*
X341621516Y-42238087D01*
X341870827Y-42238087D01*
X342035233Y-42402402D01*
X342199547Y-42238087D01*
X342529641Y-42238087D01*
X342722898Y-42431894D01*
X342722898Y-43287355D01*
X342567468Y-43287355D01*
X342567468Y-42480346D01*
X342462322Y-42377122D01*
X342231146Y-42377122D01*
X342083959Y-42524584D01*
X342083959Y-43287355D01*
X341931551Y-43287355D01*
X341931551Y-42480346D01*
X341826771Y-42377122D01*
X341650825Y-42377122D01*
X341424595Y-42604726D01*
X341424595Y-43287355D01*
X341269165Y-43287355D01*
X341269165Y-42238087D01*
G37*
G36*
X343876213Y-42432169D02*
G01*
X343876213Y-43287355D01*
X343724905Y-43287355D01*
X343724905Y-43102157D01*
X343532289Y-43287355D01*
X343163543Y-43287355D01*
X342991077Y-43114797D01*
X342991077Y-42894429D01*
X343146507Y-42894429D01*
X343146507Y-43070650D01*
X343230588Y-43152532D01*
X343500873Y-43152532D01*
X343720783Y-42940591D01*
X343720783Y-42812546D01*
X343230588Y-42812546D01*
X343146507Y-42894429D01*
X342991077Y-42894429D01*
X342991077Y-42848267D01*
X343163543Y-42677724D01*
X343720783Y-42677724D01*
X343720783Y-42476590D01*
X343616003Y-42372909D01*
X343259988Y-42372909D01*
X343155208Y-42476590D01*
X343155208Y-42563419D01*
X342999778Y-42563419D01*
X342999778Y-42432169D01*
X343192944Y-42238087D01*
X343680941Y-42238087D01*
X343876213Y-42432169D01*
G37*
G36*
X344931159Y-42421361D02*
G01*
X344931159Y-42238087D01*
X345082376Y-42238087D01*
X345082376Y-43553152D01*
X344891317Y-43744577D01*
X344373553Y-43744577D01*
X344211803Y-43582553D01*
X344211803Y-43454783D01*
X344367233Y-43454783D01*
X344367233Y-43532269D01*
X344440597Y-43605542D01*
X344822166Y-43605542D01*
X344926946Y-43502960D01*
X344926946Y-43112507D01*
X344734055Y-43287355D01*
X344352487Y-43287355D01*
X344159046Y-43093548D01*
X344159046Y-42480346D01*
X344314476Y-42480346D01*
X344314476Y-43045096D01*
X344419623Y-43148319D01*
X344708959Y-43148319D01*
X344926946Y-42943888D01*
X344926946Y-42598406D01*
X344706852Y-42377122D01*
X344419623Y-42377122D01*
X344314476Y-42480346D01*
X344159046Y-42480346D01*
X344159046Y-42431894D01*
X344352487Y-42238087D01*
X344748801Y-42238087D01*
X344931159Y-42421361D01*
G37*
G36*
X345388565Y-41999676D02*
G01*
X345388565Y-41907901D01*
X345452221Y-41845345D01*
X345544636Y-41845345D01*
X345605452Y-41907901D01*
X345605452Y-41999676D01*
X345544636Y-42062232D01*
X345452221Y-42062232D01*
X345388565Y-41999676D01*
G37*
G36*
X345420713Y-42238087D02*
G01*
X345576143Y-42238087D01*
X345576143Y-43287355D01*
X345420713Y-43287355D01*
X345420713Y-42238087D01*
G37*
G36*
X345888286Y-43093548D02*
G01*
X345888286Y-42431894D01*
X346081543Y-42238087D01*
X346586026Y-42238087D01*
X346779283Y-42431894D01*
X346779283Y-42560488D01*
X346623853Y-42560488D01*
X346623853Y-42480437D01*
X346518799Y-42377122D01*
X346148771Y-42377122D01*
X346043716Y-42480437D01*
X346043716Y-43045005D01*
X346148771Y-43148319D01*
X346518799Y-43148319D01*
X346623853Y-43045005D01*
X346623853Y-42964954D01*
X346779283Y-42964954D01*
X346779283Y-43093548D01*
X346586026Y-43287355D01*
X346081543Y-43287355D01*
X345888286Y-43093548D01*
G37*
G36*
X347544252Y-41780865D02*
G01*
X347699682Y-41780865D01*
X347699682Y-42671863D01*
X347945421Y-42671863D01*
X348251976Y-42238087D01*
X348424167Y-42238087D01*
X348071450Y-42743487D01*
X348445233Y-43287355D01*
X348273042Y-43287355D01*
X347945421Y-42810898D01*
X347699682Y-42810898D01*
X347699682Y-43287355D01*
X347544252Y-43287355D01*
X347544252Y-41780865D01*
G37*
G36*
X349483052Y-42431436D02*
G01*
X349483052Y-42806685D01*
X348724037Y-42806685D01*
X348724037Y-43044363D01*
X348829183Y-43148319D01*
X349222475Y-43148319D01*
X349327622Y-43044363D01*
X349327622Y-42963672D01*
X349483052Y-42963672D01*
X349483052Y-43093181D01*
X349289795Y-43287355D01*
X348761864Y-43287355D01*
X348568607Y-43093181D01*
X348568607Y-42479521D01*
X348724037Y-42479521D01*
X348724037Y-42671863D01*
X349327622Y-42671863D01*
X349327622Y-42479521D01*
X349224582Y-42377122D01*
X348829183Y-42377122D01*
X348724037Y-42479521D01*
X348568607Y-42479521D01*
X348568607Y-42431436D01*
X348761864Y-42238087D01*
X349289795Y-42238087D01*
X349483052Y-42431436D01*
G37*
G36*
X350648090Y-42238087D02*
G01*
X350648090Y-43553152D01*
X350454833Y-43744577D01*
X349950991Y-43744577D01*
X349789241Y-43582553D01*
X349789241Y-43454783D01*
X349944671Y-43454783D01*
X349944671Y-43534376D01*
X350018127Y-43605542D01*
X350387697Y-43605542D01*
X350492660Y-43502960D01*
X350492660Y-43064055D01*
X350270094Y-43287355D01*
X349950991Y-43287355D01*
X349757092Y-43093548D01*
X349757092Y-42238087D01*
X349912522Y-42238087D01*
X349912522Y-43045096D01*
X350018127Y-43148319D01*
X350228145Y-43148319D01*
X350492660Y-42882797D01*
X350492660Y-42238087D01*
X350648090Y-42238087D01*
G37*
G36*
X351118594Y-42442427D02*
G01*
X351322475Y-42238087D01*
X351690213Y-42238087D01*
X351883471Y-42431894D01*
X351883471Y-43093548D01*
X351690213Y-43287355D01*
X351156421Y-43287355D01*
X350963163Y-43093548D01*
X350963163Y-42625792D01*
X351118594Y-42625792D01*
X351118594Y-43045096D01*
X351223648Y-43148319D01*
X351622986Y-43148319D01*
X351728040Y-43045096D01*
X351728040Y-42480346D01*
X351622986Y-42377122D01*
X351366531Y-42377122D01*
X351118594Y-42625792D01*
X350963163Y-42625792D01*
X350963163Y-41780865D01*
X351118594Y-41780865D01*
X351118594Y-42442427D01*
G37*
G36*
X353076444Y-42431894D02*
G01*
X353076444Y-43093548D01*
X352883279Y-43287355D01*
X352346280Y-43287355D01*
X352153115Y-43093548D01*
X352153115Y-42480346D01*
X352308545Y-42480346D01*
X352308545Y-43045096D01*
X352413416Y-43148319D01*
X352816142Y-43148319D01*
X352921014Y-43045096D01*
X352921014Y-42480346D01*
X352816142Y-42377122D01*
X352413416Y-42377122D01*
X352308545Y-42480346D01*
X352153115Y-42480346D01*
X352153115Y-42431894D01*
X352346280Y-42238087D01*
X352883279Y-42238087D01*
X353076444Y-42431894D01*
G37*
G36*
X354222340Y-42432169D02*
G01*
X354222340Y-43287355D01*
X354071032Y-43287355D01*
X354071032Y-43102157D01*
X353878416Y-43287355D01*
X353509670Y-43287355D01*
X353337204Y-43114797D01*
X353337204Y-42894429D01*
X353492634Y-42894429D01*
X353492634Y-43070650D01*
X353576715Y-43152532D01*
X353847000Y-43152532D01*
X354066910Y-42940591D01*
X354066910Y-42812546D01*
X353576715Y-42812546D01*
X353492634Y-42894429D01*
X353337204Y-42894429D01*
X353337204Y-42848267D01*
X353509670Y-42677724D01*
X354066910Y-42677724D01*
X354066910Y-42476590D01*
X353962130Y-42372909D01*
X353606115Y-42372909D01*
X353501335Y-42476590D01*
X353501335Y-42563419D01*
X353345905Y-42563419D01*
X353345905Y-42432169D01*
X353539071Y-42238087D01*
X354027068Y-42238087D01*
X354222340Y-42432169D01*
G37*
G36*
X354528621Y-42238087D02*
G01*
X354679837Y-42238087D01*
X354679837Y-42425574D01*
X354866958Y-42238087D01*
X355138251Y-42238087D01*
X355138251Y-42377122D01*
X354906983Y-42377122D01*
X354684051Y-42600421D01*
X354684051Y-43287355D01*
X354528621Y-43287355D01*
X354528621Y-42238087D01*
G37*
G36*
X356183213Y-43287355D02*
G01*
X356031996Y-43287355D01*
X356031996Y-43095654D01*
X355841121Y-43287355D01*
X355453049Y-43287355D01*
X355259884Y-43093548D01*
X355259884Y-42480346D01*
X355415314Y-42480346D01*
X355415314Y-43045096D01*
X355520185Y-43148319D01*
X355807507Y-43148319D01*
X356027783Y-42927035D01*
X356027783Y-42554076D01*
X355826466Y-42377122D01*
X355520185Y-42377122D01*
X355415314Y-42480346D01*
X355259884Y-42480346D01*
X355259884Y-42431894D01*
X355453049Y-42238087D01*
X355855775Y-42238087D01*
X356027783Y-42389762D01*
X356027783Y-41780865D01*
X356183213Y-41780865D01*
X356183213Y-43287355D01*
G37*
G36*
X357666988Y-41810174D02*
G01*
X357830845Y-41810174D01*
X357018066Y-43287355D01*
X356854301Y-43287355D01*
X357666988Y-41810174D01*
G37*
G36*
X358778263Y-42681938D02*
G01*
X358708928Y-42681938D01*
X358614406Y-42777101D01*
X358614406Y-42867684D01*
X358458976Y-42867684D01*
X358458976Y-42736984D01*
X358652234Y-42542902D01*
X358811877Y-42542902D01*
X359089306Y-42749715D01*
X359150214Y-42749715D01*
X359253163Y-42646125D01*
X359253163Y-42564060D01*
X359408593Y-42564060D01*
X359408593Y-42694669D01*
X359215335Y-42888750D01*
X359055692Y-42888750D01*
X358778263Y-42681938D01*
G37*
G36*
X360652766Y-42001965D02*
G01*
X360652766Y-42415133D01*
X360539834Y-42527332D01*
X360670351Y-42660230D01*
X360670351Y-43095929D01*
X360481857Y-43287355D01*
X359850611Y-43287355D01*
X359656255Y-43095929D01*
X359656255Y-42710972D01*
X359814524Y-42710972D01*
X359814524Y-43043081D01*
X359922144Y-43146671D01*
X360410324Y-43146671D01*
X360512082Y-43043081D01*
X360512082Y-42710972D01*
X360410324Y-42607382D01*
X359922144Y-42607382D01*
X359814524Y-42710972D01*
X359656255Y-42710972D01*
X359656255Y-42660230D01*
X359787963Y-42527332D01*
X359679702Y-42415133D01*
X359679702Y-42055180D01*
X359837972Y-42055180D01*
X359837972Y-42364025D01*
X359943210Y-42468347D01*
X360389258Y-42468347D01*
X360494496Y-42364025D01*
X360494496Y-42055180D01*
X360389258Y-41950858D01*
X359943210Y-41950858D01*
X359837972Y-42055180D01*
X359679702Y-42055180D01*
X359679702Y-42001965D01*
X359871677Y-41810174D01*
X360460791Y-41810174D01*
X360652766Y-42001965D01*
G37*
G36*
X361981935Y-42018727D02*
G01*
X361981935Y-43078802D01*
X361773016Y-43287355D01*
X361165035Y-43287355D01*
X360956115Y-43078802D01*
X360956115Y-42071666D01*
X361114385Y-42071666D01*
X361114385Y-43025862D01*
X361236842Y-43146671D01*
X361701209Y-43146671D01*
X361823666Y-43025862D01*
X361823666Y-42071666D01*
X361701209Y-41950858D01*
X361236842Y-41950858D01*
X361114385Y-42071666D01*
X360956115Y-42071666D01*
X360956115Y-42018727D01*
X361165035Y-41810174D01*
X361773016Y-41810174D01*
X361981935Y-42018727D01*
G37*
G36*
X362674913Y-43287355D02*
G01*
X362513347Y-43287355D01*
X363323103Y-41810174D01*
X363487692Y-41810174D01*
X362674913Y-43287355D01*
G37*
G36*
X363750742Y-42651346D02*
G01*
X363750742Y-43149602D01*
X363612165Y-43287355D01*
X363291413Y-43287355D01*
X363152835Y-43149602D01*
X363152835Y-42697416D01*
X363293519Y-42697416D01*
X363293519Y-43103531D01*
X363356809Y-43164256D01*
X363546769Y-43164256D01*
X363610058Y-43103531D01*
X363610058Y-42697416D01*
X363546769Y-42636692D01*
X363356809Y-42636692D01*
X363293519Y-42697416D01*
X363152835Y-42697416D01*
X363152835Y-42651346D01*
X363291413Y-42513593D01*
X363612165Y-42513593D01*
X363750742Y-42651346D01*
G37*
G36*
X362836297Y-41948110D02*
G01*
X362836297Y-42451861D01*
X362697719Y-42589797D01*
X362382829Y-42589797D01*
X362244252Y-42451861D01*
X362244252Y-41994638D01*
X362384936Y-41994638D01*
X362384936Y-42405333D01*
X362447035Y-42466699D01*
X362633514Y-42466699D01*
X362695613Y-42405333D01*
X362695613Y-41994638D01*
X362633514Y-41933272D01*
X362447035Y-41933272D01*
X362384936Y-41994638D01*
X362244252Y-41994638D01*
X362244252Y-41948110D01*
X362382829Y-41810174D01*
X362697719Y-41810174D01*
X362836297Y-41948110D01*
G37*
G36*
X364624154Y-42377122D02*
G01*
X364436576Y-42377122D01*
X364436576Y-42238087D01*
X364624154Y-42238087D01*
X364624154Y-42004988D01*
X364806970Y-41821897D01*
X365110686Y-41821897D01*
X365110686Y-41956719D01*
X364874473Y-41956719D01*
X364779584Y-42049135D01*
X364779584Y-42238087D01*
X365110686Y-42238087D01*
X365110686Y-42377122D01*
X364779584Y-42377122D01*
X364779584Y-43287355D01*
X364624154Y-43287355D01*
X364624154Y-42377122D01*
G37*
G36*
X365296799Y-43093548D02*
G01*
X365296799Y-42238087D01*
X365452229Y-42238087D01*
X365452229Y-43045096D01*
X365557009Y-43148319D01*
X365766570Y-43148319D01*
X366026505Y-42887010D01*
X366026505Y-42238087D01*
X366181935Y-42238087D01*
X366181935Y-43287355D01*
X366030718Y-43287355D01*
X366030718Y-43064055D01*
X365808518Y-43287355D01*
X365489965Y-43287355D01*
X365296799Y-43093548D01*
G37*
G36*
X366445718Y-43114614D02*
G01*
X366445718Y-42984188D01*
X366601148Y-42984188D01*
X366601148Y-43070467D01*
X366685411Y-43152532D01*
X367071468Y-43152532D01*
X367154999Y-43070467D01*
X367154999Y-42908442D01*
X367071468Y-42824270D01*
X366620382Y-42824270D01*
X366454419Y-42659223D01*
X366454419Y-42411103D01*
X366626610Y-42238087D01*
X367117630Y-42238087D01*
X367289821Y-42411103D01*
X367289821Y-42542536D01*
X367134391Y-42542536D01*
X367134391Y-42455616D01*
X367050493Y-42372909D01*
X366693746Y-42372909D01*
X366609849Y-42455616D01*
X366609849Y-42610405D01*
X366693746Y-42695310D01*
X367138512Y-42695310D01*
X367310429Y-42866310D01*
X367310429Y-43114614D01*
X367138512Y-43287355D01*
X366618275Y-43287355D01*
X366445718Y-43114614D01*
G37*
G36*
X367560930Y-41999676D02*
G01*
X367560930Y-41907901D01*
X367624586Y-41845345D01*
X367717002Y-41845345D01*
X367777818Y-41907901D01*
X367777818Y-41999676D01*
X367717002Y-42062232D01*
X367624586Y-42062232D01*
X367560930Y-41999676D01*
G37*
G36*
X367593079Y-42238087D02*
G01*
X367748509Y-42238087D01*
X367748509Y-43287355D01*
X367593079Y-43287355D01*
X367593079Y-42238087D01*
G37*
G36*
X368983981Y-42431894D02*
G01*
X368983981Y-43093548D01*
X368790815Y-43287355D01*
X368253817Y-43287355D01*
X368060651Y-43093548D01*
X368060651Y-42480346D01*
X368216081Y-42480346D01*
X368216081Y-43045096D01*
X368320953Y-43148319D01*
X368723679Y-43148319D01*
X368828551Y-43045096D01*
X368828551Y-42480346D01*
X368723679Y-42377122D01*
X368320953Y-42377122D01*
X368216081Y-42480346D01*
X368060651Y-42480346D01*
X368060651Y-42431894D01*
X368253817Y-42238087D01*
X368790815Y-42238087D01*
X368983981Y-42431894D01*
G37*
G36*
X369279912Y-42238087D02*
G01*
X369431128Y-42238087D01*
X369431128Y-42461386D01*
X369653695Y-42238087D01*
X369974813Y-42238087D01*
X370168070Y-42431894D01*
X370168070Y-43287355D01*
X370012640Y-43287355D01*
X370012640Y-42480346D01*
X369907677Y-42377122D01*
X369695643Y-42377122D01*
X369435342Y-42638432D01*
X369435342Y-43287355D01*
X369279912Y-43287355D01*
X369279912Y-42238087D01*
G37*
G36*
X341913966Y-44698183D02*
G01*
X341913966Y-44617858D01*
X341154859Y-44617858D01*
X341154859Y-44477174D01*
X342072235Y-44477174D01*
X342072235Y-44708808D01*
X341498784Y-45954355D01*
X341330989Y-45954355D01*
X341913966Y-44698183D01*
G37*
G36*
X343275376Y-44668691D02*
G01*
X343275376Y-45762288D01*
X343083401Y-45954355D01*
X342506011Y-45954355D01*
X342314036Y-45762288D01*
X342314036Y-45595409D01*
X342472305Y-45595409D01*
X342472305Y-45708799D01*
X342577635Y-45813671D01*
X343011777Y-45813671D01*
X343117106Y-45708799D01*
X343117106Y-45238753D01*
X342967538Y-45385757D01*
X342484945Y-45385757D01*
X342290588Y-45194240D01*
X342290588Y-44721722D01*
X342448858Y-44721722D01*
X342448858Y-45141209D01*
X342556569Y-45245073D01*
X342925315Y-45245073D01*
X343117106Y-45052274D01*
X343117106Y-44721722D01*
X343011777Y-44617858D01*
X342556569Y-44617858D01*
X342448858Y-44721722D01*
X342290588Y-44721722D01*
X342290588Y-44668691D01*
X342484945Y-44477174D01*
X343083401Y-44477174D01*
X343275376Y-44668691D01*
G37*
G36*
X344441879Y-45467823D02*
G01*
X344069745Y-45467823D01*
X344069745Y-45831256D01*
X343914315Y-45831256D01*
X343914315Y-45467823D01*
X343539158Y-45467823D01*
X343539158Y-45328788D01*
X343914315Y-45328788D01*
X343914315Y-44969567D01*
X344069745Y-44969567D01*
X344069745Y-45328788D01*
X344441879Y-45328788D01*
X344441879Y-45467823D01*
G37*
G36*
X345674329Y-44668874D02*
G01*
X345674329Y-44834837D01*
X345516059Y-44834837D01*
X345516059Y-44722088D01*
X345410821Y-44617858D01*
X344964773Y-44617858D01*
X344859535Y-44722088D01*
X344859535Y-45219977D01*
X345029986Y-45051633D01*
X345490780Y-45051633D01*
X345686053Y-45243425D01*
X345686053Y-45762563D01*
X345490780Y-45954355D01*
X344893240Y-45954355D01*
X344701265Y-45762563D01*
X344701265Y-45407281D01*
X344859535Y-45407281D01*
X344859535Y-45709440D01*
X344964773Y-45813671D01*
X345419248Y-45813671D01*
X345527783Y-45709440D01*
X345527783Y-45296547D01*
X345419248Y-45192317D01*
X345072026Y-45192317D01*
X344859535Y-45407281D01*
X344701265Y-45407281D01*
X344701265Y-44668874D01*
X344893240Y-44477174D01*
X345482354Y-44477174D01*
X345674329Y-44668874D01*
G37*
G36*
X346490588Y-44477174D02*
G01*
X346648858Y-44477174D01*
X346648858Y-45815319D01*
X347399172Y-45815319D01*
X347399172Y-45954355D01*
X346490588Y-45954355D01*
X346490588Y-44477174D01*
G37*
G36*
X348649207Y-44671164D02*
G01*
X348649207Y-45146979D01*
X348455858Y-45343076D01*
X347775794Y-45343076D01*
X347775794Y-45954355D01*
X347617525Y-45954355D01*
X347617525Y-45204040D01*
X347775794Y-45204040D01*
X348388539Y-45204040D01*
X348493777Y-45100451D01*
X348493777Y-44719798D01*
X348388539Y-44616209D01*
X347775794Y-44616209D01*
X347775794Y-45204040D01*
X347617525Y-45204040D01*
X347617525Y-44477174D01*
X348457965Y-44477174D01*
X348649207Y-44671164D01*
G37*
G36*
X348817734Y-45352235D02*
G01*
X349433226Y-45352235D01*
X349433226Y-45491270D01*
X348817734Y-45491270D01*
X348817734Y-45352235D01*
G37*
G36*
X349714594Y-44477174D02*
G01*
X349888892Y-44477174D01*
X350359670Y-45620963D01*
X350363883Y-45620963D01*
X350834661Y-44477174D01*
X351010058Y-44477174D01*
X351010058Y-45954355D01*
X350857651Y-45954355D01*
X350857651Y-44787393D01*
X350853437Y-44787393D01*
X350424516Y-45806710D01*
X350298945Y-45806710D01*
X349870024Y-44787393D01*
X349870024Y-45954355D01*
X349714594Y-45954355D01*
X349714594Y-44477174D01*
G37*
G36*
X351721629Y-45194607D02*
G01*
X351238669Y-44477174D01*
X351417180Y-44477174D01*
X351811938Y-45070134D01*
X352202574Y-44477174D01*
X352381085Y-44477174D01*
X351900140Y-45203125D01*
X352402059Y-45954355D01*
X352223548Y-45954355D01*
X351809831Y-45327597D01*
X351396114Y-45954355D01*
X351217695Y-45954355D01*
X351721629Y-45194607D01*
G37*
G36*
X354156394Y-44671072D02*
G01*
X354156394Y-45136996D01*
X353988325Y-45307722D01*
X354168118Y-45502078D01*
X354168118Y-45954355D01*
X354009849Y-45954355D01*
X354009849Y-45546499D01*
X353805143Y-45333001D01*
X353282982Y-45333001D01*
X353282982Y-45954355D01*
X353124713Y-45954355D01*
X353124713Y-45193965D01*
X353282982Y-45193965D01*
X353895726Y-45193965D01*
X354000964Y-45090651D01*
X354000964Y-44719524D01*
X353895726Y-44616209D01*
X353282982Y-44616209D01*
X353282982Y-45193965D01*
X353124713Y-45193965D01*
X353124713Y-44477174D01*
X353965152Y-44477174D01*
X354156394Y-44671072D01*
G37*
G36*
X354490519Y-44477174D02*
G01*
X355440135Y-44477174D01*
X355440135Y-44617858D01*
X354648788Y-44617858D01*
X354648788Y-45139560D01*
X355378586Y-45139560D01*
X355378586Y-45280244D01*
X354648788Y-45280244D01*
X354648788Y-45813671D01*
X355440135Y-45813671D01*
X355440135Y-45954355D01*
X354490519Y-45954355D01*
X354490519Y-44477174D01*
G37*
G36*
X357326178Y-44706884D02*
G01*
X357326178Y-45724644D01*
X357096285Y-45954355D01*
X356430601Y-45954355D01*
X356200707Y-45724644D01*
X356200707Y-44759915D01*
X356358976Y-44759915D01*
X356358976Y-45671613D01*
X356502225Y-45813671D01*
X357024660Y-45813671D01*
X357167909Y-45671613D01*
X357167909Y-44759915D01*
X357024660Y-44617858D01*
X356502225Y-44617858D01*
X356358976Y-44759915D01*
X356200707Y-44759915D01*
X356200707Y-44706884D01*
X356430601Y-44477174D01*
X357096285Y-44477174D01*
X357326178Y-44706884D01*
G37*
G36*
X357642717Y-44477174D02*
G01*
X357800986Y-44477174D01*
X357800986Y-45815319D01*
X358551300Y-45815319D01*
X358551300Y-45954355D01*
X357642717Y-45954355D01*
X357642717Y-44477174D01*
G37*
G36*
X358769653Y-44477174D02*
G01*
X359719270Y-44477174D01*
X359719270Y-44617858D01*
X358927923Y-44617858D01*
X358927923Y-45139560D01*
X359657720Y-45139560D01*
X359657720Y-45280244D01*
X358927923Y-45280244D01*
X358927923Y-45813671D01*
X359719270Y-45813671D01*
X359719270Y-45954355D01*
X358769653Y-45954355D01*
X358769653Y-44477174D01*
G37*
G36*
X361070421Y-44706884D02*
G01*
X361070421Y-45724644D01*
X360840619Y-45954355D01*
X359991845Y-45954355D01*
X359991845Y-45813671D01*
X360150114Y-45813671D01*
X360768995Y-45813671D01*
X360912152Y-45671613D01*
X360912152Y-44759915D01*
X360768995Y-44617858D01*
X360150114Y-44617858D01*
X360150114Y-45813671D01*
X359991845Y-45813671D01*
X359991845Y-44477174D01*
X360840619Y-44477174D01*
X361070421Y-44706884D01*
G37*
D12*
G36*
X342999198Y-39205473D02*
G01*
X342999198Y-41319853D01*
X342537274Y-41319853D01*
X342537274Y-40329601D01*
X342289520Y-40577355D01*
X341647161Y-40577355D01*
X341286750Y-40214501D01*
X341286750Y-39342860D01*
X341748675Y-39342860D01*
X341748675Y-40063071D01*
X341867285Y-40186566D01*
X342226780Y-40186566D01*
X342537274Y-39851190D01*
X342537274Y-39342860D01*
X342418663Y-39219364D01*
X341867285Y-39219364D01*
X341748675Y-39342860D01*
X341286750Y-39342860D01*
X341286750Y-39191429D01*
X341647161Y-38828576D01*
X342624743Y-38828576D01*
X342999198Y-39205473D01*
G37*
G36*
X343858933Y-39069308D02*
G01*
X344113709Y-38828576D01*
X344749045Y-38828576D01*
X345109456Y-39191429D01*
X345109456Y-40214501D01*
X344749045Y-40577355D01*
X343771463Y-40577355D01*
X343397009Y-40200457D01*
X343397009Y-39537033D01*
X343858933Y-39537033D01*
X343858933Y-40048874D01*
X343991587Y-40186566D01*
X344514878Y-40186566D01*
X344647532Y-40048874D01*
X344647532Y-39357056D01*
X344514878Y-39219364D01*
X344172938Y-39219364D01*
X343858933Y-39537033D01*
X343397009Y-39537033D01*
X343397009Y-38066538D01*
X343858933Y-38066538D01*
X343858933Y-39069308D01*
G37*
G36*
X345514594Y-38115387D02*
G01*
X345955452Y-38115387D01*
X346681312Y-39705255D01*
X346688334Y-39705255D01*
X347417704Y-38115387D01*
X347862073Y-38115387D01*
X347862073Y-40577355D01*
X347400149Y-40577355D01*
X347400149Y-39079077D01*
X347393279Y-39079077D01*
X346831368Y-40232819D01*
X346538277Y-40232819D01*
X345976518Y-39079077D01*
X345976518Y-40577355D01*
X345514594Y-40577355D01*
X345514594Y-38115387D01*
G37*
G36*
X348962845Y-39307597D02*
G01*
X348143868Y-38115387D01*
X348679371Y-38115387D01*
X349232428Y-38924288D01*
X349785333Y-38115387D01*
X350320835Y-38115387D01*
X349501859Y-39321794D01*
X350355793Y-40577355D01*
X349820290Y-40577355D01*
X349232428Y-39708613D01*
X348644413Y-40577355D01*
X348108911Y-40577355D01*
X348962845Y-39307597D01*
G37*
D13*
G36*
X314396824Y-126691141D02*
G01*
X314485850Y-126734189D01*
X314497959Y-126747031D01*
X314501604Y-126760476D01*
X314495097Y-126772012D01*
X314466983Y-126783557D01*
X314436516Y-126795043D01*
X314420912Y-126808836D01*
X314371728Y-126916913D01*
X314296440Y-127088097D01*
X314581197Y-127088097D01*
X314637892Y-127001910D01*
X314658398Y-126980516D01*
X314676726Y-126974616D01*
X314703753Y-126984836D01*
X314790116Y-127040836D01*
X314868349Y-127105846D01*
X314883630Y-127134259D01*
X314877712Y-127149107D01*
X314853476Y-127169778D01*
X314795428Y-127199380D01*
X314772256Y-128062351D01*
X314761250Y-128251643D01*
X314750274Y-128342528D01*
X314729458Y-128413535D01*
X314694770Y-128475885D01*
X314644079Y-128528450D01*
X314566909Y-128575628D01*
X314486084Y-128608767D01*
X314445459Y-128616569D01*
X314431983Y-128610172D01*
X314420180Y-128585061D01*
X314400267Y-128530282D01*
X314378231Y-128492646D01*
X314346795Y-128462159D01*
X314292044Y-128429723D01*
X314222705Y-128401794D01*
X314107213Y-128366708D01*
X314117746Y-128322745D01*
X314345140Y-128352017D01*
X314432270Y-128358282D01*
X314491956Y-128354058D01*
X314521388Y-128344635D01*
X314541266Y-128326992D01*
X314553903Y-128299480D01*
X314570664Y-128153576D01*
X314587425Y-127781991D01*
X314597958Y-127159446D01*
X314262735Y-127159446D01*
X314196345Y-127279647D01*
X314093092Y-127438960D01*
X313943173Y-127645978D01*
X313907453Y-127622897D01*
X314026126Y-127348087D01*
X314101901Y-127140304D01*
X314161849Y-126926182D01*
X314227014Y-126626020D01*
X314396824Y-126691141D01*
G37*
G36*
X313523204Y-126671445D02*
G01*
X313606943Y-126699568D01*
X313701465Y-126741608D01*
X313711160Y-126753000D01*
X313714104Y-126764689D01*
X313706923Y-126781397D01*
X313680490Y-126794090D01*
X313656882Y-126807882D01*
X313624803Y-126847579D01*
X313472579Y-127119513D01*
X313676369Y-127119513D01*
X313733064Y-127035524D01*
X313749329Y-127017463D01*
X313764571Y-127012443D01*
X313788786Y-127021030D01*
X313871732Y-127069229D01*
X313931281Y-127111484D01*
X313956190Y-127137897D01*
X313962133Y-127154317D01*
X313956417Y-127169689D01*
X313934114Y-127188968D01*
X313882265Y-127214126D01*
X313882265Y-128144234D01*
X313884372Y-128274385D01*
X313886479Y-128345734D01*
X313881166Y-128363594D01*
X313843339Y-128386675D01*
X313763563Y-128418091D01*
X313704670Y-128433845D01*
X313696699Y-128429297D01*
X313693130Y-128410764D01*
X313693130Y-128278781D01*
X313350671Y-128278781D01*
X313350671Y-128402429D01*
X313345907Y-128422991D01*
X313331711Y-128438149D01*
X313248822Y-128474877D01*
X313166939Y-128498966D01*
X313154550Y-128493386D01*
X313151185Y-128473778D01*
X313158990Y-128375342D01*
X313161718Y-128265867D01*
X313161718Y-128211553D01*
X313350671Y-128211553D01*
X313693130Y-128211553D01*
X313693130Y-127730059D01*
X313350671Y-127730059D01*
X313350671Y-128211553D01*
X313161718Y-128211553D01*
X313161718Y-127660724D01*
X313350671Y-127660724D01*
X313693130Y-127660724D01*
X313693130Y-127186741D01*
X313350671Y-127186741D01*
X313350671Y-127660724D01*
X313161718Y-127660724D01*
X313161718Y-127195167D01*
X313155399Y-127016656D01*
X313267321Y-127061278D01*
X313367524Y-127113193D01*
X313405149Y-126920567D01*
X313425690Y-126768040D01*
X313432645Y-126649193D01*
X313523204Y-126671445D01*
G37*
G36*
X314256694Y-127643773D02*
G01*
X314328131Y-127703864D01*
X314405800Y-127783640D01*
X314419594Y-127811775D01*
X314424668Y-127850776D01*
X314419268Y-127899498D01*
X314403328Y-127943932D01*
X314376399Y-127985232D01*
X314327702Y-128032789D01*
X314297631Y-128044033D01*
X314282566Y-128037738D01*
X314267954Y-128013762D01*
X314254583Y-127956930D01*
X314235424Y-127868083D01*
X314198987Y-127761566D01*
X314150730Y-127658068D01*
X314095031Y-127569408D01*
X314118112Y-127540007D01*
X314256694Y-127643773D01*
G37*
G36*
X314066499Y-129189853D02*
G01*
X314133554Y-129216582D01*
X314145590Y-129230833D01*
X314133534Y-129247106D01*
X314065814Y-129285513D01*
X314065814Y-129430410D01*
X314562421Y-129430410D01*
X314652729Y-129295955D01*
X314671108Y-129276175D01*
X314687442Y-129270767D01*
X314708350Y-129279263D01*
X314761906Y-129322241D01*
X314864763Y-129413649D01*
X314902821Y-129452759D01*
X314911016Y-129472359D01*
X314903853Y-129485486D01*
X314875387Y-129491227D01*
X314065814Y-129491227D01*
X314065814Y-129648305D01*
X314356707Y-129648305D01*
X314413402Y-129587764D01*
X314428440Y-129576370D01*
X314440605Y-129573201D01*
X314457694Y-129579545D01*
X314511954Y-129614142D01*
X314596950Y-129673859D01*
X314617710Y-129693969D01*
X314623237Y-129710496D01*
X314612616Y-129725740D01*
X314558207Y-129751437D01*
X314558207Y-129844219D01*
X314560314Y-129905402D01*
X314564527Y-129947625D01*
X314560695Y-129959053D01*
X314546667Y-129971805D01*
X314476325Y-130000290D01*
X314426490Y-130013589D01*
X314396458Y-130017051D01*
X314383965Y-130007818D01*
X314377590Y-129964386D01*
X314065814Y-129964386D01*
X314065814Y-130164604D01*
X314415417Y-130164604D01*
X314467899Y-130095087D01*
X314483852Y-130078602D01*
X314498307Y-130074021D01*
X314520828Y-130082763D01*
X314599057Y-130132547D01*
X314671668Y-130188839D01*
X314684145Y-130207744D01*
X314673763Y-130223728D01*
X314619024Y-130257844D01*
X314619024Y-130385888D01*
X314661064Y-130385888D01*
X314751373Y-130264072D01*
X314766717Y-130249130D01*
X314778667Y-130245204D01*
X314795230Y-130252548D01*
X314848002Y-130293473D01*
X314941424Y-130380668D01*
X314971357Y-130418443D01*
X314978152Y-130438370D01*
X314970718Y-130451402D01*
X314940417Y-130457238D01*
X314619024Y-130457238D01*
X314619024Y-130606531D01*
X314621039Y-130696107D01*
X314625344Y-130746024D01*
X314621259Y-130762913D01*
X314608491Y-130777165D01*
X314531921Y-130808306D01*
X314475728Y-130823328D01*
X314444818Y-130827083D01*
X314434616Y-130821319D01*
X314430072Y-130797957D01*
X314430072Y-130702427D01*
X314065814Y-130702427D01*
X314065814Y-130936442D01*
X314060256Y-131004331D01*
X314046855Y-131044062D01*
X314016853Y-131076605D01*
X313938685Y-131125486D01*
X313856335Y-131164689D01*
X313826395Y-131172564D01*
X313807533Y-131165177D01*
X313792872Y-131138950D01*
X313760886Y-131063826D01*
X313723538Y-131020248D01*
X313664776Y-130986860D01*
X313526159Y-130933145D01*
X313538799Y-130887349D01*
X313738815Y-130918468D01*
X313806428Y-130924719D01*
X313848327Y-130920319D01*
X313864130Y-130911163D01*
X313871407Y-130894099D01*
X313874663Y-130858315D01*
X313874663Y-130702427D01*
X313290953Y-130702427D01*
X313237707Y-130706558D01*
X313202751Y-130716990D01*
X313164924Y-130626590D01*
X313211230Y-130634415D01*
X313269979Y-130637306D01*
X313874663Y-130637306D01*
X314065814Y-130637306D01*
X314430072Y-130637306D01*
X314430072Y-130457238D01*
X314065814Y-130457238D01*
X314065814Y-130637306D01*
X313874663Y-130637306D01*
X313874663Y-130457238D01*
X313158696Y-130457238D01*
X313105483Y-130461492D01*
X313070494Y-130472259D01*
X313032667Y-130375355D01*
X313078885Y-130383045D01*
X313137630Y-130385888D01*
X313874663Y-130385888D01*
X314065814Y-130385888D01*
X314430072Y-130385888D01*
X314430072Y-130227619D01*
X314065814Y-130227619D01*
X314065814Y-130385888D01*
X313874663Y-130385888D01*
X313874663Y-130227619D01*
X313314034Y-130227619D01*
X313260725Y-130231501D01*
X313225832Y-130241266D01*
X313192218Y-130154071D01*
X313238517Y-130161762D01*
X313297273Y-130164604D01*
X313874663Y-130164604D01*
X313874663Y-129964386D01*
X313538799Y-129964386D01*
X313534456Y-129988524D01*
X313523045Y-130002397D01*
X313452703Y-130030790D01*
X313401075Y-130045000D01*
X313370821Y-130048650D01*
X313359002Y-130043785D01*
X313356075Y-130027584D01*
X313362763Y-129899357D01*
X313538799Y-129899357D01*
X313874663Y-129899357D01*
X314065814Y-129899357D01*
X314377590Y-129899357D01*
X314377590Y-129717640D01*
X314065814Y-129717640D01*
X314065814Y-129899357D01*
X313874663Y-129899357D01*
X313874663Y-129717640D01*
X313538799Y-129717640D01*
X313538799Y-129899357D01*
X313362763Y-129899357D01*
X313366608Y-129825626D01*
X313366608Y-129758306D01*
X313360288Y-129579429D01*
X313471673Y-129617067D01*
X313538799Y-129648305D01*
X313874663Y-129648305D01*
X313874663Y-129491227D01*
X313198538Y-129491227D01*
X313145305Y-129495407D01*
X313110336Y-129505973D01*
X313072600Y-129419877D01*
X313118819Y-129427567D01*
X313177564Y-129430410D01*
X313874663Y-129430410D01*
X313874663Y-129327462D01*
X313870450Y-129142631D01*
X314066499Y-129189853D01*
G37*
G36*
X320418122Y-101814895D02*
G01*
X320513469Y-101846402D01*
X320525682Y-101857212D01*
X320529222Y-101868476D01*
X320523430Y-101878492D01*
X320497807Y-101889450D01*
X320470701Y-101903294D01*
X320451736Y-101928376D01*
X320406674Y-102063748D01*
X320372876Y-102167281D01*
X320332302Y-102267446D01*
X320598465Y-102267446D01*
X320684561Y-102143524D01*
X320704816Y-102121919D01*
X320721289Y-102116230D01*
X320745959Y-102128521D01*
X320833671Y-102201226D01*
X320913365Y-102282108D01*
X320928193Y-102311502D01*
X320920566Y-102329783D01*
X320894579Y-102336689D01*
X320606892Y-102336689D01*
X320720281Y-102380928D01*
X320735303Y-102390806D01*
X320739149Y-102399887D01*
X320733955Y-102409053D01*
X320709748Y-102422968D01*
X320684136Y-102437165D01*
X320673020Y-102449346D01*
X320659373Y-102513552D01*
X320635577Y-102673099D01*
X320595351Y-102848317D01*
X320543697Y-103017532D01*
X320491487Y-103147362D01*
X320587990Y-103278187D01*
X320693625Y-103385854D01*
X320808808Y-103472633D01*
X320934513Y-103540013D01*
X320928193Y-103569413D01*
X320833961Y-103584744D01*
X320771116Y-103614219D01*
X320730906Y-103655509D01*
X320714647Y-103673654D01*
X320699490Y-103678682D01*
X320679489Y-103671729D01*
X320636405Y-103639584D01*
X320553586Y-103558972D01*
X320449466Y-103436805D01*
X320376265Y-103323766D01*
X320279331Y-103421540D01*
X320153114Y-103521303D01*
X319992616Y-103623189D01*
X319792189Y-103727042D01*
X319769108Y-103685001D01*
X319970351Y-103542954D01*
X320122133Y-103412430D01*
X320232712Y-103292249D01*
X320309221Y-103180976D01*
X320269055Y-103064141D01*
X320235582Y-102918532D01*
X320210559Y-102739102D01*
X320196106Y-102520329D01*
X320082991Y-102693436D01*
X320049377Y-102674569D01*
X320138380Y-102450720D01*
X320238054Y-102450720D01*
X320283111Y-102652649D01*
X320337230Y-102827875D01*
X320399346Y-102979292D01*
X320452265Y-102788981D01*
X320490433Y-102575660D01*
X320512370Y-102336689D01*
X320298779Y-102336689D01*
X320238054Y-102450720D01*
X320138380Y-102450720D01*
X320144223Y-102436024D01*
X320201326Y-102247388D01*
X320240001Y-102051344D01*
X320273592Y-101780274D01*
X320418122Y-101814895D01*
G37*
G36*
X319518881Y-101831748D02*
G01*
X319559864Y-101853871D01*
X319568524Y-101868476D01*
X319561025Y-101881017D01*
X319528407Y-101891557D01*
X319507671Y-101901409D01*
X319487282Y-101926270D01*
X319421886Y-102080509D01*
X319370750Y-102204661D01*
X319309046Y-102336689D01*
X319385756Y-102363954D01*
X319414607Y-102380986D01*
X319420696Y-102391552D01*
X319413598Y-102403007D01*
X319374167Y-102433776D01*
X319374167Y-103630230D01*
X319370327Y-103648964D01*
X319359421Y-103661737D01*
X319280745Y-103695351D01*
X319206189Y-103718524D01*
X319199076Y-103715279D01*
X319197763Y-103703869D01*
X319205017Y-103577257D01*
X319208296Y-103321293D01*
X319208296Y-102533061D01*
X319075164Y-102746709D01*
X318960451Y-102897410D01*
X318926928Y-102876435D01*
X319003749Y-102745756D01*
X319083842Y-102577568D01*
X319166959Y-102365193D01*
X319252701Y-102101348D01*
X319340554Y-101778167D01*
X319518881Y-101831748D01*
G37*
G36*
X319905579Y-101838068D02*
G01*
X319918218Y-101849516D01*
X319907822Y-101865996D01*
X319853097Y-101902090D01*
X319853097Y-102282193D01*
X319914188Y-102282193D01*
X319973173Y-102185564D01*
X319987863Y-102171179D01*
X320005688Y-102166605D01*
X320026541Y-102173386D01*
X320063573Y-102202325D01*
X320133091Y-102265340D01*
X320157670Y-102294199D01*
X320164690Y-102319928D01*
X320157165Y-102340067D01*
X320133091Y-102347222D01*
X319853097Y-102347222D01*
X319853097Y-102733553D01*
X319890283Y-102733553D01*
X319923714Y-102685102D01*
X319935338Y-102673606D01*
X319946795Y-102670264D01*
X319964158Y-102676700D01*
X320021167Y-102712304D01*
X320074018Y-102752700D01*
X320082991Y-102765977D01*
X320075245Y-102777558D01*
X320032982Y-102804903D01*
X320032982Y-103227138D01*
X320035089Y-103311127D01*
X320039393Y-103365807D01*
X320027777Y-103386502D01*
X319973265Y-103419387D01*
X319897702Y-103449796D01*
X319891190Y-103446066D01*
X319888268Y-103430836D01*
X319888268Y-103294365D01*
X319675594Y-103294365D01*
X319675594Y-103456115D01*
X319670281Y-103479196D01*
X319639873Y-103503285D01*
X319582079Y-103528472D01*
X319539031Y-103537998D01*
X319531504Y-103534716D01*
X319528590Y-103523252D01*
X319532803Y-103376156D01*
X319532803Y-103237671D01*
X319675594Y-103237671D01*
X319888268Y-103237671D01*
X319888268Y-102786035D01*
X319675594Y-102786035D01*
X319675594Y-103237671D01*
X319532803Y-103237671D01*
X319532803Y-102853080D01*
X319526483Y-102674477D01*
X319662954Y-102733553D01*
X319699774Y-102733553D01*
X319699774Y-102347222D01*
X319544710Y-102347222D01*
X319493026Y-102350743D01*
X319456691Y-102359862D01*
X319418589Y-102271660D01*
X319464797Y-102279350D01*
X319523461Y-102282193D01*
X319699774Y-102282193D01*
X319699774Y-101973439D01*
X319693729Y-101788608D01*
X319905579Y-101838068D01*
G37*
G36*
X320228254Y-104923184D02*
G01*
X320336096Y-104815852D01*
X320445241Y-104691580D01*
X320555784Y-104548852D01*
X320677508Y-104641267D01*
X320736310Y-104696954D01*
X320742630Y-104714815D01*
X320732097Y-104727363D01*
X320711122Y-104729469D01*
X320692255Y-104727363D01*
X320661324Y-104733862D01*
X320612479Y-104759053D01*
X320398901Y-104886079D01*
X320228254Y-104974292D01*
X320228254Y-105258133D01*
X320233844Y-105324799D01*
X320244008Y-105343313D01*
X320268101Y-105350288D01*
X320343751Y-105357967D01*
X320467673Y-105363188D01*
X320584435Y-105358015D01*
X320632446Y-105347434D01*
X320662120Y-105322147D01*
X320685019Y-105266651D01*
X320700109Y-105184981D01*
X320723853Y-105004151D01*
X320767909Y-105004151D01*
X320776457Y-105151343D01*
X320792089Y-105224611D01*
X320822506Y-105277894D01*
X320868751Y-105314919D01*
X320895650Y-105333795D01*
X320902364Y-105349541D01*
X320895502Y-105370661D01*
X320862431Y-105421989D01*
X320820225Y-105469207D01*
X320782655Y-105493430D01*
X320735709Y-105506392D01*
X320648199Y-105516511D01*
X320428747Y-105522831D01*
X320307961Y-105518872D01*
X320212501Y-105508177D01*
X320153239Y-105493450D01*
X320116241Y-105474447D01*
X320094898Y-105452398D01*
X320076674Y-105402182D01*
X320068611Y-105302005D01*
X320068611Y-104534564D01*
X320062383Y-104298991D01*
X320168962Y-104325649D01*
X320237688Y-104348359D01*
X320289508Y-104374510D01*
X320299604Y-104389300D01*
X320288191Y-104408436D01*
X320228254Y-104452315D01*
X320228254Y-104923184D01*
G37*
G36*
X319741722Y-104819778D02*
G01*
X319808950Y-104819778D01*
X319861524Y-104752550D01*
X319889110Y-104723490D01*
X319905487Y-104716830D01*
X319924298Y-104727158D01*
X319974730Y-104783050D01*
X320018810Y-104844884D01*
X320027303Y-104867039D01*
X320021695Y-104879918D01*
X320002116Y-104884899D01*
X319741722Y-104884899D01*
X319741722Y-105323346D01*
X320029410Y-105275077D01*
X320037745Y-105308691D01*
X319433610Y-105501674D01*
X319236783Y-105569124D01*
X319169370Y-105597111D01*
X319114782Y-105621200D01*
X319099028Y-105612774D01*
X319068620Y-105555071D01*
X319009910Y-105430416D01*
X319230370Y-105409441D01*
X319230370Y-104750810D01*
X319226156Y-104563598D01*
X319328043Y-104590229D01*
X319388914Y-104611866D01*
X319434128Y-104635968D01*
X319442494Y-104647587D01*
X319434308Y-104660127D01*
X319390013Y-104689536D01*
X319390013Y-105384254D01*
X319584186Y-105350640D01*
X319584186Y-104538777D01*
X319577866Y-104332605D01*
X319728075Y-104382980D01*
X319787382Y-104413915D01*
X319798417Y-104429234D01*
X319788991Y-104445004D01*
X319741722Y-104475396D01*
X319741722Y-104819778D01*
G37*
G36*
X320276523Y-105728270D02*
G01*
X320352177Y-105633748D01*
X320389556Y-105597747D01*
X320409879Y-105589693D01*
X320434718Y-105602004D01*
X320510629Y-105670568D01*
X320578409Y-105747342D01*
X320591504Y-105776630D01*
X320582894Y-105787624D01*
X320541129Y-105793391D01*
X319438190Y-105793391D01*
X319388693Y-105797467D01*
X319354292Y-105808046D01*
X319316465Y-105717737D01*
X319363815Y-105725542D01*
X319417124Y-105728270D01*
X320276523Y-105728270D01*
G37*
G36*
X320503302Y-106116341D02*
G01*
X320578956Y-106007073D01*
X320612532Y-105967105D01*
X320629331Y-105958805D01*
X320660678Y-105973113D01*
X320741622Y-106047007D01*
X320813167Y-106130269D01*
X320826710Y-106160397D01*
X320817331Y-106177986D01*
X320780548Y-106185584D01*
X319186223Y-106185584D01*
X319133071Y-106189763D01*
X319098112Y-106200330D01*
X319064498Y-106105808D01*
X319107004Y-106113430D01*
X319165157Y-106116341D01*
X320503302Y-106116341D01*
G37*
D12*
G36*
X317860123Y-102233129D02*
G01*
X317893259Y-102274515D01*
X317890898Y-102298953D01*
X317868221Y-102312764D01*
X317820922Y-102308722D01*
X317784530Y-102307379D01*
X317736902Y-102321423D01*
X317666927Y-102359158D01*
X317557750Y-102426325D01*
X317353319Y-102545394D01*
X317129348Y-102655913D01*
X317129348Y-102871580D01*
X317134549Y-102921970D01*
X317148888Y-102961217D01*
X317175280Y-102989300D01*
X317218986Y-103003105D01*
X317333658Y-103012997D01*
X317468113Y-103017149D01*
X317595486Y-103015805D01*
X317689397Y-103008722D01*
X317781721Y-102987717D01*
X317811365Y-102968559D01*
X317837653Y-102931786D01*
X317857171Y-102882450D01*
X317876854Y-102801604D01*
X317918986Y-102557972D01*
X317983344Y-102557972D01*
X317983344Y-102732972D01*
X318001540Y-102852040D01*
X318030849Y-102927634D01*
X318049774Y-102952043D01*
X318070172Y-102966712D01*
X318110653Y-102996709D01*
X318126103Y-103019957D01*
X318124001Y-103047894D01*
X318092520Y-103103977D01*
X318038514Y-103163316D01*
X317976260Y-103197766D01*
X317900034Y-103215294D01*
X317778912Y-103224389D01*
X317368706Y-103228663D01*
X317151697Y-103215962D01*
X317072474Y-103200603D01*
X317017363Y-103180913D01*
X316971714Y-103153425D01*
X316940304Y-103122173D01*
X316918369Y-103084665D01*
X316905256Y-103040962D01*
X316896951Y-102938747D01*
X316896951Y-102756786D01*
X316650144Y-102843614D01*
X316383675Y-102921894D01*
X316380866Y-102877197D01*
X316636100Y-102753977D01*
X316896951Y-102608408D01*
X316896951Y-102115526D01*
X316888525Y-101832815D01*
X317031285Y-101863590D01*
X317154505Y-101897173D01*
X317218821Y-101924108D01*
X317230099Y-101943335D01*
X317212901Y-101969049D01*
X317129348Y-102034315D01*
X317129348Y-102459909D01*
X317402290Y-102256943D01*
X317528028Y-102149596D01*
X317638961Y-102042742D01*
X317749481Y-102136653D01*
X317860123Y-102233129D01*
G37*
G36*
X316994893Y-103252355D02*
G01*
X317068930Y-103286513D01*
X317080256Y-103305599D01*
X317062186Y-103327763D01*
X316978162Y-103378384D01*
X316978162Y-103574389D01*
X317778912Y-103574389D01*
X317882593Y-103426011D01*
X317908341Y-103395540D01*
X317924481Y-103386810D01*
X317943481Y-103391323D01*
X317986152Y-103420394D01*
X318060280Y-103484752D01*
X318159687Y-103574389D01*
X318193989Y-103613227D01*
X318197544Y-103634595D01*
X318183031Y-103648999D01*
X318140147Y-103655599D01*
X316978162Y-103655599D01*
X316978162Y-103985938D01*
X316979505Y-104148359D01*
X316983780Y-104299546D01*
X316976313Y-104333281D01*
X316955692Y-104352791D01*
X316847859Y-104403105D01*
X316745765Y-104434001D01*
X316723659Y-104430124D01*
X316714990Y-104397609D01*
X316719143Y-104278541D01*
X316721829Y-104180477D01*
X316723295Y-104088154D01*
X316723295Y-103985938D01*
X316723295Y-103655599D01*
X315773923Y-103655599D01*
X315706634Y-103661217D01*
X315656320Y-103675139D01*
X315605884Y-103560345D01*
X315674516Y-103571580D01*
X315745957Y-103574389D01*
X316723417Y-103574389D01*
X316723417Y-103456786D01*
X316721951Y-103286060D01*
X316717921Y-103179570D01*
X316869336Y-103212777D01*
X316994893Y-103252355D01*
G37*
G36*
X316589816Y-101958722D02*
G01*
X316625395Y-101993818D01*
X316629017Y-102018928D01*
X316613288Y-102038553D01*
X316575772Y-102048359D01*
X316551836Y-102053977D01*
X316509582Y-102082065D01*
X316442171Y-102152040D01*
X316342276Y-102286374D01*
X316397075Y-102301430D01*
X316408099Y-102312997D01*
X316399272Y-102327622D01*
X316347893Y-102359158D01*
X316347893Y-103230006D01*
X316342276Y-103269207D01*
X316317119Y-103291555D01*
X316235908Y-103336374D01*
X316143462Y-103369957D01*
X316116840Y-103368614D01*
X316109879Y-103336374D01*
X316115496Y-103178227D01*
X316119648Y-103057815D01*
X316121114Y-102954134D01*
X316121114Y-102846301D01*
X316121114Y-102566398D01*
X315995085Y-102702197D01*
X315859286Y-102836531D01*
X315723487Y-102961217D01*
X315594648Y-103061967D01*
X315563874Y-103025575D01*
X315728257Y-102836471D01*
X315876910Y-102644272D01*
X316010472Y-102448796D01*
X316189541Y-102141012D01*
X316345085Y-101813154D01*
X316480029Y-101884595D01*
X316589816Y-101958722D01*
G37*
G36*
X316713647Y-105460261D02*
G01*
X315743514Y-105460261D01*
X315672661Y-105465836D01*
X315626156Y-105479923D01*
X315553371Y-105367815D01*
X315614996Y-105378067D01*
X315693323Y-105381859D01*
X317705884Y-105381859D01*
X317843148Y-105199776D01*
X317879283Y-105164760D01*
X317911658Y-105154957D01*
X317955179Y-105173520D01*
X318081041Y-105272560D01*
X318193855Y-105385290D01*
X318215496Y-105429364D01*
X318209183Y-105443772D01*
X318185536Y-105454991D01*
X318128546Y-105460261D01*
X317024324Y-105460261D01*
X316891880Y-105713897D01*
X316735995Y-105951555D01*
X317610629Y-105951555D01*
X317694526Y-105822473D01*
X317719857Y-105796464D01*
X317746306Y-105788768D01*
X317783492Y-105804932D01*
X317894805Y-105892571D01*
X317997391Y-105989603D01*
X318013874Y-106015791D01*
X317993885Y-106041145D01*
X317882349Y-106094315D01*
X317882349Y-107375247D01*
X317874060Y-107490720D01*
X317855605Y-107547316D01*
X317817429Y-107591405D01*
X317732140Y-107652218D01*
X317642170Y-107700969D01*
X317607332Y-107710959D01*
X317586221Y-107699820D01*
X317570939Y-107654905D01*
X317543974Y-107573158D01*
X317500720Y-107514954D01*
X317432537Y-107468376D01*
X317290427Y-107405900D01*
X317301662Y-107349846D01*
X317478703Y-107384339D01*
X317547370Y-107391733D01*
X317592978Y-107385981D01*
X317610629Y-107373537D01*
X317618427Y-107351420D01*
X317621864Y-107307836D01*
X317621864Y-106032766D01*
X317259530Y-106032766D01*
X317259530Y-107033796D01*
X317262339Y-107229556D01*
X317267834Y-107335802D01*
X317260409Y-107355647D01*
X317231153Y-107381248D01*
X317162810Y-107415547D01*
X317039711Y-107458900D01*
X317027260Y-107451376D01*
X317021515Y-107419699D01*
X317021515Y-106032766D01*
X316699603Y-106032766D01*
X316699603Y-107358272D01*
X316692520Y-107398816D01*
X316646358Y-107432278D01*
X316541334Y-107479905D01*
X316464397Y-107503719D01*
X316456849Y-107498617D01*
X316453162Y-107475753D01*
X316458780Y-107344228D01*
X316464397Y-107098154D01*
X316464397Y-106032766D01*
X316152499Y-106032766D01*
X316152499Y-107545851D01*
X316146882Y-107585052D01*
X316092293Y-107618513D01*
X315980308Y-107668827D01*
X315904715Y-107694106D01*
X315895750Y-107689899D01*
X315892136Y-107674567D01*
X315900563Y-107512267D01*
X315906058Y-107285732D01*
X315906058Y-106062930D01*
X315900563Y-105797194D01*
X316098976Y-105884125D01*
X316199882Y-105951555D01*
X316579191Y-105951555D01*
X316637830Y-105790551D01*
X316682577Y-105626957D01*
X316713647Y-105460261D01*
G37*
G36*
X316703023Y-108952885D02*
G01*
X315773434Y-108952885D01*
X315706050Y-108956669D01*
X315653023Y-108966929D01*
X315599778Y-108846517D01*
X315661510Y-108856771D01*
X315739851Y-108860561D01*
X317526243Y-108860561D01*
X317677429Y-108639277D01*
X317703046Y-108609525D01*
X317717974Y-108602885D01*
X317738240Y-108609999D01*
X317799184Y-108647703D01*
X317920939Y-108741493D01*
X318014729Y-108836747D01*
X318045442Y-108881347D01*
X318052586Y-108905258D01*
X318046461Y-108931565D01*
X318029247Y-108946916D01*
X317996655Y-108952885D01*
X317027865Y-108952885D01*
X316925132Y-109146813D01*
X316842974Y-109286154D01*
X316907219Y-109326551D01*
X316962042Y-109353321D01*
X317004823Y-109381249D01*
X317016630Y-109412061D01*
X317001170Y-109443307D01*
X316935420Y-109482159D01*
X316935420Y-110660875D01*
X316938228Y-110848454D01*
X316941037Y-110949326D01*
X316932863Y-110977946D01*
X316904455Y-111008164D01*
X316844439Y-111041650D01*
X316754196Y-111075800D01*
X316711449Y-111083659D01*
X316695359Y-111076331D01*
X316688979Y-111050076D01*
X316694596Y-110893272D01*
X316697405Y-110677728D01*
X316697405Y-109515742D01*
X316520979Y-109750079D01*
X316323317Y-109965658D01*
X316103456Y-110163368D01*
X315860066Y-110343752D01*
X315591473Y-110507002D01*
X315563385Y-110459375D01*
X315814513Y-110243653D01*
X316048104Y-110004649D01*
X316264729Y-109741179D01*
X316414841Y-109527842D01*
X316536148Y-109326061D01*
X316631401Y-109134774D01*
X316703023Y-108952885D01*
G37*
G36*
X317109076Y-109538091D02*
G01*
X317475260Y-109702130D01*
X317685734Y-109811154D01*
X317805572Y-109887247D01*
X317879148Y-109947279D01*
X317919596Y-109994458D01*
X317957806Y-110079339D01*
X317971376Y-110186311D01*
X317960799Y-110293594D01*
X317932175Y-110374012D01*
X317901791Y-110418962D01*
X317873330Y-110441386D01*
X317845346Y-110448140D01*
X317802423Y-110440971D01*
X317774027Y-110421517D01*
X317749129Y-110384888D01*
X317702586Y-110294144D01*
X317621235Y-110140491D01*
X317519716Y-109993639D01*
X317396663Y-109852915D01*
X317250240Y-109717918D01*
X317078180Y-109588527D01*
X317109076Y-109538091D01*
G37*
G36*
X317895660Y-114320439D02*
G01*
X317887510Y-114389171D01*
X317864886Y-114442438D01*
X317830530Y-114480793D01*
X317797719Y-114491531D01*
X317767481Y-114486548D01*
X317734704Y-114470404D01*
X317704267Y-114444905D01*
X317671690Y-114404458D01*
X317528808Y-114223597D01*
X317384582Y-114073387D01*
X317303676Y-114006184D01*
X317210926Y-113941618D01*
X316979994Y-113812536D01*
X316905022Y-113914754D01*
X316804681Y-114014613D01*
X316674951Y-114112449D01*
X316510926Y-114208087D01*
X316285312Y-114310689D01*
X316002466Y-114411251D01*
X315652900Y-114508262D01*
X315633239Y-114455017D01*
X315913010Y-114341682D01*
X316141779Y-114230706D01*
X316326278Y-114122480D01*
X316499273Y-113996484D01*
X316629999Y-113873695D01*
X316725126Y-113753551D01*
X316764327Y-113692002D01*
X316795224Y-113621782D01*
X315778930Y-113621782D01*
X315715915Y-113631674D01*
X315664136Y-113652679D01*
X315591351Y-113526528D01*
X315678057Y-113530802D01*
X315759268Y-113532145D01*
X316823190Y-113532145D01*
X316849812Y-113381081D01*
X316870817Y-113162972D01*
X316884861Y-112858035D01*
X316896096Y-112441112D01*
X317071827Y-112490243D01*
X317215322Y-112541740D01*
X317260771Y-112567658D01*
X317271253Y-112588024D01*
X317261843Y-112607819D01*
X317223748Y-112628569D01*
X317183168Y-112649210D01*
X317166229Y-112670456D01*
X317150842Y-112757285D01*
X317113106Y-113249556D01*
X317078057Y-113534954D01*
X317643602Y-113534954D01*
X317772318Y-113350062D01*
X317799452Y-113320259D01*
X317822754Y-113309518D01*
X317849301Y-113314256D01*
X317895538Y-113344567D01*
X318008137Y-113440977D01*
X318108396Y-113543380D01*
X318139055Y-113588307D01*
X318141979Y-113606395D01*
X318128789Y-113616469D01*
X318080430Y-113621782D01*
X317058396Y-113621782D01*
X317034582Y-113700306D01*
X317005273Y-113764909D01*
X317281170Y-113853775D01*
X317471533Y-113922079D01*
X317634966Y-113992607D01*
X317740322Y-114052505D01*
X317822226Y-114119626D01*
X317864886Y-114178778D01*
X317887753Y-114244788D01*
X317895660Y-114320439D01*
G37*
G36*
X316025249Y-112172323D02*
G01*
X316036484Y-112249382D01*
X316047719Y-112320701D01*
X316798033Y-112320701D01*
X316758710Y-112173666D01*
X316715357Y-112065955D01*
X316658082Y-111979127D01*
X316574062Y-111895107D01*
X316593724Y-111844671D01*
X316757684Y-111886266D01*
X316869352Y-111923073D01*
X316962574Y-111966983D01*
X317017729Y-112008558D01*
X317051927Y-112057821D01*
X317059739Y-112107965D01*
X317047697Y-112160881D01*
X317016386Y-112222759D01*
X316971222Y-112275126D01*
X316901592Y-112320701D01*
X317677307Y-112320701D01*
X317761327Y-112205906D01*
X317790122Y-112174209D01*
X317808832Y-112166706D01*
X317830834Y-112171515D01*
X317873312Y-112191863D01*
X317990915Y-112267456D01*
X318100092Y-112357093D01*
X318128912Y-112393563D01*
X318130866Y-112417299D01*
X318112153Y-112433715D01*
X318049655Y-112443921D01*
X317974062Y-112456500D01*
X317940520Y-112471006D01*
X317898469Y-112499853D01*
X317793445Y-112596451D01*
X317629680Y-112765711D01*
X317584861Y-112740432D01*
X317653494Y-112569828D01*
X317708082Y-112399103D01*
X316053337Y-112399103D01*
X316047994Y-112540095D01*
X316023905Y-112641269D01*
X315978418Y-112726743D01*
X315913263Y-112793921D01*
X315880491Y-112815541D01*
X315843288Y-112830313D01*
X315767695Y-112838740D01*
X315700528Y-112821887D01*
X315672906Y-112804794D01*
X315652900Y-112782686D01*
X315640828Y-112745942D01*
X315646254Y-112709385D01*
X315671649Y-112669355D01*
X315725685Y-112623073D01*
X315818074Y-112541813D01*
X315885297Y-112446730D01*
X315932791Y-112333270D01*
X315972126Y-112172323D01*
X316025249Y-112172323D01*
G37*
G36*
X316506896Y-113344811D02*
G01*
X316484067Y-113396924D01*
X316449498Y-113441287D01*
X316408388Y-113473324D01*
X316378057Y-113481831D01*
X316342737Y-113476704D01*
X316322004Y-113463635D01*
X316307599Y-113440370D01*
X316291351Y-113392316D01*
X316254352Y-113283390D01*
X316210018Y-113197777D01*
X316151974Y-113120780D01*
X316070067Y-113039752D01*
X316092538Y-112989438D01*
X316232933Y-113035993D01*
X316330430Y-113076144D01*
X316413063Y-113120711D01*
X316464886Y-113160041D01*
X316501245Y-113204465D01*
X316516665Y-113246870D01*
X316517890Y-113292403D01*
X316506896Y-113344811D01*
G37*
G36*
X316669317Y-112880383D02*
G01*
X316644148Y-112936962D01*
X316610454Y-112979668D01*
X316570681Y-113009365D01*
X316540479Y-113017403D01*
X316512823Y-113013441D01*
X316497126Y-113003482D01*
X316464886Y-112925080D01*
X316422876Y-112801981D01*
X316380866Y-112712466D01*
X316330430Y-112639682D01*
X316263263Y-112569828D01*
X316288542Y-112522201D01*
X316420342Y-112574441D01*
X316509704Y-112618799D01*
X316584353Y-112666872D01*
X316631459Y-112708314D01*
X316663980Y-112753238D01*
X316676278Y-112793677D01*
X316669317Y-112880383D01*
G37*
G36*
X316855919Y-116329410D02*
G01*
X316914797Y-116336891D01*
X316967374Y-116358956D01*
X317015409Y-116396576D01*
X317053040Y-116444685D01*
X317075100Y-116497265D01*
X317082576Y-116556067D01*
X317075106Y-116614793D01*
X317053051Y-116667376D01*
X317015409Y-116715558D01*
X316967374Y-116753178D01*
X316914797Y-116775243D01*
X316855919Y-116782724D01*
X316797036Y-116775245D01*
X316744417Y-116753182D01*
X316696306Y-116715558D01*
X316658737Y-116667385D01*
X316636720Y-116614801D01*
X316629261Y-116556067D01*
X316636726Y-116497257D01*
X316658748Y-116444676D01*
X316696306Y-116396576D01*
X316744417Y-116358952D01*
X316797036Y-116336889D01*
X316855919Y-116329410D01*
G37*
G36*
X317895660Y-121040439D02*
G01*
X317887510Y-121109171D01*
X317864886Y-121162438D01*
X317830530Y-121200793D01*
X317797719Y-121211531D01*
X317767481Y-121206548D01*
X317734704Y-121190404D01*
X317704267Y-121164905D01*
X317671690Y-121124458D01*
X317528808Y-120943597D01*
X317384582Y-120793387D01*
X317303676Y-120726184D01*
X317210926Y-120661618D01*
X316979994Y-120532536D01*
X316905022Y-120634754D01*
X316804681Y-120734613D01*
X316674951Y-120832449D01*
X316510926Y-120928087D01*
X316285312Y-121030689D01*
X316002466Y-121131251D01*
X315652900Y-121228262D01*
X315633239Y-121175017D01*
X315913010Y-121061682D01*
X316141779Y-120950706D01*
X316326278Y-120842480D01*
X316499273Y-120716484D01*
X316629999Y-120593695D01*
X316725126Y-120473551D01*
X316764327Y-120412002D01*
X316795224Y-120341782D01*
X315778930Y-120341782D01*
X315715915Y-120351674D01*
X315664136Y-120372679D01*
X315591351Y-120246528D01*
X315678057Y-120250802D01*
X315759268Y-120252145D01*
X316823190Y-120252145D01*
X316849812Y-120101081D01*
X316870817Y-119882972D01*
X316884861Y-119578035D01*
X316896096Y-119161112D01*
X317071827Y-119210243D01*
X317215322Y-119261740D01*
X317260771Y-119287658D01*
X317271253Y-119308024D01*
X317261843Y-119327819D01*
X317223748Y-119348569D01*
X317183168Y-119369210D01*
X317166229Y-119390456D01*
X317150842Y-119477285D01*
X317113106Y-119969556D01*
X317078057Y-120254954D01*
X317643602Y-120254954D01*
X317772318Y-120070062D01*
X317799452Y-120040259D01*
X317822754Y-120029518D01*
X317849301Y-120034256D01*
X317895538Y-120064567D01*
X318008137Y-120160977D01*
X318108396Y-120263380D01*
X318139055Y-120308307D01*
X318141979Y-120326395D01*
X318128789Y-120336469D01*
X318080430Y-120341782D01*
X317058396Y-120341782D01*
X317034582Y-120420306D01*
X317005273Y-120484909D01*
X317281170Y-120573775D01*
X317471533Y-120642079D01*
X317634966Y-120712607D01*
X317740322Y-120772505D01*
X317822226Y-120839626D01*
X317864886Y-120898778D01*
X317887753Y-120964788D01*
X317895660Y-121040439D01*
G37*
G36*
X316025249Y-118892323D02*
G01*
X316036484Y-118969382D01*
X316047719Y-119040701D01*
X316798033Y-119040701D01*
X316758710Y-118893666D01*
X316715357Y-118785955D01*
X316658082Y-118699127D01*
X316574062Y-118615107D01*
X316593724Y-118564671D01*
X316757684Y-118606266D01*
X316869352Y-118643073D01*
X316962574Y-118686983D01*
X317017729Y-118728558D01*
X317051927Y-118777821D01*
X317059739Y-118827965D01*
X317047697Y-118880881D01*
X317016386Y-118942759D01*
X316971222Y-118995126D01*
X316901592Y-119040701D01*
X317677307Y-119040701D01*
X317761327Y-118925906D01*
X317790122Y-118894209D01*
X317808832Y-118886706D01*
X317830834Y-118891515D01*
X317873312Y-118911863D01*
X317990915Y-118987456D01*
X318100092Y-119077093D01*
X318128912Y-119113563D01*
X318130866Y-119137299D01*
X318112153Y-119153715D01*
X318049655Y-119163921D01*
X317974062Y-119176500D01*
X317940520Y-119191006D01*
X317898469Y-119219853D01*
X317793445Y-119316451D01*
X317629680Y-119485711D01*
X317584861Y-119460432D01*
X317653494Y-119289828D01*
X317708082Y-119119103D01*
X316053337Y-119119103D01*
X316047994Y-119260095D01*
X316023905Y-119361269D01*
X315978418Y-119446743D01*
X315913263Y-119513921D01*
X315880491Y-119535541D01*
X315843288Y-119550313D01*
X315767695Y-119558740D01*
X315700528Y-119541887D01*
X315672906Y-119524794D01*
X315652900Y-119502686D01*
X315640828Y-119465942D01*
X315646254Y-119429385D01*
X315671649Y-119389355D01*
X315725685Y-119343073D01*
X315818074Y-119261813D01*
X315885297Y-119166730D01*
X315932791Y-119053270D01*
X315972126Y-118892323D01*
X316025249Y-118892323D01*
G37*
G36*
X316506896Y-120064811D02*
G01*
X316484067Y-120116924D01*
X316449498Y-120161287D01*
X316408388Y-120193324D01*
X316378057Y-120201831D01*
X316342737Y-120196704D01*
X316322004Y-120183635D01*
X316307599Y-120160370D01*
X316291351Y-120112316D01*
X316254352Y-120003390D01*
X316210018Y-119917777D01*
X316151974Y-119840780D01*
X316070067Y-119759752D01*
X316092538Y-119709438D01*
X316232933Y-119755993D01*
X316330430Y-119796144D01*
X316413063Y-119840711D01*
X316464886Y-119880041D01*
X316501245Y-119924465D01*
X316516665Y-119966870D01*
X316517890Y-120012403D01*
X316506896Y-120064811D01*
G37*
G36*
X316669317Y-119600383D02*
G01*
X316644148Y-119656962D01*
X316610454Y-119699668D01*
X316570681Y-119729365D01*
X316540479Y-119737403D01*
X316512823Y-119733441D01*
X316497126Y-119723482D01*
X316464886Y-119645080D01*
X316422876Y-119521981D01*
X316380866Y-119432466D01*
X316330430Y-119359682D01*
X316263263Y-119289828D01*
X316288542Y-119242201D01*
X316420342Y-119294441D01*
X316509704Y-119338799D01*
X316584353Y-119386872D01*
X316631459Y-119428314D01*
X316663980Y-119473238D01*
X316676278Y-119513677D01*
X316669317Y-119600383D01*
G37*
G36*
X316713647Y-122260261D02*
G01*
X315743514Y-122260261D01*
X315672661Y-122265836D01*
X315626156Y-122279923D01*
X315553371Y-122167815D01*
X315614996Y-122178067D01*
X315693323Y-122181859D01*
X317705884Y-122181859D01*
X317843148Y-121999776D01*
X317879283Y-121964760D01*
X317911658Y-121954957D01*
X317955179Y-121973520D01*
X318081041Y-122072560D01*
X318193855Y-122185290D01*
X318215496Y-122229364D01*
X318209183Y-122243772D01*
X318185536Y-122254991D01*
X318128546Y-122260261D01*
X317024324Y-122260261D01*
X316891880Y-122513897D01*
X316735995Y-122751555D01*
X317610629Y-122751555D01*
X317694526Y-122622473D01*
X317719857Y-122596464D01*
X317746306Y-122588768D01*
X317783492Y-122604932D01*
X317894805Y-122692571D01*
X317997391Y-122789603D01*
X318013874Y-122815791D01*
X317993885Y-122841145D01*
X317882349Y-122894315D01*
X317882349Y-124175247D01*
X317874060Y-124290720D01*
X317855605Y-124347316D01*
X317817429Y-124391405D01*
X317732140Y-124452218D01*
X317642170Y-124500969D01*
X317607332Y-124510959D01*
X317586221Y-124499820D01*
X317570939Y-124454905D01*
X317543974Y-124373158D01*
X317500720Y-124314954D01*
X317432537Y-124268376D01*
X317290427Y-124205900D01*
X317301662Y-124149846D01*
X317478703Y-124184339D01*
X317547370Y-124191733D01*
X317592978Y-124185981D01*
X317610629Y-124173537D01*
X317618427Y-124151420D01*
X317621864Y-124107836D01*
X317621864Y-122832766D01*
X317259530Y-122832766D01*
X317259530Y-123833796D01*
X317262339Y-124029556D01*
X317267834Y-124135802D01*
X317260409Y-124155647D01*
X317231153Y-124181248D01*
X317162810Y-124215547D01*
X317039711Y-124258900D01*
X317027260Y-124251376D01*
X317021515Y-124219699D01*
X317021515Y-122832766D01*
X316699603Y-122832766D01*
X316699603Y-124158272D01*
X316692520Y-124198816D01*
X316646358Y-124232278D01*
X316541334Y-124279905D01*
X316464397Y-124303719D01*
X316456849Y-124298617D01*
X316453162Y-124275753D01*
X316458780Y-124144228D01*
X316464397Y-123898154D01*
X316464397Y-122832766D01*
X316152499Y-122832766D01*
X316152499Y-124345851D01*
X316146882Y-124385052D01*
X316092293Y-124418513D01*
X315980308Y-124468827D01*
X315904715Y-124494106D01*
X315895750Y-124489899D01*
X315892136Y-124474567D01*
X315900563Y-124312267D01*
X315906058Y-124085732D01*
X315906058Y-122862930D01*
X315900563Y-122597194D01*
X316098976Y-122684125D01*
X316199882Y-122751555D01*
X316579191Y-122751555D01*
X316637830Y-122590551D01*
X316682577Y-122426957D01*
X316713647Y-122260261D01*
G37*
G36*
X316703023Y-125752885D02*
G01*
X315773434Y-125752885D01*
X315706050Y-125756669D01*
X315653023Y-125766929D01*
X315599778Y-125646517D01*
X315661510Y-125656771D01*
X315739851Y-125660561D01*
X317526243Y-125660561D01*
X317677429Y-125439277D01*
X317703046Y-125409525D01*
X317717974Y-125402885D01*
X317738240Y-125409999D01*
X317799184Y-125447703D01*
X317920939Y-125541493D01*
X318014729Y-125636747D01*
X318045442Y-125681347D01*
X318052586Y-125705258D01*
X318046461Y-125731565D01*
X318029247Y-125746916D01*
X317996655Y-125752885D01*
X317027865Y-125752885D01*
X316925132Y-125946813D01*
X316842974Y-126086154D01*
X316907219Y-126126551D01*
X316962042Y-126153321D01*
X317004823Y-126181249D01*
X317016630Y-126212061D01*
X317001170Y-126243307D01*
X316935420Y-126282159D01*
X316935420Y-127460875D01*
X316938228Y-127648454D01*
X316941037Y-127749326D01*
X316932863Y-127777946D01*
X316904455Y-127808164D01*
X316844439Y-127841650D01*
X316754196Y-127875800D01*
X316711449Y-127883659D01*
X316695359Y-127876331D01*
X316688979Y-127850076D01*
X316694596Y-127693272D01*
X316697405Y-127477728D01*
X316697405Y-126315742D01*
X316520979Y-126550079D01*
X316323317Y-126765658D01*
X316103456Y-126963368D01*
X315860066Y-127143752D01*
X315591473Y-127307002D01*
X315563385Y-127259375D01*
X315814513Y-127043653D01*
X316048104Y-126804649D01*
X316264729Y-126541179D01*
X316414841Y-126327842D01*
X316536148Y-126126061D01*
X316631401Y-125934774D01*
X316703023Y-125752885D01*
G37*
G36*
X317109076Y-126338091D02*
G01*
X317475260Y-126502130D01*
X317685734Y-126611154D01*
X317805572Y-126687247D01*
X317879148Y-126747279D01*
X317919596Y-126794458D01*
X317957806Y-126879339D01*
X317971376Y-126986311D01*
X317960799Y-127093594D01*
X317932175Y-127174012D01*
X317901791Y-127218962D01*
X317873330Y-127241386D01*
X317845346Y-127248140D01*
X317802423Y-127240971D01*
X317774027Y-127221517D01*
X317749129Y-127184888D01*
X317702586Y-127094144D01*
X317621235Y-126940491D01*
X317519716Y-126793639D01*
X317396663Y-126652915D01*
X317250240Y-126517918D01*
X317078180Y-126388527D01*
X317109076Y-126338091D01*
G37*
G36*
X317860123Y-129113129D02*
G01*
X317893259Y-129154515D01*
X317890898Y-129178953D01*
X317868221Y-129192764D01*
X317820922Y-129188722D01*
X317784530Y-129187379D01*
X317736902Y-129201423D01*
X317666927Y-129239158D01*
X317557750Y-129306325D01*
X317353319Y-129425394D01*
X317129348Y-129535913D01*
X317129348Y-129751580D01*
X317134549Y-129801970D01*
X317148888Y-129841217D01*
X317175280Y-129869300D01*
X317218986Y-129883105D01*
X317333658Y-129892997D01*
X317468113Y-129897149D01*
X317595486Y-129895805D01*
X317689397Y-129888722D01*
X317781721Y-129867717D01*
X317811365Y-129848559D01*
X317837653Y-129811786D01*
X317857171Y-129762450D01*
X317876854Y-129681604D01*
X317918986Y-129437972D01*
X317983344Y-129437972D01*
X317983344Y-129612972D01*
X318001540Y-129732040D01*
X318030849Y-129807634D01*
X318049774Y-129832043D01*
X318070172Y-129846712D01*
X318110653Y-129876709D01*
X318126103Y-129899957D01*
X318124001Y-129927894D01*
X318092520Y-129983977D01*
X318038514Y-130043316D01*
X317976260Y-130077766D01*
X317900034Y-130095294D01*
X317778912Y-130104389D01*
X317368706Y-130108663D01*
X317151697Y-130095962D01*
X317072474Y-130080603D01*
X317017363Y-130060913D01*
X316971714Y-130033425D01*
X316940304Y-130002173D01*
X316918369Y-129964665D01*
X316905256Y-129920962D01*
X316896951Y-129818747D01*
X316896951Y-129636786D01*
X316650144Y-129723614D01*
X316383675Y-129801894D01*
X316380866Y-129757197D01*
X316636100Y-129633977D01*
X316896951Y-129488408D01*
X316896951Y-128995526D01*
X316888525Y-128712815D01*
X317031285Y-128743590D01*
X317154505Y-128777173D01*
X317218821Y-128804108D01*
X317230099Y-128823335D01*
X317212901Y-128849049D01*
X317129348Y-128914315D01*
X317129348Y-129339909D01*
X317402290Y-129136943D01*
X317528028Y-129029596D01*
X317638961Y-128922742D01*
X317749481Y-129016653D01*
X317860123Y-129113129D01*
G37*
G36*
X316994893Y-130132355D02*
G01*
X317068930Y-130166513D01*
X317080256Y-130185599D01*
X317062186Y-130207763D01*
X316978162Y-130258384D01*
X316978162Y-130454389D01*
X317778912Y-130454389D01*
X317882593Y-130306011D01*
X317908341Y-130275540D01*
X317924481Y-130266810D01*
X317943481Y-130271323D01*
X317986152Y-130300394D01*
X318060280Y-130364752D01*
X318159687Y-130454389D01*
X318193989Y-130493227D01*
X318197544Y-130514595D01*
X318183031Y-130528999D01*
X318140147Y-130535599D01*
X316978162Y-130535599D01*
X316978162Y-130865938D01*
X316979505Y-131028359D01*
X316983780Y-131179546D01*
X316976313Y-131213281D01*
X316955692Y-131232791D01*
X316847859Y-131283105D01*
X316745765Y-131314001D01*
X316723659Y-131310124D01*
X316714990Y-131277609D01*
X316719143Y-131158541D01*
X316721829Y-131060477D01*
X316723295Y-130968154D01*
X316723295Y-130865938D01*
X316723295Y-130535599D01*
X315773923Y-130535599D01*
X315706634Y-130541217D01*
X315656320Y-130555139D01*
X315605884Y-130440345D01*
X315674516Y-130451580D01*
X315745957Y-130454389D01*
X316723417Y-130454389D01*
X316723417Y-130336786D01*
X316721951Y-130166060D01*
X316717921Y-130059570D01*
X316869336Y-130092777D01*
X316994893Y-130132355D01*
G37*
G36*
X316589816Y-128838722D02*
G01*
X316625395Y-128873818D01*
X316629017Y-128898928D01*
X316613288Y-128918553D01*
X316575772Y-128928359D01*
X316551836Y-128933977D01*
X316509582Y-128962065D01*
X316442171Y-129032040D01*
X316342276Y-129166374D01*
X316397075Y-129181430D01*
X316408099Y-129192997D01*
X316399272Y-129207622D01*
X316347893Y-129239158D01*
X316347893Y-130110006D01*
X316342276Y-130149207D01*
X316317119Y-130171555D01*
X316235908Y-130216374D01*
X316143462Y-130249957D01*
X316116840Y-130248614D01*
X316109879Y-130216374D01*
X316115496Y-130058227D01*
X316119648Y-129937815D01*
X316121114Y-129834134D01*
X316121114Y-129726301D01*
X316121114Y-129446398D01*
X315995085Y-129582197D01*
X315859286Y-129716531D01*
X315723487Y-129841217D01*
X315594648Y-129941967D01*
X315563874Y-129905575D01*
X315728257Y-129716471D01*
X315876910Y-129524272D01*
X316010472Y-129328796D01*
X316189541Y-129021012D01*
X316345085Y-128693154D01*
X316480029Y-128764595D01*
X316589816Y-128838722D01*
G37*
M02*
